<svg id="Layer_8" data-name="Layer 8" xmlns="http://www.w3.org/2000/svg" viewBox="0 0 683 219.42"><defs><style>.cls-1{fill:#212b40;}</style></defs><title>craft_beer_craft_goods</title><path class="cls-1" d="M1832.14,2178l-1.14-1.54-0.87-3.28c0-.47-0.13-2.14-0.13-2.41v-22.51c-0.07-1.94-.07-3.28-0.07-5.23v-1.47l0.6-4,1-1.67,1.54-1.41,1.61-.74,3.42-.6H1839c1.14,0,2.28-.07,3.42-0.07s2.28,0.07,3.48.07c0.54,0,.94-0.07,1.41-0.07l0.27,0.07a0.61,0.61,0,0,0,.34-0.07h6l3.55,0.74,0.54,0.27,2.55,2.68,1,3.08v2.41c0,0.07-.07.2-0.07,0.27v0.13c0,0.8.13,4.42,0.2,5.23a0.64,0.64,0,0,1,.13.47,0.75,0.75,0,0,1-.47.67l-7.3,1.68a0.49,0.49,0,0,1-.47-0.6c0-2.88.13-5.9,0.13-8.84v-0.87c0-.4-1-0.4-1.41-0.4a5.82,5.82,0,0,0-1.07.07h-6.43c-1.67,0-3.35.07-5,.07h-1.21a0.56,0.56,0,0,0-.27.47c0,4.49-.13,9-0.13,13.53,0,6.1.07,12.4,0.33,18.63,0,0.4.47,0.47,0.8,0.47,1.47,0,2.95-.07,4.42-0.07h9.71c0.4,0,.47-0.54.47-0.87,0-3.69-.33-7.3-0.33-11,0-.54.13-0.8,0.67-0.8l7.1,1.47a0.81,0.81,0,0,1,.6.94c0,1.21-.13,2.41-0.13,3.62s0.07,2.68.07,4c0,0.4-.2.8-0.2,1.14s0.13,0.54.13,0.94a5.58,5.58,0,0,1-.2,1.94l-0.74,1.94-2.08,2.14-2.41,1.27-3,.34h-12.8l-0.2.07c-1.21-.07-3.89-0.13-3.89-0.13l-2.21-.67Z" transform="translate(-1829.93 -2082.01)"/><path class="cls-1" d="M1881.76,2178.61c0-1.54,0-2.41.07-4.22V2156.7c0.2-2.68.2-5.36,0.2-8.11,0-5.09-.2-10.12-0.2-15.21a0.69,0.69,0,0,1,.47-0.8h1.54c0.74,0,1.61,0,2.41.07h7.5c0.27,0,1.21-.07,1.47-0.07h0.07l0.6,0.07H1896a0.72,0.72,0,0,0,.4-0.07l9.58,0.07,2.41,0.4,1.94,0.8a9.73,9.73,0,0,1,2.75,3.15l0.47,1.27,0.27,2.41v10.38c0,0.07.07,0.6,0.07,0.8v0.07c0,1.21-.07,2.21-0.07,3.35l-0.8,2.41-0.47.74-2.35,1.88-1.61.67c-0.74.33-4.56,0.27-4.56,0.6v0.07a0.24,0.24,0,0,0,.07.2l12.26,17.76a0.68,0.68,0,0,1-.4.6h-0.4a7.65,7.65,0,0,1-1.21-.07h-2.75c-1.41,0-2.88.07-4.29,0.07a0.61,0.61,0,0,1-.67-0.2l-12.13-18.56a1.12,1.12,0,0,0-.4-0.2h-4a0.32,0.32,0,0,0-.33.33v0.6c0,3.08.13,6.23,0.13,9.31v1.14a0.25,0.25,0,0,0-.07.2c0,0.34.07,0.8,0.07,1.07,0,1.68-.2,3.28-0.2,5a7.23,7.23,0,0,0,.07,1.21,1.45,1.45,0,0,1-.67.13h-4.62a13,13,0,0,1-1.61.07h-0.67a0.49,0.49,0,0,1-.47-0.4v-1.27Zm8.51-24.39h13.27a2.37,2.37,0,0,0,2.08-.94l0.2-.2c0.13-1.07.13-5,.13-7.17v-3.82c-0.13-2.21-1.54-2.48-3.28-2.48-2.55,0-4.76.07-7.1,0.07h-0.07c-0.47,0-4.15-.13-4.56-0.13h-0.07c-0.4,0-1.07.07-1.07,0.54v13.6A0.43,0.43,0,0,0,1890.27,2154.22Z" transform="translate(-1829.93 -2082.01)"/><path class="cls-1" d="M1949.43,2133.58a0.64,0.64,0,0,1,.67-0.47c1.61,0,3,.07,4.62.07h1.21a1.13,1.13,0,0,1,.4.4l11.46,32.76v0.47l4.49,12.19a1.35,1.35,0,0,1,.27.87c0,0.34-.07.4-0.47,0.54h-0.8c-1.14,0-2.35-.13-3.48-0.13-0.87,0-1.74.13-2.61,0.13h-0.67a0.36,0.36,0,0,1-.27-0.27l-3.28-9.65a4.62,4.62,0,0,0-1.54-.2,2.77,2.77,0,0,0-.74.07l-14.07-.07a1,1,0,0,0-.27.13l-3.22,9.58a1.08,1.08,0,0,1-.87.4h-6a0.63,0.63,0,0,1-.67-0.67Zm8.38,29.82h0.54a0.07,0.07,0,0,0,.07-0.07l-5.7-18.22h-0.07c-0.07,0-.13,0-0.13.07l-0.74,1.67-5,15.75v0.27a0.58,0.58,0,0,0,.27.47h2.75a8.62,8.62,0,0,0,1.34-.07C1952.25,2163.33,1956.8,2163.4,1957.81,2163.4Z" transform="translate(-1829.93 -2082.01)"/><path class="cls-1" d="M1990.37,2171.84c0-5.09-.07-10.12-0.07-15.21,0-4.62.07-9.11,0.07-13.74,0-2.81-.07-5.56-0.07-8.24,0-.74-0.07-1.61.87-1.61h19.16c2.61-.07,5-0.07,7.44-0.07h0.94a0.29,0.29,0,0,1,.27.27v1.07c0,0.74-.07,1.61-0.07,2.35s0.07,1.34.07,2.08c0,0.34.13,1.34-.4,1.34h-17.42l-2.21-.07a0.65,0.65,0,0,0-.54.67c0,2,.2,4,0.2,5.9,0,1.41-.07,2.75-0.07,4.15v0.94a0.68,0.68,0,0,0,.4.6h2.48a5.73,5.73,0,0,0,1.07-.07h1c2.08,0,4.22-.13,6.3-0.13,0.4,0,1.07,0,1.07.54,0,1.21-.07,2.28-0.07,3.48,0,0.94.07,1.81,0.07,2.88v0.67c-0.13.47-.2,0.54-0.67,0.54-1.61-.07-3,0-4.62-0.13h-6.63a0.63,0.63,0,0,0-.33.6v0.07c0,0.13.07,1.14,0.07,1.27v12.19c0,0.13-.07.67-0.07,0.8v0.07c0,1.41.13,2.81,0.13,4.09v0.6l-0.33.33a14.49,14.49,0,0,1-1.74.07c-0.74,0-1.81-.07-2.68-0.07s-2,.13-2.81.13c-0.54,0-.87-0.2-0.87-0.6C1990.37,2176.8,1990.37,2174.45,1990.37,2171.84Z" transform="translate(-1829.93 -2082.01)"/><path class="cls-1" d="M2046.58,2170.3v-4.89c0-.2-0.07-1.67-0.07-1.88,0-7.37.13-14.74,0.13-22.18v-1.27a1,1,0,0,0-.8-0.2c-1.54,0-3,.07-4.56.07h-3.22c-1.14,0-2.34.07-3.48,0.07h-0.4a0.56,0.56,0,0,1-.4-0.54v-5.83a0.78,0.78,0,0,1,.47-0.94h0.54c3.55,0,7.17.07,10.85,0.07h6.43c0.4,0,1.68-.07,1.94-0.07h0.07c0.8,0,1.47.07,2.21,0.07,3.48,0,7.1-.13,10.72-0.13a0.79,0.79,0,0,1,.94.6c0,1.14-.2,2.35-0.2,3.55,0,0.8.13,1.47,0.13,2.21v0.67l-0.27.27h-8.51c-1.07,0-2.21-.07-3.15-0.07a0.77,0.77,0,0,0-.94.74v0.07c0,0.27.07,1.54,0.07,1.74v12.13a4.43,4.43,0,0,1,.07.94,13.05,13.05,0,0,1-.13,1.61v4.29a9.5,9.5,0,0,1,.13,1.94v0.13c0,0.27-.13,1.54-0.13,1.81v2.81c0,1.94.07,4,.07,5.76,0,1.07-.07,2.08-0.07,2.95s0.07,1.74.07,2.61-0.8.8-1.34,0.8a7.89,7.89,0,0,1-1.74-.13,6.42,6.42,0,0,1-2.08.34c-0.8,0-1.74-.13-2.41-0.13h-0.74a1,1,0,0,1-.33-0.94C2046.45,2176.26,2046.58,2173.25,2046.58,2170.3Z" transform="translate(-1829.93 -2082.01)"/><path class="cls-1" d="M1878.85,2225.84c0-5.9-.07-12-0.07-17.89v-6.57l0.33-.34h1.61l0.74,0.07,1.81-.07h1.07c1.14,0,2.34.07,3.55,0.07,0.87,0,1.27,0,2.28-.07h12.4a1,1,0,0,0,.47.13c0.07,0,.13-0.07.2-0.07l2.95,0.87a9,9,0,0,1,2.81,2.41l1.07,2.28,0.47,2.55c0.07,0.74.07,1.47,0.07,2.21,0,1.54-.07,3-0.07,4.49,0,0.6-.33,1.27-0.33,1.88,0,0.13.07,0.2,0.07,0.4l-0.8,2.21-0.6.87-1.54,1.41-2,1a0.62,0.62,0,0,0-.2.34c0,0.07,0,.13.07,0.13l2.14,0.94,1.21,0.87,1.21,1.67,0.8,2.48s0.07,2.48.13,3.48v0.2a6.86,6.86,0,0,1-.07,1.14c0,0.67.07,3.82,0.07,4.49v0.07c-0.07,1.81,0,4.22-1.07,5.23l-2,1.88-1.47.87-3.22.67h-0.4c-1,0-1.94.13-2.88,0.13a9.52,9.52,0,0,1-1.34-.07c-2.55.07-3.48,0.07-5.56,0.07-2.55,0-5-.07-7.64-0.07-1.74,0-3.55.07-5.36,0.07h-0.67l-0.33-.27v-0.4C1878.72,2240.24,1878.85,2233.14,1878.85,2225.84Zm14.87-5c5,0,8.78-.27,8.78-4.56v-6.7c0-1.74-2.21-1.61-2.95-1.61h-12.4a1.73,1.73,0,0,0-.33.13v9.51c-0.07.94-.07,1.41-0.07,2.28v0.33a0.6,0.6,0,0,0,.4.4C1888.16,2220.75,1890.51,2220.81,1893.72,2220.81Zm-6.43,20.44h0.6c3.82,0,7.77-.07,11.73-0.07h0.54c0.94,0,2.28-.4,2.28-1.61v-7.3l-0.27-2.14c-0.2-2.21-3.75-2.41-5.36-2.41-1.94,0-4.49.2-5.09,0.2-1.14,0-2.35-.27-3.55-0.27h-1.07a0.8,0.8,0,0,0-.33.54v0.6c0,1.07.07,2.08,0.07,3.15v1.47a0.25,0.25,0,0,0-.07.2v0.07a0.33,0.33,0,0,0,.07.2V2236c0,1.61-.07,3.08-0.07,4.69A0.51,0.51,0,0,0,1887.29,2241.25Z" transform="translate(-1829.93 -2082.01)"/><path class="cls-1" d="M1930.67,2246.21a11.34,11.34,0,0,1,.27-3.35,0.23,0.23,0,0,0-.2-0.13v-25.53c0-.2-0.07-1.27-0.07-1.47v-0.2c0-1.94.07-3.89,0.07-5.7,0-2.28-.07-4.62-0.07-6.9v-1.07c0.07-.87.54-0.87,1.21-0.87a9.52,9.52,0,0,1,1.41.07h21.91c0.94-.07,1.47-0.07,2.41-0.07h1.14a0.73,0.73,0,0,1,.54.74v5.9a0.44,0.44,0,0,1-.47.4h-2a3.57,3.57,0,0,1-.87-0.07H1950c-1.94,0-4.36-.13-6.7-0.13-1.41,0-4.49-.2-4.76.8v1.81c0,1.41.13,2.88,0.13,4.15s-0.13,2.41-.13,3.62v0.13a2.07,2.07,0,0,1,.07.6v0.54c0,0.6.13,1,1.88,1,3.22,0,6.5-.27,9.58-0.27,0.6,0,1.07.07,1.07,0.87v6.57a1,1,0,0,1-1.07.47c-1.27,0-2.55-.13-4-0.13h-1.74a10.88,10.88,0,0,1-2.55.2c-0.6,0-.94-0.13-1.94-0.13-1.21,0-1.34.27-1.34,0.94,0,4,.13,7.84.13,11.86a0.5,0.5,0,0,0,.4.34h0.8c6.23,0,12.46-.13,18.69-0.13,1.34,0,1.88-.07,1.88,1.41,0,1.27-.07,2.61-0.07,4v1a1.12,1.12,0,0,1-.27.74h-0.74c-0.8,0-1.74-.07-2.61-0.07-6.16,0-12.4.13-18.63,0.13h-7a0.65,0.65,0,0,1-.47-0.47v-1.54Z" transform="translate(-1829.93 -2082.01)"/><path class="cls-1" d="M1980.24,2246.21a11.34,11.34,0,0,1,.27-3.35,0.23,0.23,0,0,0-.2-0.13v-25.53c0-.2-0.07-1.27-0.07-1.47v-0.2c0-1.94.07-3.89,0.07-5.7,0-2.28-.07-4.62-0.07-6.9v-1.07c0.07-.87.54-0.87,1.21-0.87a9.52,9.52,0,0,1,1.41.07h21.91c0.94-.07,1.47-0.07,2.41-0.07h1.14a0.73,0.73,0,0,1,.54.74v5.9a0.44,0.44,0,0,1-.47.4h-2a3.57,3.57,0,0,1-.87-0.07h-5.9c-1.94,0-4.36-.13-6.7-0.13-1.41,0-4.49-.2-4.76.8v1.81c0,1.41.13,2.88,0.13,4.15s-0.13,2.41-.13,3.62v0.13a2.07,2.07,0,0,1,.07.6v0.54c0,0.6.13,1,1.88,1,3.22,0,6.5-.27,9.58-0.27,0.6,0,1.07.07,1.07,0.87v6.57a1,1,0,0,1-1.07.47c-1.27,0-2.55-.13-4-0.13H1994a10.88,10.88,0,0,1-2.55.2c-0.6,0-.94-0.13-1.94-0.13-1.21,0-1.34.27-1.34,0.94,0,4,.13,7.84.13,11.86a0.5,0.5,0,0,0,.4.34h0.8c6.23,0,12.46-.13,18.69-0.13,1.34,0,1.88-.07,1.88,1.41,0,1.27-.07,2.61-0.07,4v1a1.12,1.12,0,0,1-.27.74H2009c-0.8,0-1.74-.07-2.61-0.07-6.16,0-12.4.13-18.63,0.13h-7a0.65,0.65,0,0,1-.47-0.47v-1.54Z" transform="translate(-1829.93 -2082.01)"/><path class="cls-1" d="M2029.81,2246.61c0-1.54,0-2.41.07-4.22V2224.7c0.2-2.68.2-5.36,0.2-8.11,0-5.09-.2-10.12-0.2-15.21a0.69,0.69,0,0,1,.47-0.8h1.54c0.74,0,1.61,0,2.41.07h7.5c0.27,0,1.21-.07,1.47-0.07h0.07l0.6,0.07H2044a0.72,0.72,0,0,0,.4-0.07l9.58,0.07,2.41,0.4,1.94,0.8a9.73,9.73,0,0,1,2.75,3.15l0.47,1.27,0.27,2.41v10.38c0,0.07.07,0.6,0.07,0.8v0.07c0,1.21-.07,2.21-0.07,3.35l-0.8,2.41-0.47.74-2.35,1.88-1.61.67c-0.74.33-4.56,0.27-4.56,0.6v0.07a0.24,0.24,0,0,0,.07.2l12.26,17.76a0.68,0.68,0,0,1-.4.6h-0.4a7.65,7.65,0,0,1-1.21-.07h-2.75c-1.41,0-2.88.07-4.29,0.07a0.61,0.61,0,0,1-.67-0.2l-12.13-18.56a1.12,1.12,0,0,0-.4-0.2h-4a0.32,0.32,0,0,0-.33.33v0.6c0,3.08.13,6.23,0.13,9.31v1.14a0.25,0.25,0,0,0-.07.2c0,0.34.07,0.8,0.07,1.07,0,1.68-.2,3.28-0.2,5a7.23,7.23,0,0,0,.07,1.21,1.45,1.45,0,0,1-.67.13h-4.62a13,13,0,0,1-1.61.07h-0.67a0.49,0.49,0,0,1-.47-0.4v-1.27Zm8.51-24.39h13.27a2.37,2.37,0,0,0,2.08-.94l0.2-.2c0.13-1.07.13-5,.13-7.17v-3.82c-0.13-2.21-1.54-2.48-3.28-2.48-2.55,0-4.76.07-7.1,0.07h-0.07c-0.47,0-4.15-.13-4.56-0.13h-0.07c-0.4,0-1.07.07-1.07,0.54v13.6A0.43,0.43,0,0,0,2038.32,2222.22Z" transform="translate(-1829.93 -2082.01)"/><path class="cls-1" d="M2267.35,2178l-1.14-1.54-0.87-3.28c0-.47-0.13-2.14-0.13-2.41v-22.51c-0.07-1.94-.07-3.28-0.07-5.23v-1.47l0.6-4,1-1.67,1.54-1.41,1.61-.74,3.42-.6h0.87c1.14,0,2.28-.07,3.42-0.07s2.28,0.07,3.48.07c0.54,0,.94-0.07,1.41-0.07l0.27,0.07a0.61,0.61,0,0,0,.34-0.07h6l3.55,0.74,0.54,0.27,2.55,2.68,1,3.08v2.41c0,0.07-.07.2-0.07,0.27v0.13c0,0.8.13,4.42,0.2,5.23a0.64,0.64,0,0,1,.13.47,0.76,0.76,0,0,1-.47.67l-7.3,1.67a0.49,0.49,0,0,1-.47-0.6c0-2.88.13-5.9,0.13-8.84v-0.87c0-.4-1-0.4-1.41-0.4a5.73,5.73,0,0,0-1.07.07h-6.43c-1.67,0-3.35.07-5,.07h-1.21a0.56,0.56,0,0,0-.27.47c0,4.49-.13,9-0.13,13.53,0,6.1.07,12.4,0.34,18.63,0,0.4.47,0.47,0.8,0.47,1.47,0,2.95-.07,4.42-0.07h9.71c0.4,0,.47-0.54.47-0.87,0-3.68-.34-7.3-0.34-11,0-.54.13-0.8,0.67-0.8l7.1,1.47a0.81,0.81,0,0,1,.6.94c0,1.21-.13,2.41-0.13,3.62s0.07,2.68.07,4c0,0.4-.2.8-0.2,1.14s0.13,0.54.13,0.94a5.58,5.58,0,0,1-.2,1.94l-0.74,1.94-2.08,2.14-2.41,1.27-3,.33h-12.8l-0.2.07c-1.21-.07-3.89-0.13-3.89-0.13l-2.21-.67Z" transform="translate(-1829.93 -2082.01)"/><path class="cls-1" d="M2318.34,2178.61c0-1.54,0-2.41.07-4.22V2156.7c0.2-2.68.2-5.36,0.2-8.11,0-5.09-.2-10.12-0.2-15.21a0.69,0.69,0,0,1,.47-0.8h1.54c0.74,0,1.61,0,2.41.07h7.5c0.27,0,1.21-.07,1.47-0.07h0.07l0.6,0.07h0.07a0.73,0.73,0,0,0,.4-0.07l9.58,0.07,2.41,0.4,1.94,0.8a9.74,9.74,0,0,1,2.75,3.15l0.47,1.27,0.27,2.41v10.39c0,0.07.07,0.6,0.07,0.8v0.07c0,1.21-.07,2.21-0.07,3.35l-0.8,2.41-0.47.74-2.35,1.88-1.61.67c-0.74.33-4.56,0.27-4.56,0.6v0.07a0.25,0.25,0,0,0,.07.2l12.26,17.75a0.68,0.68,0,0,1-.4.6h-0.4a7.66,7.66,0,0,1-1.21-.07h-2.75c-1.41,0-2.88.07-4.29,0.07a0.61,0.61,0,0,1-.67-0.2l-12.13-18.56a1.13,1.13,0,0,0-.4-0.2h-4a0.32,0.32,0,0,0-.33.33v0.6c0,3.08.13,6.23,0.13,9.31v1.14a0.25,0.25,0,0,0-.07.2c0,0.33.07,0.8,0.07,1.07,0,1.67-.2,3.28-0.2,5a7.15,7.15,0,0,0,.07,1.21,1.46,1.46,0,0,1-.67.13h-4.62a12.84,12.84,0,0,1-1.61.07h-0.67a0.49,0.49,0,0,1-.47-0.4v-1.27Zm8.51-24.39h13.27a2.37,2.37,0,0,0,2.08-.94l0.2-.2c0.13-1.07.13-5,.13-7.17v-3.82c-0.13-2.21-1.54-2.48-3.28-2.48-2.55,0-4.76.07-7.1,0.07h-0.07c-0.47,0-4.15-.13-4.56-0.13h-0.07c-0.4,0-1.07.07-1.07,0.54v13.6A0.43,0.43,0,0,0,2326.85,2154.22Z" transform="translate(-1829.93 -2082.01)"/><path class="cls-1" d="M2388.69,2133.58a0.65,0.65,0,0,1,.67-0.47c1.61,0,3,.07,4.62.07h1.21a1.15,1.15,0,0,1,.4.4l11.46,32.76v0.47l4.49,12.19a1.34,1.34,0,0,1,.27.87c0,0.33-.07.4-0.47,0.54h-0.8c-1.14,0-2.34-.13-3.48-0.13-0.87,0-1.74.13-2.61,0.13h-0.67a0.36,0.36,0,0,1-.27-0.27l-3.28-9.65a4.62,4.62,0,0,0-1.54-.2,2.77,2.77,0,0,0-.74.07l-14.07-.07a1,1,0,0,0-.27.13l-3.22,9.58a1.08,1.08,0,0,1-.87.4h-6a0.63,0.63,0,0,1-.67-0.67Zm8.38,29.82h0.54a0.07,0.07,0,0,0,.07-0.07l-5.7-18.22h-0.07c-0.07,0-.13,0-0.13.07l-0.74,1.68-5,15.75v0.27a0.58,0.58,0,0,0,.27.47h2.75a8.62,8.62,0,0,0,1.34-.07C2391.5,2163.33,2396.06,2163.4,2397.06,2163.4Z" transform="translate(-1829.93 -2082.01)"/><path class="cls-1" d="M2432.31,2171.84c0-5.09-.07-10.12-0.07-15.21,0-4.62.07-9.11,0.07-13.73,0-2.81-.07-5.56-0.07-8.24,0-.74-0.07-1.61.87-1.61h19.16c2.61-.07,5-0.07,7.44-0.07h0.94a0.29,0.29,0,0,1,.27.27v1.07c0,0.74-.07,1.61-0.07,2.34s0.07,1.34.07,2.08c0,0.33.13,1.34-.4,1.34h-17.42l-2.21-.07a0.65,0.65,0,0,0-.54.67c0,2,.2,4,0.2,5.9,0,1.41-.07,2.75-0.07,4.15v0.94a0.68,0.68,0,0,0,.4.6h2.48a5.73,5.73,0,0,0,1.07-.07h1c2.08,0,4.22-.13,6.3-0.13,0.4,0,1.07,0,1.07.54,0,1.21-.07,2.28-0.07,3.48,0,0.94.07,1.81,0.07,2.88v0.67c-0.13.47-.2,0.54-0.67,0.54-1.61-.07-3,0-4.62-0.13h-6.63a0.63,0.63,0,0,0-.33.6v0.07c0,0.13.07,1.14,0.07,1.27v12.19c0,0.13-.07.67-0.07,0.8v0.07c0,1.41.13,2.81,0.13,4.09v0.6l-0.33.33a14.7,14.7,0,0,1-1.74.07c-0.74,0-1.81-.07-2.68-0.07s-2,.13-2.81.13c-0.54,0-.87-0.2-0.87-0.6C2432.31,2176.8,2432.31,2174.45,2432.31,2171.84Z" transform="translate(-1829.93 -2082.01)"/><path class="cls-1" d="M2491.2,2170.3v-4.89c0-.2-0.07-1.67-0.07-1.88,0-7.37.13-14.74,0.13-22.18v-1.27a1,1,0,0,0-.8-0.2c-1.54,0-3,.07-4.56.07h-3.22c-1.14,0-2.34.07-3.48,0.07h-0.4a0.56,0.56,0,0,1-.4-0.54v-5.83a0.78,0.78,0,0,1,.47-0.94h0.54c3.55,0,7.17.07,10.85,0.07h6.43c0.4,0,1.67-.07,1.94-0.07h0.07c0.8,0,1.47.07,2.21,0.07,3.48,0,7.1-.13,10.72-0.13a0.79,0.79,0,0,1,.94.6c0,1.14-.2,2.34-0.2,3.55,0,0.8.13,1.47,0.13,2.21v0.67l-0.27.27h-8.51c-1.07,0-2.21-.07-3.15-0.07a0.77,0.77,0,0,0-.94.74v0.07c0,0.27.07,1.54,0.07,1.74v12.13a4.39,4.39,0,0,1,.07.94,12.94,12.94,0,0,1-.13,1.61v4.29a9.42,9.42,0,0,1,.13,1.94v0.13c0,0.27-.13,1.54-0.13,1.81v2.81c0,1.94.07,4,.07,5.76,0,1.07-.07,2.08-0.07,2.95s0.07,1.74.07,2.61-0.8.8-1.34,0.8a8,8,0,0,1-1.74-.13,6.41,6.41,0,0,1-2.08.33c-0.8,0-1.74-.13-2.41-0.13h-0.74a1,1,0,0,1-.34-0.94C2491.06,2176.26,2491.2,2173.25,2491.2,2170.3Z" transform="translate(-1829.93 -2082.01)"/><path class="cls-1" d="M2268.09,2246.61l-1.67-1.47-1.07-2.61c-0.13-.33-0.07-0.87-0.2-1.27v-18.56c0.13-1.88.07-4.56,0.07-6.43V2212c-0.07-.87-0.07-1.47-0.07-2.21l0.47-3.62,1.21-2.34,1.34-1.34,2.21-1.07,4.69-.54c0.27,0,1.54.13,1.81,0.13s3.75-.13,4.22-0.13h4l0.74-.07H2286c1.67,0,3.21.07,5,.07h1.27l3.15,0.8,1.21,0.67,1.67,1.74,1.07,2.21c0,1.41.27,4.09,0.27,5.9,0,0.6.07,1.21-.6,1.27l-5.63,1.27c-0.13,0-1.14.27-1.27,0.27H2292c-0.27,0-.4,0-0.47-0.27v-0.6c0-1.34.07-2.81,0.07-4.22v-1.81c0-.13-0.27-0.13-0.33-0.13h-1.34c-1.41,0-2.68.07-4.15,0.07s-3.08-.07-4.69-0.07h-3.15c-1.14,0-2.34-.13-3.62-0.13-0.87,0-1,1.21-1,2.41,0,0.6.07,1.21,0.07,1.68v8c-0.07,1.67-.07,2.41-0.07,4,0,5,.27,9.92.27,14.94v1.88c0,0.4.54,0.47,0.8,0.47,2.35,0,4.62-.27,7-0.27s4.42,0.2,6.77.2h2.95a0.78,0.78,0,0,0,.47-0.33v-8.17c0.07-1.14.07-1.61,0.07-2.61v-1.07a1,1,0,0,0-.87-0.27h-0.13c-0.67,0-7,.2-7.77.2a0.63,0.63,0,0,1-.47-0.33v-6.63a0.55,0.55,0,0,1,.4-0.27h1.54c1.14,0,2.48.07,3.75,0.07a9,9,0,0,0,1.27-.07h10a0.3,0.3,0,0,1,.27.2v19.5l-0.47,2.14-1.54,2.48-1.47,1.07-2.14.8-3.69.33H2284a10,10,0,0,0-1.47.07h-9.85l-2.95-.74Z" transform="translate(-1829.93 -2082.01)"/><path class="cls-1" d="M2322.94,2247.08l-1.47-1.14-1.14-1.88-0.54-2.08c0-.27-0.13-1.81-0.13-2v-16.48c0-.6.07-5.49,0.07-6.1v-5.83c0.07-1.47.47-5.29,0.47-5.56l1.47-2.48,1.34-1.14,1.88-.8a11.88,11.88,0,0,1,2.48-.4h8.17c1.81-.13,3.68-0.13,5.56-0.13l1.41,0.07h4.42l1.88,0.2,2.21,0.8v0.07l1.27,0.87,1.54,1.94a7.53,7.53,0,0,1,.94,3.68c0,1.81-.13,2.88-0.13,4.09v0.07a3.35,3.35,0,0,0,.13.8v2.08c0,0.94,0,2.41-.07,3.28v10.18a19.38,19.38,0,0,0-.07,1.94c0,0.74.07,1.41,0.07,2,0,0.87-.13,1.67-0.13,2.48a0.62,0.62,0,0,0,.07.4v3.08a2.18,2.18,0,0,0-.07.54c0,0.4.07,0.6,0.07,0.94,0,2.48-1.87,6.77-4.76,7.37l-2.55.54h-11.59a1.33,1.33,0,0,0-.6-0.07,2.54,2.54,0,0,0-.74.07h-7l-2.08-.27Zm5.23-5.9a1,1,0,0,0,.67.13c1,0,1.94-.07,3-0.07h14.34c0.33,0,.4-5,0.4-8,0-8.24,0-16.48-.13-24.72a0.55,0.55,0,0,0-.4-0.27h-0.67c-5.7,0-11.32.13-17,.13a0.43,0.43,0,0,0-.33.33v10.39l-0.13,1.07V2239Z" transform="translate(-1829.93 -2082.01)"/><path class="cls-1" d="M2378.2,2247.08l-1.47-1.14-1.14-1.88-0.54-2.08c0-.27-0.13-1.81-0.13-2v-16.48c0-.6.07-5.49,0.07-6.1v-5.83c0.07-1.47.47-5.29,0.47-5.56l1.47-2.48,1.34-1.14,1.88-.8a11.88,11.88,0,0,1,2.48-.4h8.17c1.81-.13,3.68-0.13,5.56-0.13l1.41,0.07h4.42l1.88,0.2,2.21,0.8v0.07l1.27,0.87,1.54,1.94a7.53,7.53,0,0,1,.94,3.68c0,1.81-.13,2.88-0.13,4.09v0.07a3.35,3.35,0,0,0,.13.8v2.08c0,0.94,0,2.41-.07,3.28v10.18a19.38,19.38,0,0,0-.07,1.94c0,0.74.07,1.41,0.07,2,0,0.87-.13,1.67-0.13,2.48a0.62,0.62,0,0,0,.07.4v3.08a2.18,2.18,0,0,0-.07.54c0,0.4.07,0.6,0.07,0.94,0,2.48-1.87,6.77-4.76,7.37l-2.55.54H2391a1.33,1.33,0,0,0-.6-0.07,2.54,2.54,0,0,0-.74.07h-7l-2.08-.27Zm5.23-5.9a1,1,0,0,0,.67.13c1,0,1.94-.07,3-0.07h14.34c0.33,0,.4-5,0.4-8,0-8.24,0-16.48-.13-24.72a0.55,0.55,0,0,0-.4-0.27h-0.67c-5.7,0-11.32.13-17,.13a0.43,0.43,0,0,0-.33.33v10.39l-0.13,1.07V2239Z" transform="translate(-1829.93 -2082.01)"/><path class="cls-1" d="M2430.52,2241.38v-3.69c0-4.69-.13-15.95-0.13-16.15l-0.07-.4V2203c0-.13-0.07-0.87-0.07-1.07v-0.13a0.66,0.66,0,0,1,.6-0.8h18.29l5.76,1.54,3.62,2.61,2.48,2.95,2,6.1c0.47,1.34.2,2.61,0.4,4v9.45a1.47,1.47,0,0,0-.07.54,0.73,0.73,0,0,0,.07.33v2.81l-1.27,7.1-1.74,3.42-3.68,3.55-4.49,2.21-2.61.4c-0.47,0-1-.07-1.54-0.07a8.49,8.49,0,0,0-1.88.2h-2.14c-4.22,0-8.51.13-12.73,0.13h-0.6a0.87,0.87,0,0,1-.33-0.87C2430.38,2245.4,2430.52,2243.53,2430.52,2241.38Zm8.58-.27,8.17-.07,3.62-.74,1.41-.74,1.41-1.61,1.14-2c0.07-.13.4-2.68,0.47-3.55v-3c0-.4.07-4,0.07-4.29v-0.27c0-.27-0.07-3.15-0.07-3.55v-3.75c-0.07-1.07-.4-3.82-0.47-4.09l-1.07-2.08-1.34-1.61-2.28-1.14-3.22-.54h-8c0,0.2-.27.33-0.27,0.54v7.84a11.46,11.46,0,0,0-.07,1.54v0.13c0,3.62.13,7.17,0.13,10.92,0,0.94-.07,1.94-0.07,3v0.33c0,0.33.07,3.69,0.07,4.15,0,1.14-.07,2.14-0.07,3.15C2438.62,2240.11,2438.56,2241.11,2439.09,2241.11Z" transform="translate(-1829.93 -2082.01)"/><path class="cls-1" d="M2481.17,2244.8l-0.8-1.74-0.4-4.22c0-.94-0.07-1.74-0.07-2.75a0.79,0.79,0,0,1,.54-0.94l6.7-1.54a0.69,0.69,0,0,1,.74.67c0,1.34-.2,2.61-0.2,4v1c0,1.74,2.08,1.81,3.48,1.81,1.81,0,3.42-.07,5.23-0.07,1.07,0,2,.07,3.08.07h0.47l0.47-.07c0.6,0,1.27.13,1.88,0.13l1.67-.54c1.07-.33,1.27-2.88,1.27-5.36,0-4.15.27-6.3-1.21-6.77-2-.6-6.23-0.67-9.78-0.67-2.28,0-4.42.07-5.63,0.07l-3-.8-1.88-1.14c-0.94-.54-0.6-1-1.27-1.41l-0.94-2.21-0.27-2.81v-11.26l0.47-2.55,1.07-1.81,1.54-1.61,1.68-.8,5.16-.67h13c0.34,0,.74.13,1.07,0.13l2.95,0.74,2.41,1.67,0.8,1.21,0.94,2.75a12.43,12.43,0,0,1,.07,1.81v3.48a0.8,0.8,0,0,1-.54.6l-6.1,1.47h-0.6a0.47,0.47,0,0,1-.27-0.33v-1a33.64,33.64,0,0,1,.13-3.48,2.33,2.33,0,0,0-2.14-2.28h-4.09a2.77,2.77,0,0,1-.74.07c-2.14,0-4.22-.2-6.23-0.2a0.4,0.4,0,0,0-.27.07l-1.27.33a1.75,1.75,0,0,0-1.21,1.74v8.58a2,2,0,0,0,2.21,1.88c4.09,0.2,8.58.47,12.73,0.47l4,0.54,2.28,1.21,1.54,1.88,0.54,1,0.54,2.68a2,2,0,0,0-.13,1,2.23,2.23,0,0,0,.2,1.47v2.28c0,2.14-.07,4.15-0.07,6.23v1.61l-0.6,3.08-0.94,1.68-1.47,1.41-3.55,1.41-1.27.13c-5.16,0-10.38.13-15.61,0.13-1,0-3.08.13-3.75-.33l-2.54-1.34Z" transform="translate(-1829.93 -2082.01)"/><path class="cls-1" d="M1932,2090.5c0,0.07,1.25.73,1.25,1.22a4.21,4.21,0,0,1,.69,2.21v0.56a0.68,0.68,0,0,1-.17.3l-0.17.59s-1.25,1.55-1.82,1.55l-0.89.2h-0.46c-1.55-.2-1.85-0.23-2.67-1.09l-0.33-.4-0.4-.86a0.76,0.76,0,0,1-.1-0.3v-1.58c0-.17.69-2,1.58-2.31l0.5-.23,0.3-.1h0.5l0.5-.1h1A5.32,5.32,0,0,1,1932,2090.5Z" transform="translate(-1829.93 -2082.01)"/><path class="cls-1" d="M1944.31,2082.64h1.52c-0.07,0,.59,0,1.35,0,1.29,0,3,.07,3,0.5V2100c0,0.36.43,0.53,1.16,0.53h1c1.55,0,4.75-.07,4.75.53v4.22a0.77,0.77,0,0,1-.53.43h-12.31a0.84,0.84,0,0,0-.17-0.07l-0.13-.13-0.1-.3v-22.28Z" transform="translate(-1829.93 -2082.01)"/><path class="cls-1" d="M1965.15,2090.23l0.33-1.09s0.3-.56.4-0.73l0.66-1.09s0.69-.69,2-2.24c0.66-.56,2.21-1.52,2.21-1.58l1.45-.66a1.6,1.6,0,0,0,.53-0.2c0.5,0,.86-0.33,1.42-0.33a26.63,26.63,0,0,1,4.32-.3h0.23c0.73,0,4.42.46,5.68,1.72l0.43,0.33,0.53,0.3c0.33,0.17,1.39,1.35,1.49,1.35l0.66,0.73c0.13,0.17.5,0.63,0.5,0.66l0.23,0.33,0.86,1.72,0.3,0.86a10.48,10.48,0,0,1,.43,2.57V2094a18,18,0,0,1-.2,3.27,12,12,0,0,1-4.13,6.87l-0.66.43c-0.2.13-1.06,0.56-1.16,0.63l-1.16.46a11.64,11.64,0,0,1-3.37.73h-3.53a11.63,11.63,0,0,1-8.12-3.8l-0.43-.53a8.45,8.45,0,0,1-1.58-2.81l-0.23-.79c0-.46-0.3-1-0.3-1.72a13.25,13.25,0,0,1-.33-1.82v-1.55C1964.62,2092,1965.15,2091.32,1965.15,2090.23Zm7.92,9.11,1,0.66a1.41,1.41,0,0,0,.86.3c0.46,0.43,1.19.2,1.72,0.5h0.83a4.34,4.34,0,0,0,1.81-.26l1.25-.43c0.4,0,1-.92,1.39-1.12a6.84,6.84,0,0,0,1.35-2.67c0-.3.3-1.42,0.3-1.78v-0.17c0-.5-0.17-1.95-0.17-2a12.2,12.2,0,0,1-.56-1.58,4.27,4.27,0,0,0-1.58-1.88c0-.53-2.77-1.22-3.66-1.29l-2.15.23-0.4.2a4.88,4.88,0,0,0-2.15,1.39l-0.86,1.29a7,7,0,0,0-.83,3v1.49C1971.19,2096.17,1972.18,2098.81,1973.07,2099.34Z" transform="translate(-1829.93 -2082.01)"/><path class="cls-1" d="M1998.58,2092.41a14.1,14.1,0,0,1,1.39-4.69l0.23-.4a13.3,13.3,0,0,1,2.31-2.67l0.92-.59a11.78,11.78,0,0,1,6.67-2,11,11,0,0,1,5.15,1l0.79,0.4c0.13,0.13.46,0.53,0.5,0.53v0.5c0,1.22.07,4,.07,4.62v0.76a0.07,0.07,0,0,0-.07.07h-0.36l-0.33-.2-1.12-1-0.66-.33c-0.23-.13-0.92-0.4-0.92-0.4h-0.36l-0.33.07a1.11,1.11,0,0,0-1-.4h-1.12c-0.3.17-2.81,0.3-3.47,1.58l-0.56.63-0.17.33a7.19,7.19,0,0,0-1,2.74v1.45a6.21,6.21,0,0,0,1.12,3.93,4.29,4.29,0,0,0,3,2,3.49,3.49,0,0,0,1.42.26,6.68,6.68,0,0,0,2.71-.49l1-.5c0.07-.07.3-0.2,0.33-0.23l0.86-.59a1.14,1.14,0,0,1,.73-0.33h0.17a1.85,1.85,0,0,1,.07.33v5.61l-0.07.17a1.86,1.86,0,0,1-.69.46l-0.92.4a1.62,1.62,0,0,0-.53.23,12.48,12.48,0,0,1-4.06.63h-0.73a7.93,7.93,0,0,1-2.21-.23h0a6.48,6.48,0,0,0-1.12-.3,20.75,20.75,0,0,1-2.54-1.19l-1-.76a7.26,7.26,0,0,1-.92-0.83l-0.86-1.06a13.41,13.41,0,0,1-.82-1.25l-0.43-.86a16,16,0,0,1-1.09-3.83v-3.56Z" transform="translate(-1829.93 -2082.01)"/><path class="cls-1" d="M2025.22,2105.11c0-1.19.59-1.72,1.12-3.43l0.5-1.72c0-.26.17-0.43,0.17-0.73l2-5.61,0.5-1.32a5.58,5.58,0,0,1,.26-0.79l0.73-2s0.2-.46.2-0.53l1.29-3.6a1.26,1.26,0,0,1,.33-0.83l0.4-1.06a1.08,1.08,0,0,1,1.09-.86h5.58c0.86,0,.43.36,1,0.63l0.23,0.43,0.5,1.58c0.79,2.24.17,0,1.91,5.28v0a14.32,14.32,0,0,0,.86,2.25c1.12,3.4,2.54,6.8,3.8,10.17a8.6,8.6,0,0,1,.76,2.24c0,0.59-.2.33-0.4,0.53h-0.33c-1.75,0-3.53-.07-5.25-0.07-1.19-.36-1.25-3.6-2-4.06-0.2,0-1.19-.07-1.42-0.07h-0.5c-0.79,0-4.69,0-5.48.07a5.15,5.15,0,0,0-.53.1,16.62,16.62,0,0,0-1.25,3.3l-0.23.4a1.37,1.37,0,0,1-.53.33h-5a0.39,0.39,0,0,1-.36-0.23v-0.36Zm10-8.09h2.15a2.62,2.62,0,0,0,1.62-.4v-0.53a8.47,8.47,0,0,0-.56-1.95l-0.3-1.25a5.37,5.37,0,0,0-.36-1.39c0-1-.92-2.54-0.92-3.1l-0.2-.2h-0.13l-0.2.2c0,0.1-.13.3-0.13,0.36l-0.73,2.67c-0.07.36-1.12,3.43-1.29,3.76l-0.26,1.22A1.6,1.6,0,0,0,2035.26,2097Z" transform="translate(-1829.93 -2082.01)"/><path class="cls-1" d="M2057.61,2082.64h1.52c-0.07,0,.59,0,1.35,0,1.29,0,3,.07,3,0.5V2100c0,0.36.43,0.53,1.16,0.53h1c1.55,0,4.75-.07,4.75.53v4.22a0.77,0.77,0,0,1-.53.43h-12.31a0.84,0.84,0,0,0-.17-0.07l-0.13-.13-0.1-.3v-22.28Z" transform="translate(-1829.93 -2082.01)"/><path class="cls-1" d="M2079.34,2082.64h1.52c-0.07,0,.59,0,1.35,0,1.29,0,3,.07,3,0.5V2100c0,0.36.43,0.53,1.16,0.53h1c1.55,0,4.75-.07,4.75.53v4.22a0.77,0.77,0,0,1-.53.43h-12.31a0.84,0.84,0,0,0-.17-0.07l-0.13-.13-0.1-.3v-22.28Z" transform="translate(-1829.93 -2082.01)"/><path class="cls-1" d="M2104.21,2094.32l-1.06-1.45s-0.46-.56-0.53-0.66l-1.82-2.74a1.18,1.18,0,0,0-.16-0.3l-0.43-.56c-0.1,0-.56-0.83-0.66-0.92l-0.73-1.06c0-.1-0.53-0.76-0.53-0.83a23.28,23.28,0,0,1-1.75-2.77v-0.36l0.13-.26h6.67c0.63,0,.59.79,1,1l0.76,1.55s0.43,0.73.5,0.86l1,1.82,0.13,0.07,0.46,0.92a0.68,0.68,0,0,1,.26.26h0.23c0-.1.36-0.36,0.36-0.53l0.33-.5c0.2,0,2.74-5.45,3.63-5.45h5.38l1.06,0.07v0.89c-0.1.16-.3,0.46-0.43,0.73l-0.43.53c-0.76,1.09-1.55,2.28-2.31,3.4l-2.61,3.8c-0.3.36-.5,0.76-0.79,1.19l-0.63.79-0.4.89a0.25,0.25,0,0,0-.07.17,3,3,0,0,0,.07.43c0,0.1-.13.63-0.13,0.66v0.33c0,0.83.13,7.69,0.13,8.55v0.1c-0.23.76-.23,0.73-0.53,0.86h-5.12c-0.13,0-.83-0.07-0.83-0.43V2095Z" transform="translate(-1829.93 -2082.01)"/><path class="cls-1" d="M2152.25,2101.51V2083.1c0-.33.59-0.46,1.48-0.46h4.46a1,1,0,0,1,.5,1.06v0.36c0,0.17-.1,1.65-0.1,1.91v4.82a0.74,0.74,0,0,0,.4.66c0.53,0,2.81.13,3.33,0.13h3.46a1,1,0,0,0,.5-0.5v-8l0.17-.26,0.07-.07c0.17,0,.56-0.13.66-0.13h4.88a1.06,1.06,0,0,1,.53.86v1.62c-0.16,3.23-.16,6.4-0.16,9.37,0,4.42-.07,9.11,0,10.73a0.46,0.46,0,0,1-.1.3c-0.07.07-3.8,0.2-4.88,0.2h-0.07c-0.59,0-1.09,0-1.22-.43v-1.35c0-.17.13-1.35,0.13-1.49V2097c-0.13,0-.4-0.36-0.53-0.36H2159a0.46,0.46,0,0,0-.2.07l-0.1.1a0.55,0.55,0,0,0-.1.33v7.23l-0.13,1a1.07,1.07,0,0,1-.2.26l-0.2.07h-5.58l-0.23-.2a4.39,4.39,0,0,1-.07-0.86v-0.36C2152.19,2103.33,2152.19,2102.44,2152.25,2101.51Z" transform="translate(-1829.93 -2082.01)"/><path class="cls-1" d="M2181.17,2105.11c0-1.19.59-1.72,1.12-3.43l0.5-1.72c0-.26.17-0.43,0.17-0.73l2-5.61,0.49-1.32a5.58,5.58,0,0,1,.26-0.79l0.73-2s0.2-.46.2-0.53l1.29-3.6a1.26,1.26,0,0,1,.33-0.83l0.4-1.06a1.08,1.08,0,0,1,1.09-.86h5.58c0.86,0,.43.36,1,0.63l0.23,0.43,0.5,1.58c0.79,2.24.16,0,1.91,5.28v0a14.31,14.31,0,0,0,.86,2.25c1.12,3.4,2.54,6.8,3.8,10.17a8.58,8.58,0,0,1,.76,2.24c0,0.59-.2.33-0.4,0.53h-0.33c-1.75,0-3.53-.07-5.25-0.07-1.19-.36-1.25-3.6-2-4.06-0.2,0-1.19-.07-1.42-0.07h-0.5c-0.79,0-4.69,0-5.48.07a5.18,5.18,0,0,0-.53.1,16.59,16.59,0,0,0-1.25,3.3l-0.23.4a1.37,1.37,0,0,1-.53.33h-5a0.39,0.39,0,0,1-.36-0.23v-0.36Zm10-8.09h2.14a2.62,2.62,0,0,0,1.62-.4v-0.53a8.48,8.48,0,0,0-.56-1.95l-0.3-1.25a5.43,5.43,0,0,0-.36-1.39c0-1-.92-2.54-0.92-3.1l-0.2-.2h-0.13l-0.2.2c0,0.1-.13.3-0.13,0.36l-0.73,2.67c-0.07.36-1.12,3.43-1.29,3.76l-0.26,1.22A1.6,1.6,0,0,0,2191.21,2097Z" transform="translate(-1829.93 -2082.01)"/><path class="cls-1" d="M2213.11,2093.13c0-.83-0.1-7.82-0.1-8.68v-0.89c0-.43,0-1,0.73-1h4.36c1.32,0,2,1.81,2.61,2.44l0.53,0.73a16.18,16.18,0,0,1,1.62,1.91l0.73,1.06a16.15,16.15,0,0,0,1.42,1.72l0.79,0.92,0.3,0.43a48.13,48.13,0,0,1,3.4,4.55h0.23c0.2,0,.1-0.76.2-1.19v-0.59c0-.2-0.07-1.09-0.07-1.25V2083.1a2.58,2.58,0,0,1,.07-0.46l0.13-.1s0.33-.07.4-0.07h0.66l4.32,0.07a1,1,0,0,1,.43,1v8.68c0,3.5-.1,11.32-0.1,13v0.33l-0.23.2h-0.1c-0.56,0-3.17.13-4.32,0.13h-0.53l-0.66-.2-0.33-.36-1.45-2-1-1.19-0.59-.86c-1.52-1.45-2.11-3.17-4.49-5.58l-0.86-1.09-1.45-2a2.77,2.77,0,0,0-.36-0.56,0.25,0.25,0,0,0-.07-0.16,1.38,1.38,0,0,1-.2.07v13.5c0,0.33-.17.17-0.33,0.33l-0.43.13H2214a0.76,0.76,0,0,1-.86-0.79v-11.92Z" transform="translate(-1829.93 -2082.01)"/><path class="cls-1" d="M2249.92,2082.67h3.73a16.43,16.43,0,0,1,2.51.13c0.49,0,1,.23,1.39.23a3.26,3.26,0,0,1,1.49.33,4.23,4.23,0,0,1,1.72.63l1.55,1c0.63,0.63,2.11,2.15,2.11,2.58l0.63,1.22a11,11,0,0,1,1,3.8v3.33s-0.17.63-.23,0.86a7.45,7.45,0,0,0-.3,1.49,6.45,6.45,0,0,1-1.25,3,9,9,0,0,1-4.06,3.37l-1,.46c-0.17,0-.79.26-1,0.26l-1.88.23c-0.3,0-1.22.1-1.39,0.13h-1.09c-0.43,0-4.32.07-4.85,0.1h-2.34a0.88,0.88,0,0,1-.49-0.33V2083a0.7,0.7,0,0,1,.1-0.23l0.26-.13a5.53,5.53,0,0,0,.59-0.1h1C2248.24,2082.6,2249.69,2082.67,2249.92,2082.67Zm2.61,17.39c0,0.2.66,0.4,2.08,0.4h0.4a3.28,3.28,0,0,0,1.55-.4l0.79-.46a5.6,5.6,0,0,0,2.21-3.66l0.2-1.25v-0.53a11,11,0,0,0-.4-2.67,5.63,5.63,0,0,0-5.54-3.7H2253a1.06,1.06,0,0,0-.56,1.16v9.21Z" transform="translate(-1829.93 -2082.01)"/><path class="cls-1" d="M2275.45,2098l0.53-3.14c0-.13.1-0.89,0.1-1l0.73-4.82c0-.13.13-0.83,0.13-0.86l0.2-1.09c0-1.22.4-2.11,0.4-3l0.23-1,0.23-.33a1.31,1.31,0,0,1,.4-0.23h3.47a2.1,2.1,0,0,0,.89.13,9.85,9.85,0,0,0,1.72,0,0.7,0.7,0,0,0,.2.13,3.64,3.64,0,0,1,.92,2.11c0,0.13.53,1.52,0.56,1.72l0.36,1.45a11.35,11.35,0,0,1,.89,2.44l0.79,2.94c0.3,0.56.23,1.62,0.69,1.62H2289a1.26,1.26,0,0,0,.36-0.69l1-3.27c0.13-.23.66-2.28,0.79-2.41l0.2-1.06c0-.2.56-1.72,0.59-1.91,0,0,.13-0.36.13-0.4l0.53-1.75a1.46,1.46,0,0,1,.73-1h5.08c0.17,0,1.09.07,1.29,0.1,0.76,1.12.69,3.17,1,4.55l0.83,5.51a2,2,0,0,0,.13.56l0.5,3.23c0,0.89.43,1.75,0.43,2.67l0.83,5.48v0.86l-0.2.2h-5.51l-0.2-.07a0.6,0.6,0,0,1-.17-0.36c-0.17-1.62-.43-3.33-0.69-5,0,0,0-.43,0-0.5l-0.36-2.54c0-.1-0.13-0.83-0.13-1,0-.83-0.59-4.62-0.59-5.21h-0.13l-0.1.13c-0.5,1.45-.83,2.94-1.25,4.36a0.78,0.78,0,0,0-.1.33l-0.2.76a14,14,0,0,0-.89,2.57l-0.33,1s-0.92,3.3-1.58,5a2.79,2.79,0,0,0-.2.46,0.07,0.07,0,0,0-.07.07c-0.33,0-1.91.07-2.28,0.13h-0.53a1.13,1.13,0,0,1-.73-0.46l-0.92-2.81a108.9,108.9,0,0,1-3.5-11.12h-0.26c-0.4,2.41-.1,4-0.59,5.48a24.78,24.78,0,0,0-.4,2.64v0.13c-0.3,1.32-.33,2.81-0.56,4.42-0.23,1.19-.1,1.72-0.86,1.82-0.17,0-.66,0-1.12,0-1,0-2,.1-3.2.1h-0.1c-0.26,0-1-.07-1-0.07l-0.2-.23v-1.16Z" transform="translate(-1829.93 -2082.01)"/><path class="cls-1" d="M2311.92,2105.11c0-1.19.59-1.72,1.12-3.43l0.5-1.72c0-.26.17-0.43,0.17-0.73l2-5.61,0.5-1.32a5.58,5.58,0,0,1,.26-0.79l0.73-2s0.2-.46.2-0.53l1.29-3.6a1.27,1.27,0,0,1,.33-0.83l0.4-1.06a1.08,1.08,0,0,1,1.09-.86h5.58c0.86,0,.43.36,1,0.63l0.23,0.43,0.49,1.58c0.79,2.24.17,0,1.91,5.28v0a14.34,14.34,0,0,0,.86,2.25c1.12,3.4,2.54,6.8,3.79,10.17a8.62,8.62,0,0,1,.76,2.24c0,0.59-.2.33-0.4,0.53h-0.33c-1.75,0-3.53-.07-5.25-0.07-1.19-.36-1.25-3.6-2-4.06-0.2,0-1.19-.07-1.42-0.07h-0.5c-0.79,0-4.69,0-5.48.07a5.13,5.13,0,0,0-.53.1,16.65,16.65,0,0,0-1.25,3.3l-0.23.4a1.37,1.37,0,0,1-.53.33h-5a0.39,0.39,0,0,1-.36-0.23v-0.36Zm10-8.09h2.15a2.62,2.62,0,0,0,1.62-.4v-0.53a8.46,8.46,0,0,0-.56-1.95l-0.3-1.25a5.32,5.32,0,0,0-.36-1.39c0-1-.92-2.54-0.92-3.1l-0.2-.2h-0.13l-0.2.2c0,0.1-.13.3-0.13,0.36l-0.73,2.67c-0.07.36-1.12,3.43-1.29,3.76l-0.26,1.22A1.6,1.6,0,0,0,2322,2097Z" transform="translate(-1829.93 -2082.01)"/><path class="cls-1" d="M2347.6,2082.67h3.73a16.42,16.42,0,0,1,2.51.13c0.5,0,1,.23,1.39.23a3.26,3.26,0,0,1,1.49.33,4.23,4.23,0,0,1,1.72.63l1.55,1c0.63,0.63,2.11,2.15,2.11,2.58l0.63,1.22a11,11,0,0,1,1,3.8v3.33s-0.16.63-.23,0.86a7.45,7.45,0,0,0-.3,1.49,6.46,6.46,0,0,1-1.25,3,9,9,0,0,1-4.06,3.37l-1,.46c-0.16,0-.79.26-1,0.26l-1.88.23c-0.3,0-1.22.1-1.39,0.13h-1.09c-0.43,0-4.32.07-4.85,0.1h-2.34a0.88,0.88,0,0,1-.5-0.33V2083a0.7,0.7,0,0,1,.1-0.23l0.26-.13a5.49,5.49,0,0,0,.59-0.1h1C2345.92,2082.6,2347.37,2082.67,2347.6,2082.67Zm2.61,17.39c0,0.2.66,0.4,2.08,0.4h0.4a3.28,3.28,0,0,0,1.55-.4l0.79-.46a5.6,5.6,0,0,0,2.21-3.66l0.2-1.25v-0.53a10.92,10.92,0,0,0-.4-2.67,5.63,5.63,0,0,0-5.54-3.7h-0.79a1.06,1.06,0,0,0-.56,1.16v9.21Z" transform="translate(-1829.93 -2082.01)"/><path class="cls-1" d="M2373.2,2092.54v-8.61l0.13-1.19,0.16-.1c0.07,0,2.81-.1,3.93-0.17h8.25a3.86,3.86,0,0,1,.66.17l0.2,0.2,0.1,0.2v4.49a1,1,0,0,1-.43.3h-0.89c-1.82,0-3.6-.13-5.38-0.13h-0.4c-0.59.36-.33,0.17-0.63,1.62v0.17c0,0.23.1,1.22,0.1,1.42s0.1,0.4.86,0.4h0.33c0.66,0,1.29-.07,2-0.07h0l0.59,0.07h2a2.55,2.55,0,0,1,.86.23v4.42a0.64,0.64,0,0,1-.53.36H2385c-1.48-.13-3-0.23-4.55-0.23h-1a1.93,1.93,0,0,0-.49,1.68v2.31a0.75,0.75,0,0,0,.23.23c0.07,0,3.13.2,4.52,0.2h2.54a1,1,0,0,1,.43,1.09v3.37c0,0.79-1.55.76-3.14,0.76h-9.87a0.43,0.43,0,0,1-.43-0.33l-0.07-.33v-0.3C2373.14,2103.53,2373.2,2093.79,2373.2,2092.54Z" transform="translate(-1829.93 -2082.01)"/><path class="cls-1" d="M2401.58,2090.5c0,0.07,1.25.73,1.25,1.22a4.21,4.21,0,0,1,.69,2.21v0.56a0.68,0.68,0,0,1-.17.3l-0.16.59s-1.25,1.55-1.82,1.55l-0.89.2H2400c-1.55-.2-1.85-0.23-2.67-1.09l-0.33-.4-0.4-.86a0.76,0.76,0,0,1-.1-0.3v-1.58c0-.17.69-2,1.58-2.31l0.5-.23,0.3-.1h0.5l0.5-.1h1A5.37,5.37,0,0,1,2401.58,2090.5Z" transform="translate(-1829.93 -2082.01)"/><path class="cls-1" d="M2029.61,2286c0,0.07,1.25.73,1.25,1.22a4.21,4.21,0,0,1,.69,2.21V2290a0.67,0.67,0,0,1-.17.3l-0.17.59s-1.25,1.55-1.82,1.55l-0.89.2h-0.46c-1.55-.2-1.85-0.23-2.67-1.09l-0.33-.4-0.4-.86a0.76,0.76,0,0,1-.1-0.3v-1.58c0-.17.69-2,1.58-2.31l0.5-.23,0.3-.1h0.5l0.5-.1h1A5.32,5.32,0,0,1,2029.61,2286Z" transform="translate(-1829.93 -2082.01)"/><path class="cls-1" d="M2039.71,2284.66a5.61,5.61,0,0,1-.23-0.59l-0.4-1.45c-0.07-.23-0.69-2-0.73-2.21a5,5,0,0,1-.33-1.78v-0.36l0.1-.1a4.23,4.23,0,0,0,.53-0.13c0.63,0,3.4-.07,4-0.1h0.26c0.79,0.17.92-.07,1.29,0.66-0.1.07,0.53,1.32,1.25,4l0.33,1.25a5.81,5.81,0,0,1,.5,1.29c0.07,0,.17.73,0.23,0.86,0.26,1.09.63,2.15,1,3.27l0.26,1.16c0,0.07.3,1.72,0.63,1.72a1,1,0,0,0,.53-0.89l0.23-.83a12.26,12.26,0,0,0,.53-1.52,7,7,0,0,0,.5-1.58l0.36-.92,0.2-.76a1.36,1.36,0,0,1,.23-0.5c0.23-.69.46-1.32,0.66-2,0,0.1.92-3.33,1.25-3.89l0.4-1a0.63,0.63,0,0,1,.46-0.23h0.2c0.53,0,2.87.13,3.4,0.13a3,3,0,0,1,.79,1.58l1.49,4.69s1.19,3.47,1.52,4.36l0.4,1.22,0.33,1.16a1.65,1.65,0,0,0,.63.76h0.1a0.63,0.63,0,0,1,.17-0.33,11.75,11.75,0,0,1,.46-2l0.63-1.95c0-.13.4-1.06,0.63-2.15l1.72-5.12a4,4,0,0,0,.1-0.56l0.56-1.52c0.07-.1.33-0.23,0.36-0.3h4.26a1.46,1.46,0,0,1,1.09.46v0.4c-0.2,1.06-.86,2.11-0.86,3.07-0.33,1.16-.76,2.31-1.19,3.4a2.34,2.34,0,0,1-.23.73l-0.59,1.82c-0.17.33-1.06,3.14-1.16,3.5l-0.33.76a9.09,9.09,0,0,0-.63,2l-0.23.53c0,0.33-.33.59-0.33,0.92-0.53,1.88-1.78,5.58-2.21,5.64-0.66,0-3.5,0-4.13.1h-0.2a0.89,0.89,0,0,1-.59-0.43l-2.08-6-0.26-1.06c-0.69-2-1.35-4.09-2.14-6l0-.07-0.1.07a35.19,35.19,0,0,0-1.25,3.89c0.1-.07-1.32,3.2-1.32,3.7l-0.56,1.72a1,1,0,0,1-.26.5l-0.59,1.91a5.39,5.39,0,0,1-.73,1.72,14.09,14.09,0,0,0-1.68.1h-3.17a1.37,1.37,0,0,1-.53-0.43C2043.31,2295.49,2041.36,2290.17,2039.71,2284.66Z" transform="translate(-1829.93 -2082.01)"/><path class="cls-1" d="M2087.62,2288.39v6.44c0,0.92-.1,5.25-0.1,6.17l-0.1.13-0.23.07h-5.45a0.39,0.39,0,0,1-.36-0.33v-22a0.81,0.81,0,0,1,.4-0.76h5.31c0.5,0,.63.66,0.63,1.29v1.25C2087.72,2281.46,2087.62,2287.63,2087.62,2288.39Z" transform="translate(-1829.93 -2082.01)"/><path class="cls-1" d="M2101.12,2297.56c0-4.12.07-8.15,0.07-12.28v-1.35l-0.26-.26h-4.16a1.8,1.8,0,0,0-.2-0.13l-0.1-.1a3,3,0,0,1-.13-0.43v-0.76c0-.07.13-0.73,0.13-0.86v-0.92a14.39,14.39,0,0,1,.1-1.78,5.32,5.32,0,0,1,.2-0.56l0.23-.1h9c0.17,0,.73.1,0.83,0.1h0.13c0.17,0,1.25-.1,1.42-0.1h3.57a1.5,1.5,0,0,1,.4,1.32V2283a0.48,0.48,0,0,1-.2.43l-0.3.1h-3.7l-0.46.2v17.39c-0.13.26-4.22,0.23-5.58,0.3h-0.17a3.52,3.52,0,0,0-.59-0.23l-0.2-.2v-3.43Z" transform="translate(-1829.93 -2082.01)"/><path class="cls-1" d="M2121.06,2297v-18.42c0-.33.59-0.46,1.49-0.46H2127a1,1,0,0,1,.5,1.06v0.36c0,0.17-.1,1.65-0.1,1.91v4.82a0.74,0.74,0,0,0,.4.66c0.53,0,2.81.13,3.33,0.13h3.47a1,1,0,0,0,.5-0.5v-8l0.17-.26,0.07-.07c0.17,0,.56-0.13.66-0.13h4.88a1.06,1.06,0,0,1,.53.86v1.62c-0.17,3.23-.17,6.4-0.17,9.37,0,4.42-.07,9.11,0,10.73a0.46,0.46,0,0,1-.1.3c-0.07.07-3.8,0.2-4.88,0.2h-0.07c-0.59,0-1.09,0-1.22-.43v-1.35c0-.17.13-1.35,0.13-1.49v-5.41c-0.13,0-.4-0.36-0.53-0.36h-6.8a0.47,0.47,0,0,0-.2.07l-0.1.1a0.55,0.55,0,0,0-.1.33v7.23l-0.13,1a1.06,1.06,0,0,1-.2.26l-0.2.07h-5.58l-0.23-.2a4.49,4.49,0,0,1-.07-0.86v-0.36C2121,2298.82,2121,2297.93,2121.06,2297Z" transform="translate(-1829.93 -2082.01)"/><path class="cls-1" d="M2176.1,2289.84c0-.56-0.1-5.58-0.1-6.17v-2.87c0-.69.07-2.41,0.1-2.48l0.26-.2,1.92-.1h6.93a26.18,26.18,0,0,1,2.77.3,6.09,6.09,0,0,0,.92.26l1.25,0.63a5.76,5.76,0,0,1,2.31,2.31,5.13,5.13,0,0,1,.89,2.87v3.07s-0.17.89-.2,1.16c-0.1,0-.3,1-0.46,1.16l-0.33.63a0.94,0.94,0,0,1-.2.3l-0.83,1a5.89,5.89,0,0,1-3.13,1.58l-1.19.23h-0.59l-0.2-.07H2186a1.37,1.37,0,0,0-.2.07h-0.43c-0.92,0-3.07.1-3.07,0.73v6.8c0,0.5-3.76.36-5.31,0.43h-0.2a0.79,0.79,0,0,1-.73-0.43v-11.16Zm9.34-6.73h-2.58a1.23,1.23,0,0,0-.73.56v4.39a0.57,0.57,0,0,0,.1.2l0.1,0.13a1,1,0,0,1,.3.23h1.58s0.36-.1.46-0.1,0.3,0,.53,0a1.88,1.88,0,0,0,.23,0l0.79-.5c0.07-.13.36-0.4,0.43-0.5a1.35,1.35,0,0,0,.56-1v-1.72A2.55,2.55,0,0,0,2185.44,2283.11Z" transform="translate(-1829.93 -2082.01)"/><path class="cls-1" d="M2202.55,2278.09h8.32a8.06,8.06,0,0,0,.92.07h0.76s0.5,0.17.53,0.17a4.77,4.77,0,0,1,1.68.43l1.39,0.63,0.53,0.4a10.09,10.09,0,0,1,1.82,2.24,6.64,6.64,0,0,1,.73,3.3V2286a7.88,7.88,0,0,1-1.58,3.73l-0.76.73-0.92.59h0c0,0.07-.92.33-1,0.46l-0.2.3v0.33l0.33,0.66s0.5,0.53.66,0.73c0.23,0,.63,1.16,1.06,1.55l0.59,0.63a6.94,6.94,0,0,0,.53.89l0.73,0.79,0.89,1.19c0,0.07,1.35,1.82,1.35,2v0.53l-0.23.1h-3.37c-0.5,0-3-.1-3.5-0.1a2.7,2.7,0,0,1-1-1.29l-0.73-1.16-0.86-1.45a4.76,4.76,0,0,0-1-1.42l-0.4-.73-0.33-.4a9.89,9.89,0,0,0-1-1.49l-0.2.2a12.91,12.91,0,0,0-.1,1.95v0.36c0,1.42.1,2.87,0.1,4.32v0.83c0,0.3-.36.36-0.66,0.36h-4.75a0.68,0.68,0,0,1-.73-0.5v-22.34Zm5.68,5.41v4.55l0.1,0.43a0.56,0.56,0,0,0,.5.43H2209a4.7,4.7,0,0,1,.73-0.13h0.73l1.06-.3a3.46,3.46,0,0,0,1.09-.66l0.4-.59a2.14,2.14,0,0,0,.26-1.16,2.65,2.65,0,0,0-.59-2l-0.2-.2a5.26,5.26,0,0,0-.79-0.56,11.38,11.38,0,0,0-2.18-.2l-1,0C2208.26,2283.11,2208.23,2283.37,2208.23,2283.5Z" transform="translate(-1829.93 -2082.01)"/><path class="cls-1" d="M2235.92,2288.39v6.44c0,0.92-.1,5.25-0.1,6.17l-0.1.13-0.23.07H2230a0.39,0.39,0,0,1-.36-0.33v-22a0.81,0.81,0,0,1,.4-0.76h5.31c0.5,0,.63.66,0.63,1.29v1.25C2236,2281.46,2235.92,2287.63,2235.92,2288.39Z" transform="translate(-1829.93 -2082.01)"/><path class="cls-1" d="M2250,2278.16h3.73a16.41,16.41,0,0,1,2.51.13c0.5,0,1,.23,1.39.23a3.26,3.26,0,0,1,1.49.33,4.22,4.22,0,0,1,1.72.63l1.55,1c0.63,0.63,2.11,2.15,2.11,2.58l0.63,1.22a11,11,0,0,1,1,3.8v3.33s-0.17.63-.23,0.86a7.45,7.45,0,0,0-.3,1.49,6.46,6.46,0,0,1-1.25,3,9,9,0,0,1-4.06,3.37l-1,.46c-0.17,0-.79.26-1,0.26l-1.88.23c-0.3,0-1.22.1-1.39,0.13h-1.09c-0.43,0-4.32.07-4.85,0.1h-2.34a0.88,0.88,0,0,1-.5-0.33v-22.51a0.7,0.7,0,0,1,.1-0.23l0.26-.13a5.47,5.47,0,0,0,.59-0.1h1C2248.33,2278.09,2249.78,2278.16,2250,2278.16Zm2.61,17.39c0,0.2.66,0.4,2.08,0.4h0.4a3.27,3.27,0,0,0,1.55-.4l0.79-.46a5.61,5.61,0,0,0,2.21-3.66l0.2-1.25v-0.53a10.92,10.92,0,0,0-.4-2.67,5.63,5.63,0,0,0-5.54-3.7h-0.79a1.06,1.06,0,0,0-.56,1.16v9.21Z" transform="translate(-1829.93 -2082.01)"/><path class="cls-1" d="M2275.61,2288v-8.61l0.13-1.19,0.17-.1c0.07,0,2.81-.1,3.93-0.17h8.25a3.84,3.84,0,0,1,.66.17l0.2,0.2,0.1,0.2V2283a1,1,0,0,1-.43.3h-0.89c-1.82,0-3.6-.13-5.38-0.13h-0.4c-0.59.36-.33,0.17-0.63,1.62V2285c0,0.23.1,1.22,0.1,1.42s0.1,0.4.86,0.4h0.33c0.66,0,1.29-.07,2-0.07h0l0.59,0.07h2a2.55,2.55,0,0,1,.86.23v4.42a0.64,0.64,0,0,1-.53.36h-0.2c-1.48-.13-3-0.23-4.55-0.23h-1a1.93,1.93,0,0,0-.5,1.68v2.31a0.75,0.75,0,0,0,.23.23c0.07,0,3.14.2,4.52,0.2h2.54a1,1,0,0,1,.43,1.09v3.37c0,0.79-1.55.76-3.14,0.76H2276a0.43,0.43,0,0,1-.43-0.33l-0.07-.33v-0.3C2275.54,2299,2275.61,2289.28,2275.61,2288Z" transform="translate(-1829.93 -2082.01)"/><path class="cls-1" d="M2304,2286c0,0.07,1.25.73,1.25,1.22a4.21,4.21,0,0,1,.69,2.21V2290a0.69,0.69,0,0,1-.17.3l-0.17.59s-1.25,1.55-1.82,1.55l-0.89.2h-0.46c-1.55-.2-1.85-0.23-2.67-1.09l-0.33-.4-0.4-.86a0.77,0.77,0,0,1-.1-0.3v-1.58c0-.17.69-2,1.58-2.31l0.5-.23,0.3-.1h0.5l0.5-.1h1A5.32,5.32,0,0,1,2304,2286Z" transform="translate(-1829.93 -2082.01)"/><polygon class="cls-1" points="289.04 92.68 288.35 167.65 390.07 165.46 386.38 179.85 400.96 179.04 404.02 166.46 410.03 162.39 413.35 151 405.59 146.81 402.83 131.11 382.88 115.71 387.88 99 379.88 96.19 374.96 98.99 367.39 80.75 357.79 72.22 356.92 57.7 350.66 50.57 263.83 52.13 277.09 72.16 284.81 69.43 285.16 75.25 277.78 80.79 289.04 92.68"/></svg>