<?xml version="1.0" encoding="utf-8"?>
<!-- Generator: Adobe Illustrator 17.0.2, SVG Export Plug-In . SVG Version: 6.00 Build 0)  -->
<!DOCTYPE svg PUBLIC "-//W3C//DTD SVG 1.1//EN" "http://www.w3.org/Graphics/SVG/1.1/DTD/svg11.dtd">
<svg version="1.1" id="Layer_8" xmlns="http://www.w3.org/2000/svg" xmlns:xlink="http://www.w3.org/1999/xlink" x="0px" y="0px"
	 width="1156.368px" height="167.107px" viewBox="0 0 1156.368 167.107" enable-background="new 0 0 1156.368 167.107"
	 xml:space="preserve">
<g>
	<path fill="#A1CAB1" d="M4.37,123.049l-1.962-1.516l-1.516-2.497l-0.713-2.764c0-0.357-0.178-2.408-0.178-2.676V91.66
		c0-0.803,0.089-7.312,0.089-8.114v-7.758c0.089-1.962,0.624-7.045,0.624-7.401l1.962-3.3l1.783-1.516l2.497-1.07
		c1.159-0.535,2.318-0.268,3.299-0.535h10.879c2.408-0.178,4.904-0.178,7.401-0.178c0.268,0,1.694,0.089,1.873,0.089h5.885
		l2.497,0.268l2.942,1.07v0.089l1.694,1.159l2.051,2.586c0.802,0.98,1.248,3.567,1.248,4.904c0,2.408-0.178,3.835-0.178,5.439v0.09
		c0,0.268,0.089,0.802,0.178,1.069v2.765c0,1.248,0,3.21-0.089,4.369V99.24c-0.089,1.07-0.089,1.605-0.089,2.586
		s0.089,1.873,0.089,2.675c0,1.159-0.179,2.229-0.179,3.3c0,0.268,0,0.445,0.089,0.535v4.102c-0.089,0.446-0.089,0.535-0.089,0.714
		c0,0.534,0.089,0.802,0.089,1.248c0,3.3-2.497,9.007-6.331,9.809l-3.389,0.714H21.401c-0.178-0.089-0.357-0.089-0.803-0.089
		s-0.624,0-0.981,0.089h-9.363l-2.765-0.356L4.37,123.049z M11.325,115.202c0,0.178,0.713,0.178,0.892,0.178
		c1.338,0,2.586-0.089,4.013-0.089h19.083c0.446,0,0.535-6.599,0.535-10.611c0-10.969,0-21.937-0.178-32.904
		c-0.089-0.179-0.357-0.357-0.535-0.357h-0.892c-7.58,0-15.07,0.179-22.561,0.179c-0.178,0-0.446,0.268-0.446,0.446v13.821
		l-0.179,1.427v25.058L11.325,115.202z"/>
	<path fill="#A1CAB1" d="M76.343,121.622l-1.516-2.051l-1.159-4.369c0-0.624-0.178-2.854-0.178-3.21V82.03
		C73.4,79.443,73.4,77.66,73.4,75.074v-1.962l0.802-5.261l1.338-2.229l2.051-1.872l2.14-0.981l4.548-0.803h1.159
		c1.516,0,3.032-0.089,4.548-0.089s3.032,0.089,4.637,0.089c0.713,0,1.248-0.089,1.873-0.089l0.356,0.089
		c0.089,0,0.357,0,0.446-0.089h7.937l4.726,0.98l0.713,0.357l3.389,3.566l1.337,4.102v3.211c0,0.089-0.089,0.268-0.089,0.356v0.179
		c0,1.069,0.178,5.885,0.267,6.955c0.179,0.268,0.179,0.356,0.179,0.624c0,0.446-0.357,0.803-0.625,0.892l-9.72,2.229
		c-0.535,0-0.624-0.445-0.624-0.803c0-3.834,0.178-7.847,0.178-11.771v-1.159c0-0.535-1.337-0.535-1.873-0.535
		c-0.624,0-0.803,0-1.427,0.089h-8.561c-2.229,0-4.458,0.09-6.688,0.09h-1.605c-0.178,0.089-0.357,0.356-0.357,0.624
		c0,5.975-0.178,11.949-0.178,18.013c0,8.115,0.089,16.497,0.446,24.79c0,0.535,0.625,0.624,1.07,0.624
		c1.962,0,3.923-0.089,5.885-0.089h12.93c0.535,0,0.624-0.714,0.624-1.159c0-4.904-0.446-9.72-0.446-14.625
		c0-0.713,0.178-1.069,0.892-1.069l9.452,1.962c0.713,0.178,0.803,0.713,0.803,1.248c0,1.605-0.178,3.21-0.178,4.815
		c0,1.783,0.089,3.566,0.089,5.261c0,0.535-0.268,1.07-0.268,1.517c0,0.445,0.179,0.713,0.179,1.248c0,0.714,0,2.229-0.268,2.586
		l-0.981,2.586l-2.764,2.854l-3.21,1.694l-4.013,0.446H87.49l-0.268,0.089c-1.605-0.089-5.172-0.179-5.172-0.179l-2.943-0.892
		L76.343,121.622z"/>
	<path fill="#A1CAB1" d="M157.573,111.367v-6.509c0-0.268-0.089-2.229-0.089-2.497c0-9.81,0.179-19.618,0.179-29.517V71.15
		c-0.179-0.268-0.625-0.268-1.07-0.268c-2.051,0-4.013,0.09-6.063,0.09h-4.28c-1.516,0-3.121,0.089-4.637,0.089h-0.535
		c-0.356-0.089-0.535-0.445-0.535-0.713V62.59c0-0.445,0-1.159,0.624-1.248h0.713c4.726,0,9.542,0.089,14.446,0.089h8.561
		c0.535,0,2.229-0.089,2.586-0.089h0.089c1.07,0,1.962,0.089,2.943,0.089c4.637,0,9.452-0.178,14.268-0.178
		c0.535,0,1.248,0.178,1.248,0.803c0,1.516-0.268,3.12-0.268,4.726c0,1.07,0.179,1.962,0.179,2.942v0.893l-0.357,0.356h-11.325
		c-1.427,0-2.943-0.09-4.191-0.09c-0.713,0-1.248,0.268-1.248,0.981v0.089c0,0.357,0.089,2.051,0.089,2.318v16.141
		c0.089,0.535,0.089,0.713,0.089,1.248c0,0.803-0.089,1.338-0.178,2.141v5.707c0.178,0.803,0.178,1.783,0.178,2.586v0.178
		c0,0.357-0.178,2.052-0.178,2.408v3.745c0,2.586,0.089,5.261,0.089,7.669c0,1.427-0.089,2.765-0.089,3.924
		c0,1.248,0.089,2.318,0.089,3.478c0,1.07-1.07,1.07-1.783,1.07c-0.892,0-1.338,0-2.318-0.179c-0.803,0.268-1.694,0.446-2.765,0.446
		c-1.07,0-2.318-0.179-3.21-0.179h-0.981c-0.446-0.179-0.446-0.892-0.446-1.248C157.395,119.304,157.573,115.291,157.573,111.367z"
		/>
</g>
<g>
	<path fill="#A1CAB1" d="M320.874,166.188c-29.422,0-62.981-17.01-84.588-17.01c-10.344,0-18.389,6.437-24.135,17.93l-6.207-5.977
		c0-55.166,24.365-72.405,65.74-85.277c34.019-10.573,44.133-23.216,44.133-39.076c0-13.791-12.183-23.676-32.41-23.676
		c-14.481,0-29.652,4.368-39.765,15.401c6.206,0.459,11.493,5.286,11.493,12.183c0,19.537-23.905,27.582-33.33,27.582
		c-7.815,0-16.779-3.678-16.779-14.48c0-24.135,40.225-51.259,87.576-51.259c32.41,0,70.796,14.021,70.796,39.306
		c0,25.975-31.031,35.858-88.266,46.202c-32.64,5.746-47.811,23.905-53.327,46.891l0.919,0.46
		c6.207-7.585,17.699-17.01,37.467-17.01c29.422,0,42.064,9.194,76.542,9.194c11.723,0,17.24-6.666,19.998-15.63h1.839
		c2.069,4.367,3.678,10.113,3.678,15.17C362.249,158.143,334.895,166.188,320.874,166.188z"/>
	<path fill="#A1CAB1" d="M563.901,139.294c-16.32,16.32-38.386,26.894-59.533,26.894c-21.147,0-43.213-10.573-59.533-26.894
		c-18.389-18.389-25.055-34.479-25.055-54.936c0-20.458,6.666-36.548,25.055-54.937c16.32-16.32,38.386-26.894,59.533-26.894
		c21.147,0,43.213,10.573,59.533,26.894c18.389,18.389,25.055,34.479,25.055,54.937
		C588.956,104.815,582.289,120.905,563.901,139.294z M525.285,20.228c-6.436-5.746-12.872-7.126-20.457-7.126
		c-7.585,0-14.941,1.38-21.377,7.126c-7.355,6.437-11.723,15.631-11.723,31.261v65.739c0,15.631,4.367,24.825,11.723,31.261
		c6.436,5.747,13.792,7.126,21.377,7.126c7.585,0,14.021-1.379,20.457-7.126c7.355-6.436,11.723-15.63,11.723-31.261V51.488
		C537.007,35.858,532.64,26.664,525.285,20.228z"/>
	<path fill="#A1CAB1" d="M722.018,126.882c0,9.194,3.448,15.631,8.275,20.228c4.138,3.908,9.654,7.126,17.01,7.126h15.17v10.573
		H635.591v-10.573h15.171c7.355,0,12.872-2.988,17.009-7.126c4.827-4.597,8.275-11.033,8.275-20.228V35.398
		c0-8.045-0.919-12.412-5.287-16.55c-3.678-3.448-8.275-4.138-14.941-4.367h-20.228V3.908h86.427V126.882z"/>
	<path fill="#A1CAB1" d="M964.562,12.183c0,23.445-19.538,32.87-45.742,32.87c-25.285,0-47.121-9.885-66.199-9.885
		c-8.505,0-15.4,2.299-18.848,5.747c-5.517,5.517-6.666,12.183-6.896,24.824l-0.23,16.32c19.538-9.654,37.697-14.021,65.28-14.021
		c57.465,0,79.761,21.606,79.761,45.053c0,22.756-27.583,53.097-86.197,53.097c-47.351,0-72.405-22.066-72.405-43.673
		c0-8.734,6.666-15.63,19.538-15.63c16.09,0,31.261,16.09,31.261,27.812c0,6.206-4.827,11.952-11.953,12.643
		c10.803,5.976,20.228,8.274,35.858,8.274c25.055,0,35.628-18.618,35.628-39.766c0-17.929-12.183-35.628-42.983-35.628
		c-22.756,0-37.697,4.598-54.247,13.562l-9.654-6.206l0.69-39.076l-0.69-41.145l4.138-3.447l12.642,15.4
		c11.263-11.723,26.664-16.78,41.145-16.78c27.813,0,42.983,10.114,68.038,10.114c9.884,0,14.251-5.747,16.55-12.643h1.839
		C962.723,2.528,964.562,8.734,964.562,12.183z"/>
</g>
<g>
	<g>
		<path fill="#A1CAB1" d="M1006.969,73.47c0-0.09-0.179-0.625-0.268-0.714l-9.898,2.318h-0.713c-0.268,0-0.356-1.516-0.356-4.904
			c0-1.07,0.089-1.962,0.446-2.141l20.42-7.133c0.446,0,0.981,0.089,1.07,0.534v1.249c0,19.083-0.713,37.185-0.713,55.732
			l-0.179,0.535c0,0.803,0.179,1.694,0.179,2.497v1.427c-0.089,0.089-0.179,0.624-0.179,0.713c0,0.09,0.089,0.268,0.089,0.356
			c0,0.446-0.713,0.446-1.07,0.446c-1.873,0-3.566-0.089-5.083-0.089c-0.981,0-2.14,0.089-2.943,0.089h-1.516
			c-0.268-0.179-0.357-0.535-0.357-0.892C1005.898,106.819,1006.969,90.145,1006.969,73.47z M1005.631,72.043
			c0,0.089,0,0.089,0.089,0.089c0,0,0.178,0,0.178-0.089l-0.178-0.09C1005.631,71.953,1005.631,72.043,1005.631,72.043z
			 M1016.51,119.304c0,0.089,0,0.089,0.089,0.089c0,0,0.089,0,0.089-0.089l-0.089-0.089
			C1016.51,119.215,1016.51,119.304,1016.51,119.304z"/>
		<path fill="#A1CAB1" d="M1105.037,91.086v-3.649c0-0.15-0.05-1.251-0.05-1.4c0-5.501,0.1-11.001,0.1-16.551v-0.95
			c-0.1-0.15-0.35-0.15-0.6-0.15c-1.15,0-2.25,0.05-3.4,0.05h-2.4c-0.85,0-1.75,0.051-2.6,0.051h-0.3c-0.2-0.051-0.3-0.25-0.3-0.4
			v-4.351c0-0.25,0-0.649,0.35-0.7h0.4c2.65,0,5.351,0.051,8.101,0.051h4.8c0.3,0,1.25-0.051,1.45-0.051h0.05
			c0.6,0,1.1,0.051,1.65,0.051c2.6,0,5.3-0.101,8-0.101c0.3,0,0.7,0.101,0.7,0.45c0,0.85-0.15,1.75-0.15,2.65
			c0,0.6,0.1,1.1,0.1,1.649v0.501l-0.2,0.199h-6.35c-0.8,0-1.65-0.05-2.35-0.05c-0.4,0-0.7,0.15-0.7,0.55v0.051
			c0,0.199,0.05,1.149,0.05,1.3v9.051c0.05,0.3,0.05,0.399,0.05,0.699c0,0.45-0.05,0.75-0.1,1.2v3.2c0.1,0.45,0.1,1,0.1,1.45v0.101
			c0,0.199-0.1,1.149-0.1,1.35v2.101c0,1.45,0.05,2.95,0.05,4.3c0,0.8-0.05,1.55-0.05,2.2c0,0.7,0.05,1.3,0.05,1.95
			c0,0.6-0.6,0.6-1,0.6c-0.5,0-0.75,0-1.3-0.1c-0.45,0.15-0.95,0.25-1.55,0.25s-1.3-0.1-1.8-0.1h-0.55
			c-0.25-0.101-0.25-0.5-0.25-0.7C1104.937,95.536,1105.037,93.286,1105.037,91.086z"/>
		<path fill="#A1CAB1" d="M1130.417,97.937c0-2.25,0-4.601,0.2-6.8v-7.401c0-0.449,0.05-3.7,0.05-4.149c0-0.15-0.05-1-0.05-1.2
			V66.335c-0.1-0.9-0.15-1.75-0.15-2.551c0-0.55,0.25-0.75,0.75-0.75c0.35,0,0.75,0.051,1.1,0.051c0.45,0,0.85-0.051,1.2-0.051
			c0.65,0,1.15,0.051,1.65,0.051c0.3,0,0.55-0.051,0.8-0.051c0.3,0,0.85,0.051,0.85,0.45v0.05c-0.15,0.75-0.2,3.001-0.2,3.2
			c0,0.5,0.05,1.101,0.05,1.351l0.05,8.4c-0.1,0.65-0.1,0.9-0.1,1.5v0.5c0,0,0.15,0.2,0.25,0.2c2.4,0,4.75-0.2,7.15-0.2
			c0.1,0,0.4,0.101,0.5,0.101h0.7c1.4,0,2.9,0.1,4.35,0.1c0.25,0,0.55,0,0.55-0.25v-1.3c0-4.501-0.1-9.001-0.1-13.451
			c0-0.65,0.35-0.7,0.9-0.7h0.1c0,0,0.5,0.05,0.6,0.05h4.3c0.2,0,0.45,0.25,0.45,0.5c0,1.251-0.25,2.551-0.25,3.801
			c0,1.65,0.2,3.25,0.2,4.95c0,0.5-0.1,1.05-0.1,1.6c0,2.351,0.1,4.751,0.1,7.001v3.25c-0.1,0.3-0.1,0.3-0.1,0.601
			c0,2.85,0.1,5.65,0.1,8.5v4.45c-0.05,0.25,0.05,0.95-0.4,0.95h-5.65c-0.15,0-0.2-0.3-0.2-0.35v-0.601c0-2.15,0.05-4.15,0.05-6.25
			v-2c0-1.601,0.05-3.251,0.05-4.801c0-0.149-0.05-0.399-0.1-0.399h-8.5c-1.4-0.101-2.8-0.101-4.25-0.101h-0.45
			c-0.15,0.05-0.25,0.2-0.25,0.3c0,2.551,0.1,5.15,0.1,7.701v3.35c0,0.25-0.05,1.2-0.05,1.45v0.101c0,0.25,0.1,0.649,0.1,1.05
			c0,0.3-0.25,0.45-0.45,0.55h-0.5c-0.65,0-1.3-0.1-2-0.1c-0.9,0-2,0.1-2.95,0.1c-0.15,0-0.4,0-0.45-0.3V97.937z"/>
	</g>
	<g>
		<path fill="#A1CAB1" d="M1105.079,113.576h-0.5c-0.1-0.051-0.35-0.2-0.35-0.4v-5.05c0-0.351,0.55-0.45,0.8-0.45s0.4,0,0.6,0.1h5.2
			c3.05,0,41.125-0.1,44.175-0.1h0.4c0.25,0.149,0.3,0.2,0.45,0.35v0.5c0,0.65-0.1,1.3-0.1,2c0,0.65,0.1,1.301,0.1,2v0.551
			c-0.05,0.149-0.1,0.35-0.35,0.449h-0.75c-0.1,0-0.4,0.051-0.4,0.051c-0.1,0-0.75-0.051-0.8-0.051h-0.15
			c-1.45,0-2.9,0.051-4.45,0.051h-38.724c-1.25,0-2.4-0.051-3.55-0.051C1106.129,113.525,1105.579,113.576,1105.079,113.576z"/>
	</g>
</g>
<g>
	<path fill="#A1CAB1" d="M1043.143,122.516l-2.318-1.872l-1.248-2.05l-0.802-2.941c-0.268-1.07-0.268-2.585-0.268-4.012
		c0-0.98,0.089-1.782,0.713-2.139l9.271-1.961c0,0,0.089-0.089,0.178-0.089c1.07,0,0.446,0.713,0.802,1.07v0.089
		c0,2.05-0.356,4.189-0.356,6.151c0,0.267,0.267,0.534,0.356,0.624h0.446c0.713,0,0.98,0,1.783-0.089h14.886
		c0.446,0.089,1.159,0.089,1.783,0.089h0.891c0.446-0.178,0.446-0.713,0.446-0.891V95.685c0.089,0,0.089-0.178,0.089-0.268
		c0-0.624-0.446-0.891-0.98-0.891c-3.298,0-6.685,0.268-9.895,0.268c-1.515,0-3.12-0.089-4.813-0.089
		c-4.011,0-8.201,0.178-12.39,0.178c-0.713,0-1.516,0-1.516-0.802l0.535-8.558c0-1.248-0.089-2.318-0.089-3.566
		c0-6.418,0.535-13.192,0.713-19.61c0.089-0.267,0.268-0.713,0.624-0.713h10.786c0.268,0,1.516-0.089,1.783-0.089
		c0.268,0,1.783,0.089,2.139,0.089h20.68c0.268,0,0.624,0.357,0.624,0.713l-1.515,8.112c-0.089,0.535-0.624,0.535-1.07,0.535
		c-3.922,0-7.755-0.268-11.677-0.268c-1.961,0-3.744,0.178-5.616,0.178c-2.318,0-4.457-0.178-6.596-0.178
		c-0.624,0-1.604-0.089-1.604,0.713c0,4.279-0.535,8.825-0.535,12.925c0,1.07,0.446,1.159,1.248,1.159c1.604,0,2.228,0,3.922-0.089
		h15.332c0.178,0.089,1.337,0.268,1.604,0.268l2.318,0.624l2.407,1.426l1.961,1.961l1.248,2.942l0.446,4.724v2.318
		c0,3.03,0.089,6.061,0.089,9.003v4.814c0,0.178-0.089,1.336-0.089,1.693l-0.624,2.942l-1.516,2.674l-1.694,1.605l-3.03,1.426
		c-1.337,0.624-2.674,0.624-4.1,0.624c-1.337,0-2.674-0.089-3.833-0.089c-0.624,0-1.159,0-1.783,0.089h-12.658
		c-0.268,0-0.891,0.089-1.07,0.089l-3.298-0.535L1043.143,122.516z"/>
</g>
</svg>
