<?xml version="1.0" encoding="utf-8"?>
<!-- Generator: Adobe Illustrator 17.0.2, SVG Export Plug-In . SVG Version: 6.00 Build 0)  -->
<!DOCTYPE svg PUBLIC "-//W3C//DTD SVG 1.1//EN" "http://www.w3.org/Graphics/SVG/1.1/DTD/svg11.dtd">
<svg version="1.1" id="Layer_1" xmlns="http://www.w3.org/2000/svg" xmlns:xlink="http://www.w3.org/1999/xlink" x="0px" y="0px"
	 width="759.193px" height="31.472px" viewBox="0 0 759.193 31.472" enable-background="new 0 0 759.193 31.472"
	 xml:space="preserve">
<g>
	<defs>
		<rect id="SVGID_1_" y="0" width="759.193" height="31.472"/>
	</defs>
	<clipPath id="SVGID_2_">
		<use xlink:href="#SVGID_1_"  overflow="visible"/>
	</clipPath>
	<path clip-path="url(#SVGID_2_)" fill="#A1CAB1" d="M0.176,15.497C0.176,10.568,0,5.64,0,0.711c0-0.748,0.484-0.572,1.012-0.66
		c1.101,0.044,1.54,0.044,2.464,0.044h0.969c0.043,0,0.439-0.088,0.528-0.088c0.352,0,0.616,0.088,0.704,0.396v0.396
		c0,0.176,0,0.396-0.044,0.528v1.276c0,1.144,0.044,2.289,0.044,3.477v1.364C5.633,7.576,5.633,7.664,5.633,7.84v0.836
		c0,1.628,0.044,9.066,0.044,10.694v5.897c0,0.087,0.044,1.012,0.044,1.1c0,0.836-0.044,1.056-0.088,2.112v0.044
		c0,0,0.044,0.044,0.044,0.088v0.704c-0.088,0.088-0.088,0.132-0.088,0.176c0,0.22,0.132,0.616,0.132,0.748v0.044
		c0,0.132-0.044,0.748-0.044,0.881c-0.088,0.087-0.308,0.087-0.396,0.131H1.98c-0.176,0-1.364,0.088-1.54,0.088
		c-0.352,0-0.396-0.396-0.396-0.66C0.044,25.619,0.176,20.602,0.176,15.497"/>
	<path clip-path="url(#SVGID_2_)" fill="#A1CAB1" d="M15.844,31.252h-0.616c-0.264-0.044-0.308-0.396-0.308-0.616
		c0-0.968,0.044-2.069,0.088-3.08V7.709C14.92,5.332,14.92,2.956,14.92,0.536c0-0.485,0.308-0.529,0.66-0.529
		c1.32,0,2.597,0.044,3.828,0.044l0.353,0.133l12.673,20.11c0,0.044,0.089,0.044,0.089,0.044c0.132,0,0.219-0.087,0.219-0.264
		c0-6.16-0.483-12.365-0.483-18.614V0.228c0-0.088,0.22-0.177,0.264-0.177h1.056c0.088,0,0.66,0.045,0.748,0.045
		c0.044,0,0.396-0.045,0.44-0.045h1.54c0.044,0,0.264-0.044,0.308-0.044c0.528,0,0.748,0.133,0.792,0.704v0.705
		c0,0.836-0.044,1.672-0.044,2.552c0,1.144,0.044,2.332,0.044,3.476c0,0.837-0.044,1.629-0.044,2.509
		c0,0.704,0.044,1.364,0.044,2.068v0.528c0.044,0.132,0.044,0.176,0.044,0.221c0,0.131,0,0.219-0.044,0.351v0.485
		c0,0.352,0,0.66,0.044,1.056v13.422c0,0.131-0.044,0.704-0.044,0.88v0.132c0,0.44,0.044,0.968,0.044,1.408V30.9
		c0,0.044-0.044,0.264-0.088,0.264l-0.616,0.044H33.49c-0.131,0-0.263-0.176-0.307-0.22l-0.924-1.496l-4.269-6.601l-7.789-12.454
		h-0.045c-0.131,0-0.131,0-0.175,0.132v0.352c0,3.785,0.308,7.569,0.308,11.353c0,0.221-0.044,0.353-0.044,0.573
		c0,0.396,0.044,0.792,0.044,1.232c0,1.232-0.044,2.596-0.044,3.873c0,0.836,0.044,1.76,0.044,2.64c0,0.44-0.088,0.704-0.881,0.704
		l-0.131,0.044c-0.176,0-1.409-0.132-1.629-0.132h-0.22C16.856,31.208,16.328,31.252,15.844,31.252"/>
	<path clip-path="url(#SVGID_2_)" fill="#A1CAB1" d="M46.917,26.851v-2.42c0-3.081-0.088-10.474-0.088-10.606l-0.044-0.264V1.635
		c0-0.087-0.044-0.572-0.044-0.704V0.843c0-0.264,0.088-0.528,0.396-0.528h12.014l3.785,1.012l2.376,1.717L66.94,4.98l1.32,4.005
		c0.309,0.879,0.132,1.716,0.264,2.64v6.205c-0.044,0.044-0.044,0.308-0.044,0.352c0,0,0,0.176,0.044,0.22v1.848l-0.836,4.665
		l-1.144,2.244l-2.42,2.332l-2.949,1.453l-1.716,0.264c-0.308,0-0.66-0.044-1.012-0.044c-0.44,0-0.836,0.044-1.232,0.132h-1.409
		c-2.772,0-5.589,0.087-8.36,0.087H47.05c-0.221-0.131-0.221-0.352-0.221-0.571C46.829,29.491,46.917,28.259,46.917,26.851
		 M52.55,26.675l5.369-0.044l2.376-0.484l0.924-0.484l0.924-1.056l0.748-1.321c0.045-0.088,0.264-1.76,0.308-2.332v-1.98
		c0-0.264,0.045-2.596,0.045-2.817v-0.175c0-0.177-0.045-2.069-0.045-2.333v-2.464c-0.044-0.704-0.263-2.509-0.308-2.685
		l-0.704-1.364l-0.88-1.056l-1.496-0.748L57.699,4.98h-5.281c0,0.132-0.176,0.22-0.176,0.352v5.149
		c-0.044,0.132-0.044,0.836-0.044,1.012v0.088c0,2.376,0.088,4.709,0.088,7.173c0,0.616-0.044,1.276-0.044,1.98v0.22
		c0,0.22,0.044,2.421,0.044,2.728c0,0.749-0.044,1.409-0.044,2.069C52.242,26.015,52.198,26.675,52.55,26.675"/>
	<path clip-path="url(#SVGID_2_)" fill="#A1CAB1" d="M77.598,15.497c0-4.929-0.176-9.857-0.176-14.786
		c0-0.748,0.484-0.572,1.012-0.66c1.101,0.044,1.54,0.044,2.464,0.044h0.969c0.043,0,0.439-0.088,0.528-0.088
		c0.352,0,0.616,0.088,0.704,0.396v0.396c0,0.176,0,0.396-0.044,0.528v1.276c0,1.144,0.044,2.289,0.044,3.477v1.364
		c-0.044,0.132-0.044,0.22-0.044,0.396v0.836c0,1.628,0.044,9.066,0.044,10.694v5.897c0,0.087,0.044,1.012,0.044,1.1
		c0,0.836-0.044,1.056-0.088,2.112v0.044c0,0,0.044,0.044,0.044,0.088v0.704c-0.088,0.088-0.088,0.132-0.088,0.176
		c0,0.22,0.132,0.616,0.132,0.748v0.044c0,0.132-0.044,0.748-0.044,0.881c-0.088,0.087-0.308,0.087-0.396,0.131h-3.301
		c-0.176,0-1.364,0.088-1.54,0.088c-0.352,0-0.396-0.396-0.396-0.66C77.466,25.619,77.598,20.602,77.598,15.497"/>
	<path clip-path="url(#SVGID_2_)" fill="#A1CAB1" d="M92.364,30.019c0-0.748-0.044-1.452,0.176-2.2c0-0.044-0.088-0.088-0.132-0.088
		V10.964c0-0.132-0.044-0.836-0.044-0.967V9.864c0-1.276,0.044-2.552,0.044-3.74c0-1.497-0.044-3.037-0.044-4.533V0.887
		c0.044-0.572,0.352-0.572,0.792-0.572c0.352,0,0.616,0,0.924,0.044h14.39c0.616-0.044,0.968-0.044,1.584-0.044h0.748
		c0.221,0.088,0.353,0.22,0.353,0.484v3.872c-0.044,0.177-0.132,0.265-0.309,0.265h-1.32c-0.22,0-0.396,0-0.572-0.044h-3.872
		c-1.277,0-2.861-0.088-4.401-0.088c-0.924,0-2.948-0.133-3.125,0.528V6.52c0,0.924,0.089,1.892,0.089,2.728
		s-0.089,1.584-0.089,2.376v0.088c0.045,0.133,0.045,0.308,0.045,0.397v0.352c0,0.396,0.088,0.66,1.232,0.66
		c2.112,0,4.268-0.176,6.293-0.176c0.396,0,0.704,0.044,0.704,0.572v4.313c-0.088,0.264-0.44,0.308-0.704,0.308
		c-0.837,0-1.673-0.089-2.596-0.089h-1.145c-0.528,0.133-1.144,0.133-1.672,0.133c-0.396,0-0.616-0.088-1.276-0.088
		c-0.792,0-0.881,0.175-0.881,0.615c0,2.641,0.089,5.149,0.089,7.789c0,0.133,0.219,0.221,0.263,0.221h0.529
		c4.093,0,8.185-0.088,12.278-0.088c0.879,0,1.232-0.044,1.232,0.924c0,0.836-0.044,1.716-0.044,2.596v0.66
		c0,0.088-0.044,0.396-0.176,0.484h-0.485c-0.527,0-1.144-0.044-1.716-0.044c-4.048,0-8.141,0.088-12.233,0.088h-4.621
		c-0.088,0-0.264-0.132-0.308-0.308V30.019z"/>
	<path clip-path="url(#SVGID_2_)" fill="#A1CAB1" d="M140.235,30.856c0-1.98,0-4.049,0.176-5.985v-6.513
		c0-0.396,0.044-3.256,0.044-3.652c0-0.132-0.044-0.881-0.044-1.057V3.044c-0.088-0.792-0.132-1.54-0.132-2.244
		c0-0.485,0.22-0.66,0.66-0.66c0.308,0,0.66,0.044,0.968,0.044c0.396,0,0.748-0.044,1.056-0.044c0.572,0,1.012,0.044,1.452,0.044
		c0.264,0,0.485-0.044,0.704-0.044c0.264,0,0.749,0.044,0.749,0.396V0.58c-0.133,0.66-0.176,2.64-0.176,2.816
		c0,0.44,0.043,0.968,0.043,1.188l0.044,7.393c-0.087,0.572-0.087,0.793-0.087,1.32v0.44c0,0,0.131,0.177,0.22,0.177
		c2.112,0,4.18-0.177,6.293-0.177c0.088,0,0.352,0.088,0.44,0.088h0.616c1.232,0,2.552,0.089,3.828,0.089
		c0.22,0,0.484,0,0.484-0.221v-1.144c0-3.96-0.088-7.921-0.088-11.838c0-0.571,0.308-0.615,0.792-0.615h0.088
		c0,0,0.44,0.044,0.529,0.044h3.784c0.176,0,0.396,0.219,0.396,0.44c0,1.1-0.22,2.244-0.22,3.344c0,1.452,0.176,2.86,0.176,4.357
		c0,0.44-0.088,0.924-0.088,1.408c0,2.068,0.088,4.181,0.088,6.161v2.86c-0.088,0.264-0.088,0.264-0.088,0.528
		c0,2.509,0.088,4.973,0.088,7.481v3.917c-0.044,0.22,0.044,0.836-0.352,0.836h-4.973c-0.132,0-0.176-0.264-0.176-0.308v-0.528
		c0-1.892,0.044-3.653,0.044-5.501v-1.76c0-1.408,0.044-2.86,0.044-4.225c0-0.132-0.044-0.352-0.088-0.352h-7.481
		c-1.232-0.088-2.464-0.088-3.74-0.088h-0.396c-0.133,0.044-0.22,0.176-0.22,0.264c0,2.245,0.087,4.533,0.087,6.777V28.7
		c0,0.219-0.044,1.056-0.044,1.276v0.088c0,0.22,0.088,0.572,0.088,0.924c0,0.264-0.219,0.396-0.396,0.484h-0.44
		c-0.572,0-1.144-0.088-1.76-0.088c-0.792,0-1.76,0.088-2.596,0.088c-0.132,0-0.352,0-0.396-0.264V30.856z"/>
	<path clip-path="url(#SVGID_2_)" fill="#A1CAB1" d="M181.905,0.711c0.043-0.22,0.263-0.308,0.439-0.308
		c1.057,0,1.981,0.044,3.037,0.044h0.792c0.044,0.044,0.22,0.132,0.264,0.264l7.525,21.519v0.308l2.948,8.009
		c0.133,0.176,0.177,0.352,0.177,0.573c0,0.219-0.044,0.263-0.308,0.352h-0.529c-0.748,0-1.54-0.089-2.288-0.089
		c-0.572,0-1.144,0.089-1.716,0.089h-0.44c-0.044,0-0.176-0.089-0.176-0.177l-2.157-6.336c-0.44-0.132-0.704-0.132-1.012-0.132
		c-0.176,0-0.307,0-0.484,0.044l-9.241-0.044c-0.044,0-0.176,0.088-0.176,0.088l-2.113,6.293c-0.043,0.175-0.439,0.264-0.571,0.264
		h-3.917c-0.22,0-0.44-0.133-0.44-0.441L181.905,0.711z M187.405,20.294h0.352c0.044,0,0.044-0.044,0.044-0.044l-3.74-11.97h-0.044
		c-0.044,0-0.088,0-0.088,0.044l-0.484,1.1l-3.257,10.342v0.176c0,0.132,0.044,0.176,0.176,0.308h1.804c0.308,0,0.616,0,0.881-0.044
		C183.753,20.25,186.745,20.294,187.405,20.294"/>
	<path clip-path="url(#SVGID_2_)" fill="#A1CAB1" d="M206.477,31.252h-0.616c-0.264-0.044-0.308-0.396-0.308-0.616
		c0-0.968,0.044-2.069,0.088-3.08V7.709c-0.088-2.377-0.088-4.753-0.088-7.173c0-0.485,0.308-0.529,0.66-0.529
		c1.32,0,2.597,0.044,3.828,0.044l0.353,0.133l12.673,20.11c0,0.044,0.089,0.044,0.089,0.044c0.132,0,0.219-0.087,0.219-0.264
		c0-6.16-0.483-12.365-0.483-18.614V0.228c0-0.088,0.219-0.177,0.264-0.177h1.056c0.088,0,0.66,0.045,0.748,0.045
		c0.044,0,0.396-0.045,0.44-0.045h1.54c0.044,0,0.264-0.044,0.308-0.044c0.528,0,0.748,0.133,0.792,0.704v0.705
		c0,0.836-0.044,1.672-0.044,2.552c0,1.144,0.044,2.332,0.044,3.476c0,0.837-0.044,1.629-0.044,2.509
		c0,0.704,0.044,1.364,0.044,2.068v0.528c0.044,0.132,0.044,0.176,0.044,0.221c0,0.131,0,0.219-0.044,0.351v0.485
		c0,0.352,0,0.66,0.044,1.056v13.422c0,0.131-0.044,0.704-0.044,0.88v0.132c0,0.44,0.044,0.968,0.044,1.408V30.9
		c0,0.044-0.044,0.264-0.088,0.264l-0.616,0.044h-3.257c-0.131,0-0.263-0.176-0.308-0.22l-0.923-1.496l-4.269-6.601l-7.789-12.454
		h-0.044c-0.132,0-0.132,0-0.176,0.132v0.352c0,3.785,0.308,7.569,0.308,11.353c0,0.221-0.044,0.353-0.044,0.573
		c0,0.396,0.044,0.792,0.044,1.232c0,1.232-0.044,2.596-0.044,3.873c0,0.836,0.044,1.76,0.044,2.64c0,0.44-0.088,0.704-0.881,0.704
		l-0.131,0.044c-0.177,0-1.409-0.132-1.629-0.132h-0.22C207.489,31.208,206.961,31.252,206.477,31.252"/>
	<path clip-path="url(#SVGID_2_)" fill="#A1CAB1" d="M237.549,26.851v-2.42c0-3.081-0.088-10.474-0.088-10.606l-0.044-0.264V1.635
		c0-0.087-0.044-0.572-0.044-0.704V0.843c0-0.264,0.088-0.528,0.396-0.528h12.014l3.785,1.012l2.376,1.717l1.628,1.936l1.32,4.005
		c0.309,0.879,0.132,1.716,0.265,2.64v6.205c-0.045,0.044-0.045,0.308-0.045,0.352c0,0,0,0.176,0.045,0.22v1.848l-0.837,4.665
		l-1.144,2.244l-2.42,2.332l-2.949,1.453l-1.716,0.264c-0.308,0-0.66-0.044-1.012-0.044c-0.44,0-0.836,0.044-1.232,0.132h-1.409
		c-2.772,0-5.588,0.087-8.36,0.087h-0.397c-0.22-0.131-0.22-0.352-0.22-0.571C237.461,29.491,237.549,28.259,237.549,26.851
		 M243.182,26.675l5.369-0.044l2.376-0.484l0.924-0.484l0.924-1.056l0.749-1.321c0.044-0.088,0.263-1.76,0.307-2.332v-1.98
		c0-0.264,0.044-2.596,0.044-2.817v-0.175c0-0.177-0.044-2.069-0.044-2.333v-2.464c-0.044-0.704-0.263-2.509-0.307-2.685
		l-0.704-1.364l-0.881-1.056l-1.496-0.748l-2.112-0.352h-5.281c0,0.132-0.176,0.22-0.176,0.352v5.149
		c-0.044,0.132-0.044,0.836-0.044,1.012v0.088c0,2.376,0.088,4.709,0.088,7.173c0,0.616-0.044,1.276-0.044,1.98v0.22
		c0,0.22,0.044,2.421,0.044,2.728c0,0.749-0.044,1.409-0.044,2.069C242.874,26.015,242.83,26.675,243.182,26.675"/>
	<path clip-path="url(#SVGID_2_)" fill="#A1CAB1" d="M268.34,0.491c0.044-0.264,0.264-0.308,0.484-0.308
		c1.057,0,1.98,0.044,2.993,0.044h0.748c0.044,0,0.352,0.088,0.396,0.132l8.933,16.37l0.22,0.308c0.176,0,0.22-0.044,0.264-0.176
		l8.67-16.414c0.043-0.088,0.263-0.132,0.308-0.22h0.615c0.793,0,1.629-0.044,2.421-0.044c0.616,0,1.1,0.044,1.1,0.748
		s-0.132,1.452-0.132,2.156c0,0.22,0.088,0.352,0.088,0.529c0,0.439-0.088,0.835-0.088,1.231v0.221
		c0.044,0.131,0.088,0.615,0.088,0.66c0,0.044-0.044,0.836-0.088,0.968V6.74c0,0.528,0.176,0.968,0.176,1.496
		c0,0.396-0.088,0.792-0.088,1.232c0,4.137,0.264,8.317,0.264,12.542c0,1.892-0.088,3.829-0.088,5.809
		c0,0.704,0.088,1.496,0.088,2.244v0.968l-0.176,0.264h-0.66c-0.352,0-0.616-0.044-0.924-0.044h-0.132
		c-0.264,0-2.509,0.088-2.816,0.088h-0.044c-0.397,0-0.617-0.088-0.704-0.484c0.263-3.608,0.131-7.217,0.219-10.869
		c0.044-2.685,0.22-5.413,0.22-8.141c0-0.177,0-0.617-0.132-0.617l-8.493,16.107c0,0.044-0.088,0.088-0.132,0.132h-0.044
		c-0.176,0-0.352-0.132-0.44-0.309l-8.273-15.842c0-0.044-0.088-0.044-0.132-0.044s-0.044,0.089-0.044,0.177
		c0,4.312,0.308,8.625,0.308,12.981c0,1.276-0.088,2.597-0.088,3.917c0,0.704,0.088,1.452,0.088,2.112
		c0,0.748-0.088,0.924-0.792,0.924c-0.704,0-1.452-0.044-2.201-0.044c-0.396,0-0.88,0.044-1.408,0.044h-0.484
		c-0.352-0.132-0.352-0.352-0.352-0.66C268.076,20.778,268.34,10.7,268.34,0.491"/>
	<path clip-path="url(#SVGID_2_)" fill="#A1CAB1" d="M314.563,0.711c0.043-0.22,0.264-0.308,0.439-0.308
		c1.057,0,1.981,0.044,3.037,0.044h0.792c0.044,0.044,0.22,0.132,0.264,0.264l7.525,21.519v0.308l2.948,8.009
		c0.133,0.176,0.177,0.352,0.177,0.573c0,0.219-0.044,0.263-0.308,0.352h-0.528c-0.749,0-1.541-0.089-2.289-0.089
		c-0.572,0-1.144,0.089-1.716,0.089h-0.44c-0.044,0-0.176-0.089-0.176-0.177l-2.157-6.336c-0.44-0.132-0.704-0.132-1.012-0.132
		c-0.176,0-0.308,0-0.484,0.044l-9.241-0.044c-0.044,0-0.176,0.088-0.176,0.088l-2.113,6.293c-0.043,0.175-0.439,0.264-0.571,0.264
		h-3.917c-0.22,0-0.44-0.133-0.44-0.441L314.563,0.711z M320.063,20.294h0.352c0.044,0,0.044-0.044,0.044-0.044l-3.74-11.97h-0.044
		c-0.044,0-0.089,0-0.089,0.044l-0.483,1.1l-3.257,10.342v0.176c0,0.132,0.044,0.176,0.176,0.308h1.805c0.307,0,0.615,0,0.88-0.044
		C316.411,20.25,319.403,20.294,320.063,20.294"/>
	<path clip-path="url(#SVGID_2_)" fill="#A1CAB1" d="M338.338,26.851v-2.42c0-3.081-0.088-10.474-0.088-10.606l-0.044-0.264V1.635
		c0-0.087-0.044-0.572-0.044-0.704V0.843c0-0.264,0.088-0.528,0.396-0.528h12.014l3.785,1.012l2.376,1.717l1.628,1.936l1.32,4.005
		c0.309,0.879,0.132,1.716,0.265,2.64v6.205c-0.045,0.044-0.045,0.308-0.045,0.352c0,0,0,0.176,0.045,0.22v1.848l-0.837,4.665
		l-1.144,2.244l-2.42,2.332l-2.949,1.453l-1.716,0.264c-0.308,0-0.66-0.044-1.012-0.044c-0.44,0-0.836,0.044-1.232,0.132h-1.409
		c-2.772,0-5.588,0.087-8.36,0.087h-0.397c-0.22-0.131-0.22-0.352-0.22-0.571C338.25,29.491,338.338,28.259,338.338,26.851
		 M343.971,26.675l5.369-0.044l2.376-0.484l0.924-0.484l0.924-1.056l0.749-1.321c0.044-0.088,0.263-1.76,0.307-2.332v-1.98
		c0-0.264,0.044-2.596,0.044-2.817v-0.175c0-0.177-0.044-2.069-0.044-2.333v-2.464c-0.044-0.704-0.263-2.509-0.307-2.685
		l-0.704-1.364l-0.881-1.056l-1.496-0.748L349.12,4.98h-5.281c0,0.132-0.176,0.22-0.176,0.352v5.149
		c-0.044,0.132-0.044,0.836-0.044,1.012v0.088c0,2.376,0.088,4.709,0.088,7.173c0,0.616-0.044,1.276-0.044,1.98v0.22
		c0,0.22,0.044,2.421,0.044,2.728c0,0.749-0.044,1.409-0.044,2.069C343.663,26.015,343.619,26.675,343.971,26.675"/>
	<path clip-path="url(#SVGID_2_)" fill="#A1CAB1" d="M368.887,30.019c0-0.748-0.044-1.452,0.176-2.2
		c0-0.044-0.088-0.088-0.132-0.088V10.964c0-0.132-0.044-0.836-0.044-0.967V9.864c0-1.276,0.044-2.552,0.044-3.74
		c0-1.497-0.044-3.037-0.044-4.533V0.887c0.044-0.572,0.352-0.572,0.792-0.572c0.352,0,0.616,0,0.924,0.044h14.39
		c0.616-0.044,0.968-0.044,1.584-0.044h0.748c0.221,0.088,0.353,0.22,0.353,0.484v3.872c-0.044,0.177-0.132,0.265-0.309,0.265h-1.32
		c-0.22,0-0.396,0-0.572-0.044h-3.872c-1.277,0-2.861-0.088-4.401-0.088c-0.924,0-2.948-0.133-3.125,0.528V6.52
		c0,0.924,0.089,1.892,0.089,2.728s-0.089,1.584-0.089,2.376v0.088c0.044,0.133,0.044,0.308,0.044,0.397v0.352
		c0,0.396,0.089,0.66,1.233,0.66c2.112,0,4.268-0.176,6.293-0.176c0.396,0,0.704,0.044,0.704,0.572v4.313
		c-0.088,0.264-0.44,0.308-0.704,0.308c-0.836,0-1.673-0.089-2.597-0.089h-1.144c-0.528,0.133-1.144,0.133-1.672,0.133
		c-0.396,0-0.616-0.088-1.276-0.088c-0.792,0-0.881,0.175-0.881,0.615c0,2.641,0.089,5.149,0.089,7.789
		c0,0.133,0.219,0.221,0.263,0.221h0.529c4.092,0,8.185-0.088,12.278-0.088c0.879,0,1.232-0.044,1.232,0.924
		c0,0.836-0.044,1.716-0.044,2.596v0.66c0,0.088-0.044,0.396-0.176,0.484h-0.485c-0.527,0-1.144-0.044-1.716-0.044
		c-4.048,0-8.141,0.088-12.233,0.088h-4.621c-0.088,0-0.264-0.132-0.308-0.308V30.019z"/>
	<path clip-path="url(#SVGID_2_)" fill="#A1CAB1" d="M417.683,31.252h-0.616c-0.264-0.044-0.308-0.396-0.308-0.616
		c0-0.968,0.044-2.069,0.088-3.08V7.709c-0.088-2.377-0.088-4.753-0.088-7.173c0-0.485,0.308-0.529,0.66-0.529
		c1.32,0,2.597,0.044,3.828,0.044l0.353,0.133l12.673,20.11c0,0.044,0.089,0.044,0.089,0.044c0.132,0,0.219-0.087,0.219-0.264
		c0-6.16-0.483-12.365-0.483-18.614V0.228c0-0.088,0.219-0.177,0.264-0.177h1.056c0.088,0,0.66,0.045,0.748,0.045
		c0.044,0,0.396-0.045,0.44-0.045h1.54c0.044,0,0.264-0.044,0.308-0.044c0.528,0,0.748,0.133,0.792,0.704v0.705
		c0,0.836-0.044,1.672-0.044,2.552c0,1.144,0.044,2.332,0.044,3.476c0,0.837-0.044,1.629-0.044,2.509
		c0,0.704,0.044,1.364,0.044,2.068v0.528c0.044,0.132,0.044,0.176,0.044,0.221c0,0.131,0,0.219-0.044,0.351v0.485
		c0,0.352,0,0.66,0.044,1.056v13.422c0,0.131-0.044,0.704-0.044,0.88v0.132c0,0.44,0.044,0.968,0.044,1.408V30.9
		c0,0.044-0.044,0.264-0.088,0.264l-0.616,0.044h-3.257c-0.131,0-0.263-0.176-0.308-0.22l-0.923-1.496l-4.269-6.601l-7.789-12.454
		h-0.044c-0.132,0-0.132,0-0.176,0.132v0.352c0,3.785,0.308,7.569,0.308,11.353c0,0.221-0.044,0.353-0.044,0.573
		c0,0.396,0.044,0.792,0.044,1.232c0,1.232-0.044,2.596-0.044,3.873c0,0.836,0.044,1.76,0.044,2.64c0,0.44-0.088,0.704-0.881,0.704
		l-0.131,0.044c-0.177,0-1.409-0.132-1.629-0.132h-0.22C418.695,31.208,418.167,31.252,417.683,31.252"/>
	<path clip-path="url(#SVGID_2_)" fill="#A1CAB1" d="M448.755,15.497c0-4.929-0.176-9.857-0.176-14.786
		c0-0.748,0.484-0.572,1.012-0.66c1.101,0.044,1.54,0.044,2.464,0.044h0.969c0.043,0,0.439-0.088,0.528-0.088
		c0.352,0,0.616,0.088,0.704,0.396v0.396c0,0.176,0,0.396-0.044,0.528v1.276c0,1.144,0.044,2.289,0.044,3.477v1.364
		c-0.044,0.132-0.044,0.22-0.044,0.396v0.836c0,1.628,0.044,9.066,0.044,10.694v5.897c0,0.087,0.044,1.012,0.044,1.1
		c0,0.836-0.044,1.056-0.088,2.112v0.044c0,0,0.044,0.044,0.044,0.088v0.704c-0.088,0.088-0.088,0.132-0.088,0.176
		c0,0.22,0.132,0.616,0.132,0.748v0.044c0,0.132-0.044,0.748-0.044,0.881c-0.088,0.087-0.308,0.087-0.396,0.131h-3.301
		c-0.176,0-1.364,0.088-1.54,0.088c-0.352,0-0.396-0.396-0.396-0.66C448.623,25.619,448.755,20.602,448.755,15.497"/>
	<path clip-path="url(#SVGID_2_)" fill="#A1CAB1" d="M465.365,30.283l-1.1-0.968l-0.704-1.716c-0.088-0.22-0.044-0.572-0.133-0.837
		V14.573c0.089-1.232,0.045-2.993,0.045-4.225V7.532c-0.045-0.572-0.045-0.968-0.045-1.453l0.309-2.376l0.792-1.54l0.88-0.88
		l1.452-0.704l3.081-0.352c0.175,0,1.012,0.088,1.188,0.088c0.22,0,2.464-0.088,2.772-0.088h2.641c0.044,0,0.44-0.044,0.484-0.044
		h0.088c1.1,0,2.112,0.044,3.256,0.044h0.836l2.069,0.528l0.792,0.44l1.1,1.144l0.704,1.452c0,0.925,0.176,2.685,0.176,3.873
		c0,0.396,0.044,0.792-0.396,0.836l-3.697,0.836c-0.088,0-0.748,0.176-0.836,0.176h-0.044c-0.176,0-0.264,0-0.308-0.176V8.94
		c0-0.88,0.044-1.848,0.044-2.772V4.979c0-0.088-0.176-0.088-0.22-0.088h-0.88c-0.924,0-1.76,0.044-2.728,0.044
		c-1.013,0-2.025-0.044-3.081-0.044h-2.068c-0.748,0-1.54-0.087-2.377-0.087c-0.571,0-0.659,0.792-0.659,1.583
		c0,0.396,0.044,0.793,0.044,1.101v5.236c-0.044,1.101-0.044,1.585-0.044,2.597c0,3.256,0.175,6.513,0.175,9.814v1.231
		c0,0.265,0.352,0.309,0.529,0.309c1.54,0,3.036-0.177,4.576-0.177c1.453,0,2.905,0.133,4.445,0.133h1.936
		c0.044,0,0.308-0.133,0.308-0.221v-5.368c0.044-0.748,0.044-1.056,0.044-1.717v-0.704c0-0.175-0.484-0.175-0.572-0.175h-0.088
		c-0.44,0-4.577,0.131-5.105,0.131c-0.088,0-0.307-0.131-0.307-0.22v-4.356c0-0.088,0.219-0.176,0.263-0.176h1.012
		c0.748,0,1.629,0.044,2.465,0.044c0.308,0,0.44,0,0.836-0.044h6.557c0.088,0,0.176,0.088,0.176,0.132v12.805l-0.308,1.409
		l-1.012,1.628l-0.968,0.704l-1.409,0.528l-2.42,0.22h-4.137c-0.22,0-0.836,0-0.968,0.044h-6.469l-1.936-0.484L465.365,30.283z"/>
	<path clip-path="url(#SVGID_2_)" fill="#A1CAB1" d="M495.197,30.856c0-1.98,0-4.049,0.176-5.985v-6.513
		c0-0.396,0.044-3.256,0.044-3.652c0-0.132-0.044-0.881-0.044-1.057V3.044c-0.088-0.792-0.132-1.54-0.132-2.244
		c0-0.485,0.22-0.66,0.66-0.66c0.308,0,0.66,0.044,0.968,0.044c0.396,0,0.748-0.044,1.056-0.044c0.572,0,1.012,0.044,1.453,0.044
		c0.263,0,0.484-0.044,0.704-0.044c0.263,0,0.748,0.044,0.748,0.396V0.58c-0.133,0.66-0.176,2.64-0.176,2.816
		c0,0.44,0.043,0.968,0.043,1.188l0.044,7.393c-0.087,0.572-0.087,0.793-0.087,1.32v0.44c0,0,0.132,0.177,0.22,0.177
		c2.112,0,4.18-0.177,6.293-0.177c0.088,0,0.352,0.088,0.44,0.088h0.616c1.232,0,2.552,0.089,3.828,0.089
		c0.22,0,0.484,0,0.484-0.221v-1.144c0-3.96-0.088-7.921-0.088-11.838c0-0.571,0.309-0.615,0.792-0.615h0.088
		c0,0,0.44,0.044,0.529,0.044h3.784c0.176,0,0.396,0.219,0.396,0.44c0,1.1-0.22,2.244-0.22,3.344c0,1.452,0.176,2.86,0.176,4.357
		c0,0.44-0.088,0.924-0.088,1.408c0,2.068,0.088,4.181,0.088,6.161v2.86c-0.088,0.264-0.088,0.264-0.088,0.528
		c0,2.509,0.088,4.973,0.088,7.481v3.917c-0.044,0.22,0.044,0.836-0.352,0.836h-4.973c-0.132,0-0.176-0.264-0.176-0.308v-0.528
		c0-1.892,0.044-3.653,0.044-5.501v-1.76c0-1.408,0.044-2.86,0.044-4.225c0-0.132-0.044-0.352-0.088-0.352h-7.481
		c-1.232-0.088-2.464-0.088-3.74-0.088h-0.396c-0.133,0.044-0.22,0.176-0.22,0.264c0,2.245,0.087,4.533,0.087,6.777V28.7
		c0,0.219-0.044,1.056-0.044,1.276v0.088c0,0.22,0.089,0.572,0.089,0.924c0,0.264-0.22,0.396-0.397,0.484h-0.44
		c-0.571,0-1.144-0.088-1.76-0.088c-0.792,0-1.76,0.088-2.596,0.088c-0.132,0-0.352,0-0.396-0.264V30.856z"/>
	<path clip-path="url(#SVGID_2_)" fill="#A1CAB1" d="M534.886,24.827v-3.212c0-0.133-0.044-1.1-0.044-1.233
		c0-4.841,0.088-9.681,0.088-14.566V4.98c-0.088-0.132-0.308-0.132-0.528-0.132c-1.012,0-1.98,0.044-2.993,0.044h-2.112
		c-0.748,0-1.54,0.044-2.288,0.044h-0.264c-0.176-0.044-0.264-0.22-0.264-0.352V0.755c0-0.22,0-0.572,0.308-0.615h0.352
		c2.332,0,4.708,0.043,7.129,0.043h4.224c0.265,0,1.1-0.043,1.277-0.043h0.044c0.528,0,0.968,0.043,1.452,0.043
		c2.288,0,4.664-0.087,7.041-0.087c0.264,0,0.616,0.087,0.616,0.396c0,0.748-0.132,1.54-0.132,2.332
		c0,0.528,0.088,0.968,0.088,1.452v0.44l-0.176,0.176h-5.589c-0.704,0-1.452-0.044-2.068-0.044c-0.352,0-0.616,0.132-0.616,0.484
		v0.044c0,0.176,0.044,1.012,0.044,1.144v7.965c0.044,0.264,0.044,0.352,0.044,0.616c0,0.396-0.044,0.661-0.088,1.057v2.816
		c0.088,0.396,0.088,0.88,0.088,1.276v0.088c0,0.177-0.088,1.012-0.088,1.188v1.849c0,1.276,0.044,2.596,0.044,3.784
		c0,0.704-0.044,1.364-0.044,1.937c0,0.616,0.044,1.144,0.044,1.716c0,0.528-0.528,0.528-0.881,0.528c-0.439,0-0.66,0-1.144-0.088
		c-0.396,0.132-0.835,0.22-1.364,0.22c-0.528,0-1.144-0.088-1.584-0.088h-0.484c-0.22-0.088-0.22-0.44-0.22-0.616
		C534.798,28.744,534.886,26.763,534.886,24.827"/>
	<path clip-path="url(#SVGID_2_)" fill="#A1CAB1" d="M576.333,0.491c0.044-0.264,0.264-0.308,0.484-0.308
		c1.057,0,1.98,0.044,2.993,0.044h0.748c0.044,0,0.352,0.088,0.396,0.132l8.933,16.37l0.22,0.308c0.176,0,0.22-0.044,0.264-0.176
		l8.67-16.414c0.043-0.088,0.264-0.132,0.308-0.22h0.615c0.793,0,1.629-0.044,2.421-0.044c0.616,0,1.1,0.044,1.1,0.748
		s-0.132,1.452-0.132,2.156c0,0.22,0.088,0.352,0.088,0.529c0,0.439-0.088,0.835-0.088,1.231v0.221
		c0.044,0.131,0.088,0.615,0.088,0.66c0,0.044-0.044,0.836-0.088,0.968V6.74c0,0.528,0.176,0.968,0.176,1.496
		c0,0.396-0.088,0.792-0.088,1.232c0,4.137,0.264,8.317,0.264,12.542c0,1.892-0.088,3.829-0.088,5.809
		c0,0.704,0.088,1.496,0.088,2.244v0.968l-0.176,0.264h-0.66c-0.352,0-0.616-0.044-0.924-0.044h-0.132
		c-0.264,0-2.508,0.088-2.816,0.088h-0.045c-0.396,0-0.616-0.088-0.704-0.484c0.264-3.608,0.132-7.217,0.22-10.869
		c0.044-2.685,0.22-5.413,0.22-8.141c0-0.177,0-0.617-0.132-0.617l-8.493,16.107c0,0.044-0.088,0.088-0.132,0.132h-0.044
		c-0.176,0-0.352-0.132-0.44-0.309l-8.273-15.842c0-0.044-0.088-0.044-0.132-0.044s-0.044,0.089-0.044,0.177
		c0,4.312,0.308,8.625,0.308,12.981c0,1.276-0.088,2.597-0.088,3.917c0,0.704,0.088,1.452,0.088,2.112
		c0,0.748-0.088,0.924-0.792,0.924s-1.452-0.044-2.201-0.044c-0.396,0-0.88,0.044-1.408,0.044h-0.484
		c-0.352-0.132-0.352-0.352-0.352-0.66C576.068,20.778,576.333,10.7,576.333,0.491"/>
	<path clip-path="url(#SVGID_2_)" fill="#A1CAB1" d="M622.556,0.711c0.043-0.22,0.263-0.308,0.439-0.308
		c1.057,0,1.981,0.044,3.037,0.044h0.792c0.044,0.044,0.22,0.132,0.264,0.264l7.525,21.519v0.308l2.948,8.009
		c0.133,0.176,0.177,0.352,0.177,0.573c0,0.219-0.044,0.263-0.308,0.352h-0.529c-0.748,0-1.54-0.089-2.288-0.089
		c-0.572,0-1.144,0.089-1.716,0.089h-0.44c-0.044,0-0.176-0.089-0.176-0.177l-2.157-6.336c-0.44-0.132-0.704-0.132-1.012-0.132
		c-0.176,0-0.307,0-0.484,0.044l-9.241-0.044c-0.044,0-0.176,0.088-0.176,0.088l-2.113,6.293c-0.043,0.175-0.439,0.264-0.571,0.264
		h-3.917c-0.22,0-0.44-0.133-0.44-0.441L622.556,0.711z M628.056,20.294h0.352c0.044,0,0.044-0.044,0.044-0.044l-3.74-11.97h-0.044
		c-0.044,0-0.088,0-0.088,0.044l-0.484,1.1l-3.257,10.342v0.176c0,0.132,0.044,0.176,0.176,0.308h1.804c0.308,0,0.616,0,0.881-0.044
		C624.404,20.25,627.396,20.294,628.056,20.294"/>
	<path clip-path="url(#SVGID_2_)" fill="#A1CAB1" d="M646.203,30.283c0-1.012,0-1.584,0.044-2.772V15.893
		c0.132-1.76,0.132-3.521,0.132-5.325c0-3.344-0.132-6.645-0.132-9.989c0-0.264,0.044-0.44,0.308-0.528h1.012
		c0.484,0,1.056,0,1.584,0.044h4.929c0.176,0,0.792-0.044,0.968-0.044h0.044c0.044,0,0.352,0.044,0.396,0.044h0.044
		c0.044,0,0.264,0,0.264-0.044l6.293,0.044l1.584,0.264l1.277,0.528c0.396,0.22,1.628,1.496,1.804,2.068l0.308,0.836l0.176,1.584
		v6.822c0,0.044,0.044,0.396,0.044,0.527v0.045c0,0.792-0.044,1.452-0.044,2.2l-0.528,1.584l-0.308,0.484l-1.54,1.232l-1.056,0.44
		c-0.485,0.221-2.993,0.177-2.993,0.397v0.044c0,0,0,0.132,0.044,0.132l8.053,11.661c0,0.176-0.132,0.352-0.264,0.396h-0.264
		c-0.308,0-0.44,0-0.792-0.044h-1.804c-0.924,0-1.892,0.044-2.817,0.044c-0.176,0-0.352,0.044-0.44-0.132l-7.965-12.19
		c-0.044-0.044-0.22-0.131-0.264-0.131h-2.596c-0.132,0-0.22,0.087-0.22,0.22v0.396c0,2.024,0.088,4.092,0.088,6.117v0.748
		c-0.044,0.044-0.044,0.087-0.044,0.131c0,0.221,0.044,0.529,0.044,0.705c0,1.1-0.133,2.156-0.133,3.256
		c0,0.264,0,0.528,0.045,0.792c-0.132,0.088-0.396,0.088-0.441,0.088h-3.036c-0.396,0.044-0.66,0.044-1.056,0.044h-0.44
		c-0.088,0-0.308-0.088-0.308-0.264V30.283z M651.792,14.265h8.713c0.528,0,1.1-0.176,1.364-0.616l0.132-0.132
		c0.088-0.704,0.088-3.301,0.088-4.709V6.3c-0.088-1.452-1.012-1.629-2.156-1.629c-1.672,0-3.124,0.045-4.665,0.045h-0.044
		c-0.308,0-2.728-0.089-2.992-0.089h-0.044c-0.264,0-0.704,0.044-0.704,0.352v8.934C651.484,14.045,651.484,14.265,651.792,14.265"
		/>
	<path clip-path="url(#SVGID_2_)" fill="#A1CAB1" d="M695.618,31.34h-0.22c-0.352,0-1.188-0.044-1.188-0.044l-0.22-0.132
		l-10.561-14.038h-0.089c-0.088,0-0.176,0.088-0.176,0.22v0.66c0,1.893,0.088,3.741,0.088,5.677c0,1.54-0.088,3.124-0.088,4.841
		c0,0.616,0.088,1.364,0.088,2.112v0.352c-0.132,0.264-0.484,0.308-0.704,0.308h-0.22c-0.088,0-0.968-0.044-1.144-0.044h-0.044
		c-0.616,0-1.188,0.044-1.892,0.044h-1.145c-0.263-0.044-0.307-0.308-0.307-0.484v-0.176c0-0.088,0.044-0.66,0.044-0.748v-7.965
		c0-0.176-0.044-0.836-0.044-0.968v-0.177c0-0.352,0.044-1.98,0.044-2.332V2.34c0-0.264-0.044-1.452-0.044-1.628v-0.22
		c0-0.396,0.263-0.485,0.615-0.485c0.485,0,1.101,0.044,1.629,0.044c0.396,0,0.836-0.044,1.364-0.044h0.088
		c0.044,0,0.132,0.044,0.132,0.044c0.088,0,0.484-0.044,0.528-0.044h0.176c0.352,0,0.792,0.044,0.792,0.485
		c0,0.264-0.044,0.484-0.044,0.704c0,0.264,0.044,0.396,0.044,0.66c0,0.396-0.088,0.792-0.088,1.188c0,0.836,0.132,1.804,0.22,2.685
		c0,0-0.088,0.571-0.088,0.615v0.044c0,0.529,0.088,1.189,0.088,1.849c0,1.188-0.088,2.376-0.088,3.696v1.452
		c0,0.133,0.132,0.177,0.176,0.177h0.089l9.46-13.422l0.133-0.044c0.396-0.132,3.476-0.089,4.489-0.089h0.879
		c0.088,0.044,0.221,0.177,0.221,0.309c0,0.131,0,0.264-0.133,0.396l-10.209,13.994c0,0.088,0.044,0.176,0.088,0.308l12.146,15.71
		c0.088,0.132,0.132,0.176,0.132,0.264c0,0.264-0.264,0.396-0.44,0.396h-0.132c-0.44-0.044-2.465-0.132-2.904-0.132
		C696.894,31.252,695.882,31.34,695.618,31.34"/>
	<path clip-path="url(#SVGID_2_)" fill="#A1CAB1" d="M709.414,30.019c0-0.748-0.044-1.452,0.176-2.2
		c0-0.044-0.088-0.088-0.132-0.088V10.964c0-0.132-0.044-0.836-0.044-0.967V9.864c0-1.276,0.044-2.552,0.044-3.74
		c0-1.497-0.044-3.037-0.044-4.533V0.887c0.044-0.572,0.352-0.572,0.792-0.572c0.352,0,0.616,0,0.924,0.044h14.39
		c0.616-0.044,0.968-0.044,1.584-0.044h0.748c0.221,0.088,0.353,0.22,0.353,0.484v3.872c-0.044,0.177-0.132,0.265-0.309,0.265h-1.32
		c-0.22,0-0.396,0-0.572-0.044h-3.872c-1.277,0-2.861-0.088-4.401-0.088c-0.924,0-2.948-0.133-3.125,0.528V6.52
		c0,0.924,0.089,1.892,0.089,2.728s-0.089,1.584-0.089,2.376v0.088c0.044,0.133,0.044,0.308,0.044,0.397v0.352
		c0,0.396,0.089,0.66,1.233,0.66c2.112,0,4.268-0.176,6.293-0.176c0.396,0,0.704,0.044,0.704,0.572v4.313
		c-0.088,0.264-0.44,0.308-0.704,0.308c-0.836,0-1.673-0.089-2.597-0.089h-1.144c-0.528,0.133-1.144,0.133-1.672,0.133
		c-0.396,0-0.616-0.088-1.276-0.088c-0.792,0-0.881,0.175-0.881,0.615c0,2.641,0.089,5.149,0.089,7.789
		c0,0.133,0.219,0.221,0.263,0.221h0.529c4.092,0,8.185-0.088,12.278-0.088c0.879,0,1.232-0.044,1.232,0.924
		c0,0.836-0.044,1.716-0.044,2.596v0.66c0,0.088-0.044,0.396-0.176,0.484h-0.485c-0.527,0-1.144-0.044-1.716-0.044
		c-4.048,0-8.141,0.088-12.233,0.088h-4.621c-0.088,0-0.264-0.132-0.308-0.308V30.019z"/>
	<path clip-path="url(#SVGID_2_)" fill="#A1CAB1" d="M745.155,24.827v-3.212c0-0.133-0.044-1.1-0.044-1.233
		c0-4.841,0.088-9.681,0.088-14.566V4.98c-0.088-0.132-0.308-0.132-0.528-0.132c-1.012,0-1.98,0.044-2.993,0.044h-2.112
		c-0.748,0-1.54,0.044-2.288,0.044h-0.264c-0.176-0.044-0.264-0.22-0.264-0.352V0.755c0-0.22,0-0.572,0.308-0.615h0.352
		c2.332,0,4.708,0.043,7.129,0.043h4.224c0.265,0,1.1-0.043,1.277-0.043h0.044c0.528,0,0.968,0.043,1.452,0.043
		c2.288,0,4.664-0.087,7.041-0.087c0.264,0,0.616,0.087,0.616,0.396c0,0.748-0.132,1.54-0.132,2.332
		c0,0.528,0.088,0.968,0.088,1.452v0.44l-0.176,0.176h-5.589c-0.704,0-1.452-0.044-2.068-0.044c-0.352,0-0.616,0.132-0.616,0.484
		v0.044c0,0.176,0.044,1.012,0.044,1.144v7.965c0.044,0.264,0.044,0.352,0.044,0.616c0,0.396-0.044,0.661-0.088,1.057v2.816
		c0.088,0.396,0.088,0.88,0.088,1.276v0.088c0,0.177-0.088,1.012-0.088,1.188v1.849c0,1.276,0.044,2.596,0.044,3.784
		c0,0.704-0.044,1.364-0.044,1.937c0,0.616,0.044,1.144,0.044,1.716c0,0.528-0.528,0.528-0.881,0.528c-0.439,0-0.659,0-1.144-0.088
		c-0.396,0.132-0.835,0.22-1.364,0.22c-0.528,0-1.144-0.088-1.584-0.088h-0.484c-0.22-0.088-0.22-0.44-0.22-0.616
		C745.067,28.744,745.155,26.763,745.155,24.827"/>
</g>
</svg>
