<?xml version="1.0" encoding="utf-8"?>
<!-- Generator: Adobe Illustrator 17.0.2, SVG Export Plug-In . SVG Version: 6.00 Build 0)  -->
<!DOCTYPE svg PUBLIC "-//W3C//DTD SVG 1.1//EN" "http://www.w3.org/Graphics/SVG/1.1/DTD/svg11.dtd">
<svg version="1.1" id="Layer_1" xmlns="http://www.w3.org/2000/svg" xmlns:xlink="http://www.w3.org/1999/xlink" x="0px" y="0px"
	 width="1322.91px" height="121.178px" viewBox="0 0 1322.91 121.178" enable-background="new 0 0 1322.91 121.178"
	 xml:space="preserve">
<g>
	<defs>
		<rect id="SVGID_1_" y="0" width="1322.906" height="121.178"/>
	</defs>
	<clipPath id="SVGID_2_">
		<use xlink:href="#SVGID_1_"  overflow="visible"/>
	</clipPath>
	<path clip-path="url(#SVGID_2_)" fill="#A1CAB1" d="M104.393,37.458l-4.899-1c0.269-1.316,0.342-2.728,0.42-4.222
		c0.083-1.612,0.17-3.279,0.513-4.963c0.311-1.524,0.633-2.908,0.955-4.292c0.14-0.6,0.279-1.2,0.419-1.812
		c-1.383-0.391-2.73-0.845-4.048-1.29c-1.116-0.377-2.198-0.741-3.27-1.06c-0.087,0.65-0.168,1.321-0.25,2.007
		c-0.201,1.678-0.409,3.412-0.744,5.016l-1.865,8.995l-4.894-1.022l1.865-8.995c0.29-1.392,0.476-2.945,0.674-4.589
		c0.201-1.68,0.409-3.416,0.744-5.021l0.511-2.447l2.447,0.51c2.214,0.463,4.332,1.178,6.381,1.868
		c2.032,0.686,3.951,1.333,5.905,1.732l2.449,0.499l-0.499,2.45c-0.311,1.524-0.633,2.908-0.955,4.292
		c-0.312,1.341-0.625,2.682-0.926,4.158c-0.268,1.317-0.342,2.729-0.419,4.223C104.823,34.107,104.736,35.774,104.393,37.458"/>
	<path clip-path="url(#SVGID_2_)" fill="#F68E63" d="M94.711,62.784c-1.589,0.092-3.255-0.037-4.975-0.393
		c-5.084-1.048-8.582-3.061-10.696-6.153c-2.528-3.698-3.515-8.365-2.641-12.486c1.037-4.88,4.726-8.097,7.638-9.935
		c3.258-2.059,7.273-2.617,11.933-1.654c4.661,0.96,8.129,3.06,10.306,6.238c2.378,3.472,3.217,7.736,2.363,12.004
		c-0.86,4.295-3.307,7.912-6.891,10.181C99.681,61.896,97.299,62.634,94.711,62.784 M91.027,36.72
		c-1.642,0.095-3.072,0.536-4.32,1.324c-2.099,1.325-4.742,3.572-5.417,6.747c-0.587,2.767,0.133,6.073,1.878,8.625
		c1.328,1.942,3.877,3.315,7.578,4.079c3.273,0.674,6.074,0.292,8.327-1.132c2.453-1.555,4.066-3.954,4.663-6.94
		c0.596-2.978,0.048-5.812-1.585-8.196c-1.44-2.104-3.793-3.466-7.191-4.168C93.529,36.765,92.222,36.651,91.027,36.72"/>
	<path clip-path="url(#SVGID_2_)" fill="#A1CAB1" d="M191.975,53.764l-4.929-0.841c0.267-1.559,0.597-3.107,0.916-4.605
		c0.309-1.45,0.629-2.949,0.878-4.409c0.246-1.438,0.429-3.061,0.607-4.63c0.089-0.787,0.181-1.587,0.28-2.381
		c-1.212-0.149-2.452-0.27-3.733-0.395c-1.398-0.136-2.825-0.276-4.247-0.458c-0.122,0.68-0.244,1.354-0.365,2.029
		c-0.262,1.452-0.523,2.904-0.787,4.409c-0.275,1.568-0.626,3.119-0.965,4.618c-0.342,1.507-0.664,2.931-0.918,4.379l-4.925-0.865
		c0.275-1.567,0.626-3.118,0.965-4.617c0.342-1.508,0.664-2.931,0.918-4.38c0.266-1.511,0.528-2.971,0.791-4.43
		c0.261-1.452,0.523-2.904,0.787-4.409l0.432-2.463l2.463,0.433c2.034,0.357,4.124,0.562,6.337,0.778
		c2.137,0.209,4.348,0.424,6.501,0.792l2.464,0.421l-0.421,2.464c-0.246,1.441-0.43,3.066-0.608,4.638
		c-0.186,1.637-0.378,3.331-0.647,4.909c-0.267,1.561-0.598,3.111-0.917,4.609C192.542,50.809,192.223,52.307,191.975,53.764"/>
	<path clip-path="url(#SVGID_2_)" fill="#F68E63" d="M181.777,80.29c-1.292,0.074-2.591,0.006-3.857-0.213
		c-3.826-0.662-7.266-3.052-10.221-7.105c-2.761-3.782-3.838-7.916-3.114-11.953c0.715-3.989,3.133-7.483,6.994-10.103
		c3.493-2.37,7.584-3.235,11.824-2.502c4.309,0.746,7.888,2.921,10.352,6.291c2.852,3.902,4.014,8.034,3.36,11.945
		c-0.73,4.375-3.257,8.409-6.759,10.792C187.884,79.125,184.849,80.112,181.777,80.29 M179.831,53.176
		c-1.946,0.113-3.769,0.74-5.444,1.878c-1.898,1.287-4.285,3.52-4.881,6.847c-0.602,3.362,0.881,6.274,2.232,8.125
		c2.164,2.966,4.531,4.691,7.035,5.124c2.981,0.519,6.342-0.188,8.769-1.841c2.361-1.606,4.139-4.474,4.641-7.482
		c0.54-3.227-1.042-6.225-2.465-8.171c-1.707-2.335-4.119-3.787-7.167-4.316C181.62,53.179,180.713,53.125,179.831,53.176"/>
	<path clip-path="url(#SVGID_2_)" fill="#A1CAB1" d="M280.121,67.278l-4.953-0.683l1.251-9.101c0.199-1.442,0.326-3.065,0.448-4.633
		c0.061-0.776,0.122-1.564,0.194-2.348c-1.157-0.07-2.334-0.094-3.55-0.119c-1.387-0.028-2.805-0.058-4.242-0.16
		c-0.119,0.677-0.242,1.33-0.363,1.974c-0.258,1.374-0.501,2.671-0.71,4.132c-0.229,1.601-0.565,3.17-0.89,4.686
		c-0.322,1.501-0.626,2.917-0.83,4.349l-4.95-0.708c0.229-1.601,0.565-3.171,0.891-4.689c0.322-1.499,0.625-2.916,0.829-4.345
		c0.225-1.569,0.489-2.982,0.746-4.347c0.258-1.375,0.502-2.674,0.711-4.136l0.353-2.475l2.475,0.353
		c1.974,0.282,3.97,0.323,6.083,0.367c2.125,0.043,4.324,0.089,6.553,0.397l2.477,0.342l-0.343,2.477
		c-0.2,1.444-0.326,3.068-0.449,4.639c-0.128,1.641-0.261,3.339-0.48,4.928L280.121,67.278z"/>
	<path clip-path="url(#SVGID_2_)" fill="#F68E63" d="M268.83,94.3c-0.715,0.041-1.448,0.015-2.201-0.091
		c-4.255-0.597-8.525-3.057-11.142-6.42c-2.254-2.897-2.965-6.932-2.173-12.335c0.714-4.872,2.667-8.5,5.806-10.785
		c3.365-2.45,7.765-3.508,12.068-2.902c3.893,0.546,7.358,2.735,10.299,6.507c2.549,3.27,3.542,7.158,2.95,11.555v-0.001
		c-0.58,4.311-2.618,7.769-6.058,10.28C275.519,92.195,272.403,94.093,268.83,94.3 M268.08,66.619
		c-2.201,0.128-4.31,0.849-6.018,2.093c-2.01,1.463-3.289,3.975-3.801,7.466c-0.584,3.983-0.2,6.776,1.172,8.54
		c1.822,2.341,4.919,4.123,7.892,4.54c2.603,0.364,5.122-1.011,8.107-3.19c2.361-1.722,3.648-3.917,4.05-6.906v-0.001
		c0.417-3.098-0.199-5.582-1.938-7.812c-2.145-2.751-4.452-4.266-7.051-4.631C269.686,66.605,268.877,66.573,268.08,66.619"/>
	<path clip-path="url(#SVGID_2_)" fill="#A1CAB1" d="M368.156,77.917l-4.972-0.526c0.138-1.303,0.039-2.703-0.067-4.186
		c-0.115-1.632-0.235-3.322-0.051-5.064c0.169-1.593,0.415-3.097,0.653-4.552c0.102-0.624,0.201-1.232,0.294-1.839
		c-1.353-0.189-2.688-0.404-3.995-0.615c-1.126-0.182-2.274-0.367-3.425-0.533c-0.026,0.627-0.044,1.269-0.063,1.925
		c-0.045,1.6-0.092,3.254-0.271,4.878c-0.186,1.674-0.564,3.274-0.931,4.823c-0.347,1.467-0.675,2.854-0.826,4.224l-4.97-0.549
		c0.185-1.674,0.564-3.277,0.931-4.826c0.347-1.467,0.674-2.853,0.826-4.222c0.157-1.42,0.199-2.901,0.243-4.469
		c0.045-1.599,0.092-3.254,0.272-4.878l0.275-2.485l2.484,0.275c2.125,0.235,4.223,0.573,6.25,0.9
		c2.055,0.332,4.18,0.674,6.27,0.896l2.486,0.263l-0.263,2.486c-0.169,1.593-0.415,3.097-0.652,4.552
		c-0.238,1.451-0.462,2.82-0.615,4.272c-0.138,1.303-0.039,2.703,0.066,4.186C368.221,74.486,368.34,76.175,368.156,77.917"/>
	<path clip-path="url(#SVGID_2_)" fill="#F68E63" d="M358.349,104.668c-0.864,0.05-1.735,0.029-2.604-0.065
		c-3.977-0.43-7.519-2.49-10.53-6.12c-2.42-2.918-5.128-6.88-4.583-11.656c0.436-3.817,2.729-7.367,6.815-10.552
		c3.874-3.018,7.948-4.392,11.792-3.979c4.129,0.446,8.141,2.68,11.007,6.129c2.588,3.115,3.754,7.365,3.283,11.965
		c-0.433,4.255-2.559,8.072-5.986,10.747C364.822,103.263,361.63,104.478,358.349,104.668 M357.424,77.237
		c-2.705,0.157-5.197,1.653-6.904,2.982c-2.987,2.328-4.643,4.743-4.92,7.175c-0.331,2.898,1.678,5.743,3.465,7.898
		c2.181,2.631,4.542,4.05,7.218,4.34c3.678,0.404,6.479-1.105,8.183-2.435c2.376-1.856,3.79-4.386,4.089-7.315
		c0.333-3.254-0.433-6.187-2.155-8.262c-2.013-2.422-4.891-4.049-7.698-4.353C358.273,77.22,357.846,77.213,357.424,77.237"/>
	<path clip-path="url(#SVGID_2_)" fill="#A1CAB1" d="M456.135,85.726l-4.987-0.368c0.113-1.531,0.239-3.062,0.364-4.593
		c0.125-1.521,0.249-3.043,0.362-4.565c0.116-1.564,0.294-3.272,0.466-4.923c0.077-0.731,0.154-1.472,0.226-2.202
		c-1.179-0.015-2.388,0.005-3.637,0.025c-1.416,0.024-2.862,0.048-4.307,0.017c-0.051,0.675-0.102,1.344-0.153,2.013
		c-0.112,1.474-0.224,2.946-0.344,4.481c-0.121,1.54-0.266,3.077-0.41,4.614c-0.143,1.512-0.285,3.024-0.403,4.537l-4.985-0.39
		c0.12-1.54,0.265-3.077,0.41-4.615c0.142-1.511,0.284-3.023,0.403-4.536c0.12-1.532,0.232-3,0.343-4.47
		c0.111-1.459,0.222-2.919,0.342-4.44l0.195-2.493l2.493,0.196c2.024,0.158,4.117,0.124,6.334,0.088
		c2.175-0.036,4.424-0.074,6.624,0.088l2.494,0.184l-0.184,2.494c-0.116,1.566-0.295,3.275-0.468,4.928
		c-0.168,1.615-0.343,3.284-0.453,4.772c-0.113,1.536-0.239,3.071-0.365,4.606C456.371,82.691,456.247,84.208,456.135,85.726"/>
	<path clip-path="url(#SVGID_2_)" fill="#F68E63" d="M447.803,112.389c-0.897,0.052-1.823,0.042-2.773-0.03
		c-4.188-0.319-7.659-2.099-10.612-5.44c-2.689-3.045-5.525-6.687-5.14-11.386c0.332-4.043,2.644-8.217,6.185-11.166
		c2.911-2.422,7.038-3.507,11.935-3.134c4.236,0.323,7.968,2.182,10.793,5.375c2.796,3.159,4.057,7,3.747,11.418
		c-0.327,4.647-2.126,8.461-5.204,11.03C454.338,111.056,451.287,112.187,447.803,112.389 M444.561,86.19
		c-2.025,0.117-4.227,0.629-5.899,2.02c-2.493,2.077-4.18,5.04-4.4,7.732c-0.225,2.741,1.805,5.29,3.904,7.667
		c2.076,2.35,4.378,3.546,7.243,3.765c3.368,0.255,6.099-0.471,8.121-2.157c2.037-1.7,3.188-4.238,3.42-7.542
		c0.215-3.071-0.603-5.607-2.503-7.754c-1.975-2.231-4.474-3.477-7.429-3.702C446.269,86.162,445.431,86.14,444.561,86.19"/>
	<path clip-path="url(#SVGID_2_)" fill="#A1CAB1" d="M544.947,90.773l-4.996-0.209c0.057-1.364-0.072-2.778-0.207-4.276
		c-0.145-1.593-0.295-3.241-0.224-4.937c0.069-1.634,0.276-3.283,0.476-4.878c0.083-0.661,0.164-1.307,0.235-1.939
		c-1.17-0.027-2.344-0.043-3.496-0.058c-1.347-0.019-2.723-0.038-4.1-0.074c0.02,0.605,0.051,1.221,0.082,1.85
		c0.076,1.55,0.155,3.153,0.079,4.803c-0.082,1.758-0.468,3.412-0.841,5.012c-0.337,1.445-0.655,2.81-0.716,4.112l-4.994-0.233
		c0.081-1.758,0.467-3.414,0.841-5.014c0.337-1.445,0.655-2.809,0.715-4.11c0.066-1.409-0.004-2.825-0.078-4.324
		c-0.077-1.55-0.156-3.153-0.079-4.802l0.116-2.497l2.497,0.116c2.154,0.1,4.387,0.13,6.547,0.161
		c2.045,0.028,4.159,0.056,6.237,0.144l2.497,0.105l-0.104,2.498c-0.069,1.632-0.277,3.28-0.477,4.873
		c-0.196,1.563-0.381,3.038-0.441,4.465c-0.057,1.364,0.071,2.778,0.207,4.275C544.868,87.429,545.017,89.078,544.947,90.773"/>
	<path clip-path="url(#SVGID_2_)" fill="#F68E63" d="M536.047,117.747c-0.535,0.031-1.077,0.034-1.626,0.01
		c-3.504-0.155-8.536-0.757-11.766-4.191c-2.697-2.867-4.105-7.283-3.864-12.116c0.21-4.185,2.153-8.113,5.472-11.061
		c2.854-2.535,6.73-3.708,11.523-3.503c4.71,0.208,8.446,1.745,11.105,4.564c2.708,2.873,3.989,6.713,3.809,11.415
		c-0.166,4.337-1.829,7.854-5.082,10.751C542.764,116.158,539.551,117.544,536.047,117.747 M533.677,91.889
		c-2.568,0.149-4.573,0.887-6.093,2.238c-2.307,2.05-3.657,4.74-3.799,7.574c-0.172,3.43,0.767,6.585,2.512,8.439
		c1.509,1.604,4.161,2.437,8.345,2.622c2.871,0.124,5.302-0.789,7.65-2.88c2.214-1.972,3.299-4.263,3.412-7.209
		c0.128-3.357-0.673-5.906-2.451-7.793c-1.761-1.867-4.275-2.848-7.688-2.999C534.904,91.852,534.275,91.854,533.677,91.889"/>
	<path clip-path="url(#SVGID_2_)" fill="#A1CAB1" d="M633.019,92.978l-5-0.051c0.017-1.62,0.146-3.22,0.271-4.768
		c0.123-1.528,0.24-2.971,0.255-4.413c0.014-1.457-0.057-2.89-0.133-4.406c-0.035-0.722-0.072-1.455-0.099-2.197
		c-1.043-0.005-2.079-0.006-3.114-0.008c-1.541-0.002-3.079-0.004-4.632-0.015c-0.089,0.796-0.202,1.574-0.314,2.338
		c-0.211,1.446-0.411,2.811-0.431,4.179c-0.019,1.341,0.172,2.74,0.375,4.222c0.22,1.601,0.446,3.256,0.42,4.977l-4.999-0.075
		c0.02-1.342-0.172-2.741-0.375-4.223c-0.219-1.601-0.445-3.255-0.42-4.975c0.025-1.694,0.258-3.287,0.482-4.828
		c0.211-1.445,0.411-2.81,0.431-4.178l0.037-2.499l2.5,0.037c2.345,0.034,4.636,0.037,6.933,0.04
		c1.85,0.003,3.704,0.006,5.593,0.024l2.5,0.025l-0.025,2.501c-0.014,1.456,0.057,2.889,0.132,4.406
		c0.076,1.524,0.155,3.099,0.138,4.706c-0.016,1.618-0.146,3.217-0.27,4.765C633.15,90.091,633.034,91.534,633.019,92.978"/>
	<path clip-path="url(#SVGID_2_)" fill="#F68E63" d="M624.731,121.158c-0.274,0.016-0.552,0.023-0.835,0.019
		c-3.897-0.049-7.665-1.861-11.2-5.388c-2.878-2.872-4.295-6.67-4.21-11.288c0.082-4.513,1.628-8.226,4.595-11.037
		c3.53-3.345,7.305-5.008,11.22-4.969c4.553,0.057,8.952,1.764,11.767,4.567c2.927,2.915,4.657,7.338,4.628,11.831
		c-0.033,5.026-3.254,8.662-5.674,10.96C632.533,118.217,629.148,120.903,624.731,121.158 M623.678,93.508
		c-2.385,0.138-4.79,1.342-7.158,3.585c-1.985,1.881-2.978,4.334-3.035,7.499c-0.06,3.252,0.838,5.757,2.743,7.657
		c2.58,2.575,5.181,3.897,7.73,3.928c3.004,0.043,5.542-1.975,7.621-3.949c2.832-2.689,4.101-4.961,4.117-7.368
		c0.02-3.133-1.188-6.296-3.155-8.254c-1.916-1.907-5.019-3.07-8.302-3.111C624.052,93.492,623.865,93.497,623.678,93.508"/>
	<path clip-path="url(#SVGID_2_)" fill="#A1CAB1" d="M721.112,92.401l-4.999,0.108c-0.035-1.6,0.021-3.193,0.075-4.733
		c0.054-1.542,0.105-2.998,0.073-4.458c-0.033-1.542-0.045-2.999-0.058-4.455c-0.005-0.653-0.011-1.306-0.019-1.968
		c-1.416-0.048-2.821-0.148-4.197-0.248c-1.215-0.086-2.39-0.17-3.547-0.22c0.036,0.708,0.076,1.422,0.116,2.126
		c0.094,1.636,0.19,3.328,0.217,4.909c0.027,1.573-0.001,3.153-0.028,4.68c-0.026,1.486-0.052,3.021-0.027,4.509l-5,0.085
		c-0.026-1.574,0.001-3.153,0.028-4.681c0.026-1.485,0.053-3.021,0.027-4.509c-0.025-1.48-0.118-3.121-0.208-4.708
		c-0.093-1.636-0.19-3.327-0.217-4.908l-0.043-2.499l2.5-0.043c2.203-0.038,4.407,0.12,6.539,0.272
		c2.169,0.156,4.218,0.303,6.247,0.259l2.499-0.055l0.055,2.5c0.033,1.543,0.045,2.999,0.058,4.456
		c0.012,1.436,0.024,2.87,0.057,4.389c0.035,1.602-0.021,3.198-0.075,4.742C721.131,89.489,721.08,90.942,721.112,92.401"/>
	<path clip-path="url(#SVGID_2_)" fill="#F68E63" d="M714.057,120.176c-0.212,0.013-0.424,0.021-0.638,0.024
		c-4.625,0.091-8.761-1.348-11.648-4.05c-2.858-2.677-4.341-6.534-4.407-11.464c-0.048-3.491,0.276-8.527,3.632-11.916
		c2.746-2.774,7.05-4.429,11.803-4.511c4.742-0.091,9.1,1.388,11.96,4.059c3.117,2.913,5.12,7.407,5.229,11.73v-0.001
		c0.096,3.801-1.685,7.498-5.443,11.302C721.643,118.285,718.027,119.946,714.057,120.176 M712.277,93.282
		c-3.17,0.184-6.026,1.287-7.729,3.006c-1.547,1.563-2.242,4.21-2.185,8.33c0.048,3.519,0.998,6.171,2.826,7.882
		c1.929,1.807,4.818,2.767,8.133,2.702c2.939-0.058,5.514-1.19,7.667-3.368c2.752-2.785,4.061-5.291,4.001-7.66v-0.001
		c-0.075-2.984-1.506-6.202-3.644-8.201c-1.89-1.765-5.048-2.779-8.45-2.714C712.689,93.262,712.482,93.27,712.277,93.282"/>
	<path clip-path="url(#SVGID_2_)" fill="#A1CAB1" d="M809.684,89.014l-4.993,0.268c-0.09-1.691,0.036-3.339,0.158-4.932
		c0.114-1.5,0.222-2.918,0.149-4.284c-0.078-1.457-0.231-2.829-0.394-4.282c-0.078-0.701-0.157-1.413-0.229-2.142
		c-1.436,0.005-2.864-0.04-4.262-0.083c-1.187-0.037-2.337-0.073-3.468-0.08c0.09,0.624,0.194,1.266,0.301,1.922
		c0.269,1.66,0.547,3.377,0.629,5.046c0.084,1.706-0.07,3.36-0.219,4.96c-0.14,1.494-0.271,2.905-0.205,4.258l-4.994,0.244
		c-0.084-1.707,0.071-3.363,0.22-4.965c0.139-1.492,0.27-2.902,0.204-4.253c-0.067-1.389-0.312-2.895-0.571-4.49
		c-0.269-1.661-0.548-3.379-0.63-5.048l-0.122-2.497l2.497-0.122c2.187-0.107,4.387-0.039,6.513,0.027
		c2.181,0.068,4.241,0.132,6.281,0.023l2.497-0.134l0.134,2.497c0.078,1.456,0.231,2.829,0.394,4.282
		c0.162,1.459,0.331,2.968,0.417,4.569c0.091,1.691-0.036,3.34-0.157,4.934C809.719,86.231,809.611,87.648,809.684,89.014"/>
	<path clip-path="url(#SVGID_2_)" fill="#F68E63" d="M803.029,117.463c-0.04,0.002-0.079,0.005-0.118,0.007
		c-3.973,0.204-7.826-1.309-11.452-4.493c-3.478-3.055-5.415-6.826-5.6-10.907c-0.207-4.582,1.241-8.894,3.973-11.834
		c2.663-2.866,6.671-4.586,11.294-4.853c0.047-0.003,0.094-0.006,0.141-0.009c4.013-0.204,7.82,1.245,11.314,4.306
		c3.545,3.106,5.458,6.717,5.687,10.731c0.262,4.587-1.167,8.92-3.92,11.888C811.534,115.331,807.414,117.209,803.029,117.463
		 M801.419,90.374c-3.285,0.19-6.169,1.378-7.925,3.267c-1.825,1.962-2.787,4.952-2.639,8.202c0.123,2.729,1.436,5.211,3.903,7.376
		c2.614,2.297,5.27,3.392,7.897,3.257c3.141-0.154,6.096-1.495,8.028-3.578c1.833-1.976,2.778-4.965,2.593-8.202
		c-0.152-2.663-1.457-5.036-3.99-7.254c-2.518-2.206-5.057-3.212-7.764-3.074C801.487,90.37,801.453,90.372,801.419,90.374"/>
	<path clip-path="url(#SVGID_2_)" fill="#A1CAB1" d="M881.361,84.207c-0.122-1.507-0.271-3.013-0.42-4.518
		c-0.153-1.543-0.305-3.086-0.43-4.63c-0.118-1.458-0.321-2.96-0.536-4.549c-0.215-1.585-0.437-3.224-0.566-4.818l-0.202-2.491
		L881.699,63c3.132-0.254,6.459-0.541,9.692-0.819l5.826-0.499l0.212,2.491c0.126,1.468,0.335,3.05,0.538,4.579
		c0.209,1.586,0.427,3.226,0.562,4.809c0.139,1.631,0.14,3.248,0.14,4.812c0.001,1.525,0.001,2.966,0.122,4.385l-4.982,0.426
		c-0.139-1.632-0.14-3.248-0.14-4.81c0-1.526-0.001-2.968-0.122-4.388c-0.125-1.467-0.334-3.048-0.537-4.577
		c-0.101-0.766-0.204-1.545-0.299-2.323l-0.892,0.076c-2.374,0.206-4.8,0.415-7.163,0.611c0.085,0.674,0.178,1.361,0.273,2.066
		c0.215,1.585,0.437,3.224,0.566,4.818c0.122,1.515,0.272,3.026,0.422,4.539c0.152,1.536,0.304,3.07,0.428,4.609L881.361,84.207z"/>
	<path clip-path="url(#SVGID_2_)" fill="#F68E63" d="M891.473,111.017c-4.853,0.282-8.683-0.704-11.393-2.933
		c-3.116-2.565-5.112-6.74-5.476-11.455c-0.296-3.835,1.166-7.54,4.47-11.325c3.212-3.682,6.659-5.629,10.536-5.951
		c4.515-0.374,8.891,0.862,11.977,3.396c3.364,2.762,5.596,6.926,5.972,11.14c0.336,3.779-1.178,7.544-4.629,11.508
		c-2.915,3.347-6.512,5.22-10.692,5.566C891.98,110.985,891.725,111.003,891.473,111.017 M890.387,84.31
		c-0.121,0.007-0.242,0.015-0.363,0.025c-2.552,0.212-4.835,1.565-7.183,4.256c-2.409,2.76-3.442,5.192-3.252,7.653
		c0.257,3.317,1.628,6.3,3.668,7.978c2.256,1.857,5.902,1.978,8.566,1.759c2.879-0.239,5.278-1.504,7.336-3.867
		c2.545-2.924,3.632-5.396,3.419-7.782c-0.258-2.905-1.815-5.791-4.163-7.718C896.402,84.961,893.493,84.13,890.387,84.31"/>
	<path clip-path="url(#SVGID_2_)" fill="#A1CAB1" d="M969.488,75.746c-0.183-1.619-0.237-3.23-0.291-4.787
		c-0.051-1.528-0.1-2.971-0.26-4.395c-0.154-1.357-0.522-2.835-0.912-4.398c-0.411-1.653-0.837-3.36-1.027-5.045l-0.281-2.485
		l2.485-0.28c1.905-0.215,3.919-0.424,5.944-0.633c2.451-0.254,4.918-0.509,7.224-0.781l2.483-0.291l0.292,2.483
		c0.168,1.426,0.459,2.92,0.767,4.5c0.311,1.603,0.634,3.261,0.825,4.876c0.201,1.716,0.133,3.389,0.069,5.009
		c-0.06,1.492-0.117,2.901,0.039,4.228l-4.966,0.583c-0.201-1.716-0.134-3.392-0.069-5.011c0.06-1.492,0.116-2.901-0.04-4.226
		c-0.167-1.427-0.458-2.922-0.766-4.503c-0.155-0.793-0.312-1.601-0.454-2.41c-1.603,0.176-3.25,0.346-4.89,0.516
		c-1.091,0.113-2.179,0.225-3.248,0.339c0.141,0.624,0.301,1.265,0.465,1.922c0.412,1.653,0.838,3.36,1.028,5.046
		c0.182,1.619,0.237,3.23,0.29,4.787c0.051,1.528,0.1,2.971,0.261,4.394L969.488,75.746z"/>
	<path clip-path="url(#SVGID_2_)" fill="#F68E63" d="M979.877,102.007c-4.277,0.248-7.788-0.663-10.453-2.715
		c-3.168-2.44-5.117-6.239-5.636-10.987c-0.454-4.146,0.753-8.002,3.587-11.461c2.784-3.4,6.299-5.365,10.448-5.843
		c4.654-0.529,8.756,0.444,11.87,2.835c2.236,1.718,6.082,5.392,6.725,10.702c0.466,3.847-0.991,7.966-4.215,11.91
		c-2.504,3.063-6.145,4.889-10.822,5.428C980.87,101.935,980.368,101.978,979.877,102.007 M979.337,75.886
		c-0.328,0.019-0.643,0.047-0.942,0.082c-2.853,0.329-5.193,1.652-7.152,4.044c-1.979,2.415-2.791,4.949-2.485,7.749
		c0.256,2.345,1.109,5.561,3.716,7.569c1.931,1.488,4.656,2.004,8.334,1.578c3.341-0.384,5.872-1.604,7.524-3.624
		c1.632-1.998,3.5-5.033,3.122-8.144v-0.001c-0.309-2.554-2.061-5.228-4.807-7.337C984.375,76.058,981.562,75.757,979.337,75.886"/>
	<path clip-path="url(#SVGID_2_)" fill="#A1CAB1" d="M1058.101,64.377c-0.203-1.398-0.544-2.794-0.905-4.273
		c-0.372-1.524-0.758-3.101-0.994-4.733c-0.209-1.435-0.55-3.053-0.879-4.618c-0.346-1.644-0.702-3.344-0.934-4.938l-0.359-2.473
		l2.474-0.36c2.144-0.312,4.39-0.493,6.562-0.666c2.166-0.175,4.407-0.354,6.459-0.662l2.473-0.371l0.37,2.472
		c0.208,1.384,0.564,2.758,0.94,4.212c0.393,1.514,0.799,3.079,1.045,4.722c0.249,1.661,0.3,3.304,0.347,4.891
		c0.047,1.509,0.09,2.935,0.295,4.302l-4.944,0.742c-0.25-1.661-0.3-3.303-0.348-4.891c-0.046-1.509-0.09-2.934-0.294-4.302
		c-0.209-1.384-0.564-2.757-0.941-4.21c-0.196-0.759-0.396-1.531-0.578-2.319c-1.474,0.16-2.965,0.28-4.424,0.397
		c-1.22,0.098-2.464,0.198-3.684,0.322c0.138,0.697,0.288,1.405,0.434,2.103c0.346,1.64,0.702,3.336,0.933,4.928
		c0.203,1.396,0.544,2.791,0.905,4.267c0.372,1.526,0.758,3.106,0.994,4.741L1058.101,64.377z"/>
	<path clip-path="url(#SVGID_2_)" fill="#F68E63" d="M1069.3,91.402c-4.444,0.257-8.331-1.779-10.89-3.62
		c-3.663-2.634-6.004-6.374-6.593-10.529c-0.715-5.05,1.805-9.021,3.762-11.57c2.567-3.339,5.559-6.519,10.038-7.181
		c4.23-0.622,8.972,0.518,12.4,2.978c3.223,2.313,5.483,6.318,6.2,10.99c0.658,4.292-0.461,8.705-3.071,12.109
		c-2.816,3.673-6.712,6.116-10.689,6.704C1070.068,91.341,1069.682,91.38,1069.3,91.402 M1067.323,63.349
		c-0.328,0.019-0.654,0.052-0.975,0.1c-2.857,0.421-5.01,2.947-6.804,5.281c-2.268,2.952-3.125,5.365-2.777,7.822
		c0.396,2.793,2.016,5.339,4.563,7.172c2.027,1.458,5.123,3.099,8.396,2.612c2.703-0.399,5.42-2.149,7.452-4.8
		c1.786-2.328,2.55-5.356,2.096-8.307v-0.001c-0.507-3.301-2.066-6.174-4.172-7.686
		C1072.947,63.997,1070.045,63.191,1067.323,63.349"/>
	<path clip-path="url(#SVGID_2_)" fill="#A1CAB1" d="M1145.778,50.271c-0.254-1.426-0.601-2.835-0.969-4.326
		c-0.37-1.504-0.754-3.059-1.037-4.647c-0.266-1.499-0.545-2.975-0.823-4.449c-0.282-1.492-0.563-2.984-0.833-4.501l-0.438-2.461
		l2.461-0.438c2.052-0.365,4.224-0.901,6.324-1.419c2.099-0.517,4.269-1.052,6.398-1.442l2.46-0.449l0.45,2.459
		c0.295,1.615,0.456,3.347,0.61,5.02c0.153,1.64,0.297,3.187,0.553,4.584c0.27,1.485,0.581,2.963,0.891,4.441
		c0.319,1.52,0.636,3.04,0.916,4.568l-4.919,0.899c-0.271-1.485-0.582-2.963-0.892-4.44c-0.318-1.521-0.636-3.041-0.916-4.568
		c-0.295-1.615-0.456-3.347-0.61-5.02c-0.066-0.701-0.129-1.384-0.201-2.046c-1.18,0.266-2.373,0.56-3.543,0.849
		c-1.374,0.339-2.777,0.685-4.182,0.993c0.128,0.683,0.255,1.363,0.384,2.043c0.282,1.492,0.563,2.985,0.833,4.501
		c0.254,1.426,0.601,2.835,0.968,4.326c0.371,1.504,0.755,3.059,1.037,4.647L1145.778,50.271z"/>
	<path clip-path="url(#SVGID_2_)" fill="#F68E63" d="M1157.661,77.063c-3.321,0.193-6.821-0.975-10.651-3.545
		c-3.604-2.417-5.905-5.964-6.652-10.257c-0.778-4.46,0.102-8.732,2.477-12.028c2.608-3.624,6.405-6.117,10.415-6.841
		c3.853-0.697,7.998,0.347,11.986,3.014c3.49,2.334,5.761,5.856,6.568,10.184c0.825,4.427-0.029,8.561-2.469,11.957
		c-3.015,4.192-6.454,6.663-10.223,7.343C1158.633,76.977,1158.149,77.035,1157.661,77.063 M1155.114,49.197
		c-0.324,0.019-0.649,0.057-0.977,0.115c-2.745,0.496-5.385,2.261-7.244,4.842c-1.605,2.229-2.162,5.08-1.61,8.249
		c0.509,2.917,2.068,5.324,4.512,6.963c3.261,2.187,6.015,3.034,8.429,2.604c2.448-0.442,4.82-2.239,7.051-5.341
		c1.647-2.293,2.19-5.026,1.613-8.123c-0.562-3.017-2.053-5.353-4.431-6.944C1160.647,50.353,1157.978,49.031,1155.114,49.197"/>
	<path clip-path="url(#SVGID_2_)" fill="#A1CAB1" d="M1233.176,33.336c-0.29-1.37-0.73-2.734-1.195-4.177
		c-0.485-1.501-0.986-3.054-1.328-4.679c-0.307-1.455-0.628-2.95-0.949-4.448c-0.34-1.586-0.68-3.173-1.005-4.714l-0.517-2.446
		l2.446-0.517c2.074-0.438,4.18-0.799,6.216-1.148c2.101-0.36,4.272-0.734,6.36-1.183l2.442-0.528l0.528,2.443
		c0.338,1.562,0.584,3.095,0.822,4.575c0.237,1.482,0.462,2.882,0.771,4.313c0.327,1.516,0.62,3.037,0.914,4.559
		c0.285,1.486,0.571,2.972,0.889,4.45l-4.886,1.054c-0.328-1.515-0.62-3.037-0.914-4.558c-0.286-1.486-0.571-2.972-0.89-4.45
		c-0.338-1.562-0.584-3.094-0.821-4.575c-0.103-0.643-0.204-1.27-0.31-1.892c-1.365,0.257-2.725,0.491-4.059,0.72
		c-1.177,0.201-2.378,0.408-3.572,0.629c0.157,0.737,0.316,1.479,0.475,2.22c0.321,1.502,0.643,3.003,0.952,4.462
		c0.289,1.371,0.729,2.735,1.194,4.178c0.485,1.501,0.986,3.054,1.329,4.679L1233.176,33.336z"/>
	<path clip-path="url(#SVGID_2_)" fill="#F68E63" d="M1243.471,59.249c-2.859,0.166-6.056-0.216-8.807-1.932
		c-3.391-2.116-5.897-6.031-6.874-10.745c-0.828-3.988,0.116-8.142,2.727-12.014c2.522-3.737,5.984-6.167,10.014-7.028
		c4.33-0.926,8.671-0.216,12.22,1.99c3.416,2.125,5.757,5.68,6.768,10.279c1.075,4.898,0.501,9.183-1.661,12.393
		c-2.161,3.212-5.949,5.536-10.663,6.543C1246.081,58.973,1244.814,59.172,1243.471,59.249 M1243.47,32.164
		c-0.632,0.037-1.266,0.121-1.896,0.256c-3.46,0.739-5.668,3.091-6.911,4.934c-1.284,1.903-2.669,4.87-1.978,8.203
		c0.691,3.332,2.42,6.142,4.625,7.518c2.049,1.277,5.187,1.55,8.84,0.771c3.441-0.735,6.126-2.314,7.56-4.447
		c1.744-2.588,1.466-6.065,0.925-8.526c-0.498-2.269-1.689-5.342-4.525-7.107C1248.203,32.58,1245.859,32.026,1243.47,32.164"/>
	<path clip-path="url(#SVGID_2_)" fill="#A1CAB1" d="M835.1,80.597c-1.549,0.09-3.082,0.066-4.567,0.043
		c-1.477-0.024-2.875-0.072-4.255,0.037c-1.603,0.059-3.2,0.066-4.739,0.035c-1.477-0.029-2.872-0.057-4.254,0.022
		c-0.009,0-0.017,0.001-0.026,0.001c-1.389,0.081-2.77,0.24-4.231,0.409c-1.523,0.175-3.093,0.363-4.69,0.443
		c-1.61,0.086-3.203,0.045-4.744,0.004c-1.475-0.04-2.869-0.077-4.249-0.008c-1.317,0.079-2.687,0.307-4.125,0.557
		c-1.546,0.272-3.142,0.547-4.808,0.63c-1.675,0.08-3.3-0.069-4.872-0.213c-1.45-0.132-2.82-0.257-4.136-0.198
		c-1.388,0.061-2.774,0.135-4.159,0.208c-1.603,0.086-3.206,0.172-4.81,0.238c-1.31,0.037-2.665,0.299-4.096,0.559
		c-1.555,0.283-3.162,0.566-4.845,0.639c-1.645,0.061-3.252-0.057-4.807-0.172c-1.462-0.107-2.844-0.209-4.192-0.163
		c-1.291,0.053-2.632,0.306-4.053,0.584c-1.566,0.307-3.181,0.623-4.892,0.676c-1.617,0.05-3.21-0.037-4.752-0.122
		c-1.473-0.081-2.865-0.158-4.242-0.119c-1.668,0.047-3.286-0.121-4.85-0.283c-1.451-0.15-2.822-0.292-4.147-0.259
		c-1.303,0.031-2.651,0.268-4.082,0.518c-1.564,0.274-3.184,0.563-4.875,0.593c-1.586,0.035-3.173,0.043-4.759,0.052
		c-1.407,0.007-2.816,0.015-4.223,0.041c-1.568,0.029-3.137,0.019-4.706,0.008c-1.426-0.01-2.851-0.02-4.277,0.002
		c-1.671,0.024-3.287-0.167-4.851-0.352c-1.447-0.171-2.815-0.334-4.139-0.319c-1.28,0.015-2.622,0.259-4.044,0.515
		c-1.578,0.285-3.212,0.577-4.925,0.595c-1.591,0.014-3.172-0.068-4.7-0.146c-1.481-0.075-2.88-0.147-4.284-0.14
		c-1.409,0.008-2.809,0.085-4.29,0.166c-1.527,0.083-3.105,0.17-4.69,0.172c-1.653,0.004-3.258-0.182-4.81-0.362
		c-1.454-0.167-2.829-0.326-4.171-0.327c-1.384-0.003-2.774,0.101-4.246,0.21c-1.536,0.113-3.125,0.232-4.735,0.225
		c-1.658-0.007-3.265-0.212-4.819-0.41c-1.45-0.185-2.82-0.359-4.156-0.368c-1.291-0.014-2.643,0.196-4.075,0.414
		c-1.578,0.241-3.21,0.491-4.914,0.471c-1.639-0.017-3.235-0.203-4.779-0.382c-1.459-0.17-2.837-0.33-4.194-0.349
		c-1.282-0.017-2.633,0.186-4.063,0.403c-1.584,0.239-3.221,0.488-4.933,0.458c-1.713-0.03-3.341-0.337-4.915-0.633
		c-1.422-0.268-2.764-0.521-4.045-0.547c-1.415-0.029-2.819,0.005-4.305,0.043c-1.524,0.038-3.1,0.077-4.679,0.04
		c-1.373-0.032-2.763,0.059-4.235,0.154c-1.544,0.1-3.137,0.203-4.758,0.16c-1.597-0.043-3.173-0.193-4.698-0.337
		c-1.476-0.139-2.871-0.271-4.269-0.313c-1.595-0.048-3.189-0.122-4.783-0.195c-1.397-0.063-2.794-0.127-4.191-0.174
		c-1.587-0.053-3.173-0.134-4.76-0.214c-1.404-0.071-2.808-0.142-4.212-0.193c-1.422-0.053-2.845-0.076-4.268-0.099
		c-1.571-0.026-3.142-0.051-4.712-0.114c-1.408-0.056-2.811-0.038-4.297-0.019c-1.527,0.019-3.105,0.039-4.689-0.028
		c-1.658-0.072-3.254-0.339-4.799-0.598c-1.443-0.242-2.806-0.47-4.141-0.532c-1.35-0.061-2.734,0.023-4.196,0.11
		c-1.557,0.093-3.163,0.192-4.805,0.11c-1.395-0.068-2.793-0.051-4.273-0.032c-1.535,0.02-3.122,0.04-4.719-0.045
		c-1.577-0.083-3.149-0.238-4.669-0.386c-1.412-0.138-2.872-0.282-4.285-0.361c-1.615-0.091-3.194-0.315-4.721-0.533
		c-1.461-0.208-2.841-0.405-4.217-0.486c-1.611-0.095-3.221-0.214-4.832-0.332c-1.375-0.101-2.751-0.202-4.127-0.288
		c-1.403-0.088-2.803-0.1-4.287-0.112c-1.529-0.012-3.111-0.025-4.696-0.129c-1.574-0.103-3.15-0.256-4.674-0.405
		c-1.424-0.137-2.849-0.276-4.276-0.374c-1.616-0.113-3.192-0.364-4.716-0.608c-1.457-0.233-2.833-0.453-4.204-0.552
		c-1.665-0.12-3.328-0.255-4.991-0.391c-1.32-0.107-2.64-0.215-3.961-0.315c-1.269-0.097-2.628,0.037-4.064,0.176
		c-1.599,0.157-3.253,0.317-4.97,0.181c-1.572-0.123-3.136-0.314-4.65-0.5c-1.411-0.171-2.869-0.35-4.284-0.466
		c-1.649-0.135-3.233-0.458-4.764-0.77c-1.435-0.293-2.79-0.569-4.126-0.683c-1.584-0.135-3.164-0.295-4.745-0.455
		c-1.397-0.141-2.795-0.282-4.194-0.405c-1.293-0.116-2.661-0.03-4.109,0.063c-1.587,0.102-3.227,0.203-4.917,0.05
		c-1.718-0.159-3.322-0.601-4.874-1.029c-1.391-0.384-2.705-0.746-3.969-0.866c-1.241-0.117-2.591,0.016-4.021,0.157
		c-1.618,0.16-3.292,0.326-5.031,0.155c-1.564-0.154-3.125-0.34-4.686-0.527c-1.413-0.168-2.826-0.337-4.24-0.48
		c-1.589-0.161-3.152-0.426-4.664-0.681c-1.461-0.247-2.84-0.479-4.231-0.625c-1.412-0.148-2.877-0.245-4.295-0.34
		c-1.521-0.101-3.094-0.206-4.66-0.375c-1.677-0.182-3.262-0.593-4.794-0.991c-1.408-0.365-2.737-0.71-4.038-0.855
		c-1.212-0.136-2.555,0.007-3.978,0.157c-1.637,0.174-3.33,0.353-5.095,0.151c-1.716-0.196-3.31-0.68-4.852-1.147
		c-1.381-0.418-2.685-0.813-3.944-0.961c-1.275-0.15-2.64-0.087-4.086-0.02c-1.598,0.074-3.251,0.151-4.95-0.055
		c-1.729-0.209-3.324-0.722-4.867-1.218c-1.37-0.44-2.664-0.856-3.909-1.011c-1.398-0.174-2.795-0.278-4.274-0.389
		c-1.524-0.114-3.1-0.232-4.673-0.433c-1.384-0.176-2.778-0.265-4.254-0.359c-1.532-0.098-3.116-0.2-4.702-0.407
		c-1.566-0.205-3.126-0.474-4.634-0.733c-1.395-0.24-2.837-0.488-4.239-0.677c-1.403-0.187-2.863-0.326-4.274-0.46
		c-1.521-0.144-3.093-0.294-4.657-0.508c-1.597-0.22-3.191-0.461-4.786-0.702c-1.366-0.207-2.732-0.413-4.1-0.606
		c-1.603-0.226-3.158-0.584-4.662-0.931c-1.437-0.331-2.794-0.644-4.157-0.841c-1.359-0.195-2.749-0.274-4.22-0.358
		c-1.543-0.087-3.138-0.178-4.742-0.414c-1.581-0.233-3.13-0.568-4.628-0.892c-1.448-0.313-2.816-0.609-4.198-0.817
		c-1.316-0.199-2.695-0.233-4.156-0.27c-1.569-0.04-3.191-0.081-4.836-0.334s-3.205-0.702-4.714-1.135
		c-1.404-0.404-2.73-0.785-4.045-0.991c-1.348-0.213-2.736-0.299-4.204-0.392c-1.547-0.097-3.145-0.198-4.754-0.456
		c-1.4-0.225-2.854-0.406-4.261-0.581c-1.516-0.188-3.084-0.383-4.641-0.638c-1.665-0.273-3.328-0.56-4.991-0.847
		c-1.288-0.222-2.575-0.444-3.864-0.659c-1.553-0.26-3.101-0.553-4.649-0.847c-1.394-0.265-2.789-0.529-4.188-0.768
		c-1.249-0.213-2.499-0.422-3.75-0.631c-1.703-0.284-3.406-0.569-5.106-0.863c-1.675-0.293-3.233-0.825-4.739-1.34
		c-1.372-0.469-2.669-0.912-3.944-1.138c-1.212-0.214-2.564-0.173-3.996-0.129c-1.637,0.049-3.33,0.101-5.067-0.213
		c-1.704-0.307-3.266-0.897-4.776-1.468c-1.348-0.51-2.621-0.991-3.864-1.219c-1.363-0.251-2.751-0.401-4.22-0.56
		c-1.529-0.164-3.111-0.336-4.692-0.632c-1.402-0.262-2.813-0.484-4.223-0.706c-1.516-0.239-3.084-0.486-4.637-0.782
		c-1.391-0.265-2.787-0.505-4.184-0.746c-1.555-0.268-3.109-0.536-4.657-0.836c-1.22-0.236-2.441-0.469-3.663-0.701
		c-1.72-0.328-3.44-0.656-5.158-0.995c-1.407-0.277-2.821-0.518-4.235-0.758c-1.507-0.256-3.066-0.521-4.607-0.83
		c-1.557-0.313-3.088-0.71-4.568-1.095c-1.436-0.373-2.792-0.725-4.171-1.007c-1.588-0.323-3.12-0.779-4.601-1.22
		C96.634,28,95.3,27.603,93.954,27.324c-1.36-0.281-2.744-0.467-4.21-0.665c-1.523-0.204-3.098-0.415-4.669-0.747
		c-1.586-0.333-3.168-0.688-4.749-1.042c-1.34-0.3-2.68-0.6-4.023-0.888c-1.55-0.332-3.076-0.742-4.552-1.139
		c-1.433-0.386-2.785-0.749-4.163-1.049c-1.353-0.295-2.736-0.485-4.201-0.686c-1.524-0.21-3.1-0.427-4.673-0.774
		c-1.582-0.35-3.105-0.831-4.578-1.295c-1.406-0.444-2.734-0.864-4.076-1.165c-1.302-0.291-2.676-0.43-4.13-0.576
		c-1.56-0.158-3.173-0.321-4.791-0.689c-1.565-0.357-3.084-0.821-4.554-1.272c-1.414-0.433-2.75-0.843-4.105-1.155
		c-1.394-0.323-2.798-0.605-4.203-0.889c-1.503-0.302-3.058-0.616-4.593-0.976c-2.282-0.629-3.295-0.983-4.367-1.357
		c-0.897-0.313-1.825-0.637-3.616-1.161c-1.995-0.583-2.988-0.889-3.98-1.197C10.746,8.301,9.771,8,7.813,7.427
		C5.741,6.821,4.712,6.429,3.717,6.049C2.773,5.689,1.88,5.349,0,4.798L1.403,0c2.072,0.606,3.101,0.998,4.096,1.378
		c0.944,0.36,1.837,0.7,3.717,1.251c1.995,0.583,2.987,0.89,3.98,1.196c0.976,0.302,1.95,0.603,3.908,1.176
		c1.914,0.559,2.948,0.92,3.86,1.239C22,6.601,22.895,6.913,24.922,7.474c1.363,0.318,2.877,0.623,4.343,0.918
		c1.451,0.293,2.902,0.585,4.341,0.917c1.526,0.353,3.01,0.808,4.444,1.248c1.447,0.443,2.813,0.862,4.198,1.177
		c1.318,0.299,2.71,0.44,4.184,0.589c1.537,0.155,3.126,0.316,4.722,0.673c1.55,0.348,3.043,0.819,4.488,1.275
		c1.432,0.452,2.784,0.878,4.15,1.18c1.376,0.304,2.785,0.498,4.277,0.703c1.495,0.206,3.04,0.419,4.582,0.754
		c1.496,0.326,2.972,0.723,4.398,1.107c1.48,0.397,2.878,0.773,4.301,1.078c1.359,0.291,2.714,0.594,4.069,0.898
		c1.561,0.35,3.122,0.699,4.687,1.029c1.389,0.293,2.804,0.483,4.303,0.684c1.488,0.2,3.026,0.407,4.56,0.725
		c1.554,0.322,3.053,0.768,4.503,1.2c1.441,0.429,2.801,0.833,4.174,1.113c1.509,0.307,2.994,0.694,4.429,1.067
		c1.479,0.384,2.875,0.747,4.294,1.031c1.469,0.295,2.99,0.554,4.461,0.803c1.458,0.248,2.916,0.496,4.366,0.782
		c1.707,0.338,3.417,0.663,5.126,0.989c1.226,0.233,2.453,0.467,3.678,0.704c1.514,0.294,3.035,0.556,4.555,0.817
		c1.426,0.246,2.851,0.492,4.271,0.762c1.475,0.282,3.002,0.522,4.479,0.755c1.458,0.23,2.915,0.459,4.365,0.73
		c1.391,0.261,2.809,0.414,4.309,0.576c1.495,0.162,3.042,0.329,4.587,0.613c1.686,0.31,3.232,0.895,4.727,1.46
		c1.359,0.514,2.644,0.999,3.897,1.225c1.221,0.22,2.584,0.179,4.027,0.135c1.622-0.05,3.3-0.101,5.019,0.203
		c1.657,0.294,3.199,0.822,4.69,1.331c1.384,0.473,2.692,0.92,3.979,1.145c1.689,0.293,3.381,0.576,5.073,0.858
		c1.256,0.209,2.513,0.419,3.768,0.634c1.428,0.243,2.854,0.513,4.278,0.784c1.512,0.286,3.024,0.573,4.542,0.828
		c1.297,0.216,2.592,0.439,3.888,0.663c1.65,0.285,3.299,0.569,4.951,0.84c1.461,0.24,2.98,0.429,4.449,0.611
		c1.45,0.18,2.949,0.367,4.437,0.605c1.37,0.22,2.78,0.309,4.274,0.403c1.519,0.095,3.089,0.194,4.669,0.442
		c1.621,0.255,3.159,0.698,4.647,1.126c1.422,0.407,2.764,0.793,4.096,0.999c1.328,0.204,2.723,0.239,4.2,0.276
		c1.55,0.039,3.152,0.079,4.776,0.325c1.538,0.231,3.048,0.558,4.508,0.874c1.484,0.32,2.885,0.624,4.301,0.832
		c1.382,0.204,2.798,0.284,4.296,0.369c1.513,0.086,3.077,0.175,4.65,0.401c1.57,0.227,3.094,0.578,4.567,0.918
		c1.465,0.338,2.848,0.657,4.236,0.852c1.385,0.195,2.768,0.404,4.15,0.613c1.572,0.237,3.145,0.476,4.72,0.692
		c1.459,0.201,2.979,0.345,4.448,0.485c1.459,0.138,2.968,0.281,4.467,0.482c1.494,0.2,2.982,0.457,4.421,0.704
		c1.46,0.251,2.968,0.511,4.436,0.703c1.422,0.186,2.855,0.277,4.372,0.374c1.488,0.096,3.027,0.195,4.568,0.39
		c1.443,0.184,2.886,0.293,4.413,0.407c1.474,0.11,2.998,0.224,4.519,0.413c1.711,0.213,3.292,0.722,4.821,1.213
		c1.38,0.444,2.684,0.863,3.938,1.015c1.283,0.155,2.66,0.091,4.117,0.023c1.583-0.073,3.221-0.149,4.903,0.049
		c1.699,0.2,3.28,0.678,4.809,1.141c1.391,0.422,2.704,0.82,3.971,0.966c1.217,0.139,2.569-0.004,4-0.156
		c1.624-0.173,3.306-0.349,5.058-0.155c1.656,0.185,3.224,0.592,4.74,0.986c1.421,0.369,2.763,0.717,4.075,0.859
		c1.463,0.158,2.984,0.26,4.455,0.357c1.464,0.097,2.978,0.199,4.485,0.357c1.546,0.162,3.069,0.419,4.541,0.667
		c1.498,0.253,2.912,0.492,4.337,0.636c1.444,0.147,2.886,0.319,4.328,0.491c1.527,0.182,3.053,0.364,4.583,0.515
		c1.248,0.124,2.61-0.011,4.049-0.155c1.603-0.157,3.261-0.322,4.985-0.158c1.701,0.161,3.289,0.6,4.826,1.023
		c1.403,0.386,2.728,0.752,4.002,0.869c1.303,0.12,2.685,0.036,4.144-0.06c1.573-0.092,3.195-0.201,4.866-0.054
		c1.42,0.126,2.838,0.269,4.256,0.412c1.554,0.157,3.109,0.314,4.667,0.447c1.625,0.139,3.188,0.457,4.7,0.766
		c1.451,0.295,2.823,0.575,4.174,0.686c1.513,0.124,3.022,0.308,4.481,0.486c1.461,0.179,2.972,0.363,4.436,0.479
		c1.278,0.1,2.646-0.034,4.094-0.174c1.585-0.155,3.224-0.314,4.924-0.184c1.332,0.1,2.662,0.208,3.991,0.316
		c1.648,0.135,3.296,0.269,4.945,0.389c1.587,0.114,3.136,0.361,4.633,0.601c1.48,0.236,2.879,0.46,4.272,0.557
		c1.473,0.101,2.944,0.243,4.414,0.386c1.486,0.144,3.023,0.294,4.518,0.392c1.443,0.095,2.884,0.106,4.41,0.118
		c1.485,0.013,3.019,0.025,4.558,0.121c1.395,0.087,2.788,0.19,4.182,0.293c1.586,0.116,3.173,0.233,4.76,0.326
		c1.582,0.095,3.13,0.315,4.627,0.529c1.488,0.211,2.894,0.411,4.296,0.49c1.517,0.085,3.029,0.234,4.492,0.377
		c1.533,0.15,2.981,0.292,4.446,0.369c1.433,0.076,2.87,0.058,4.391,0.038c1.491-0.018,3.033-0.037,4.583,0.039
		c1.368,0.068,2.773-0.016,4.257-0.108c1.531-0.09,3.114-0.188,4.729-0.113c1.634,0.075,3.211,0.339,4.736,0.594
		c1.46,0.245,2.838,0.476,4.188,0.534c1.444,0.062,2.885,0.043,4.411,0.025c1.484-0.02,3.02-0.039,4.56,0.022
		c1.53,0.061,3.062,0.086,4.593,0.11c1.457,0.025,2.914,0.049,4.37,0.101c1.428,0.053,2.855,0.126,4.282,0.197
		c1.558,0.079,3.115,0.158,4.674,0.211c1.418,0.047,2.836,0.112,4.253,0.177c1.568,0.072,3.136,0.144,4.704,0.191
		c1.559,0.047,3.1,0.192,4.59,0.334c1.509,0.143,2.934,0.277,4.362,0.316c1.391,0.037,2.802-0.054,4.299-0.152
		c1.514-0.099,3.082-0.201,4.677-0.162c1.457,0.034,2.904-0.002,4.436-0.041c1.476-0.036,3.003-0.075,4.532-0.043
		c1.696,0.034,3.309,0.338,4.868,0.632c1.433,0.27,2.786,0.525,4.076,0.547c1.294,0.025,2.656-0.183,4.099-0.402
		c1.567-0.237,3.188-0.482,4.881-0.458c1.611,0.022,3.182,0.205,4.701,0.381c1.48,0.173,2.88,0.334,4.255,0.35
		c1.3,0.015,2.664-0.194,4.107-0.414c1.562-0.239,3.179-0.49,4.867-0.472c1.633,0.012,3.217,0.214,4.75,0.409
		c1.468,0.186,2.856,0.363,4.208,0.369c1.416,0.006,2.838-0.1,4.344-0.211c1.499-0.113,3.048-0.227,4.621-0.225
		c1.629,0.002,3.21,0.185,4.74,0.362c1.474,0.17,2.866,0.331,4.226,0.328c1.453-0.003,2.898-0.081,4.427-0.165
		c1.476-0.081,3.003-0.164,4.537-0.172c1.545-0.008,3.08,0.07,4.565,0.146c1.522,0.078,2.96,0.151,4.402,0.139
		c1.294-0.01,2.645-0.257,4.079-0.515c1.563-0.283,3.178-0.575,4.875-0.594c1.648-0.02,3.243,0.169,4.786,0.353
		c1.465,0.173,2.849,0.338,4.187,0.317c1.461-0.022,2.924-0.012,4.386-0.002c1.527,0.01,3.054,0.021,4.58-0.007
		c1.429-0.026,2.859-0.034,4.288-0.042c1.56-0.008,3.12-0.017,4.679-0.05c1.31-0.027,2.676-0.267,4.12-0.52
		c1.548-0.271,3.15-0.543,4.82-0.593c1.646-0.039,3.242,0.126,4.786,0.286c1.468,0.151,2.856,0.295,4.196,0.257
		c1.584-0.043,3.145,0.042,4.656,0.126c1.501,0.082,2.919,0.159,4.321,0.116c1.294-0.033,2.655-0.304,4.09-0.585
		c1.551-0.303,3.161-0.618,4.839-0.673c1.618-0.056,3.201,0.06,4.731,0.173c1.484,0.109,2.885,0.212,4.252,0.161
		c1.325-0.053,2.692-0.299,4.139-0.561c1.537-0.279,3.129-0.56,4.785-0.637c1.584-0.064,3.166-0.149,4.748-0.234
		c1.402-0.074,2.803-0.149,4.206-0.211c1.653-0.073,3.258,0.073,4.81,0.215c1.467,0.135,2.852,0.261,4.181,0.197
		c1.355-0.049,2.724-0.303,4.182-0.56c1.524-0.267,3.092-0.526,4.736-0.625c1.573-0.08,3.129-0.038,4.634,0.002
		c1.508,0.04,2.932,0.078,4.342,0.002c1.447-0.071,2.87-0.243,4.385-0.417c1.468-0.17,2.986-0.345,4.52-0.433
		c0.008-0.001,0.017-0.001,0.026-0.002c1.574-0.089,3.132-0.059,4.638-0.029c1.507,0.03,2.931,0.083,4.339-0.027
		c1.581-0.075,3.131-0.069,4.636-0.046c1.508,0.023,2.933,0.029,4.342-0.043c1.601-0.102,3.201-0.223,4.801-0.344
		c1.38-0.104,2.761-0.208,4.143-0.3c1.382-0.092,2.776-0.323,4.252-0.568c1.502-0.25,3.056-0.507,4.653-0.619
		c1.472-0.103,2.989-0.269,4.456-0.43c1.456-0.16,2.962-0.325,4.47-0.436c1.535-0.113,3.065-0.144,4.547-0.175
		c1.529-0.032,2.972-0.057,4.416-0.174c1.446-0.11,2.877-0.298,4.392-0.498c1.469-0.193,2.989-0.393,4.521-0.515
		c1.417-0.113,2.83-0.33,4.325-0.558c1.482-0.228,3.014-0.463,4.573-0.592c1.622-0.135,3.21-0.088,4.747-0.042
		c1.484,0.043,2.888,0.085,4.243-0.033c1.601-0.142,3.176-0.122,4.701-0.108c1.494,0.015,2.907,0.03,4.282-0.094
		c1.277-0.114,2.605-0.474,4.01-0.855c1.536-0.416,3.125-0.847,4.823-1.004c3.017-0.282,6.014-0.351,8.944-0.631
		c1.663-0.16,3.283-0.076,4.851,0.004c1.466,0.075,2.853,0.15,4.158,0.015c1.294-0.128,2.627-0.484,4.039-0.863
		c1.527-0.408,3.105-0.831,4.784-1.003c1.473-0.151,2.989-0.365,4.455-0.574c1.445-0.204,2.939-0.415,4.437-0.574
		c1.534-0.162,3.064-0.354,4.595-0.546c1.434-0.178,2.869-0.358,4.306-0.515c1.489-0.162,2.987-0.276,4.436-0.385
		c1.482-0.112,3.015-0.23,4.495-0.396c1.485-0.167,3.009-0.388,4.482-0.603c1.466-0.213,2.932-0.426,4.403-0.596
		c1.603-0.187,3.189-0.201,4.721-0.216c1.489-0.015,2.898-0.029,4.257-0.19c1.541-0.183,3.079-0.395,4.617-0.607
		c1.422-0.195,2.845-0.391,4.271-0.566c1.434-0.175,2.872-0.326,4.309-0.476c1.535-0.161,3.07-0.321,4.602-0.514
		c1.55-0.194,3.096-0.415,4.644-0.635c1.411-0.201,2.823-0.403,4.237-0.585c1.377-0.177,2.755-0.491,4.214-0.823
		c1.483-0.337,3.017-0.686,4.602-0.895c1.508-0.2,3.023-0.334,4.489-0.464c1.532-0.134,2.978-0.262,4.43-0.459
		c1.638-0.222,3.244-0.227,4.796-0.231c1.476-0.006,2.87-0.008,4.195-0.193c1.411-0.195,2.81-0.491,4.291-0.805
		c1.466-0.311,2.982-0.631,4.53-0.851c1.56-0.222,3.117-0.466,4.674-0.71c1.395-0.22,2.79-0.439,4.188-0.641
		c1.438-0.209,2.855-0.493,4.356-0.793c1.451-0.29,2.952-0.59,4.468-0.816c1.439-0.213,2.855-0.498,4.355-0.8
		c1.45-0.291,2.95-0.593,4.466-0.823c1.416-0.215,2.836-0.411,4.256-0.607c1.54-0.213,3.08-0.425,4.617-0.663
		c1.724-0.268,3.403-0.183,5.025-0.098c1.442,0.074,2.803,0.143,4.026-0.049c1.46-0.231,2.96-0.53,4.41-0.82
		c1.435-0.285,2.918-0.582,4.408-0.822c1.275-0.206,2.553-0.407,3.828-0.608c1.676-0.263,3.353-0.526,5.027-0.802
		c1.309-0.216,2.634-0.632,4.036-1.073c1.49-0.469,3.032-0.954,4.67-1.229c3.141-0.529,6.208-0.381,8.947-0.851
		c1.463-0.251,2.964-0.563,4.415-0.865c1.429-0.297,2.905-0.604,4.386-0.863c1.526-0.268,3.058-0.444,4.538-0.615
		c1.512-0.174,2.938-0.339,4.354-0.591c1.323-0.236,2.656-0.654,4.066-1.096c1.479-0.465,3.007-0.944,4.622-1.237
		c1.541-0.281,3.082-0.45,4.574-0.614c1.503-0.165,2.923-0.322,4.321-0.58c1.501-0.277,2.995-0.593,4.489-0.908
		c1.43-0.303,2.861-0.604,4.297-0.875c1.392-0.263,2.769-0.632,4.228-1.024c1.451-0.39,2.953-0.794,4.496-1.09
		c1.479-0.283,2.97-0.515,4.412-0.74c1.463-0.227,2.976-0.463,4.43-0.746c1.521-0.297,3.048-0.499,4.526-0.694
		c1.508-0.2,2.933-0.388,4.341-0.668c1.502-0.297,2.996-0.631,4.49-0.965c1.424-0.319,2.847-0.636,4.277-0.925
		c1.43-0.288,2.835-0.645,4.321-1.022c1.431-0.363,2.909-0.738,4.405-1.045c1.466-0.3,2.945-0.555,4.375-0.8
		c1.468-0.252,2.984-0.513,4.445-0.818c2.702-0.564,5.403-1.136,8.104-1.709l0.668-0.141c1.344-0.285,2.681-0.721,4.097-1.184
		c1.455-0.474,2.959-0.965,4.537-1.305c1.671-0.359,3.319-0.418,4.913-0.477c1.454-0.051,2.827-0.101,4.075-0.374
		c1.298-0.284,2.601-0.767,3.981-1.28c1.462-0.543,2.975-1.104,4.595-1.464c1.398-0.31,2.801-0.599,4.203-0.886
		c1.525-0.313,3.048-0.626,4.566-0.968c1.408-0.317,2.82-0.611,4.234-0.904c1.512-0.314,3.026-0.628,4.533-0.973
		c1.475-0.337,2.964-0.617,4.404-0.889c1.451-0.272,2.95-0.554,4.385-0.888c1.466-0.34,2.947-0.632,4.379-0.915
		c1.454-0.287,2.956-0.584,4.399-0.923c1.36-0.321,2.707-0.768,4.131-1.24c1.437-0.478,2.924-0.972,4.469-1.341
		c1.508-0.36,3.024-0.629,4.49-0.888c1.499-0.266,2.914-0.516,4.311-0.856c1.478-0.357,2.971-0.652,4.412-0.937
		c1.511-0.298,2.938-0.58,4.361-0.93l1.194,4.856c-1.536,0.377-3.087,0.683-4.586,0.979c-1.454,0.288-2.829,0.559-4.203,0.892
		c-1.549,0.376-3.108,0.652-4.617,0.919c-1.459,0.258-2.837,0.502-4.199,0.828c-1.336,0.319-2.657,0.758-4.056,1.223
		c-1.467,0.486-2.982,0.99-4.561,1.362c-1.533,0.36-3.08,0.666-4.576,0.961c-1.393,0.275-2.832,0.559-4.217,0.881
		c-1.538,0.357-3.091,0.649-4.592,0.931c-1.393,0.263-2.833,0.533-4.214,0.849c-1.539,0.352-3.085,0.673-4.631,0.995
		c-1.385,0.287-2.77,0.575-4.15,0.886c-1.549,0.349-3.104,0.669-4.661,0.988c-1.376,0.282-2.753,0.564-4.125,0.869
		c-1.284,0.284-2.573,0.763-3.937,1.271c-1.482,0.549-3.013,1.118-4.654,1.476c-1.688,0.37-3.351,0.431-4.963,0.487
		c-1.442,0.053-2.802,0.102-4.041,0.369c-1.325,0.284-2.643,0.714-4.038,1.17c-1.478,0.482-3.007,0.982-4.613,1.321l-0.665,0.142
		c-2.707,0.573-5.414,1.148-8.122,1.711c-1.546,0.323-3.108,0.591-4.618,0.851c-1.392,0.239-2.831,0.487-4.217,0.77
		c-1.383,0.284-2.742,0.63-4.179,0.994c-1.481,0.376-3.012,0.764-4.564,1.078c-1.395,0.281-2.786,0.592-4.175,0.902
		c-1.533,0.342-3.065,0.685-4.606,0.991c-1.567,0.311-3.139,0.519-4.66,0.72c-1.467,0.193-2.852,0.377-4.224,0.645
		c-1.548,0.302-3.109,0.545-4.618,0.779c-1.4,0.218-2.847,0.443-4.24,0.71c-1.364,0.261-2.712,0.624-4.14,1.008
		c-1.485,0.399-3.02,0.811-4.598,1.108c-1.401,0.264-2.796,0.558-4.191,0.854c-1.535,0.324-3.071,0.648-4.613,0.933
		c-1.578,0.292-3.156,0.465-4.683,0.633c-1.471,0.162-2.859,0.314-4.228,0.563c-1.309,0.238-2.625,0.651-4.018,1.088
		c-1.499,0.47-3.048,0.956-4.687,1.248c-1.566,0.28-3.137,0.461-4.656,0.636c-1.475,0.17-2.868,0.33-4.251,0.573
		c-1.402,0.245-2.839,0.544-4.228,0.833c-1.494,0.311-3.038,0.633-4.587,0.898c-3.147,0.542-6.221,0.392-8.965,0.854
		c-1.297,0.218-2.611,0.631-4,1.067c-1.506,0.474-3.064,0.963-4.721,1.237c-1.687,0.278-3.376,0.543-5.065,0.809
		c-1.268,0.2-2.538,0.399-3.806,0.604c-1.4,0.226-2.837,0.513-4.228,0.79c-1.499,0.299-3.048,0.608-4.607,0.854
		c-1.74,0.278-3.431,0.189-5.065,0.105c-1.433-0.075-2.786-0.146-4.001,0.044c-1.565,0.243-3.132,0.46-4.699,0.676
		c-1.398,0.193-2.795,0.386-4.19,0.598c-1.398,0.212-2.774,0.488-4.23,0.782c-1.496,0.3-3.042,0.611-4.606,0.844
		c-1.394,0.207-2.768,0.481-4.222,0.772c-1.499,0.299-3.049,0.61-4.618,0.837c-1.379,0.2-2.756,0.417-4.132,0.633
		c-1.581,0.248-3.163,0.496-4.748,0.721c-1.378,0.196-2.747,0.486-4.195,0.793c-1.502,0.318-3.054,0.646-4.64,0.866
		c-1.658,0.229-3.289,0.236-4.866,0.24c-1.455,0.004-2.832,0.01-4.142,0.185c-1.566,0.213-3.139,0.352-4.66,0.486
		c-1.477,0.131-2.873,0.255-4.275,0.44c-1.356,0.178-2.711,0.487-4.146,0.814c-1.51,0.343-3.071,0.698-4.686,0.906
		c-1.391,0.18-2.781,0.378-4.17,0.576c-1.575,0.224-3.149,0.448-4.727,0.646c-1.565,0.196-3.134,0.362-4.703,0.526
		c-1.409,0.147-2.818,0.294-4.224,0.467c-1.4,0.171-2.798,0.363-4.195,0.556c-1.568,0.216-3.137,0.431-4.709,0.618
		c-1.633,0.194-3.241,0.211-4.798,0.225c-1.467,0.015-2.852,0.03-4.196,0.183c-1.422,0.165-2.84,0.371-4.257,0.578
		c-1.513,0.219-3.078,0.447-4.644,0.623c-1.569,0.177-3.148,0.296-4.675,0.412c-1.409,0.107-2.865,0.217-4.272,0.371
		c-1.411,0.153-2.819,0.33-4.227,0.506c-1.562,0.195-3.124,0.39-4.689,0.556c-1.411,0.15-2.861,0.355-4.264,0.554
		c-1.512,0.213-3.076,0.435-4.645,0.595c-1.282,0.132-2.602,0.486-4.001,0.86c-1.544,0.413-3.139,0.84-4.837,1.009
		c-1.685,0.172-3.323,0.083-4.909,0.002c-1.45-0.074-2.817-0.146-4.117-0.02c-3.025,0.291-6.024,0.36-8.96,0.632
		c-1.268,0.118-2.584,0.474-3.978,0.852c-1.552,0.421-3.156,0.855-4.872,1.009c-1.622,0.146-3.227,0.129-4.776,0.115
		c-1.472-0.015-2.861-0.025-4.222,0.089c-1.646,0.141-3.258,0.094-4.819,0.048c-1.465-0.043-2.845-0.085-4.187,0.027
		c-1.386,0.116-2.768,0.327-4.23,0.552c-1.517,0.232-3.087,0.473-4.685,0.6c-1.404,0.111-2.794,0.294-4.265,0.488
		c-1.515,0.201-3.082,0.407-4.664,0.528c-1.583,0.118-3.163,0.154-4.692,0.185c-1.483,0.032-2.888,0.056-4.287,0.165
		c-1.418,0.103-2.878,0.263-4.29,0.417c-1.516,0.167-3.082,0.338-4.652,0.449c-1.361,0.095-2.733,0.323-4.184,0.563
		c-1.529,0.254-3.111,0.516-4.737,0.625c-1.367,0.091-2.733,0.194-4.099,0.297c-1.62,0.123-3.241,0.245-4.861,0.348
		C835.215,80.59,835.157,80.594,835.1,80.597"/>
</g>
</svg>
