<svg id="Isolation_Mode" data-name="Isolation Mode" xmlns="http://www.w3.org/2000/svg" viewBox="0 0 1322.91 121.18"><defs><style>.cls-1{fill:#83a7d8;}.cls-2{fill:#fccfc6;}</style></defs><title>lights_2016</title><path class="cls-1" d="M1186.87,3326.94l-4.9-1a29,29,0,0,0,.42-4.22,33.14,33.14,0,0,1,.51-5c0.31-1.52.63-2.91,1-4.29l0.42-1.81c-1.38-.39-2.73-0.84-4-1.29-1.12-.38-2.2-0.74-3.27-1.06-0.09.65-.17,1.32-0.25,2-0.2,1.68-.41,3.41-0.74,5l-1.86,9-4.89-1,1.86-9c0.29-1.39.48-2.95,0.67-4.59s0.41-3.42.74-5l0.51-2.45,2.45,0.51a55.67,55.67,0,0,1,6.38,1.87,49.61,49.61,0,0,0,5.91,1.73l2.45,0.5-0.5,2.45c-0.31,1.52-.63,2.91-1,4.29s-0.62,2.68-.93,4.16a29,29,0,0,0-.42,4.22A33.14,33.14,0,0,1,1186.87,3326.94Z" transform="translate(-1082.48 -3289.48)"/><path class="cls-2" d="M1177.19,3352.27a19.14,19.14,0,0,1-5-.39c-5.08-1-8.58-3.06-10.7-6.15a16.53,16.53,0,0,1-2.64-12.49c1-4.88,4.73-8.1,7.64-9.93,3.26-2.06,7.27-2.62,11.93-1.65s8.13,3.06,10.31,6.24a15.63,15.63,0,0,1,2.36,12h0a15.49,15.49,0,0,1-6.89,10.18A14.58,14.58,0,0,1,1177.19,3352.27Zm-3.68-26.06a8.89,8.89,0,0,0-4.32,1.32c-2.1,1.32-4.74,3.57-5.42,6.75a11.6,11.6,0,0,0,1.88,8.63c1.33,1.94,3.88,3.31,7.58,4.08a11,11,0,0,0,8.33-1.13,10.4,10.4,0,0,0,4.66-6.94,10.53,10.53,0,0,0-1.59-8.2c-1.44-2.1-3.79-3.47-7.19-4.17A15.2,15.2,0,0,0,1173.5,3326.2Z" transform="translate(-1082.48 -3289.48)"/><path class="cls-1" d="M1274.45,3343.25l-4.93-.84c0.27-1.56.6-3.11,0.92-4.6s0.63-2.95.88-4.41,0.43-3.06.61-4.63c0.09-.79.18-1.59,0.28-2.38-1.21-.15-2.45-0.27-3.73-0.4s-2.82-.28-4.25-0.46l-0.36,2c-0.26,1.45-.52,2.9-0.79,4.41s-0.63,3.12-1,4.62-0.66,2.93-.92,4.38l-4.92-.87c0.28-1.57.63-3.12,1-4.62s0.66-2.93.92-4.38,0.53-3,.79-4.43,0.52-2.9.79-4.41l0.43-2.46,2.46,0.43c2,0.36,4.12.56,6.34,0.78s4.35,0.42,6.5.79l2.46,0.42-0.42,2.46c-0.25,1.44-.43,3.07-0.61,4.64s-0.38,3.33-.65,4.91-0.6,3.11-.92,4.61S1274.7,3341.79,1274.45,3343.25Z" transform="translate(-1082.48 -3289.48)"/><path class="cls-2" d="M1264.25,3369.77a16.91,16.91,0,0,1-3.86-.21c-3.83-.66-7.27-3.05-10.22-7.1a14.77,14.77,0,0,1,3.88-22.06,16.42,16.42,0,0,1,22.18,3.79c2.85,3.9,4,8,3.36,11.94a16.51,16.51,0,0,1-6.76,10.79A17.14,17.14,0,0,1,1264.25,3369.77Zm-1.95-27.11a10.65,10.65,0,0,0-5.44,1.88,10.86,10.86,0,0,0-4.88,6.85,10.72,10.72,0,0,0,2.23,8.12c2.16,3,4.53,4.69,7,5.12a12.37,12.37,0,0,0,8.77-1.84,11.58,11.58,0,0,0,4.64-7.48h0c0.54-3.23-1-6.22-2.46-8.17a10.84,10.84,0,0,0-7.17-4.32A11.87,11.87,0,0,0,1262.31,3342.66Z" transform="translate(-1082.48 -3289.48)"/><path class="cls-1" d="M1362.6,3356.76l-5-.68,1.25-9.1c0.2-1.44.33-3.07,0.45-4.63,0.06-.78.12-1.56,0.19-2.35-1.16-.07-2.33-0.09-3.55-0.12-1.39,0-2.8-.06-4.24-0.16-0.12.68-.24,1.33-0.36,2-0.26,1.37-.5,2.67-0.71,4.13s-0.56,3.17-.89,4.69-0.63,2.92-.83,4.35l-4.95-.71c0.23-1.6.57-3.17,0.89-4.69s0.62-2.92.83-4.35,0.49-3,.75-4.35,0.5-2.67.71-4.14l0.35-2.47,2.48,0.35a50.37,50.37,0,0,0,6.08.37,55.68,55.68,0,0,1,6.55.4l2.48,0.34-0.34,2.48c-0.2,1.44-.33,3.07-0.45,4.64s-0.26,3.34-.48,4.93Z" transform="translate(-1082.48 -3289.48)"/><path class="cls-2" d="M1351.31,3383.78a11.12,11.12,0,0,1-2.2-.09,17.75,17.75,0,0,1-11.14-6.42c-2.25-2.9-3-6.93-2.17-12.34,0.71-4.87,2.67-8.5,5.81-10.78a16.7,16.7,0,0,1,12.07-2.9c3.89,0.55,7.36,2.74,10.3,6.51a14.89,14.89,0,0,1,3,11.55h0a14.68,14.68,0,0,1-6.06,10.28C1358,3381.68,1354.88,3383.58,1351.31,3383.78Zm-0.75-27.68a11.35,11.35,0,0,0-6,2.09c-2,1.46-3.29,4-3.8,7.47-0.58,4-.2,6.78,1.17,8.54a12.75,12.75,0,0,0,7.89,4.54c2.6,0.36,5.12-1,8.11-3.19a9.61,9.61,0,0,0,4.05-6.91h0a9.81,9.81,0,0,0-1.94-7.81c-2.15-2.75-4.45-4.27-7.05-4.63A12.3,12.3,0,0,0,1350.56,3356.1Z" transform="translate(-1082.48 -3289.48)"/><path class="cls-1" d="M1450.63,3367.4l-5-.53a24.28,24.28,0,0,0-.07-4.19,28.46,28.46,0,0,1-.05-5.06c0.17-1.59.41-3.1,0.65-4.55,0.1-.62.2-1.23,0.29-1.84-1.35-.19-2.69-0.4-4-0.61-1.13-.18-2.27-0.37-3.42-0.53,0,0.63,0,1.27-.06,1.93,0,1.6-.09,3.25-0.27,4.88a39.93,39.93,0,0,1-.93,4.82,35.65,35.65,0,0,0-.83,4.22l-5-.55a39.87,39.87,0,0,1,.93-4.83,35.71,35.71,0,0,0,.83-4.22c0.16-1.42.2-2.9,0.24-4.47s0.09-3.25.27-4.88l0.27-2.48,2.48,0.27c2.13,0.23,4.22.57,6.25,0.9s4.18,0.67,6.27.9l2.49,0.26-0.26,2.49c-0.17,1.59-.41,3.1-0.65,4.55s-0.46,2.82-.61,4.27a24.28,24.28,0,0,0,.07,4.19A28.46,28.46,0,0,1,1450.63,3367.4Z" transform="translate(-1082.48 -3289.48)"/><path class="cls-2" d="M1440.83,3394.15a15.71,15.71,0,0,1-2.6-.07c-4-.43-7.52-2.49-10.53-6.12-2.42-2.92-5.13-6.88-4.58-11.66,0.44-3.82,2.73-7.37,6.82-10.55,3.87-3,7.95-4.39,11.79-4a16.94,16.94,0,0,1,11,6.13,16,16,0,0,1,3.28,12h0a15.55,15.55,0,0,1-6,10.75A16.48,16.48,0,0,1,1440.83,3394.15Zm-0.92-27.43a13.06,13.06,0,0,0-6.9,3c-3,2.33-4.64,4.74-4.92,7.17-0.33,2.9,1.68,5.74,3.46,7.9,2.18,2.63,4.54,4.05,7.22,4.34a11.18,11.18,0,0,0,8.18-2.43,10.46,10.46,0,0,0,4.09-7.32h0a11,11,0,0,0-2.16-8.26,12.07,12.07,0,0,0-7.7-4.35A7.72,7.72,0,0,0,1439.9,3366.72Z" transform="translate(-1082.48 -3289.48)"/><path class="cls-1" d="M1538.61,3375.21l-5-.37c0.11-1.53.24-3.06,0.36-4.59s0.25-3,.36-4.57,0.29-3.27.47-4.92c0.08-.73.15-1.47,0.23-2.2-1.18,0-2.39,0-3.64,0-1.42,0-2.86,0-4.31,0l-0.15,2c-0.11,1.47-.22,2.95-0.34,4.48s-0.27,3.08-.41,4.61-0.28,3-.4,4.54l-5-.39c0.12-1.54.27-3.08,0.41-4.61s0.28-3,.4-4.54,0.23-3,.34-4.47,0.22-2.92.34-4.44l0.2-2.49,2.49,0.2c2,0.16,4.12.12,6.33,0.09s4.42-.07,6.62.09l2.49,0.18-0.18,2.49c-0.12,1.57-.29,3.28-0.47,4.93s-0.34,3.28-.45,4.77-0.24,3.07-.37,4.61S1538.72,3373.69,1538.61,3375.21Z" transform="translate(-1082.48 -3289.48)"/><path class="cls-2" d="M1530.28,3401.87a20.78,20.78,0,0,1-2.77,0,15.18,15.18,0,0,1-10.61-5.44c-2.69-3-5.53-6.69-5.14-11.39a16.88,16.88,0,0,1,6.18-11.17c2.91-2.42,7-3.51,11.93-3.13a15.75,15.75,0,0,1,10.79,5.37,15,15,0,0,1,3.75,11.42h0a15.3,15.3,0,0,1-5.2,11A15,15,0,0,1,1530.28,3401.87Zm-3.24-26.2a10.07,10.07,0,0,0-5.9,2,12,12,0,0,0-4.4,7.73c-0.22,2.74,1.81,5.29,3.9,7.67a10.27,10.27,0,0,0,7.24,3.77c3.37,0.25,6.1-.47,8.12-2.16a10.3,10.3,0,0,0,3.42-7.54h0a10.06,10.06,0,0,0-2.5-7.75,10.7,10.7,0,0,0-7.43-3.7A18.6,18.6,0,0,0,1527,3375.67Z" transform="translate(-1082.48 -3289.48)"/><path class="cls-1" d="M1627.42,3380.26l-5-.21a32.78,32.78,0,0,0-.21-4.28,37.11,37.11,0,0,1-.22-4.94c0.07-1.63.28-3.28,0.48-4.88,0.08-.66.16-1.31,0.23-1.94l-3.5-.06c-1.35,0-2.72,0-4.1-.07,0,0.61.05,1.22,0.08,1.85,0.08,1.55.16,3.15,0.08,4.8a27.49,27.49,0,0,1-.84,5,23.46,23.46,0,0,0-.72,4.11l-5-.23a27.51,27.51,0,0,1,.84-5,23.46,23.46,0,0,0,.72-4.11c0.07-1.41,0-2.82-.08-4.32s-0.16-3.15-.08-4.8l0.12-2.5,2.5,0.12c2.15,0.1,4.39.13,6.55,0.16s4.16,0.06,6.24.14l2.5,0.1-0.1,2.5c-0.07,1.63-.28,3.28-0.48,4.87s-0.38,3-.44,4.46a32.78,32.78,0,0,0,.21,4.28A37.11,37.11,0,0,1,1627.42,3380.26Z" transform="translate(-1082.48 -3289.48)"/><path class="cls-2" d="M1618.52,3407.23a16,16,0,0,1-1.63,0c-3.5-.16-8.54-0.76-11.77-4.19-2.7-2.87-4.11-7.28-3.86-12.12a15.84,15.84,0,0,1,5.47-11.06c2.85-2.53,6.73-3.71,11.52-3.5s8.45,1.74,11.11,4.56,4,6.71,3.81,11.42h0a14.47,14.47,0,0,1-5.08,10.75A15.5,15.5,0,0,1,1618.52,3407.23Zm-2.37-25.86a9.67,9.67,0,0,0-6.09,2.24,10.89,10.89,0,0,0-3.8,7.57c-0.17,3.43.77,6.58,2.51,8.44,1.51,1.6,4.16,2.44,8.35,2.62a10.28,10.28,0,0,0,7.65-2.88,9.59,9.59,0,0,0,3.41-7.21h0c0.13-3.36-.67-5.91-2.45-7.79s-4.28-2.85-7.69-3A18.53,18.53,0,0,0,1616.15,3381.37Z" transform="translate(-1082.48 -3289.48)"/><path class="cls-1" d="M1715.5,3382.46l-5-.05c0-1.62.15-3.22,0.27-4.77s0.24-3,.25-4.41-0.06-2.89-.13-4.41c0-.72-0.07-1.45-0.1-2.2h-3.11l-4.63,0c-0.09.8-.2,1.57-0.31,2.34a32.31,32.31,0,0,0-.43,4.18,28.67,28.67,0,0,0,.37,4.22,32.75,32.75,0,0,1,.42,5l-5-.07a28.55,28.55,0,0,0-.37-4.22,32.91,32.91,0,0,1-.42-5,36.7,36.7,0,0,1,.48-4.83,32.31,32.31,0,0,0,.43-4.18l0-2.5,2.5,0c2.35,0,4.64,0,6.93,0,1.85,0,3.7,0,5.59,0l2.5,0,0,2.5c0,1.46.06,2.89,0.13,4.41s0.15,3.1.14,4.71-0.15,3.22-.27,4.77S1715.51,3381,1715.5,3382.46Z" transform="translate(-1082.48 -3289.48)"/><path class="cls-2" d="M1707.21,3410.64l-0.84,0c-3.9,0-7.66-1.86-11.2-5.39a16.35,16.35,0,0,1,.38-22.33c3.53-3.34,7.3-5,11.22-5a17.23,17.23,0,0,1,11.77,4.57,16.78,16.78,0,0,1,4.63,11.83h0c0,5-3.25,8.66-5.67,11S1711.62,3410.39,1707.21,3410.64Zm-1.05-27.65c-2.39.14-4.79,1.34-7.16,3.58a11.38,11.38,0,0,0-.29,15.16c2.58,2.58,5.18,3.9,7.73,3.93,3,0,5.54-2,7.62-3.95,2.83-2.69,4.1-5,4.12-7.37h0a11.85,11.85,0,0,0-3.16-8.25,12.15,12.15,0,0,0-8.3-3.11h-0.56Z" transform="translate(-1082.48 -3289.48)"/><path class="cls-1" d="M1803.59,3381.88l-5,.11c0-1.6,0-3.19.08-4.73s0.1-3,.07-4.46,0-3-.06-4.45c0-.65,0-1.31,0-2-1.42,0-2.82-.15-4.2-0.25-1.21-.09-2.39-0.17-3.55-0.22,0,0.71.08,1.42,0.12,2.13,0.09,1.64.19,3.33,0.22,4.91s0,3.15,0,4.68-0.05,3,0,4.51l-5,.08c0-1.57,0-3.15,0-4.68s0.05-3,0-4.51-0.12-3.12-.21-4.71-0.19-3.33-.22-4.91l0-2.5,2.5,0c2.2,0,4.41.12,6.54,0.27s4.22,0.3,6.25.26l2.5-.05,0.05,2.5c0,1.54,0,3,.06,4.46s0,2.87.06,4.39,0,3.2-.08,4.74S1803.56,3380.43,1803.59,3381.88Z" transform="translate(-1082.48 -3289.48)"/><path class="cls-2" d="M1796.53,3409.66l-0.64,0a16.37,16.37,0,0,1-11.65-4.05c-2.86-2.68-4.34-6.53-4.41-11.46,0-3.49.28-8.53,3.63-11.92,2.75-2.77,7.05-4.43,11.8-4.51s9.1,1.39,12,4.06a17.17,17.17,0,0,1,5.23,11.73h0c0.1,3.8-1.68,7.5-5.44,11.3A15.84,15.84,0,0,1,1796.53,3409.66Zm-1.78-26.89a12,12,0,0,0-7.73,3c-1.55,1.56-2.24,4.21-2.18,8.33,0,3.52,1,6.17,2.83,7.88a11.44,11.44,0,0,0,8.13,2.7,10.78,10.78,0,0,0,7.67-3.37c2.75-2.78,4.06-5.29,4-7.66h0a12.18,12.18,0,0,0-3.64-8.2c-1.89-1.76-5-2.78-8.45-2.71Z" transform="translate(-1082.48 -3289.48)"/><path class="cls-1" d="M1892.16,3378.5l-5,.27a37.75,37.75,0,0,1,.16-4.93,33.48,33.48,0,0,0,.15-4.28c-0.08-1.46-.23-2.83-0.39-4.28-0.08-.7-0.16-1.41-0.23-2.14-1.44,0-2.86,0-4.26-.08-1.19,0-2.34-.07-3.47-0.08,0.09,0.62.19,1.27,0.3,1.92a46.14,46.14,0,0,1,.63,5,34.78,34.78,0,0,1-.22,5,30.51,30.51,0,0,0-.2,4.26l-5,.24a34.72,34.72,0,0,1,.22-5,30.51,30.51,0,0,0,.2-4.25,41.76,41.76,0,0,0-.57-4.49,46.07,46.07,0,0,1-.63-5l-0.12-2.5,2.5-.12c2.19-.11,4.39,0,6.51,0s4.24,0.13,6.28,0l2.5-.13,0.13,2.5c0.08,1.46.23,2.83,0.39,4.28s0.33,3,.42,4.57a37.8,37.8,0,0,1-.16,4.93A33.43,33.43,0,0,0,1892.16,3378.5Z" transform="translate(-1082.48 -3289.48)"/><path class="cls-2" d="M1885.5,3406.95h-0.12c-4,.2-7.83-1.31-11.45-4.49a15.36,15.36,0,0,1-5.6-10.91,16.3,16.3,0,0,1,4-11.83,16.5,16.5,0,0,1,11.29-4.85h0.14a15.67,15.67,0,0,1,11.31,4.31c3.54,3.11,5.46,6.72,5.69,10.73a16.11,16.11,0,0,1-3.92,11.89A16.82,16.82,0,0,1,1885.5,3406.95Zm-1.61-27.09a11.73,11.73,0,0,0-7.92,3.27,11.29,11.29,0,0,0-2.64,8.2,10.36,10.36,0,0,0,3.9,7.38c2.61,2.3,5.27,3.39,7.9,3.26a11.84,11.84,0,0,0,8-3.58,11.11,11.11,0,0,0,2.59-8.2h0c-0.15-2.66-1.46-5-4-7.25a10.72,10.72,0,0,0-7.76-3.07h-0.1Z" transform="translate(-1082.48 -3289.48)"/><path class="cls-1" d="M1963.84,3373.69c-0.12-1.51-.27-3-0.42-4.52s-0.31-3.09-.43-4.63-0.32-3-.54-4.55-0.44-3.22-.57-4.82l-0.2-2.49,2.49-.2c3.13-.25,6.46-0.54,9.69-0.82l5.83-.5,0.21,2.49c0.13,1.47.33,3.05,0.54,4.58s0.43,3.23.56,4.81,0.14,3.25.14,4.81,0,3,.12,4.39l-5,.43c-0.14-1.63-.14-3.25-0.14-4.81s0-3-.12-4.39-0.33-3-.54-4.58c-0.1-.77-0.2-1.54-0.3-2.32l-0.89.08-7.16.61c0.08,0.67.18,1.36,0.27,2.07,0.22,1.58.44,3.22,0.57,4.82s0.27,3,.42,4.54,0.3,3.07.43,4.61Z" transform="translate(-1082.48 -3289.48)"/><path class="cls-2" d="M1973.95,3400.5c-4.85.28-8.68-.7-11.39-2.93a16.37,16.37,0,0,1-5.48-11.45c-0.3-3.83,1.17-7.54,4.47-11.33s6.66-5.63,10.54-6a16.06,16.06,0,0,1,17.95,14.54h0c0.34,3.78-1.18,7.54-4.63,11.51a15.53,15.53,0,0,1-10.69,5.57Zm-1.09-26.71-0.36,0c-2.55.21-4.83,1.57-7.18,4.26s-3.44,5.19-3.25,7.65a11.54,11.54,0,0,0,3.67,8c2.26,1.86,5.9,2,8.57,1.76a10.55,10.55,0,0,0,7.34-3.87c2.55-2.92,3.63-5.4,3.42-7.78h0A11,11,0,0,0,1972.86,3373.79Z" transform="translate(-1082.48 -3289.48)"/><path class="cls-1" d="M2052,3365.23c-0.18-1.62-.24-3.23-0.29-4.79s-0.1-3-.26-4.39a35.4,35.4,0,0,0-.91-4.4,39.56,39.56,0,0,1-1-5l-0.28-2.48,2.48-.28c1.91-.22,3.92-0.42,5.94-0.63,2.45-.25,4.92-0.51,7.22-0.78l2.48-.29,0.29,2.48c0.17,1.43.46,2.92,0.77,4.5s0.63,3.26.82,4.88a31.68,31.68,0,0,1,.07,5,27.36,27.36,0,0,0,0,4.23l-5,.58a31.59,31.59,0,0,1-.07-5,27.46,27.46,0,0,0,0-4.23c-0.17-1.43-.46-2.92-0.77-4.5-0.15-.79-0.31-1.6-0.45-2.41l-4.89.52-3.25.34c0.14,0.62.3,1.26,0.47,1.92a39.56,39.56,0,0,1,1,5c0.18,1.62.24,3.23,0.29,4.79s0.1,3,.26,4.39Z" transform="translate(-1082.48 -3289.48)"/><path class="cls-2" d="M2062.35,3391.49c-4.28.25-7.79-.66-10.45-2.71-3.17-2.44-5.12-6.24-5.64-11a15,15,0,0,1,3.59-11.46,15.45,15.45,0,0,1,10.45-5.84c4.65-.53,8.76.44,11.87,2.84,2.24,1.72,6.08,5.39,6.72,10.7h0c0.47,3.85-1,8-4.21,11.91-2.5,3.06-6.14,4.89-10.82,5.43Q2063.09,3391.45,2062.35,3391.49Zm-0.54-26.12-0.94.08a10.48,10.48,0,0,0-7.15,4,10,10,0,0,0-2.49,7.75c0.26,2.35,1.11,5.56,3.72,7.57,1.93,1.49,4.66,2,8.33,1.58,3.34-.38,5.87-1.6,7.52-3.62s3.5-5,3.12-8.14h0c-0.31-2.55-2.06-5.23-4.81-7.34A10.88,10.88,0,0,0,2061.81,3365.37Z" transform="translate(-1082.48 -3289.48)"/><path class="cls-1" d="M2140.58,3353.86c-0.2-1.4-.54-2.79-0.9-4.27s-0.76-3.1-1-4.73c-0.21-1.44-.55-3.05-0.88-4.62s-0.7-3.34-.93-4.94l-0.36-2.47,2.47-.36c2.14-.31,4.39-0.49,6.56-0.67s4.41-.35,6.46-0.66l2.47-.37,0.37,2.47a41.64,41.64,0,0,0,.94,4.21,45.49,45.49,0,0,1,1,4.72,40.9,40.9,0,0,1,.35,4.89,37,37,0,0,0,.29,4.3l-4.94.74a40.9,40.9,0,0,1-.35-4.89,37,37,0,0,0-.29-4.3,41.61,41.61,0,0,0-.94-4.21c-0.2-.76-0.4-1.53-0.58-2.32-1.47.16-3,.28-4.42,0.4-1.22.1-2.46,0.2-3.68,0.32,0.14,0.7.29,1.41,0.43,2.1,0.35,1.64.7,3.34,0.93,4.93,0.2,1.4.54,2.79,0.9,4.27s0.76,3.11,1,4.74Z" transform="translate(-1082.48 -3289.48)"/><path class="cls-2" d="M2151.78,3380.88c-4.44.26-8.33-1.78-10.89-3.62a15.71,15.71,0,0,1-6.59-10.53c-0.72-5.05,1.8-9,3.76-11.57,2.57-3.34,5.56-6.52,10-7.18a17.62,17.62,0,0,1,12.4,3,16.47,16.47,0,0,1,6.2,11,16,16,0,0,1-3.07,12.11,17,17,0,0,1-10.69,6.7Q2152.35,3380.85,2151.78,3380.88Zm-2-28.05c-0.33,0-.65.05-1,0.1-2.86.42-5,2.95-6.8,5.28-2.27,3-3.12,5.37-2.78,7.82a10.76,10.76,0,0,0,4.56,7.17c2,1.46,5.12,3.1,8.4,2.61a12,12,0,0,0,7.45-4.8,11,11,0,0,0,2.1-8.31h0a11.65,11.65,0,0,0-4.17-7.69A12.47,12.47,0,0,0,2149.8,3352.83Z" transform="translate(-1082.48 -3289.48)"/><path class="cls-1" d="M2228.25,3339.75c-0.25-1.43-.6-2.84-1-4.33s-0.75-3.06-1-4.65-0.55-3-.82-4.45-0.56-3-.83-4.5l-0.44-2.46,2.46-.44c2.05-.37,4.22-0.9,6.32-1.42s4.27-1.05,6.4-1.44l2.46-.45,0.45,2.46c0.3,1.61.46,3.35,0.61,5s0.3,3.19.55,4.58,0.58,3,.89,4.44,0.64,3,.92,4.57l-4.92.9c-0.27-1.48-.58-3-0.89-4.44s-0.64-3-.92-4.57-0.46-3.35-.61-5c-0.07-.7-0.13-1.38-0.2-2-1.18.27-2.37,0.56-3.54,0.85-1.37.34-2.78,0.69-4.18,1l0.38,2c0.28,1.49.56,3,.83,4.5s0.6,2.84,1,4.33,0.75,3.06,1,4.65Z" transform="translate(-1082.48 -3289.48)"/><path class="cls-2" d="M2240.14,3366.55c-3.32.19-6.82-1-10.65-3.55a15.22,15.22,0,0,1-6.65-10.26,15.74,15.74,0,0,1,2.48-12,16.79,16.79,0,0,1,10.41-6.84c3.85-.7,8,0.35,12,3a15.3,15.3,0,0,1,6.57,10.18h0a15.22,15.22,0,0,1-2.47,12c-3,4.19-6.45,6.66-10.22,7.34A12.11,12.11,0,0,1,2240.14,3366.55Zm-2.55-27.87a8.37,8.37,0,0,0-1,.12,11.77,11.77,0,0,0-7.24,4.84,10.66,10.66,0,0,0-1.61,8.25,10.33,10.33,0,0,0,4.51,7c3.26,2.19,6,3,8.43,2.6s4.82-2.24,7.05-5.34a11.08,11.08,0,0,0-2.82-15.07A12.42,12.42,0,0,0,2237.59,3338.68Z" transform="translate(-1082.48 -3289.48)"/><path class="cls-1" d="M2315.65,3322.82a42.36,42.36,0,0,0-1.19-4.18,46.12,46.12,0,0,1-1.33-4.68c-0.31-1.45-.63-3-0.95-4.45s-0.68-3.17-1-4.71l-0.52-2.45,2.45-.52c2.07-.44,4.18-0.8,6.22-1.15s4.27-.73,6.36-1.18l2.44-.53,0.53,2.44c0.34,1.56.58,3.09,0.82,4.58s0.46,2.88.77,4.31,0.62,3,.91,4.56,0.57,3,.89,4.45l-4.89,1.05c-0.33-1.51-.62-3-0.91-4.56s-0.57-3-.89-4.45-0.58-3.09-.82-4.57c-0.1-.64-0.2-1.27-0.31-1.89-1.36.26-2.73,0.49-4.06,0.72-1.18.2-2.38,0.41-3.57,0.63l0.47,2.22c0.32,1.5.64,3,1,4.46a42.31,42.31,0,0,0,1.19,4.18,46.12,46.12,0,0,1,1.33,4.68Z" transform="translate(-1082.48 -3289.48)"/><path class="cls-2" d="M2325.95,3348.73a14.9,14.9,0,0,1-8.81-1.93c-3.39-2.12-5.9-6-6.87-10.74a15.58,15.58,0,0,1,2.73-12,16.08,16.08,0,0,1,10-7,16.48,16.48,0,0,1,12.22,2,15.58,15.58,0,0,1,6.77,10.28h0c1.08,4.9.5,9.18-1.66,12.39s-5.95,5.54-10.66,6.54A24.82,24.82,0,0,1,2325.95,3348.73Zm0-27.09a12.58,12.58,0,0,0-1.9.26,11.3,11.3,0,0,0-6.91,4.93,10.88,10.88,0,0,0-2,8.2c0.69,3.33,2.42,6.14,4.62,7.52,2,1.28,5.19,1.55,8.84.77,3.44-.74,6.13-2.31,7.56-4.45,1.74-2.59,1.47-6.07.92-8.53a10.92,10.92,0,0,0-4.53-7.11A11.36,11.36,0,0,0,2325.95,3321.65Z" transform="translate(-1082.48 -3289.48)"/><path class="cls-1" d="M1917.58,3370.08c-1.55.09-3.08,0.07-4.57,0s-2.88-.07-4.26,0c-1.6.06-3.2,0.07-4.74,0s-2.87-.06-4.25,0h0c-1.39.08-2.77,0.24-4.23,0.41s-3.09.36-4.69,0.44-3.2,0-4.74,0-2.87-.08-4.25,0a37.37,37.37,0,0,0-4.13.56,38.72,38.72,0,0,1-4.81.63,34.9,34.9,0,0,1-4.87-.21,31,31,0,0,0-4.14-.2l-4.16.21c-1.6.09-3.21,0.17-4.81,0.24a27.83,27.83,0,0,0-4.1.56,35.48,35.48,0,0,1-4.85.64,43.24,43.24,0,0,1-4.81-.17,39.57,39.57,0,0,0-4.19-.16,27.43,27.43,0,0,0-4.05.58,30,30,0,0,1-4.89.68c-1.62.05-3.21,0-4.75-.12s-2.87-.16-4.24-0.12a36.76,36.76,0,0,1-4.85-.28,32.85,32.85,0,0,0-4.15-.26,28.1,28.1,0,0,0-4.08.52,31.27,31.27,0,0,1-4.88.59c-1.59,0-3.17,0-4.76.05-1.41,0-2.82,0-4.22,0-1.57,0-3.14,0-4.71,0s-2.85,0-4.28,0a36.37,36.37,0,0,1-4.85-.35,32.58,32.58,0,0,0-4.14-.32,25,25,0,0,0-4,.52,29.2,29.2,0,0,1-4.93.59c-1.59,0-3.17-.07-4.7-0.15s-2.88-.15-4.28-0.14-2.81.08-4.29,0.17-3.1.17-4.69,0.17a40.68,40.68,0,0,1-4.81-.36,37.3,37.3,0,0,0-4.17-.33c-1.38,0-2.77.1-4.25,0.21s-3.12.23-4.74,0.22a39.18,39.18,0,0,1-4.82-.41,35.29,35.29,0,0,0-4.16-.37,25.93,25.93,0,0,0-4.07.41,30,30,0,0,1-4.91.47,45.37,45.37,0,0,1-4.78-.38,41.69,41.69,0,0,0-4.19-.35,25.53,25.53,0,0,0-4.06.4,22.5,22.5,0,0,1-9.85-.17,25.23,25.23,0,0,0-4-.55c-1.42,0-2.82,0-4.3,0s-3.1.08-4.68,0c-1.37,0-2.76.06-4.23,0.15s-3.14.2-4.76,0.16-3.17-.19-4.7-0.34-2.87-.27-4.27-0.31c-1.59,0-3.19-.12-4.78-0.19-1.4-.06-2.79-0.13-4.19-0.17-1.59-.05-3.17-0.13-4.76-0.21-1.4-.07-2.81-0.14-4.21-0.19s-2.85-.08-4.27-0.1-3.14-.05-4.71-0.11c-1.41-.06-2.81,0-4.3,0s-3.11,0-4.69,0a39,39,0,0,1-4.8-.6,35.17,35.17,0,0,0-4.14-.53,40.15,40.15,0,0,0-4.2.11,43.54,43.54,0,0,1-4.81.11c-1.39-.07-2.79-0.05-4.27,0s-3.12,0-4.72,0-3.15-.24-4.67-0.39-2.87-.28-4.28-0.36c-1.61-.09-3.19-0.31-4.72-0.53s-2.84-.4-4.22-0.49c-1.61-.09-3.22-0.21-4.83-0.33-1.38-.1-2.75-0.2-4.13-0.29s-2.8-.1-4.29-0.11-3.11,0-4.7-.13-3.15-.26-4.67-0.41-2.85-.28-4.28-0.37c-1.62-.11-3.19-0.36-4.72-0.61s-2.83-.45-4.2-0.55c-1.66-.12-3.33-0.26-5-0.39l-4-.32a24.19,24.19,0,0,0-4.06.18,27.75,27.75,0,0,1-5,.18c-1.57-.12-3.14-0.31-4.65-0.5s-2.87-.35-4.28-0.47a40.17,40.17,0,0,1-4.76-.77,36.28,36.28,0,0,0-4.13-.68c-1.58-.14-3.16-0.3-4.75-0.45-1.4-.14-2.79-0.28-4.19-0.41a27.34,27.34,0,0,0-4.11.06,31.37,31.37,0,0,1-4.92.05,27.86,27.86,0,0,1-4.87-1,23.86,23.86,0,0,0-4-.87,21.53,21.53,0,0,0-4,.16,25.34,25.34,0,0,1-5,.15c-1.56-.15-3.13-0.34-4.69-0.53s-2.83-.34-4.24-0.48c-1.59-.16-3.15-0.43-4.66-0.68s-2.84-.48-4.23-0.63-2.88-.25-4.29-0.34-3.09-.21-4.66-0.37a33.11,33.11,0,0,1-4.79-1,29.32,29.32,0,0,0-4-.85,19.05,19.05,0,0,0-4,.16,22.88,22.88,0,0,1-5.1.15,27.31,27.31,0,0,1-4.85-1.15,23.56,23.56,0,0,0-3.94-1,25.54,25.54,0,0,0-4.09,0,29.36,29.36,0,0,1-5-.05,25.94,25.94,0,0,1-4.87-1.22,22.19,22.19,0,0,0-3.91-1c-1.4-.17-2.8-0.28-4.27-0.39s-3.1-.23-4.67-0.43c-1.38-.18-2.78-0.26-4.25-0.36s-3.12-.2-4.7-0.41-3.13-.47-4.63-0.73-2.84-.49-4.24-0.68-2.86-.33-4.27-0.46-3.09-.29-4.66-0.51-3.19-.46-4.79-0.7l-4.1-.61c-1.6-.23-3.16-0.58-4.66-0.93s-2.79-.64-4.16-0.84-2.75-.27-4.22-0.36-3.14-.18-4.74-0.41-3.13-.57-4.63-0.89-2.82-.61-4.2-0.82a33.83,33.83,0,0,0-4.16-.27A29,29,0,0,1,1313,3342a33.9,33.9,0,0,0-4-1c-1.35-.21-2.74-0.3-4.2-0.39s-3.15-.2-4.75-0.46c-1.4-.23-2.85-0.41-4.26-0.58s-3.08-.38-4.64-0.64l-5-.85-3.86-.66c-1.55-.26-3.1-0.55-4.65-0.85-1.39-.26-2.79-0.53-4.19-0.77l-3.75-.63-5.11-.86a31.08,31.08,0,0,1-4.74-1.34,27.09,27.09,0,0,0-3.94-1.14,20.1,20.1,0,0,0-4-.13,24,24,0,0,1-5.07-.21A27,27,0,0,1,1242,3330a23.1,23.1,0,0,0-3.86-1.22c-1.36-.25-2.75-0.4-4.22-0.56s-3.11-.34-4.69-0.63c-1.4-.26-2.81-0.48-4.22-0.71s-3.08-.49-4.64-0.78c-1.39-.26-2.79-0.51-4.18-0.75-1.55-.27-3.11-0.54-4.66-0.84l-3.66-.7-5.16-1c-1.41-.28-2.82-0.52-4.24-0.76s-3.07-.52-4.61-0.83-3.09-.71-4.57-1.1-2.79-.73-4.17-1c-1.59-.32-3.12-0.78-4.6-1.22s-2.75-.82-4.09-1.1-2.74-.47-4.21-0.66-3.1-.42-4.67-0.75-3.17-.69-4.75-1l-4-.89c-1.55-.33-3.08-0.74-4.55-1.14s-2.78-.75-4.16-1-2.74-.49-4.2-0.69-3.1-.43-4.67-0.77-3.1-.83-4.58-1.3-2.73-.86-4.08-1.16a35.28,35.28,0,0,0-4.13-.58,39.22,39.22,0,0,1-4.79-.69c-1.56-.36-3.08-0.82-4.55-1.27s-2.75-.84-4.1-1.16-2.8-.6-4.2-0.89-3.06-.62-4.59-1c-2.28-.63-3.29-1-4.37-1.36-0.9-.31-1.83-0.64-3.62-1.16-2-.58-3-0.89-4-1.2s-1.95-.6-3.91-1.18-3.1-1-4.1-1.38-1.84-.7-3.72-1.25l1.4-4.8c2.07,0.61,3.1,1,4.1,1.38s1.84,0.7,3.72,1.25,3,0.89,4,1.2,1.95,0.6,3.91,1.18,2.95,0.92,3.86,1.24,1.93,0.67,4,1.23c1.36,0.32,2.88.62,4.34,0.92s2.9,0.59,4.34.92,3,0.81,4.44,1.25,2.81,0.86,4.2,1.18a34.77,34.77,0,0,0,4.18.59,39.56,39.56,0,0,1,4.72.67c1.55,0.35,3,.82,4.49,1.27s2.78,0.88,4.15,1.18,2.79,0.5,4.28.7,3,0.42,4.58.75,3,0.72,4.4,1.11,2.88,0.77,4.3,1.08l4.07,0.9c1.56,0.35,3.12.7,4.69,1,1.39,0.29,2.8.48,4.3,0.68s3,0.41,4.56.72,3.05,0.77,4.5,1.2,2.8,0.83,4.17,1.11,3,0.69,4.43,1.07,2.87,0.75,4.29,1,3,0.55,4.46.8,2.92,0.5,4.37.78l5.13,1,3.68,0.7c1.51,0.29,3,.56,4.55.82s2.85,0.49,4.27.76,3,0.52,4.48.75,2.92,0.46,4.36.73,2.81,0.41,4.31.58,3,0.33,4.59.61a27.28,27.28,0,0,1,4.73,1.46,22.91,22.91,0,0,0,3.9,1.22,20,20,0,0,0,4,.14,24.09,24.09,0,0,1,5,.2,31.37,31.37,0,0,1,4.69,1.33,27,27,0,0,0,4,1.14l5.07,0.86,3.77,0.63c1.43,0.24,2.85.51,4.28,0.78s3,0.57,4.54.83l3.89,0.66,5,0.84c1.46,0.24,3,.43,4.45.61s2.95,0.37,4.44.61,2.78,0.31,4.27.4,3.09,0.19,4.67.44a38.44,38.44,0,0,1,4.65,1.13,33.85,33.85,0,0,0,4.1,1,33.48,33.48,0,0,0,4.2.28,38.12,38.12,0,0,1,4.78.32c1.54,0.23,3,.56,4.51.87s2.89,0.62,4.3.83,2.8,0.28,4.3.37,3.08,0.17,4.65.4,3.09,0.58,4.57.92,2.85,0.66,4.24.85l4.15,0.61c1.57,0.24,3.14.48,4.72,0.69s3,0.34,4.45.48,3,0.28,4.47.48,3,0.46,4.42.7,3,0.51,4.44.7,2.86,0.28,4.37.37,3,0.19,4.57.39,2.89,0.29,4.41.41,3,0.22,4.52.41a26.23,26.23,0,0,1,4.82,1.21,22,22,0,0,0,3.94,1,25.32,25.32,0,0,0,4.12,0,29.71,29.71,0,0,1,4.9,0,27.61,27.61,0,0,1,4.81,1.14,23.36,23.36,0,0,0,4,1,19,19,0,0,0,4-.16,23.07,23.07,0,0,1,5.06-.16,33.61,33.61,0,0,1,4.74,1,28.91,28.91,0,0,0,4.07.86c1.46,0.16,3,.26,4.46.36s3,0.2,4.48.36,3.07,0.42,4.54.67,2.91,0.49,4.34.64,2.89,0.32,4.33.49,3.05,0.36,4.58.52a21,21,0,0,0,4-.15,25.54,25.54,0,0,1,5-.16,28,28,0,0,1,4.83,1,23.7,23.7,0,0,0,4,.87,26.77,26.77,0,0,0,4.14-.06,33,33,0,0,1,4.87-.05c1.42,0.13,2.84.27,4.26,0.41s3.11,0.31,4.67.45a40.67,40.67,0,0,1,4.7.77,36.11,36.11,0,0,0,4.17.69c1.51,0.12,3,.31,4.48.49s3,0.36,4.44.48a24.11,24.11,0,0,0,4.09-.17,28.06,28.06,0,0,1,4.92-.18l4,0.32,4.94,0.39c1.59,0.11,3.14.36,4.63,0.6s2.88,0.46,4.27.56,2.94,0.24,4.41.39,3,0.29,4.52.39,2.88,0.11,4.41.12,3,0,4.56.12,2.79,0.19,4.18.29c1.59,0.12,3.17.23,4.76,0.33s3.13,0.31,4.63.53,2.89,0.41,4.3.49,3,0.23,4.49.38,3,0.29,4.45.37,2.87,0.06,4.39,0,3,0,4.58,0a38.66,38.66,0,0,0,4.26-.11,44.61,44.61,0,0,1,4.73-.11,39.64,39.64,0,0,1,4.74.59,34.78,34.78,0,0,0,4.19.53c1.44,0.06,2.88,0,4.41,0s3,0,4.56,0,3.06,0.09,4.59.11,2.91,0,4.37.1,2.86,0.13,4.28.2,3.11,0.16,4.67.21,2.84,0.11,4.25.18c1.57,0.07,3.14.14,4.7,0.19s3.1,0.19,4.59.33,2.93,0.28,4.36.32,2.8-.05,4.3-0.15,3.08-.2,4.68-0.16,2.9,0,4.44,0,3-.08,4.53,0a29.3,29.3,0,0,1,4.87.63,17.84,17.84,0,0,0,8.17.15,29.46,29.46,0,0,1,4.88-.46,46.11,46.11,0,0,1,4.7.38,41,41,0,0,0,4.26.35,25.76,25.76,0,0,0,4.11-.41,29.9,29.9,0,0,1,4.87-.47,39.71,39.71,0,0,1,4.75.41,35,35,0,0,0,4.21.37c1.42,0,2.84-.1,4.34-0.21s3-.23,4.62-0.23a41.41,41.41,0,0,1,4.74.36,36.77,36.77,0,0,0,4.23.33c1.45,0,2.9-.08,4.43-0.17s3-.16,4.54-0.17,3.08,0.07,4.57.15,3,0.15,4.4.14a24.61,24.61,0,0,0,4.08-.52,29,29,0,0,1,4.87-.59,36.44,36.44,0,0,1,4.79.35,32,32,0,0,0,4.19.32c1.46,0,2.92,0,4.39,0s3.05,0,4.58,0,2.86,0,4.29,0,3.12,0,4.68,0a27.75,27.75,0,0,0,4.12-.52,33.6,33.6,0,0,1,4.82-.59,37.33,37.33,0,0,1,4.79.29,32.57,32.57,0,0,0,4.2.26c1.58,0,3.15,0,4.66.13s2.92,0.16,4.32.12a25.37,25.37,0,0,0,4.09-.59,30.29,30.29,0,0,1,4.84-.67,43.59,43.59,0,0,1,4.73.17,38.7,38.7,0,0,0,4.25.16,30.44,30.44,0,0,0,4.14-.56,35.93,35.93,0,0,1,4.79-.64c1.58-.06,3.17-0.15,4.75-0.23l4.21-.21a35.25,35.25,0,0,1,4.81.22,30.63,30.63,0,0,0,4.18.2,30.94,30.94,0,0,0,4.18-.56,41.71,41.71,0,0,1,4.74-.63c1.57-.08,3.13,0,4.63,0s2.93,0.08,4.34,0,2.87-.24,4.39-0.42,3-.34,4.52-0.43h0c1.57-.09,3.13-0.06,4.64,0s2.93,0.08,4.34,0c1.58-.07,3.13-0.07,4.64,0s2.93,0,4.34,0c1.6-.1,3.2-0.22,4.8-0.34l4.14-.3c1.38-.09,2.78-0.32,4.25-0.57s3.06-.51,4.65-0.62,3-.27,4.46-0.43,3-.32,4.47-0.44,3.07-.14,4.55-0.18,3-.06,4.42-0.17,2.88-.3,4.39-0.5,3-.39,4.52-0.52,2.83-.33,4.32-0.56,3-.46,4.57-0.59a41.71,41.71,0,0,1,4.75,0,37.1,37.1,0,0,0,4.24,0c1.6-.14,3.18-0.12,4.7-0.11s2.91,0,4.28-.09a24,24,0,0,0,4-.85,28.23,28.23,0,0,1,4.82-1c3-.28,6-0.35,8.94-0.63a32.67,32.67,0,0,1,4.85,0,27.57,27.57,0,0,0,4.16,0,26,26,0,0,0,4-.86,30.33,30.33,0,0,1,4.78-1c1.47-.15,3-0.37,4.45-0.57s2.94-.42,4.44-0.57,3.06-.35,4.59-0.55,2.87-.36,4.31-0.52,3-.28,4.44-0.39,3-.23,4.5-0.4,3-.39,4.48-0.6,2.93-.43,4.4-0.6a44.08,44.08,0,0,1,4.72-.22,39.91,39.91,0,0,0,4.26-.19c1.54-.18,3.08-0.4,4.62-0.61s2.85-.39,4.27-0.57,2.87-.33,4.31-0.48,3.07-.32,4.6-0.51,3.1-.42,4.64-0.64,2.82-.4,4.24-0.58,2.76-.49,4.21-0.82,3-.69,4.6-0.9,3-.33,4.49-0.46,3-.26,4.43-0.46a36,36,0,0,1,4.8-.23,31.8,31.8,0,0,0,4.19-.19c1.41-.2,2.81-0.49,4.29-0.81s3-.63,4.53-0.85,3.12-.47,4.67-0.71c1.39-.22,2.79-0.44,4.19-0.64s2.86-.49,4.36-0.79,3-.59,4.47-0.82,2.85-.5,4.35-0.8,3-.59,4.47-0.82,2.84-.41,4.26-0.61,3.08-.42,4.62-0.66a24.11,24.11,0,0,1,5-.1,20.13,20.13,0,0,0,4,0c1.46-.23,3-0.53,4.41-0.82s2.92-.58,4.41-0.82l3.83-.61,5-.8a30,30,0,0,0,4-1.07,34.55,34.55,0,0,1,4.67-1.23c3.14-.53,6.21-0.38,8.95-0.85,1.46-.25,3-0.56,4.42-0.87s2.91-.6,4.39-0.86,3.06-.44,4.54-0.62,2.94-.34,4.35-0.59a33.45,33.45,0,0,0,4.07-1.1,38.09,38.09,0,0,1,4.62-1.24c1.54-.28,3.08-0.45,4.57-0.61s2.92-.32,4.32-0.58,3-.59,4.49-0.91,2.86-.6,4.3-0.87,2.77-.63,4.23-1,3-.79,4.5-1.09,3-.52,4.41-0.74,3-.46,4.43-0.75,3-.5,4.53-0.69,2.93-.39,4.34-0.67,3-.63,4.49-1,2.85-.64,4.28-0.92,2.83-.64,4.32-1,2.91-.74,4.4-1,2.94-.56,4.38-0.8,3-.51,4.44-0.82l8.1-1.71,0.67-.14a40.07,40.07,0,0,0,4.1-1.18,45.45,45.45,0,0,1,4.54-1.31,27.86,27.86,0,0,1,4.91-.48,23.3,23.3,0,0,0,4.08-.37,30.44,30.44,0,0,0,4-1.28,34.84,34.84,0,0,1,4.59-1.46c1.4-.31,2.8-0.6,4.2-0.89s3-.63,4.57-1,2.82-.61,4.23-0.9,3-.63,4.53-1,3-.62,4.4-0.89,3-.55,4.38-0.89,2.95-.63,4.38-0.92,3-.58,4.4-0.92,2.71-.77,4.13-1.24,2.92-1,4.47-1.34,3-.63,4.49-0.89,2.91-.52,4.31-0.86,3-.65,4.41-0.94,2.94-.58,4.36-0.93l1.19,4.86c-1.54.38-3.09,0.68-4.59,1s-2.83.56-4.2,0.89c-1.55.38-3.11,0.65-4.62,0.92s-2.84.5-4.2,0.83-2.66.76-4.06,1.22-3,1-4.56,1.36-3.08.67-4.58,1-2.83.56-4.22,0.88c-1.54.36-3.09,0.65-4.59,0.93s-2.83.53-4.21,0.85c-1.54.35-3.08,0.67-4.63,1-1.39.29-2.77,0.58-4.15,0.89-1.55.35-3.1,0.67-4.66,1-1.38.28-2.75,0.56-4.13,0.87a30.49,30.49,0,0,0-3.94,1.27,34.49,34.49,0,0,1-4.65,1.48,27.26,27.26,0,0,1-5,.49,23.7,23.7,0,0,0-4,.37,40.63,40.63,0,0,0-4,1.17,44.43,44.43,0,0,1-4.61,1.32l-0.67.14-8.12,1.71c-1.55.32-3.11,0.59-4.62,0.85s-2.83.49-4.22,0.77-2.74.63-4.18,1-3,.76-4.56,1.08c-1.4.28-2.79,0.59-4.18,0.9s-3.07.69-4.61,1-3.14.52-4.66,0.72-2.85.38-4.22,0.64c-1.55.3-3.11,0.55-4.62,0.78s-2.85.44-4.24,0.71-2.71.62-4.14,1-3,.81-4.6,1.11c-1.4.26-2.8,0.56-4.19,0.85s-3.07.65-4.61,0.93-3.16.47-4.68,0.63-2.86.31-4.23,0.56a34.06,34.06,0,0,0-4,1.09,37.79,37.79,0,0,1-4.69,1.25c-1.57.28-3.14,0.46-4.66,0.64s-2.87.33-4.25,0.57-2.84.54-4.23,0.83-3,.63-4.59.9c-3.15.54-6.22,0.39-9,.85a30.48,30.48,0,0,0-4,1.07,34.37,34.37,0,0,1-4.72,1.24l-5.06.81-3.81.6c-1.4.23-2.84,0.51-4.23,0.79s-3,.61-4.61.85a23.83,23.83,0,0,1-5.06.1,20,20,0,0,0-4,0c-1.56.24-3.13,0.46-4.7,0.68-1.4.19-2.79,0.39-4.19,0.6s-2.77.49-4.23,0.78-3,.61-4.61.84c-1.39.21-2.77,0.48-4.22,0.77s-3,.61-4.62.84c-1.38.2-2.76,0.42-4.13,0.63-1.58.25-3.16,0.5-4.75,0.72-1.38.2-2.75,0.49-4.2,0.79s-3.05.65-4.64,0.87a35.9,35.9,0,0,1-4.87.24,32.22,32.22,0,0,0-4.14.19c-1.57.21-3.14,0.35-4.66,0.49s-2.87.25-4.27,0.44-2.71.49-4.15,0.81-3.07.7-4.69,0.91c-1.39.18-2.78,0.38-4.17,0.58-1.57.22-3.15,0.45-4.73,0.65s-3.13.36-4.7,0.53c-1.41.15-2.82,0.29-4.22,0.47s-2.8.36-4.2,0.56c-1.57.22-3.14,0.43-4.71,0.62a43.56,43.56,0,0,1-4.8.23,41.15,41.15,0,0,0-4.2.18c-1.42.16-2.84,0.37-4.26,0.58s-3.08.45-4.64,0.62-3.15.3-4.68,0.41-2.87.22-4.27,0.37-2.82.33-4.23,0.51c-1.56.2-3.12,0.39-4.69,0.56-1.41.15-2.86,0.35-4.26,0.55s-3.08.44-4.65,0.6a26.3,26.3,0,0,0-4,.86,30.09,30.09,0,0,1-4.84,1,31.76,31.76,0,0,1-4.91,0,28.42,28.42,0,0,0-4.12,0c-3,.29-6,0.36-9,0.63a24.26,24.26,0,0,0-4,.85,28.11,28.11,0,0,1-4.87,1c-1.62.15-3.23,0.13-4.78,0.11s-2.86,0-4.22.09a41.44,41.44,0,0,1-4.82,0,37.45,37.45,0,0,0-4.19,0c-1.39.12-2.77,0.33-4.23,0.55s-3.09.47-4.68,0.6c-1.4.11-2.79,0.29-4.27,0.49s-3.08.41-4.66,0.53-3.16.15-4.69,0.19-2.89.06-4.29,0.16-2.88.26-4.29,0.42-3.08.34-4.65,0.45c-1.36.1-2.73,0.32-4.18,0.56s-3.11.52-4.74,0.62l-4.1.3c-1.62.12-3.24,0.25-4.86,0.35h-0.17Z" transform="translate(-1082.48 -3289.48)"/></svg>