<?xml version="1.0" encoding="utf-8"?>
<!-- Generator: Adobe Illustrator 17.0.2, SVG Export Plug-In . SVG Version: 6.00 Build 0)  -->
<!DOCTYPE svg PUBLIC "-//W3C//DTD SVG 1.1//EN" "http://www.w3.org/Graphics/SVG/1.1/DTD/svg11.dtd">
<svg version="1.1" id="Layer_8" xmlns="http://www.w3.org/2000/svg" xmlns:xlink="http://www.w3.org/1999/xlink" x="0px" y="0px"
	 width="682.998px" height="219.418px" viewBox="0 0 682.998 219.418" enable-background="new 0 0 682.998 219.418"
	 xml:space="preserve">
<g>
	<g>
		<path fill="#F68E63" d="M2.211,95.996l-1.139-1.541l-0.871-3.283c0-0.469-0.134-2.145-0.134-2.412V66.247
			C0,64.305,0,62.964,0,61.022v-1.475l0.603-3.953l1.005-1.675l1.541-1.407l1.608-0.736l3.417-0.604h0.871
			c1.139,0,2.278-0.066,3.417-0.066c1.139,0,2.278,0.066,3.484,0.066c0.536,0,0.938-0.066,1.407-0.066l0.268,0.066
			c0.067,0,0.268,0,0.335-0.066h5.963l3.551,0.736l0.536,0.268l2.546,2.681l1.005,3.082v2.412c0,0.067-0.067,0.2-0.067,0.269v0.133
			c0,0.805,0.134,4.422,0.201,5.227c0.134,0.201,0.134,0.268,0.134,0.469c0,0.336-0.268,0.604-0.469,0.67l-7.303,1.676
			c-0.402,0-0.469-0.336-0.469-0.604c0-2.881,0.134-5.896,0.134-8.844v-0.871c0-0.402-1.005-0.402-1.407-0.402
			c-0.469,0-0.603,0-1.072,0.066h-6.432c-1.675,0-3.35,0.068-5.025,0.068H8.576c-0.134,0.066-0.268,0.268-0.268,0.469
			c0,4.488-0.134,8.978-0.134,13.533c0,6.098,0.067,12.396,0.335,18.627c0,0.402,0.469,0.469,0.804,0.469
			c1.474,0,2.948-0.066,4.422-0.066h9.715c0.402,0,0.469-0.536,0.469-0.871c0-3.686-0.335-7.303-0.335-10.988
			c0-0.536,0.134-0.805,0.67-0.805l7.102,1.475c0.536,0.134,0.603,0.536,0.603,0.938c0,1.207-0.134,2.412-0.134,3.619
			c0,1.34,0.067,2.68,0.067,3.953c0,0.401-0.201,0.803-0.201,1.139c0,0.335,0.134,0.535,0.134,0.938c0,0.536,0,1.676-0.201,1.943
			l-0.737,1.943l-2.077,2.144l-2.412,1.272l-3.015,0.336H10.586l-0.201,0.066c-1.206-0.066-3.886-0.134-3.886-0.134l-2.211-0.67
			L2.211,95.996z"/>
		<path fill="#F68E63" d="M51.837,96.599c0-1.541,0-2.412,0.067-4.222V74.69c0.201-2.68,0.201-5.36,0.201-8.107
			c0-5.092-0.201-10.117-0.201-15.209c0-0.402,0.067-0.67,0.469-0.805h1.541c0.737,0,1.608,0,2.412,0.067h7.504
			c0.268,0,1.206-0.067,1.474-0.067h0.067c0.067,0,0.536,0.067,0.603,0.067h0.067c0.067,0,0.402,0,0.402-0.067l9.581,0.067
			l2.412,0.401l1.943,0.805c0.603,0.335,2.479,2.277,2.747,3.148l0.469,1.273l0.268,2.412v10.385c0,0.068,0.067,0.604,0.067,0.805
			v0.066c0,1.207-0.067,2.211-0.067,3.351l-0.804,2.412l-0.469,0.737l-2.345,1.875l-1.608,0.671
			c-0.737,0.335-4.556,0.269-4.556,0.603v0.067c0,0,0,0.2,0.067,0.2L86.41,97.604c0,0.268-0.201,0.536-0.402,0.604h-0.402
			c-0.469,0-0.67,0-1.206-0.067h-2.747c-1.407,0-2.881,0.067-4.288,0.067c-0.268,0-0.536,0.066-0.67-0.201l-12.127-18.56
			c-0.067-0.067-0.335-0.2-0.402-0.2h-3.953c-0.201,0-0.335,0.133-0.335,0.334v0.604c0,3.082,0.134,6.23,0.134,9.312v1.14
			c-0.067,0.067-0.067,0.134-0.067,0.2c0,0.336,0.067,0.805,0.067,1.072c0,1.676-0.201,3.283-0.201,4.959
			c0,0.401,0,0.804,0.067,1.205c-0.201,0.135-0.603,0.135-0.67,0.135h-4.623c-0.603,0.066-1.005,0.066-1.608,0.066h-0.67
			c-0.134,0-0.469-0.134-0.469-0.402V96.599z M60.346,72.211h13.266c0.804,0,1.675-0.269,2.077-0.939l0.201-0.2
			c0.134-1.072,0.134-5.025,0.134-7.169v-3.819c-0.134-2.211-1.541-2.479-3.283-2.479c-2.546,0-4.757,0.067-7.103,0.067h-0.067
			c-0.469,0-4.154-0.134-4.556-0.134h-0.067c-0.402,0-1.072,0.066-1.072,0.535v13.602C59.877,71.875,59.877,72.211,60.346,72.211z"
			/>
		<path fill="#F68E63" d="M119.507,51.574c0.067-0.336,0.402-0.469,0.67-0.469c1.608,0,3.015,0.066,4.624,0.066h1.206
			c0.067,0.066,0.335,0.201,0.402,0.402l11.457,32.764v0.469L142.354,97c0.201,0.269,0.268,0.537,0.268,0.871
			c0,0.336-0.067,0.402-0.469,0.537h-0.804c-1.139,0-2.345-0.135-3.484-0.135c-0.871,0-1.742,0.135-2.613,0.135h-0.67
			c-0.067,0-0.268-0.135-0.268-0.269l-3.283-9.647c-0.67-0.201-1.072-0.201-1.541-0.201c-0.268,0-0.469,0-0.737,0.066l-14.07-0.066
			c-0.067,0-0.268,0.133-0.268,0.133l-3.216,9.582c-0.067,0.268-0.67,0.402-0.871,0.402h-5.963c-0.335,0-0.67-0.201-0.67-0.67
			L119.507,51.574z M127.882,81.39h0.536c0.067,0,0.067-0.067,0.067-0.067l-5.695-18.225h-0.067c-0.067,0-0.134,0-0.134,0.067
			l-0.737,1.675l-4.958,15.746v0.268c0,0.201,0.067,0.268,0.268,0.469h2.747c0.469,0,0.938,0,1.34-0.066
			C122.321,81.322,126.877,81.39,127.882,81.39z"/>
		<path fill="#F68E63" d="M160.443,89.832c0-5.093-0.067-10.117-0.067-15.21c0-4.623,0.067-9.112,0.067-13.735
			c0-2.814-0.067-5.561-0.067-8.24c0-0.738-0.067-1.609,0.871-1.609h19.163c2.613-0.066,5.025-0.066,7.437-0.066h0.938
			c0.134,0,0.268,0.135,0.268,0.268v1.072c0,0.737-0.067,1.608-0.067,2.346c0,0.67,0.067,1.34,0.067,2.076
			c0,0.336,0.134,1.34-0.402,1.34h-17.42l-2.211-0.066c-0.335,0-0.536,0.402-0.536,0.67c0,2.01,0.201,3.953,0.201,5.896
			c0,1.406-0.067,2.747-0.067,4.154v0.938c0.067,0.335,0.134,0.469,0.402,0.604h2.479c0.335,0,0.737,0,1.072-0.067h1.005
			c2.077,0,4.221-0.134,6.298-0.134c0.402,0,1.072,0,1.072,0.535c0,1.207-0.067,2.279-0.067,3.484c0,0.938,0.067,1.81,0.067,2.881
			v0.67c-0.134,0.47-0.201,0.537-0.67,0.537c-1.608-0.067-3.015,0-4.624-0.135h-6.633c-0.201,0-0.335,0.402-0.335,0.604v0.066
			c0,0.135,0.067,1.139,0.067,1.273v12.194c0,0.134-0.067,0.67-0.067,0.804v0.067c0,1.407,0.134,2.813,0.134,4.087v0.604
			l-0.335,0.334c-0.469,0.067-1.206,0.067-1.742,0.067c-0.737,0-1.809-0.067-2.68-0.067c-1.005,0-2.01,0.135-2.814,0.135
			c-0.536,0-0.871-0.201-0.871-0.604C160.443,94.789,160.443,92.446,160.443,89.832z"/>
		<path fill="#F68E63" d="M216.656,88.291V83.4c0-0.201-0.067-1.675-0.067-1.876c0-7.37,0.134-14.74,0.134-22.178v-1.273
			c-0.134-0.2-0.469-0.2-0.804-0.2c-1.541,0-3.015,0.067-4.556,0.067h-3.216c-1.139,0-2.345,0.066-3.484,0.066h-0.402
			c-0.268-0.066-0.402-0.335-0.402-0.536v-5.829c0-0.335,0-0.871,0.469-0.938h0.536c3.551,0,7.169,0.066,10.854,0.066h6.432
			c0.402,0,1.675-0.066,1.943-0.066h0.067c0.804,0,1.474,0.066,2.211,0.066c3.484,0,7.102-0.134,10.72-0.134
			c0.402,0,0.938,0.134,0.938,0.603c0,1.14-0.201,2.346-0.201,3.552c0,0.804,0.134,1.474,0.134,2.211v0.67l-0.268,0.269h-8.509
			c-1.072,0-2.211-0.067-3.149-0.067c-0.536,0-0.938,0.2-0.938,0.737v0.066c0,0.268,0.067,1.541,0.067,1.742v12.127
			c0.067,0.402,0.067,0.536,0.067,0.938c0,0.603-0.067,1.005-0.134,1.608v4.287c0.134,0.604,0.134,1.34,0.134,1.943v0.135
			c0,0.268-0.134,1.541-0.134,1.809v2.814c0,1.942,0.067,3.953,0.067,5.762c0,1.072-0.067,2.076-0.067,2.947
			c0,0.938,0.067,1.742,0.067,2.613c0,0.805-0.804,0.805-1.34,0.805c-0.67,0-1.005,0-1.742-0.135
			c-0.603,0.201-1.273,0.336-2.077,0.336c-0.804,0-1.742-0.135-2.412-0.135h-0.737c-0.335-0.134-0.335-0.67-0.335-0.938
			C216.522,94.254,216.656,91.238,216.656,88.291z"/>
		<path fill="#F68E63" d="M48.923,143.828c0-5.896-0.067-11.993-0.067-17.889v-6.566l0.335-0.336h1.608
			c0.067,0,0.67,0.068,0.737,0.068c0.134,0,1.675-0.068,1.809-0.068h1.072c1.139,0,2.345,0.068,3.551,0.068
			c0.871,0,1.273,0,2.278-0.068h12.395c0.134,0.068,0.268,0.135,0.469,0.135c0.067,0,0.134-0.066,0.201-0.066l2.948,0.871
			c0.67,0.2,2.546,1.875,2.814,2.411l1.072,2.278l0.469,2.546c0.067,0.737,0.067,1.474,0.067,2.211c0,1.541-0.067,3.015-0.067,4.489
			c0,0.604-0.335,1.273-0.335,1.876c0,0.134,0.067,0.201,0.067,0.401l-0.804,2.212l-0.603,0.87l-1.541,1.408l-2.01,1.004
			c-0.134,0.135-0.201,0.269-0.201,0.336c0,0.066,0,0.134,0.067,0.134l2.144,0.938l1.206,0.871l1.206,1.674l0.804,2.479
			c0,0,0.067,2.479,0.134,3.484v0.2c0,0.402,0,0.671-0.067,1.14c0,0.67,0.067,3.819,0.067,4.489v0.066
			c-0.067,1.81,0,4.222-1.072,5.227l-2.01,1.876l-1.474,0.871l-3.216,0.67h-0.402c-1.005,0-1.943,0.134-2.881,0.134
			c-0.536,0-0.737,0-1.34-0.066c-2.546,0.066-3.484,0.066-5.561,0.066c-2.546,0-5.025-0.066-7.638-0.066
			c-1.742,0-3.551,0.066-5.36,0.066h-0.67l-0.335-0.268v-0.402C48.788,158.234,48.923,151.131,48.923,143.828z M63.797,138.803
			c5.025,0,8.777-0.268,8.777-4.556v-6.7c0-1.742-2.211-1.607-2.948-1.607H57.231c-0.067,0-0.335,0.133-0.335,0.133v9.515
			c-0.067,0.938-0.067,1.407-0.067,2.278v0.335c0,0.201,0.268,0.335,0.402,0.401C58.236,138.737,60.581,138.803,63.797,138.803z
			 M57.365,159.238h0.603c3.819,0,7.772-0.066,11.726-0.066h0.536c0.938,0,2.278-0.402,2.278-1.608v-7.304l-0.268-2.144
			c-0.201-2.211-3.752-2.411-5.36-2.411c-1.943,0-4.489,0.2-5.092,0.2c-1.139,0-2.345-0.269-3.551-0.269h-1.072
			c-0.201,0.201-0.335,0.336-0.335,0.537v0.603c0,1.071,0.067,2.077,0.067,3.149v1.474c-0.067,0-0.067,0.201-0.067,0.201v0.067
			c0,0,0,0.133,0.067,0.201v2.076c0,1.608-0.067,3.082-0.067,4.69C56.829,158.971,56.963,159.238,57.365,159.238z"/>
		<path fill="#F68E63" d="M100.739,164.197c0-1.14-0.067-2.211,0.268-3.351c0-0.067-0.134-0.134-0.201-0.134v-25.527
			c0-0.201-0.067-1.273-0.067-1.475v-0.201c0-1.943,0.067-3.886,0.067-5.695c0-2.277-0.067-4.623-0.067-6.9v-1.072
			c0.067-0.871,0.536-0.871,1.206-0.871c0.536,0,0.938,0,1.407,0.066h21.909c0.938-0.066,1.474-0.066,2.412-0.066h1.139
			c0.335,0.135,0.536,0.335,0.536,0.737v5.896c-0.067,0.269-0.201,0.402-0.469,0.402h-2.01c-0.335,0-0.603,0-0.871-0.066h-5.896
			c-1.943,0-4.355-0.135-6.7-0.135c-1.407,0-4.489-0.201-4.757,0.805v1.809c0,1.407,0.134,2.881,0.134,4.154
			s-0.134,2.412-0.134,3.617v0.135c0.067,0.201,0.067,0.469,0.067,0.604v0.535c0,0.604,0.134,1.006,1.876,1.006
			c3.216,0,6.5-0.269,9.582-0.269c0.603,0,1.072,0.067,1.072,0.871v6.565c-0.134,0.402-0.67,0.47-1.072,0.47
			c-1.273,0-2.546-0.134-3.953-0.134h-1.742c-0.804,0.201-1.742,0.201-2.546,0.201c-0.603,0-0.938-0.135-1.943-0.135
			c-1.206,0-1.34,0.268-1.34,0.938c0,4.021,0.134,7.839,0.134,11.858c0,0.201,0.335,0.336,0.402,0.336h0.804
			c6.231,0,12.462-0.135,18.693-0.135c1.34,0,1.876-0.066,1.876,1.408c0,1.272-0.067,2.612-0.067,3.953v1.004
			c0,0.135-0.067,0.604-0.268,0.737h-0.737c-0.804,0-1.742-0.067-2.613-0.067c-6.164,0-12.396,0.135-18.626,0.135h-7.035
			c-0.134,0-0.402-0.201-0.469-0.469V164.197z"/>
		<path fill="#F68E63" d="M150.312,164.197c0-1.14-0.067-2.211,0.268-3.351c0-0.067-0.134-0.134-0.201-0.134v-25.527
			c0-0.201-0.067-1.273-0.067-1.475v-0.201c0-1.943,0.067-3.886,0.067-5.695c0-2.277-0.067-4.623-0.067-6.9v-1.072
			c0.067-0.871,0.536-0.871,1.206-0.871c0.536,0,0.938,0,1.407,0.066h21.909c0.938-0.066,1.474-0.066,2.412-0.066h1.139
			c0.335,0.135,0.536,0.335,0.536,0.737v5.896c-0.067,0.269-0.201,0.402-0.469,0.402h-2.01c-0.335,0-0.603,0-0.871-0.066h-5.896
			c-1.943,0-4.355-0.135-6.7-0.135c-1.407,0-4.489-0.201-4.757,0.805v1.809c0,1.407,0.134,2.881,0.134,4.154
			s-0.134,2.412-0.134,3.617v0.135c0.067,0.201,0.067,0.469,0.067,0.604v0.535c0,0.604,0.134,1.006,1.876,1.006
			c3.216,0,6.499-0.269,9.581-0.269c0.603,0,1.072,0.067,1.072,0.871v6.565c-0.134,0.402-0.67,0.47-1.072,0.47
			c-1.273,0-2.546-0.134-3.953-0.134h-1.742c-0.804,0.201-1.742,0.201-2.546,0.201c-0.603,0-0.938-0.135-1.943-0.135
			c-1.206,0-1.34,0.268-1.34,0.938c0,4.021,0.134,7.839,0.134,11.858c0,0.201,0.335,0.336,0.402,0.336h0.804
			c6.231,0,12.462-0.135,18.693-0.135c1.34,0,1.876-0.066,1.876,1.408c0,1.272-0.067,2.612-0.067,3.953v1.004
			c0,0.135-0.067,0.604-0.268,0.737h-0.737c-0.804,0-1.742-0.067-2.613-0.067c-6.164,0-12.396,0.135-18.626,0.135h-7.035
			c-0.134,0-0.402-0.201-0.469-0.469V164.197z"/>
		<path fill="#F68E63" d="M199.884,164.599c0-1.541,0-2.412,0.067-4.222V142.69c0.201-2.68,0.201-5.36,0.201-8.107
			c0-5.092-0.201-10.117-0.201-15.209c0-0.402,0.067-0.67,0.469-0.805h1.541c0.737,0,1.608,0,2.412,0.067h7.504
			c0.268,0,1.206-0.067,1.474-0.067h0.067c0.067,0,0.536,0.067,0.603,0.067h0.067c0.067,0,0.402,0,0.402-0.067l9.581,0.067
			l2.412,0.401l1.943,0.805c0.603,0.335,2.479,2.277,2.747,3.148l0.469,1.273l0.268,2.412v10.385c0,0.068,0.067,0.604,0.067,0.805
			v0.066c0,1.207-0.067,2.211-0.067,3.351l-0.804,2.412l-0.469,0.737l-2.345,1.875l-1.608,0.671
			c-0.737,0.335-4.556,0.269-4.556,0.603v0.067c0,0,0,0.2,0.067,0.2l12.261,17.756c0,0.268-0.201,0.536-0.402,0.604h-0.402
			c-0.469,0-0.67,0-1.206-0.067H229.7c-1.407,0-2.881,0.067-4.288,0.067c-0.268,0-0.536,0.066-0.67-0.201l-12.127-18.56
			c-0.067-0.067-0.335-0.2-0.402-0.2h-3.953c-0.201,0-0.335,0.133-0.335,0.334v0.604c0,3.082,0.134,6.23,0.134,9.312v1.14
			c-0.067,0.067-0.067,0.134-0.067,0.2c0,0.336,0.067,0.805,0.067,1.072c0,1.676-0.201,3.283-0.201,4.959
			c0,0.401,0,0.804,0.067,1.205c-0.201,0.135-0.603,0.135-0.67,0.135h-4.623c-0.603,0.066-1.005,0.066-1.608,0.066h-0.67
			c-0.134,0-0.469-0.134-0.469-0.402V164.599z M208.393,140.211h13.266c0.804,0,1.675-0.269,2.077-0.939l0.201-0.2
			c0.134-1.072,0.134-5.025,0.134-7.169v-3.819c-0.134-2.211-1.541-2.479-3.283-2.479c-2.546,0-4.757,0.067-7.103,0.067h-0.067
			c-0.469,0-4.154-0.134-4.556-0.134h-0.067c-0.402,0-1.072,0.066-1.072,0.535v13.602
			C207.925,139.875,207.925,140.211,208.393,140.211z"/>
	</g>
</g>
<g>
	<g>
		<path fill="#F68E63" d="M437.425,95.996l-1.139-1.541l-0.871-3.283c0-0.469-0.135-2.145-0.135-2.412V66.247
			c-0.066-1.942-0.066-3.283-0.066-5.226v-1.475l0.604-3.953l1.004-1.675l1.541-1.407l1.608-0.736l3.417-0.604h0.871
			c1.139,0,2.278-0.066,3.418-0.066c1.139,0,2.277,0.066,3.483,0.066c0.536,0,0.938-0.066,1.407-0.066l0.268,0.066
			c0.067,0,0.268,0,0.336-0.066h5.963l3.551,0.736l0.535,0.269l2.547,2.68l1.005,3.082v2.412c0,0.067-0.067,0.201-0.067,0.269v0.134
			c0,0.804,0.135,4.422,0.201,5.226c0.135,0.201,0.135,0.269,0.135,0.47c0,0.335-0.269,0.603-0.47,0.67l-7.304,1.675
			c-0.401,0-0.469-0.335-0.469-0.604c0-2.881,0.135-5.896,0.135-8.844v-0.871c0-0.402-1.006-0.402-1.407-0.402
			c-0.47,0-0.603,0-1.072,0.067h-6.433c-1.674,0-3.35,0.067-5.024,0.067h-1.206c-0.135,0.066-0.268,0.268-0.268,0.469
			c0,4.489-0.135,8.978-0.135,13.534c0,6.097,0.067,12.396,0.336,18.626c0,0.402,0.469,0.47,0.803,0.47
			c1.475,0,2.949-0.067,4.423-0.067h9.715c0.402,0,0.47-0.536,0.47-0.871c0-3.685-0.336-7.303-0.336-10.988
			c0-0.536,0.135-0.804,0.67-0.804l7.103,1.474c0.536,0.134,0.603,0.536,0.603,0.938c0,1.206-0.133,2.412-0.133,3.618
			c0,1.34,0.066,2.68,0.066,3.953c0,0.401-0.201,0.804-0.201,1.139s0.135,0.536,0.135,0.938c0,0.535,0,1.675-0.201,1.942
			l-0.737,1.943l-2.077,2.144l-2.412,1.273l-3.016,0.335H445.8l-0.201,0.067c-1.205-0.067-3.886-0.135-3.886-0.135l-2.211-0.67
			L437.425,95.996z"/>
		<path fill="#F68E63" d="M488.412,96.599c0-1.541,0-2.412,0.067-4.221V74.69c0.2-2.68,0.2-5.36,0.2-8.107
			c0-5.092-0.2-10.117-0.2-15.209c0-0.402,0.067-0.67,0.469-0.804h1.541c0.737,0,1.608,0,2.412,0.066h7.504
			c0.269,0,1.206-0.066,1.474-0.066h0.068c0.066,0,0.535,0.066,0.603,0.066h0.067c0.066,0,0.401,0,0.401-0.066l9.581,0.066
			l2.412,0.402l1.943,0.804c0.603,0.335,2.479,2.278,2.747,3.149l0.469,1.273l0.269,2.411v10.386c0,0.067,0.066,0.603,0.066,0.804
			v0.067c0,1.206-0.066,2.211-0.066,3.35l-0.805,2.412l-0.469,0.737l-2.346,1.876l-1.607,0.67c-0.737,0.335-4.557,0.269-4.557,0.604
			v0.066c0,0,0,0.201,0.067,0.201l12.261,17.755c0,0.269-0.2,0.536-0.401,0.604h-0.401c-0.47,0-0.671,0-1.207-0.067h-2.746
			c-1.408,0-2.882,0.067-4.289,0.067c-0.268,0-0.535,0.067-0.67-0.201l-12.127-18.56c-0.066-0.066-0.335-0.2-0.402-0.2h-3.953
			c-0.201,0-0.334,0.134-0.334,0.335v0.603c0,3.082,0.133,6.231,0.133,9.313v1.139c-0.066,0.067-0.066,0.134-0.066,0.201
			c0,0.335,0.066,0.804,0.066,1.072c0,1.675-0.201,3.283-0.201,4.958c0,0.401,0,0.804,0.068,1.206
			c-0.201,0.134-0.604,0.134-0.671,0.134h-4.623c-0.603,0.067-1.005,0.067-1.608,0.067h-0.67c-0.134,0-0.469-0.135-0.469-0.402
			V96.599z M496.921,72.211h13.266c0.805,0,1.676-0.269,2.077-0.938l0.201-0.201c0.134-1.072,0.134-5.025,0.134-7.169v-3.819
			c-0.134-2.211-1.541-2.479-3.283-2.479c-2.546,0-4.757,0.066-7.102,0.066h-0.067c-0.469,0-4.153-0.134-4.556-0.134h-0.067
			c-0.401,0-1.071,0.067-1.071,0.536v13.602C496.453,71.875,496.453,72.211,496.921,72.211z"/>
		<path fill="#F68E63" d="M558.761,51.574c0.067-0.335,0.402-0.469,0.67-0.469c1.608,0,3.016,0.066,4.623,0.066h1.207
			c0.066,0.067,0.334,0.201,0.401,0.402l11.457,32.764v0.469l4.489,12.194c0.201,0.268,0.268,0.536,0.268,0.871
			s-0.066,0.402-0.469,0.536h-0.804c-1.14,0-2.345-0.134-3.484-0.134c-0.871,0-1.741,0.134-2.612,0.134h-0.67
			c-0.068,0-0.269-0.134-0.269-0.269l-3.283-9.647c-0.67-0.201-1.072-0.201-1.541-0.201c-0.269,0-0.47,0-0.737,0.066l-14.07-0.066
			c-0.066,0-0.268,0.134-0.268,0.134l-3.217,9.581c-0.066,0.269-0.67,0.402-0.871,0.402h-5.963c-0.334,0-0.67-0.201-0.67-0.67
			L558.761,51.574z M567.136,81.39h0.536c0.067,0,0.067-0.067,0.067-0.067l-5.695-18.224h-0.066c-0.067,0-0.135,0-0.135,0.066
			l-0.736,1.676l-4.959,15.745v0.268c0,0.201,0.067,0.269,0.269,0.469h2.747c0.469,0,0.938,0,1.34-0.066
			C561.576,81.322,566.131,81.39,567.136,81.39z"/>
		<path fill="#F68E63" d="M602.377,89.832c0-5.093-0.067-10.117-0.067-15.21c0-4.623,0.067-9.111,0.067-13.734
			c0-2.814-0.067-5.562-0.067-8.241c0-0.737-0.066-1.608,0.871-1.608h19.162c2.613-0.067,5.025-0.067,7.438-0.067h0.938
			c0.135,0,0.269,0.135,0.269,0.269v1.072c0,0.736-0.067,1.607-0.067,2.345c0,0.67,0.067,1.34,0.067,2.077
			c0,0.335,0.134,1.34-0.401,1.34h-17.421l-2.211-0.067c-0.335,0-0.536,0.402-0.536,0.67c0,2.011,0.201,3.953,0.201,5.896
			c0,1.407-0.067,2.747-0.067,4.154v0.938c0.067,0.335,0.134,0.47,0.402,0.604h2.479c0.334,0,0.736,0,1.071-0.067h1.005
			c2.077,0,4.221-0.134,6.299-0.134c0.402,0,1.072,0,1.072,0.536c0,1.206-0.067,2.278-0.067,3.484c0,0.938,0.067,1.809,0.067,2.881
			v0.67c-0.135,0.469-0.201,0.536-0.67,0.536c-1.609-0.067-3.016,0-4.624-0.134h-6.633c-0.201,0-0.335,0.401-0.335,0.603v0.067
			c0,0.134,0.066,1.139,0.066,1.272v12.194c0,0.134-0.066,0.67-0.066,0.804v0.067c0,1.407,0.134,2.814,0.134,4.087v0.604
			l-0.335,0.335c-0.469,0.066-1.206,0.066-1.742,0.066c-0.736,0-1.809-0.066-2.68-0.066c-1.006,0-2.01,0.134-2.814,0.134
			c-0.535,0-0.871-0.201-0.871-0.604C602.377,94.79,602.377,92.446,602.377,89.832z"/>
		<path fill="#F68E63" d="M661.271,88.291V83.4c0-0.201-0.067-1.675-0.067-1.876c0-7.37,0.134-14.74,0.134-22.177v-1.273
			c-0.134-0.201-0.469-0.201-0.804-0.201c-1.541,0-3.015,0.067-4.556,0.067h-3.217c-1.139,0-2.345,0.066-3.484,0.066h-0.401
			c-0.269-0.066-0.402-0.335-0.402-0.536v-5.829c0-0.335,0-0.87,0.47-0.938h0.535c3.551,0,7.17,0.067,10.854,0.067h6.433
			c0.401,0,1.675-0.067,1.943-0.067h0.066c0.804,0,1.475,0.067,2.211,0.067c3.484,0,7.102-0.135,10.721-0.135
			c0.401,0,0.938,0.135,0.938,0.604c0,1.139-0.201,2.345-0.201,3.551c0,0.804,0.135,1.475,0.135,2.211v0.67l-0.269,0.269H673.8
			c-1.072,0-2.211-0.067-3.149-0.067c-0.536,0-0.938,0.201-0.938,0.737v0.066c0,0.269,0.067,1.541,0.067,1.742v12.128
			c0.067,0.401,0.067,0.535,0.067,0.938c0,0.604-0.067,1.005-0.135,1.608v4.288c0.135,0.603,0.135,1.34,0.135,1.942v0.135
			c0,0.268-0.135,1.541-0.135,1.809v2.814c0,1.942,0.067,3.953,0.067,5.762c0,1.072-0.067,2.077-0.067,2.948
			c0,0.938,0.067,1.742,0.067,2.613c0,0.804-0.804,0.804-1.34,0.804c-0.671,0-1.005,0-1.742-0.134
			c-0.603,0.201-1.272,0.335-2.077,0.335c-0.804,0-1.742-0.134-2.412-0.134h-0.736c-0.336-0.135-0.336-0.671-0.336-0.938
			C661.136,94.254,661.271,91.239,661.271,88.291z"/>
		<path fill="#F68E63" d="M438.163,164.599l-1.675-1.474l-1.072-2.613c-0.135-0.335-0.067-0.871-0.201-1.272v-18.56
			c0.134-1.876,0.066-4.557,0.066-6.433v-4.288c-0.066-0.871-0.066-1.474-0.066-2.211l0.469-3.618l1.206-2.345l1.341-1.34
			l2.211-1.072l4.689-0.536c0.268,0,1.541,0.134,1.809,0.134c0.336,0,3.752-0.134,4.222-0.134h4.021c0.066,0,0.67-0.066,0.736-0.066
			h0.135c1.674,0,3.215,0.066,4.957,0.066h1.273l3.149,0.804l1.206,0.671l1.675,1.741l1.071,2.212c0,1.406,0.269,4.087,0.269,5.896
			c0,0.604,0.067,1.206-0.603,1.273l-5.629,1.272c-0.133,0-1.139,0.269-1.272,0.269h-0.067c-0.268,0-0.402,0-0.469-0.269v-0.603
			c0-1.34,0.066-2.814,0.066-4.222v-1.809c0-0.134-0.268-0.134-0.334-0.134h-1.34c-1.408,0-2.681,0.066-4.154,0.066
			c-1.541,0-3.082-0.066-4.69-0.066h-3.149c-1.139,0-2.345-0.134-3.617-0.134c-0.871,0-1.006,1.205-1.006,2.411
			c0,0.604,0.067,1.206,0.067,1.676v7.973c-0.067,1.675-0.067,2.412-0.067,3.953c0,4.958,0.268,9.916,0.268,14.941v1.876
			c0,0.402,0.537,0.469,0.805,0.469c2.346,0,4.623-0.268,6.969-0.268c2.211,0,4.422,0.201,6.767,0.201h2.948
			c0.066,0,0.469-0.201,0.469-0.335v-8.175c0.066-1.139,0.066-1.607,0.066-2.612v-1.072c0-0.269-0.736-0.269-0.871-0.269h-0.133
			c-0.67,0-6.969,0.201-7.772,0.201c-0.134,0-0.47-0.201-0.47-0.335v-6.633c0-0.134,0.336-0.269,0.402-0.269h1.541
			c1.139,0,2.479,0.067,3.752,0.067c0.469,0,0.67,0,1.273-0.067h9.982c0.135,0,0.269,0.135,0.269,0.201v19.498l-0.469,2.144
			l-1.541,2.479l-1.474,1.071l-2.145,0.805l-3.686,0.335h-6.298c-0.335,0-1.272,0-1.474,0.066h-9.85l-2.947-0.736L438.163,164.599z"
			/>
		<path fill="#F68E63" d="M493.007,165.069l-1.474-1.14l-1.14-1.876l-0.535-2.077c0-0.268-0.135-1.809-0.135-2.01v-16.482
			c0-0.603,0.067-5.494,0.067-6.097v-5.829c0.067-1.475,0.47-5.293,0.47-5.562l1.473-2.479l1.341-1.14l1.876-0.804
			c0.871-0.402,1.742-0.201,2.479-0.402h8.175c1.81-0.134,3.685-0.134,5.562-0.134c0.201,0,1.272,0.067,1.406,0.067h4.422l1.877,0.2
			l2.211,0.805v0.066l1.272,0.871l1.541,1.943c0.603,0.737,0.938,2.68,0.938,3.685c0,1.81-0.135,2.882-0.135,4.088v0.066
			c0,0.201,0.067,0.604,0.135,0.805v2.076c0,0.938,0,2.412-0.067,3.283v10.185c-0.067,0.804-0.067,1.206-0.067,1.943
			c0,0.736,0.067,1.406,0.067,2.01c0,0.871-0.134,1.675-0.134,2.479c0,0.201,0,0.335,0.066,0.402v3.082
			c-0.066,0.335-0.066,0.402-0.066,0.536c0,0.402,0.066,0.603,0.066,0.938c0,2.479-1.875,6.767-4.756,7.37l-2.547,0.535h-11.592
			c-0.133-0.066-0.268-0.066-0.603-0.066s-0.469,0-0.737,0.066h-7.035l-2.076-0.268L493.007,165.069z M498.234,159.172
			c0,0.134,0.535,0.134,0.67,0.134c1.005,0,1.943-0.066,3.016-0.066h14.338c0.335,0,0.402-4.958,0.402-7.974
			c0-8.241,0-16.482-0.135-24.724c-0.066-0.134-0.268-0.268-0.402-0.268h-0.67c-5.695,0-11.322,0.134-16.951,0.134
			c-0.134,0-0.335,0.201-0.335,0.335v10.386l-0.134,1.071v18.827L498.234,159.172z"/>
		<path fill="#F68E63" d="M548.275,165.069l-1.474-1.14l-1.14-1.876l-0.535-2.077c0-0.268-0.135-1.809-0.135-2.01v-16.482
			c0-0.603,0.067-5.494,0.067-6.097v-5.829c0.067-1.475,0.47-5.293,0.47-5.562l1.473-2.479l1.341-1.14l1.876-0.804
			c0.871-0.402,1.742-0.201,2.479-0.402h8.175c1.81-0.134,3.685-0.134,5.562-0.134c0.201,0,1.272,0.067,1.406,0.067h4.422l1.877,0.2
			l2.211,0.805v0.066l1.272,0.871l1.541,1.943c0.603,0.737,0.938,2.68,0.938,3.685c0,1.81-0.135,2.882-0.135,4.088v0.066
			c0,0.201,0.067,0.604,0.135,0.805v2.076c0,0.938,0,2.412-0.067,3.283v10.185c-0.067,0.804-0.067,1.206-0.067,1.943
			c0,0.736,0.067,1.406,0.067,2.01c0,0.871-0.134,1.675-0.134,2.479c0,0.201,0,0.335,0.066,0.402v3.082
			c-0.066,0.335-0.066,0.402-0.066,0.536c0,0.402,0.066,0.603,0.066,0.938c0,2.479-1.875,6.767-4.756,7.37l-2.547,0.535h-11.592
			c-0.133-0.066-0.268-0.066-0.603-0.066s-0.469,0-0.737,0.066h-7.035l-2.076-0.268L548.275,165.069z M553.501,159.172
			c0,0.134,0.535,0.134,0.67,0.134c1.005,0,1.943-0.066,3.016-0.066h14.338c0.335,0,0.402-4.958,0.402-7.974
			c0-8.241,0-16.482-0.135-24.724c-0.066-0.134-0.268-0.268-0.402-0.268h-0.67c-5.695,0-11.322,0.134-16.951,0.134
			c-0.134,0-0.335,0.201-0.335,0.335v10.386L553.3,138.2v18.827L553.501,159.172z"/>
		<path fill="#F68E63" d="M600.587,159.373v-3.686c0-4.689-0.133-15.946-0.133-16.147l-0.067-0.401v-18.157
			c0-0.135-0.067-0.871-0.067-1.072v-0.134c0-0.402,0.135-0.805,0.604-0.805h18.291l5.762,1.541l3.619,2.613l2.479,2.948l2.01,6.097
			c0.469,1.341,0.201,2.613,0.402,4.021v9.447c-0.067,0.067-0.067,0.469-0.067,0.536c0,0,0,0.268,0.067,0.335v2.813l-1.273,7.103
			l-1.742,3.417l-3.685,3.551l-4.489,2.211l-2.613,0.402c-0.469,0-1.005-0.066-1.541-0.066c-0.67,0-1.273,0.066-1.876,0.2h-2.144
			c-4.221,0-8.51,0.135-12.73,0.135h-0.604c-0.334-0.201-0.334-0.536-0.334-0.871C600.455,163.393,600.587,161.517,600.587,159.373z
			 M609.164,159.105l8.175-0.066l3.618-0.737l1.406-0.737l1.408-1.607l1.139-2.011c0.066-0.134,0.402-2.68,0.469-3.551v-3.015
			c0-0.402,0.066-3.953,0.066-4.288v-0.269c0-0.268-0.066-3.148-0.066-3.551v-3.752c-0.066-1.072-0.402-3.819-0.469-4.087
			l-1.072-2.077l-1.34-1.608l-2.278-1.139l-3.216-0.536h-8.04c0,0.201-0.269,0.335-0.269,0.536v7.839
			c-0.066,0.201-0.066,1.273-0.066,1.541v0.134c0,3.618,0.134,7.17,0.134,10.922c0,0.938-0.067,1.942-0.067,3.015v0.335
			c0,0.335,0.067,3.686,0.067,4.154c0,1.139-0.067,2.144-0.067,3.149C608.695,158.1,608.628,159.105,609.164,159.105z"/>
		<path fill="#F68E63" d="M651.24,162.79l-0.805-1.742l-0.402-4.221c0-0.938-0.066-1.742-0.066-2.747c0-0.402,0-0.737,0.536-0.938
			l6.7-1.541c0.402,0,0.736,0.269,0.736,0.67c0,1.34-0.2,2.613-0.2,4.021v1.005c0,1.742,2.077,1.809,3.483,1.809
			c1.81,0,3.418-0.066,5.227-0.066c1.072,0,2.01,0.066,3.082,0.066H670c0.067,0,0.402-0.066,0.469-0.066
			c0.604,0,1.273,0.134,1.877,0.134l1.675-0.536c1.071-0.335,1.272-2.881,1.272-5.36c0-4.153,0.269-6.298-1.205-6.767
			c-2.011-0.604-6.231-0.67-9.783-0.67c-2.277,0-4.422,0.066-5.627,0.066l-3.016-0.804l-1.876-1.139
			c-0.938-0.536-0.603-1.005-1.273-1.407l-0.938-2.211l-0.268-2.814v-11.256l0.469-2.546l1.072-1.81l1.541-1.607l1.676-0.805
			l5.158-0.67h12.998c0.336,0,0.738,0.134,1.072,0.134l2.948,0.737l2.412,1.675l0.804,1.206l0.938,2.747
			c0.067,0.269,0.067,1.072,0.067,1.81v3.483c0,0.201-0.269,0.536-0.536,0.604l-6.097,1.474h-0.604
			c-0.067,0-0.268-0.201-0.268-0.335v-1.005c0-1.272,0-1.876,0.133-3.484c-0.133-1.206-0.938-2.277-2.144-2.277h-4.087
			c-0.066,0.066-0.67,0.066-0.737,0.066c-2.144,0-4.221-0.201-6.231-0.201c-0.133,0-0.133,0-0.268,0.067l-1.273,0.335
			c-0.736,0.067-1.205,1.072-1.205,1.742v8.576c0,1.206,1.004,1.876,2.211,1.876c4.087,0.201,8.576,0.469,12.73,0.469l3.953,0.536
			l2.277,1.206l1.541,1.876l0.536,1.005l0.536,2.681c-0.135,0.134-0.135,0.603-0.135,1.005c0,0.871,0,1.34,0.201,1.474v2.278
			c0,2.144-0.066,4.154-0.066,6.231v1.607l-0.604,3.082l-0.938,1.676l-1.475,1.406l-3.551,1.407l-1.273,0.134
			c-5.158,0-10.385,0.135-15.611,0.135c-1.004,0-3.082,0.134-3.752-0.335l-2.545-1.341L651.24,162.79z"/>
	</g>
</g>
<g>
	<path fill="#A1CAB1" d="M102.093,8.492c0,0.066,1.254,0.727,1.254,1.222c0.132,0.132,0.693,1.155,0.693,2.211v0.562
		c0,0-0.066,0.23-0.165,0.297l-0.165,0.594c0.033,0-1.254,1.552-1.815,1.552l-0.891,0.197h-0.462
		c-1.551-0.197-1.848-0.23-2.673-1.089l-0.33-0.396l-0.396-0.857c-0.066-0.066-0.099-0.297-0.099-0.297v-1.585
		c0-0.165,0.693-2.013,1.584-2.31l0.495-0.231c0.099-0.033,0.297-0.099,0.297-0.099h0.495c0.033,0,0.462-0.1,0.495-0.1h0.957
		C101.367,8.162,101.895,8.36,102.093,8.492z"/>
	<path fill="#A1CAB1" d="M114.379,0.627h1.518c-0.066,0,0.594-0.033,1.353-0.033c1.288,0,2.971,0.066,2.971,0.495v16.898
		c0,0.363,0.429,0.528,1.155,0.528h0.99c1.551,0,4.752-0.066,4.752,0.528v4.225c0,0.23-0.396,0.362-0.528,0.429H114.28
		c0,0-0.132-0.066-0.165-0.066l-0.132-0.132l-0.099-0.297V0.924L114.379,0.627z"/>
	<path fill="#A1CAB1" d="M135.221,8.218l0.33-1.089c0-0.033,0.297-0.562,0.396-0.727l0.66-1.089c0-0.033,0.693-0.693,2.013-2.244
		c0.66-0.562,2.211-1.519,2.211-1.584l1.452-0.66c0.099,0,0.528-0.165,0.528-0.198c0.495,0,0.858-0.33,1.419-0.33
		C145.65,0,147.07,0.065,148.555,0h0.231c0.726,0,4.422,0.462,5.677,1.716l0.429,0.33l0.528,0.297
		c0.33,0.165,1.386,1.354,1.485,1.354l0.66,0.727c0.132,0.165,0.495,0.627,0.495,0.66l0.231,0.33l0.858,1.716l0.297,0.858
		c0.264,0.66,0.363,1.782,0.429,2.574v1.419c0,1.122,0,2.179-0.198,3.268c-0.363,1.947-1.716,5.05-4.126,6.865l-0.66,0.429
		c-0.198,0.132-1.056,0.562-1.155,0.627l-1.155,0.462c-1.089,0.43-2.343,0.66-3.367,0.727h-3.531c-2.772,0-6.271-1.584-8.119-3.796
		l-0.429-0.527c-0.66-0.793-1.287-1.815-1.584-2.806l-0.231-0.792c0-0.462-0.297-0.99-0.297-1.717c0-0.264-0.33-1.089-0.33-1.815
		v-1.551C134.693,10.033,135.221,9.308,135.221,8.218z M143.142,17.327l0.957,0.66c0.264,0.265,0.66,0.265,0.858,0.297
		c0.462,0.43,1.188,0.198,1.716,0.495h0.825c0.693,0,1.122,0,1.815-0.264l1.254-0.429c0.396,0,0.99-0.925,1.386-1.123
		c0.627-0.824,1.155-1.716,1.353-2.673c0-0.297,0.297-1.419,0.297-1.782v-0.165c-0.033-0.495-0.165-1.947-0.165-1.98
		c-0.198-0.198-0.363-1.155-0.561-1.584c-0.363-0.892-0.759-1.188-1.584-1.882c0-0.527-2.772-1.221-3.664-1.287l-2.146,0.231
		l-0.396,0.198c-0.561,0-1.65,0.891-2.145,1.386l-0.858,1.287c-0.726,1.815-0.825,2.212-0.825,3.004v1.485
		C141.26,14.159,142.251,16.799,143.142,17.327z"/>
	<path fill="#A1CAB1" d="M168.649,10.396c0-1.32,0.891-3.696,1.386-4.687l0.231-0.396c0.462-0.924,1.519-1.848,2.311-2.673
		l0.924-0.595c2.014-1.287,4.06-2.013,6.667-2.013c1.551,0,3.4,0.065,5.149,0.957l0.792,0.396c0.132,0.132,0.462,0.528,0.495,0.528
		v0.495c0,1.222,0.066,3.961,0.066,4.621v0.759c-0.033,0-0.066,0.033-0.066,0.066h-0.363l-0.33-0.198L184.789,6.7l-0.66-0.33
		c-0.231-0.133-0.924-0.396-0.924-0.396h-0.363c0,0-0.297,0.066-0.33,0.066c-0.132-0.165-0.363-0.396-0.99-0.396h-1.122
		c-0.297,0.165-2.806,0.297-3.466,1.584l-0.561,0.628l-0.165,0.329c-0.462,0.858-0.957,2.014-0.957,2.74v1.452
		c0,1.287,0.165,2.64,1.122,3.928c0.66,0.692,0.594,1.319,3.003,2.013c0.429,0.198,0.957,0.264,1.419,0.264
		c0.924,0,2.706-0.297,2.706-0.494l1.023-0.495c0.066-0.066,0.297-0.198,0.33-0.231l0.858-0.594c0.231-0.165,0.396-0.33,0.726-0.33
		h0.165c0,0,0.066,0.23,0.066,0.33v5.61l-0.066,0.165c-0.099,0.033-0.198,0.198-0.264,0.231c-0.033,0-0.297,0.132-0.429,0.23
		l-0.924,0.396c-0.165,0-0.528,0.23-0.528,0.23c-1.089,0.198-1.485,0.628-4.06,0.628h-0.726c-0.727,0-1.881-0.066-2.211-0.231
		h-0.033c-0.198,0-0.66-0.297-1.122-0.297c-0.528-0.33-1.815-0.627-2.542-1.188l-0.99-0.759c-0.33-0.265-0.627-0.495-0.924-0.825
		l-0.858-1.057c-0.165-0.197-0.726-1.056-0.825-1.254l-0.429-0.858c-0.561-1.155-0.825-2.508-1.089-3.828V10.396z"/>
	<path fill="#A1CAB1" d="M195.297,23.104c0-1.188,0.594-1.717,1.122-3.433l0.495-1.717c0-0.264,0.165-0.429,0.165-0.726l2.046-5.611
		l0.495-1.32c0-0.132,0.231-0.692,0.264-0.792l0.726-2.013c0-0.033,0.198-0.462,0.198-0.528l1.288-3.598
		c0-0.23,0.099-0.594,0.33-0.825l0.396-1.056c0.198-0.462,0.396-0.858,1.089-0.858h5.578c0.858,0,0.429,0.363,0.957,0.627
		l0.231,0.429l0.495,1.585c0.792,2.244,0.165,0,1.914,5.28V8.515c0.066,0,0.561,2.014,0.858,2.245
		c1.122,3.399,2.541,6.799,3.795,10.165c0.231,0.727,0.759,1.519,0.759,2.244c0,0.595-0.198,0.33-0.396,0.528h-0.33
		c-1.75,0-3.532-0.066-5.248-0.066c-1.188-0.362-1.254-3.597-1.98-4.06c-0.198-0.032-1.188-0.065-1.419-0.065h-0.495
		c-0.792,0-4.687,0.033-5.479,0.065c-0.132,0-0.495,0.1-0.528,0.1c-0.132,0-1.056,2.442-1.254,3.3l-0.231,0.396
		c0,0.132-0.561,0.33-0.528,0.33h-4.951c-0.198,0-0.363-0.165-0.363-0.231V23.104z M205.33,15.017h2.145
		c0.627,0,1.287-0.099,1.617-0.396v-0.528c0-0.297-0.165-0.792-0.561-1.947l-0.297-1.254c-0.165-0.33-0.066-1.057-0.363-1.387
		c0-0.99-0.924-2.541-0.924-3.103l-0.198-0.197h-0.132l-0.198,0.197c0,0.1-0.132,0.298-0.132,0.363l-0.726,2.674
		c-0.066,0.363-1.122,3.433-1.287,3.763l-0.264,1.221C204.01,14.654,204.769,15.017,205.33,15.017z"/>
	<path fill="#A1CAB1" d="M227.683,0.627h1.518c-0.066,0,0.594-0.033,1.353-0.033c1.288,0,2.971,0.066,2.971,0.495v16.898
		c0,0.363,0.429,0.528,1.155,0.528h0.99c1.551,0,4.752-0.066,4.752,0.528v4.225c0,0.23-0.396,0.362-0.527,0.429h-12.311
		c0,0-0.132-0.066-0.165-0.066l-0.132-0.132l-0.099-0.297V0.924L227.683,0.627z"/>
	<path fill="#A1CAB1" d="M249.417,0.627h1.519c-0.065,0,0.595-0.033,1.353-0.033c1.288,0,2.971,0.066,2.971,0.495v16.898
		c0,0.363,0.43,0.528,1.156,0.528h0.989c1.552,0,4.753-0.066,4.753,0.528v4.225c0,0.23-0.396,0.362-0.528,0.429h-12.311
		c0,0-0.132-0.066-0.165-0.066l-0.132-0.132l-0.099-0.297V0.924L249.417,0.627z"/>
	<path fill="#A1CAB1" d="M274.28,12.311l-1.057-1.452c0-0.033-0.462-0.562-0.527-0.66l-1.816-2.739c0-0.066-0.164-0.297-0.164-0.297
		l-0.43-0.562c-0.099-0.033-0.561-0.825-0.66-0.924L268.9,4.62c-0.033-0.099-0.528-0.759-0.528-0.825
		c-0.727-1.188-1.287-1.716-1.749-2.771V0.66l0.132-0.265h6.667c0.627,0,0.595,0.793,0.99,0.99l0.759,1.552
		c0.033,0.033,0.43,0.726,0.496,0.857l0.957,1.815l0.131,0.066l0.463,0.924c0.099,0.066,0.23,0.165,0.264,0.265h0.23
		c-0.032-0.1,0.363-0.363,0.363-0.528l0.33-0.495c0.198,0,2.74-5.446,3.631-5.446h5.38l1.056,0.066v0.892
		c-0.099,0.164-0.297,0.462-0.429,0.726l-0.429,0.528c-0.76,1.089-1.551,2.277-2.311,3.399l-2.607,3.796
		c-0.297,0.362-0.495,0.759-0.792,1.188l-0.627,0.792l-0.396,0.892c0,0-0.065,0.065-0.065,0.165c0,0.165,0.065,0.396,0.065,0.429
		c0,0.1-0.132,0.627-0.132,0.66v0.33c0,0.825,0.132,7.69,0.132,8.548v0.1c-0.231,0.759-0.231,0.726-0.528,0.858h-5.115
		c-0.133,0-0.825-0.066-0.825-0.43v-10.33L274.28,12.311z"/>
	<path fill="#A1CAB1" d="M322.327,19.506V1.089c0-0.33,0.594-0.462,1.484-0.462h4.456c0.429,0.165,0.495,0.627,0.495,1.056v0.363
		c0,0.165-0.1,1.65-0.1,1.914v4.819c0,0.495,0.297,0.528,0.396,0.66c0.528,0,2.806,0.132,3.334,0.132h3.465
		c0.198-0.165,0.495-0.297,0.495-0.495V1.089c0,0,0.099-0.165,0.165-0.264l0.066-0.066c0.165-0.033,0.561-0.132,0.66-0.132h4.885
		c0.164,0,0.527,0.495,0.527,0.858v1.617c-0.164,3.234-0.164,6.402-0.164,9.373c0,4.423-0.066,9.109,0.032,10.727
		c0,0.066-0.032,0.264-0.099,0.297c-0.066,0.066-3.796,0.198-4.885,0.198h-0.066c-0.594,0-1.089,0-1.221-0.429v-1.354
		c0-0.165,0.132-1.354,0.132-1.485v-5.413c-0.132,0-0.396-0.362-0.528-0.362h-6.799c-0.033,0-0.165,0.032-0.197,0.065l-0.1,0.1
		c-0.066,0.032-0.1,0.264-0.1,0.33v7.228l-0.131,0.99c0,0.033-0.133,0.198-0.199,0.264l-0.197,0.066h-5.578l-0.23-0.198
		c-0.033,0-0.066-0.594-0.066-0.858v-0.362C322.26,21.321,322.26,20.43,322.327,19.506z"/>
	<path fill="#A1CAB1" d="M351.244,23.104c0-1.188,0.595-1.717,1.122-3.433l0.495-1.717c0-0.264,0.165-0.429,0.165-0.726l2.047-5.611
		l0.494-1.32c0-0.132,0.231-0.692,0.265-0.792l0.726-2.013c0-0.033,0.198-0.462,0.198-0.528l1.288-3.598
		c0-0.23,0.098-0.594,0.329-0.825l0.396-1.056c0.198-0.462,0.396-0.858,1.089-0.858h5.578c0.857,0,0.429,0.363,0.957,0.627
		l0.23,0.429l0.496,1.585c0.791,2.244,0.164,0,1.914,5.28V8.515c0.065,0,0.561,2.014,0.857,2.245
		c1.123,3.399,2.541,6.799,3.796,10.165c0.231,0.727,0.759,1.519,0.759,2.244c0,0.595-0.197,0.33-0.396,0.528h-0.33
		c-1.749,0-3.532-0.066-5.248-0.066c-1.188-0.362-1.254-3.597-1.979-4.06c-0.199-0.032-1.189-0.065-1.42-0.065h-0.495
		c-0.792,0-4.687,0.033-5.479,0.065c-0.132,0-0.495,0.1-0.528,0.1c-0.132,0-1.057,2.442-1.254,3.3l-0.231,0.396
		c0,0.132-0.562,0.33-0.528,0.33h-4.95c-0.198,0-0.363-0.165-0.363-0.231V23.104z M361.278,15.017h2.145
		c0.627,0,1.287-0.099,1.617-0.396v-0.528c0-0.297-0.165-0.792-0.561-1.947l-0.297-1.254c-0.166-0.33-0.066-1.057-0.363-1.387
		c0-0.99-0.924-2.541-0.924-3.103l-0.199-0.197h-0.131l-0.199,0.197c0,0.1-0.131,0.298-0.131,0.363l-0.727,2.674
		c-0.066,0.363-1.122,3.433-1.287,3.763l-0.264,1.221C359.958,14.654,360.717,15.017,361.278,15.017z"/>
	<path fill="#A1CAB1" d="M383.182,11.122c0-0.825-0.1-7.821-0.1-8.68V1.551c0-0.429,0.033-1.022,0.727-1.022h4.355
		c1.32,0,1.98,1.814,2.607,2.442l0.529,0.726c0.627,0.693,1.188,1.254,1.617,1.914l0.726,1.057c0-0.1,0.99,1.452,1.419,1.716
		l0.793,0.925l0.297,0.429c1.221,1.519,2.408,2.971,3.398,4.555h0.231c0.198,0,0.099-0.759,0.198-1.188v-0.594
		c-0.033-0.198-0.066-1.089-0.066-1.254V1.089c0-0.065,0.033-0.363,0.066-0.462l0.132-0.099c0.033,0,0.33-0.066,0.396-0.066h0.66
		c0.628,0,3.697,0.066,4.324,0.066c0.363,0.197,0.43,0.627,0.43,0.957v8.68c0,3.499-0.1,11.321-0.1,13.004v0.33l-0.23,0.198h-0.1
		c-0.561,0-3.168,0.132-4.324,0.132h-0.527l-0.66-0.198l-0.33-0.362l-1.452-1.98l-0.957-1.188l-0.595-0.858
		c-1.518-1.452-2.111-3.168-4.488-5.577l-0.857-1.09l-1.453-2.046c-0.033-0.132-0.33-0.528-0.363-0.562
		c0-0.032-0.032-0.164-0.065-0.164c0,0-0.165,0.065-0.198,0.065v13.499c0,0.33-0.165,0.165-0.33,0.33l-0.429,0.132h-4.423
		c-0.693,0-0.857-0.462-0.857-0.792V11.122z"/>
	<path fill="#A1CAB1" d="M419.997,0.66h3.729c0.99,0,1.452,0,2.509,0.132c0.494,0,1.023,0.231,1.386,0.231
		c0.33,0,1.222,0.099,1.485,0.33c0.198,0,0.858,0.132,1.717,0.627l1.551,1.022c0.627,0.628,2.112,2.146,2.112,2.575l0.627,1.221
		c0.363,1.188,0.957,2.146,0.957,3.796v3.333c0,0.033-0.165,0.627-0.231,0.858c0,0.132-0.297,0.858-0.297,1.485
		c0,0.857-0.791,2.541-1.254,3.036c-0.924,1.519-2.442,2.641-4.06,3.366l-0.957,0.462c-0.165,0-0.792,0.265-1.022,0.265l-1.882,0.23
		c-0.298,0-1.222,0.1-1.386,0.133h-1.09c-0.429,0-4.324,0.065-4.852,0.099h-2.344c-0.099-0.132-0.494-0.099-0.494-0.33V1.023
		c0-0.033,0.065-0.198,0.099-0.231l0.264-0.132c0.033,0,0.495-0.066,0.595-0.1h0.957C418.313,0.594,419.766,0.66,419.997,0.66z
		 M422.604,18.054c0,0.198,0.66,0.396,2.079,0.396h0.396c0.594,0,1.122-0.165,1.552-0.396l0.791-0.462
		c1.354-1.123,1.783-1.882,2.212-3.664l0.198-1.254v-0.528c-0.166-1.221-0.066-1.849-0.396-2.673
		c-1.057-2.575-3.103-3.697-5.545-3.697h-0.792c-0.462,0.165-0.562,0.627-0.562,1.155v9.209L422.604,18.054z"/>
	<path fill="#A1CAB1" d="M445.522,15.975l0.527-3.136c0-0.132,0.1-0.892,0.1-0.99l0.726-4.818c0-0.133,0.132-0.825,0.132-0.858
		l0.198-1.089c0-1.222,0.396-2.112,0.396-2.971l0.231-1.023l0.231-0.33c0.065-0.099,0.396-0.23,0.396-0.23h3.466
		c0.33,0.132,0.561,0.132,0.891,0.132s1.453,0.065,1.717-0.033c0.033,0.033,0.165,0.132,0.197,0.132
		c0.595,0.495,0.76,1.354,0.925,2.112c0.032,0.132,0.528,1.519,0.562,1.717l0.362,1.452c0.363,0.726,0.892,2.145,0.892,2.442
		l0.792,2.938c0.297,0.561,0.231,1.617,0.692,1.617h0.133c0-0.198,0.363-0.165,0.363-0.693l0.957-3.268
		c0.132-0.231,0.66-2.277,0.792-2.409l0.198-1.057c0-0.197,0.561-1.716,0.594-1.914c0,0,0.132-0.363,0.132-0.396l0.528-1.75
		c0.165-0.362,0.264-0.891,0.727-1.022h5.082c0.165,0,1.09,0.065,1.287,0.099c0.76,1.122,0.693,3.168,0.957,4.555l0.825,5.512
		c0,0.033,0.066,0.495,0.132,0.562l0.496,3.234c0,0.891,0.428,1.749,0.428,2.673l0.826,5.479v0.858l-0.198,0.198h-5.512
		l-0.198-0.066c-0.1-0.099-0.165-0.264-0.165-0.362c-0.165-1.617-0.429-3.334-0.692-4.984c0-0.032-0.033-0.429-0.033-0.495
		l-0.363-2.541c0-0.099-0.133-0.825-0.133-0.957c0-0.825-0.594-4.621-0.594-5.215h-0.132l-0.099,0.132
		c-0.496,1.452-0.826,2.938-1.254,4.356c-0.033,0-0.1,0.265-0.1,0.33l-0.198,0.76c-0.132,0-0.627,1.683-0.892,2.574l-0.33,0.99
		c0,0-0.924,3.3-1.584,4.95c-0.033,0.1-0.197,0.363-0.197,0.462c-0.033,0-0.066,0.033-0.066,0.066c-0.33,0-1.914,0.066-2.277,0.132
		h-0.527c-0.199-0.198-0.529,0-0.727-0.462l-0.924-2.806c-1.453-3.729-2.74-8.218-3.499-11.122h-0.265
		c-0.396,2.409-0.099,4.026-0.594,5.479c-0.197,0.892-0.396,2.442-0.396,2.641v0.132c-0.297,1.32-0.329,2.806-0.561,4.423
		c-0.23,1.188-0.099,1.716-0.857,1.815c-0.166,0-0.66-0.033-1.123-0.033c-0.99,0-2.046,0.099-3.201,0.099h-0.1
		c-0.264,0-0.957-0.065-0.957-0.065l-0.197-0.231v-1.155L445.522,15.975z"/>
	<path fill="#A1CAB1" d="M481.989,23.104c0-1.188,0.594-1.717,1.122-3.433l0.495-1.717c0-0.264,0.165-0.429,0.165-0.726l2.046-5.611
		l0.496-1.32c0-0.132,0.23-0.692,0.264-0.792l0.727-2.013c0-0.033,0.197-0.462,0.197-0.528l1.287-3.598c0-0.23,0.1-0.594,0.33-0.825
		l0.396-1.056c0.197-0.462,0.396-0.858,1.089-0.858h5.578c0.858,0,0.429,0.363,0.957,0.627l0.231,0.429l0.494,1.585
		c0.793,2.244,0.166,0,1.914,5.28V8.515c0.066,0,0.562,2.014,0.859,2.245c1.121,3.399,2.541,6.799,3.795,10.165
		c0.23,0.727,0.76,1.519,0.76,2.244c0,0.595-0.199,0.33-0.396,0.528h-0.33c-1.75,0-3.531-0.066-5.248-0.066
		c-1.188-0.362-1.254-3.597-1.98-4.06c-0.197-0.032-1.188-0.065-1.419-0.065h-0.495c-0.792,0-4.687,0.033-5.479,0.065
		c-0.133,0-0.495,0.1-0.528,0.1c-0.132,0-1.056,2.442-1.254,3.3l-0.231,0.396c0,0.132-0.561,0.33-0.527,0.33h-4.951
		c-0.198,0-0.363-0.165-0.363-0.231V23.104z M492.022,15.017h2.146c0.628,0,1.287-0.099,1.617-0.396v-0.528
		c0-0.297-0.165-0.792-0.562-1.947l-0.297-1.254c-0.164-0.33-0.065-1.057-0.363-1.387c0-0.99-0.924-2.541-0.924-3.103l-0.197-0.197
		h-0.133l-0.197,0.197c0,0.1-0.133,0.298-0.133,0.363l-0.726,2.674c-0.065,0.363-1.122,3.433-1.287,3.763l-0.265,1.221
		C490.702,14.654,491.462,15.017,492.022,15.017z"/>
	<path fill="#A1CAB1" d="M517.677,0.66h3.729c0.99,0,1.453,0,2.509,0.132c0.495,0,1.023,0.231,1.386,0.231
		c0.33,0,1.222,0.099,1.486,0.33c0.197,0,0.857,0.132,1.716,0.627l1.552,1.022c0.627,0.628,2.111,2.146,2.111,2.575l0.627,1.221
		c0.363,1.188,0.957,2.146,0.957,3.796v3.333c0,0.033-0.164,0.627-0.23,0.858c0,0.132-0.297,0.858-0.297,1.485
		c0,0.857-0.792,2.541-1.254,3.036c-0.924,1.519-2.443,2.641-4.061,3.366l-0.957,0.462c-0.164,0-0.791,0.265-1.022,0.265
		l-1.882,0.23c-0.297,0-1.221,0.1-1.386,0.133h-1.089c-0.43,0-4.324,0.065-4.852,0.099h-2.344c-0.1-0.132-0.495-0.099-0.495-0.33
		V1.023c0-0.033,0.065-0.198,0.099-0.231l0.264-0.132c0.033,0,0.496-0.066,0.595-0.1h0.957C515.993,0.594,517.445,0.66,517.677,0.66
		z M520.284,18.054c0,0.198,0.66,0.396,2.079,0.396h0.396c0.594,0,1.123-0.165,1.552-0.396l0.792-0.462
		c1.354-1.123,1.782-1.882,2.211-3.664l0.198-1.254v-0.528c-0.165-1.221-0.065-1.849-0.396-2.673
		c-1.057-2.575-3.104-3.697-5.545-3.697h-0.793c-0.461,0.165-0.561,0.627-0.561,1.155v9.209L520.284,18.054z"/>
	<path fill="#A1CAB1" d="M543.276,10.528V1.914l0.133-1.188l0.164-0.099c0.066,0,2.807-0.099,3.928-0.165h8.252
		c0.132,0,0.561,0.132,0.66,0.165l0.197,0.198c0.033,0.065,0.1,0.198,0.1,0.198v4.488c-0.066,0.066-0.297,0.297-0.43,0.297h-0.891
		c-1.815,0-3.598-0.132-5.38-0.132h-0.396c-0.595,0.363-0.33,0.165-0.627,1.617v0.165c0,0.231,0.099,1.221,0.099,1.419
		c0,0.066,0.099,0.396,0.858,0.396h0.33c0.66,0,1.287-0.066,1.98-0.066h0.032c0.033,0,0.562,0.066,0.595,0.066h2.013
		c0.265,0,0.858,0.198,0.858,0.23v4.423c0,0.165-0.363,0.363-0.528,0.363h-0.198c-1.484-0.132-3.036-0.231-4.555-0.231h-0.99
		c-0.429,0.265-0.494,0.925-0.494,1.684v2.311c0.032,0.065,0.197,0.23,0.23,0.23c0.066,0.033,3.135,0.198,4.521,0.198h2.541
		c0.363,0.132,0.43,0.528,0.43,1.089v3.367c0,0.792-1.551,0.759-3.136,0.759h-9.868c-0.198,0-0.43-0.165-0.43-0.33l-0.065-0.33
		V22.74C543.211,21.519,543.276,11.782,543.276,10.528z"/>
	<path fill="#A1CAB1" d="M571.651,8.492c0,0.066,1.254,0.727,1.254,1.222c0.132,0.132,0.693,1.155,0.693,2.211v0.562
		c0,0-0.066,0.23-0.166,0.297l-0.164,0.594c0.033,0-1.254,1.552-1.816,1.552l-0.891,0.197h-0.462
		c-1.552-0.197-1.849-0.23-2.673-1.089l-0.33-0.396l-0.396-0.857c-0.066-0.066-0.1-0.297-0.1-0.297v-1.585
		c0-0.165,0.693-2.013,1.585-2.31l0.495-0.231c0.099-0.033,0.297-0.099,0.297-0.099h0.495c0.032,0,0.462-0.1,0.495-0.1h0.957
		C570.925,8.162,571.452,8.36,571.651,8.492z"/>
</g>
<g>
	<path fill="#A1CAB1" d="M199.686,203.981c0,0.066,1.255,0.727,1.255,1.222c0.132,0.132,0.692,1.155,0.692,2.211v0.562
		c0,0-0.065,0.23-0.165,0.297l-0.165,0.594c0.033,0-1.254,1.552-1.815,1.552l-0.891,0.197h-0.462
		c-1.552-0.197-1.849-0.23-2.674-1.089l-0.33-0.396l-0.396-0.857c-0.066-0.066-0.1-0.297-0.1-0.297v-1.585
		c0-0.165,0.693-2.013,1.585-2.31l0.495-0.231c0.099-0.033,0.297-0.099,0.297-0.099h0.495c0.032,0,0.462-0.1,0.495-0.1h0.957
		C198.961,203.651,199.488,203.85,199.686,203.981z"/>
	<path fill="#A1CAB1" d="M209.784,202.651c-0.033-0.033-0.198-0.495-0.231-0.595l-0.396-1.452c-0.066-0.23-0.693-1.979-0.727-2.211
		c-0.23-0.627-0.33-1.188-0.33-1.782v-0.363l0.1-0.099c0.065,0,0.429-0.1,0.527-0.132c0.628,0,3.399-0.066,3.961-0.1h0.264
		c0.793,0.165,0.925-0.065,1.287,0.66c-0.099,0.066,0.528,1.32,1.255,4.026l0.33,1.255c0,0.23,0.495,0.759,0.495,1.287
		c0.065,0.033,0.165,0.726,0.23,0.857c0.265,1.09,0.627,2.146,0.99,3.268l0.265,1.155c0.032,0.066,0.297,1.717,0.627,1.717
		c0.362,0,0.527-0.76,0.527-0.892l0.231-0.825c0.165-0.495,0.528-1.287,0.528-1.518c0-0.133,0.495-1.023,0.495-1.585l0.362-0.924
		l0.198-0.759c0-0.033,0.165-0.495,0.231-0.495c0.23-0.693,0.462-1.32,0.66-2.047c0,0.1,0.924-3.333,1.254-3.895l0.396-0.957
		c0.099-0.132,0.297-0.23,0.462-0.23h0.198c0.527,0.032,2.871,0.132,3.399,0.132c0.429,0.33,0.66,1.056,0.792,1.584l1.485,4.687
		c-0.033,0,1.188,3.466,1.518,4.356l0.396,1.222l0.33,1.155c0,0.23,0.561,0.759,0.627,0.759h0.099c0-0.066,0.1-0.297,0.165-0.33
		c0.1-0.693,0.265-1.386,0.462-1.98l0.628-1.947c0-0.132,0.396-1.056,0.627-2.146l1.716-5.115c0.033-0.099,0.1-0.495,0.1-0.562
		l0.561-1.518c0.066-0.1,0.33-0.231,0.363-0.297h4.258c0.495,0,0.957,0.264,1.089,0.462v0.396c-0.198,1.057-0.858,2.112-0.858,3.069
		c-0.33,1.155-0.759,2.311-1.188,3.4c0,0.099-0.165,0.692-0.231,0.726l-0.594,1.815c-0.165,0.33-1.057,3.136-1.155,3.498l-0.33,0.76
		c-0.297,0.692-0.627,1.716-0.627,1.979l-0.231,0.528c0,0.33-0.33,0.595-0.33,0.925c-0.528,1.881-1.782,5.577-2.211,5.644
		c-0.66,0-3.499,0.033-4.126,0.099h-0.198c-0.23-0.065-0.495-0.198-0.594-0.429l-2.079-6.04l-0.265-1.056
		c-0.692-2.014-1.353-4.093-2.145-6.008l-0.033-0.065l-0.1,0.065c-0.627,1.288-0.857,2.806-1.254,3.895
		c0.1-0.065-1.32,3.202-1.32,3.697l-0.561,1.716c0,0.066-0.165,0.462-0.265,0.495l-0.594,1.914
		c-0.297,0.792-0.396,1.387-0.727,1.717c-0.297,0-1.419,0.033-1.683,0.099h-3.169c-0.23-0.065-0.396-0.297-0.527-0.429
		C213.382,213.477,211.434,208.163,209.784,202.651z"/>
	<path fill="#A1CAB1" d="M257.694,206.381v6.436c0,0.925-0.1,5.248-0.1,6.172l-0.099,0.132c-0.033,0-0.198,0.066-0.231,0.066h-5.445
		c-0.165,0-0.363-0.165-0.363-0.33v-21.981c0-0.197,0.066-0.627,0.396-0.759h5.313c0.495,0.033,0.627,0.66,0.627,1.287v1.254
		C257.793,199.449,257.694,205.621,257.694,206.381z"/>
	<path fill="#A1CAB1" d="M271.187,215.556c0-4.125,0.066-8.151,0.066-12.277v-1.354l-0.265-0.264h-4.158c0,0-0.132-0.1-0.198-0.132
		l-0.099-0.1c-0.033-0.099-0.133-0.362-0.133-0.429v-0.759c0-0.066,0.133-0.727,0.133-0.858v-0.924c0-0.33,0.032-1.585,0.099-1.782
		c0-0.165,0.198-0.463,0.198-0.562l0.23-0.099h8.978c0.165,0.032,0.727,0.099,0.825,0.099h0.132c0.165,0,1.254-0.099,1.419-0.099
		h3.565c0.362,0.23,0.396,0.759,0.396,1.319v3.664c0,0.165-0.099,0.429-0.198,0.429l-0.297,0.1h-3.696l-0.462,0.197v17.394
		c-0.132,0.265-4.225,0.231-5.578,0.298h-0.165c-0.099-0.066-0.561-0.231-0.594-0.231l-0.198-0.198V215.556z"/>
	<path fill="#A1CAB1" d="M291.128,214.995v-18.417c0-0.33,0.595-0.462,1.485-0.462h4.456c0.429,0.165,0.495,0.627,0.495,1.056v0.363
		c0,0.165-0.1,1.65-0.1,1.914v4.819c0,0.495,0.297,0.528,0.396,0.66c0.528,0,2.806,0.132,3.333,0.132h3.466
		c0.198-0.165,0.495-0.297,0.495-0.495v-7.987c0,0,0.099-0.165,0.165-0.264l0.066-0.066c0.165-0.033,0.561-0.132,0.659-0.132h4.885
		c0.165,0,0.528,0.495,0.528,0.858v1.617c-0.165,3.234-0.165,6.402-0.165,9.373c0,4.423-0.065,9.109,0.033,10.727
		c0,0.066-0.033,0.264-0.099,0.297c-0.066,0.066-3.796,0.198-4.885,0.198h-0.066c-0.594,0-1.089,0-1.221-0.429v-1.354
		c0-0.165,0.132-1.354,0.132-1.485v-5.413c-0.132,0-0.396-0.362-0.528-0.362h-6.799c-0.033,0-0.165,0.032-0.198,0.065l-0.099,0.1
		c-0.066,0.032-0.1,0.264-0.1,0.33v7.228l-0.132,0.99c0,0.033-0.132,0.198-0.198,0.264l-0.197,0.066h-5.578l-0.231-0.198
		c-0.032,0-0.065-0.594-0.065-0.858v-0.362C291.062,216.811,291.062,215.919,291.128,214.995z"/>
	<path fill="#A1CAB1" d="M346.172,207.833c0-0.562-0.099-5.578-0.099-6.172v-2.871c0-0.693,0.065-2.41,0.099-2.476l0.264-0.198
		c0,0,1.354-0.066,1.915-0.099h6.931c0.924,0.065,1.849,0.132,2.772,0.297c0.198,0.099,0.891,0.264,0.924,0.264l1.255,0.627
		c0.66,0.165,2.112,1.717,2.31,2.311c0.693,0.727,0.892,2.376,0.892,2.871v3.069c0,0.033-0.165,0.892-0.198,1.155
		c-0.099,0-0.297,0.99-0.462,1.155l-0.33,0.627c0,0.033-0.165,0.298-0.198,0.298l-0.825,0.957c-0.692,0.692-1.782,1.353-3.135,1.584
		l-1.188,0.231h-0.594l-0.198-0.066h-0.198c-0.033,0-0.198,0.066-0.198,0.066h-0.429c-0.924,0-3.069,0.099-3.069,0.726v6.799
		c0,0.495-3.763,0.363-5.314,0.43h-0.197c-0.231-0.066-0.693-0.1-0.727-0.43V207.833z M355.512,201.1h-2.575
		c-0.132,0-0.726,0.363-0.726,0.562v4.39c0,0.033,0.066,0.165,0.099,0.198l0.1,0.132c0.065,0.033,0.264,0.165,0.297,0.23h1.584
		c0.033,0,0.363-0.099,0.462-0.099c0.033,0,0.297,0.033,0.528,0.033c0.099,0,0.198-0.033,0.231-0.033l0.792-0.495
		c0.065-0.132,0.363-0.396,0.429-0.495c0.429-0.264,0.562-0.825,0.562-1.023v-1.716C357.096,201.925,356.008,201.1,355.512,201.1z"
		/>
	<path fill="#A1CAB1" d="M372.621,196.083h8.317c0.099,0.033,0.792,0.066,0.924,0.066h0.759c0.033,0,0.495,0.165,0.528,0.165
		c0.595,0,0.76,0.132,1.684,0.429l1.386,0.627l0.528,0.396c0.562,0.627,1.287,1.221,1.815,2.244
		c0.561,1.089,0.726,2.046,0.726,3.301v0.726c-0.297,1.419-0.66,2.641-1.584,3.729l-0.759,0.727l-0.924,0.594h0.032
		c0,0.066-0.924,0.33-1.022,0.462l-0.198,0.297v0.33l0.33,0.66c0,0.033,0.495,0.528,0.66,0.727c0.23,0,0.627,1.155,1.056,1.551
		l0.595,0.628c0.197,0.396,0.429,0.759,0.527,0.891l0.727,0.792l0.891,1.188c0,0.065,1.354,1.815,1.354,2.013v0.528l-0.231,0.1
		h-3.366c-0.495-0.033-2.971-0.1-3.498-0.1c-0.595-0.363-0.693-0.825-0.957-1.287l-0.727-1.155l-0.858-1.452
		c-0.165-0.462-0.825-1.32-0.99-1.419l-0.396-0.727l-0.33-0.396c-0.396-0.462-0.562-1.122-1.023-1.485l-0.198,0.198
		c-0.065,0-0.099,1.386-0.099,1.947v0.363c0,1.419,0.099,2.871,0.099,4.323v0.825c0,0.297-0.362,0.363-0.66,0.363h-4.752
		c-0.627,0-0.727-0.495-0.727-0.495v-22.345L372.621,196.083z M378.298,201.496v4.555l0.099,0.429
		c0.066,0.231,0.265,0.43,0.495,0.43h0.133c0.032-0.033,0.66-0.133,0.726-0.133h0.727l1.056-0.297c0.297,0,1.089-0.66,1.089-0.66
		l0.396-0.594c0.198-0.33,0.264-0.693,0.264-1.155c0-0.528,0.066-1.354-0.594-2.046l-0.198-0.198
		c-0.099-0.198-0.825-0.528-0.792-0.562c-0.957-0.132-1.122-0.197-2.178-0.197c-0.165,0-0.858,0.032-1.023,0.032
		S378.298,201.364,378.298,201.496z"/>
	<path fill="#A1CAB1" d="M405.995,206.381v6.436c0,0.925-0.1,5.248-0.1,6.172l-0.099,0.132c-0.033,0-0.198,0.066-0.231,0.066h-5.445
		c-0.165,0-0.363-0.165-0.363-0.33v-21.981c0-0.197,0.066-0.627,0.396-0.759h5.313c0.495,0.033,0.627,0.66,0.627,1.287v1.254
		C406.094,199.449,405.995,205.621,405.995,206.381z"/>
	<path fill="#A1CAB1" d="M420.082,196.149h3.729c0.99,0,1.452,0,2.508,0.132c0.495,0,1.023,0.231,1.387,0.231
		c0.33,0,1.221,0.099,1.485,0.33c0.198,0,0.858,0.132,1.716,0.627l1.552,1.022c0.627,0.628,2.112,2.146,2.112,2.575l0.627,1.221
		c0.363,1.188,0.957,2.146,0.957,3.796v3.333c0,0.033-0.165,0.627-0.231,0.858c0,0.132-0.297,0.858-0.297,1.485
		c0,0.857-0.792,2.541-1.254,3.036c-0.924,1.519-2.442,2.641-4.06,3.366l-0.957,0.462c-0.165,0-0.792,0.265-1.023,0.265l-1.881,0.23
		c-0.298,0-1.222,0.1-1.387,0.133h-1.089c-0.429,0-4.324,0.065-4.852,0.099h-2.344c-0.099-0.132-0.495-0.099-0.495-0.33v-22.509
		c0-0.033,0.066-0.198,0.1-0.231l0.264-0.132c0.033,0,0.495-0.066,0.594-0.1h0.957C418.398,196.083,419.85,196.149,420.082,196.149z
		 M422.689,213.543c0,0.198,0.66,0.396,2.079,0.396h0.396c0.594,0,1.122-0.165,1.551-0.396l0.792-0.462
		c1.354-1.123,1.782-1.882,2.212-3.664l0.197-1.254v-0.528c-0.165-1.221-0.065-1.849-0.396-2.673
		c-1.057-2.575-3.103-3.697-5.545-3.697h-0.792c-0.462,0.165-0.562,0.627-0.562,1.155v9.209L422.689,213.543z"/>
	<path fill="#A1CAB1" d="M445.682,206.018v-8.614l0.132-1.188l0.165-0.099c0.066,0,2.806-0.099,3.928-0.165h8.251
		c0.132,0,0.562,0.132,0.66,0.165l0.198,0.198c0.033,0.065,0.099,0.198,0.099,0.198v4.488c-0.065,0.066-0.297,0.297-0.429,0.297
		h-0.892c-1.815,0-3.598-0.132-5.38-0.132h-0.396c-0.595,0.363-0.33,0.165-0.627,1.617v0.165c0,0.231,0.099,1.221,0.099,1.419
		c0,0.066,0.099,0.396,0.858,0.396h0.33c0.66,0,1.287-0.066,1.98-0.066h0.032c0.033,0,0.562,0.066,0.595,0.066h2.013
		c0.265,0,0.858,0.198,0.858,0.23v4.423c0,0.165-0.363,0.363-0.528,0.363h-0.198c-1.484-0.132-3.036-0.231-4.554-0.231h-0.99
		c-0.43,0.265-0.495,0.925-0.495,1.684v2.311c0.032,0.065,0.197,0.23,0.23,0.23c0.066,0.033,3.136,0.198,4.521,0.198h2.542
		c0.363,0.132,0.429,0.528,0.429,1.089v3.367c0,0.792-1.551,0.759-3.136,0.759h-9.868c-0.198,0-0.429-0.165-0.429-0.33l-0.066-0.33
		v-0.297C445.616,217.008,445.682,207.271,445.682,206.018z"/>
	<path fill="#A1CAB1" d="M474.056,203.981c0,0.066,1.254,0.727,1.254,1.222c0.132,0.132,0.693,1.155,0.693,2.211v0.562
		c0,0-0.066,0.23-0.165,0.297l-0.165,0.594c0.033,0-1.254,1.552-1.815,1.552l-0.892,0.197h-0.462
		c-1.551-0.197-1.848-0.23-2.673-1.089l-0.33-0.396l-0.396-0.857c-0.065-0.066-0.099-0.297-0.099-0.297v-1.585
		c0-0.165,0.693-2.013,1.584-2.31l0.495-0.231c0.099-0.033,0.297-0.099,0.297-0.099h0.495c0.033,0,0.462-0.1,0.495-0.1h0.957
		C473.33,203.651,473.858,203.85,474.056,203.981z"/>
</g>
<polygon fill="#A1CAB1" points="289.04,92.683 288.351,167.651 390.073,165.461 386.382,179.853 400.959,179.04 404.024,166.462 
	410.03,162.394 413.345,151.005 405.586,146.815 402.835,131.106 382.879,115.711 387.884,99.003 379.876,96.187 374.962,98.987 
	367.392,80.75 357.793,72.22 356.917,57.702 350.661,50.569 263.828,52.133 277.091,72.158 284.811,69.432 285.156,75.245 
	277.779,80.793 "/>
</svg>
