<?xml version="1.0" encoding="utf-8"?>
<!-- Generator: Adobe Illustrator 17.0.2, SVG Export Plug-In . SVG Version: 6.00 Build 0)  -->
<!DOCTYPE svg PUBLIC "-//W3C//DTD SVG 1.1//EN" "http://www.w3.org/Graphics/SVG/1.1/DTD/svg11.dtd">
<svg version="1.1" id="Layer_1" xmlns="http://www.w3.org/2000/svg" xmlns:xlink="http://www.w3.org/1999/xlink" x="0px" y="0px"
	 width="1017.16px" height="287.496px" viewBox="0 0 1017.16 287.496" enable-background="new 0 0 1017.16 287.496"
	 xml:space="preserve">
<g>
	<defs>
		<rect id="SVGID_1_" width="1017.165" height="287.496"/>
	</defs>
	<clipPath id="SVGID_2_">
		<use xlink:href="#SVGID_1_"  overflow="visible"/>
	</clipPath>
	<path clip-path="url(#SVGID_2_)" fill="#F68E63" d="M297.276,205.311c-0.392,0-0.79-0.052-1.187-0.159
		c-4.937-1.347-8.676-5.158-9.756-9.946c-0.652-2.893-0.397-6.495,0.802-11.335c0.786-3.169,1.839-6.4,3.046-9.341
		c0.783-1.907,1.851-3.522,2.883-5.081c0.716-1.082,1.392-2.105,1.867-3.082c0.516-1.065,1.02-2.129,1.517-3.179
		c0.84-1.773,1.633-3.449,2.466-5.089c1.125-2.217,3.834-3.099,6.05-1.976c2.216,1.126,3.1,3.834,1.975,6.05
		c-0.777,1.53-1.544,3.151-2.356,4.867c-0.51,1.076-1.026,2.167-1.556,3.257c-0.736,1.516-1.611,2.838-2.457,4.118
		c-0.83,1.253-1.614,2.438-2.063,3.532c-1.043,2.542-1.955,5.339-2.636,8.09c-1.03,4.154-0.981,6.202-0.759,7.188
		c0.271,1.201,1.292,2.684,3.346,3.243c2.397,0.655,3.811,3.128,3.157,5.526C301.069,203.996,299.255,205.311,297.276,205.311"/>
	<path clip-path="url(#SVGID_2_)" fill="#F68E63" d="M256.289,204.186h-0.229h-0.224c-5.233,0-9.151-1.447-11.975-4.424
		c-3.127-3.295-3.98-7.616-4.401-11.407l-0.057-0.513c-0.322-2.86-0.723-6.422,0.02-10.431c0.633-3.41,1.574-6.813,2.796-10.116
		c0.295-0.795,0.573-1.618,0.856-2.459c0.746-2.207,1.591-4.709,2.865-7.172c1.029-1.99,2.412-3.636,3.632-5.088
		c0.788-0.938,1.533-1.825,2.09-2.686c0.583-0.9,1.119-1.907,1.687-2.974c0.929-1.745,1.891-3.548,3.237-5.26
		c1.424-1.813,2.986-3.317,4.497-4.771c0.768-0.739,1.493-1.438,2.161-2.141c0.718-0.754,1.402-1.535,2.08-2.307
		c1.399-1.593,2.846-3.24,4.555-4.694c1.936-1.649,4.021-2.85,5.86-3.91c0.837-0.481,1.627-0.936,2.342-1.396
		c0.852-0.549,1.69-1.184,2.576-1.857c1.797-1.363,3.655-2.773,5.912-3.655c4.128-1.613,8.144-1.952,10.787-1.952
		c4.632,0,8.799,1.811,12.049,5.235c3.123,3.291,3.839,7.654,4.264,11.485c0.414,3.725,0.293,7.274-0.369,10.848
		c-0.635,3.427-1.916,6.885-3.046,9.937c-0.287,0.775-0.557,1.57-0.833,2.379c-0.745,2.189-1.59,4.671-2.874,7.153
		c-1.351,2.613-2.881,5.574-4.681,8.357c-0.58,0.895-1.122,1.876-1.697,2.913c-0.973,1.756-1.979,3.572-3.328,5.289
		c-1.713,2.178-3.571,4.113-5.369,5.983l-1.099,1.148c-1.618,1.701-3.426,3.053-5.022,4.248c-0.873,0.652-1.698,1.269-2.428,1.89
		c-0.817,0.696-1.609,1.498-2.446,2.347c-1.457,1.477-2.963,3.005-4.85,4.219c-2.855,1.838-5.793,2.975-8.385,3.98l-0.785,0.305
		C262.718,204.15,259.171,204.186,256.289,204.186 M297.356,123.973c-1.869,0-4.688,0.231-7.511,1.335
		c-1.091,0.427-2.382,1.405-3.748,2.442c-0.984,0.746-2.001,1.519-3.146,2.255c-0.902,0.58-1.825,1.113-2.72,1.627
		c-1.65,0.951-3.209,1.85-4.52,2.965c-1.211,1.03-2.383,2.365-3.625,3.778c-0.737,0.841-1.501,1.71-2.321,2.573
		c-0.804,0.844-1.636,1.645-2.44,2.42c-1.349,1.299-2.624,2.527-3.664,3.85c-0.853,1.085-1.59,2.467-2.368,3.93
		c-0.632,1.184-1.284,2.409-2.074,3.63c-0.863,1.334-1.825,2.479-2.756,3.588c-1.008,1.199-1.96,2.332-2.529,3.433
		c-0.96,1.856-1.658,3.92-2.332,5.917c-0.312,0.925-0.619,1.831-0.943,2.704c-1.045,2.823-1.847,5.727-2.386,8.632
		c-0.5,2.692-0.208,5.281,0.073,7.784l0.059,0.526c0.363,3.266,0.956,5.122,1.984,6.205c0.76,0.801,2.001,1.619,5.447,1.619h0.228
		c2.491,0.016,4.86,0.002,7.118-0.88l0.808-0.314c2.301-0.892,4.679-1.813,6.767-3.157c1.049-0.674,2.148-1.789,3.312-2.969
		c0.936-0.95,1.905-1.932,3.022-2.883c0.946-0.804,1.923-1.535,2.869-2.242c1.438-1.077,2.797-2.093,3.893-3.245l1.129-1.179
		c1.645-1.712,3.347-3.483,4.784-5.311c0.902-1.147,1.693-2.575,2.53-4.087c0.623-1.124,1.267-2.287,2.013-3.441
		c1.563-2.415,2.925-5.051,4.243-7.601c0.975-1.886,1.643-3.846,2.35-5.922c0.302-0.884,0.599-1.754,0.912-2.602
		c1.254-3.388,2.178-5.977,2.637-8.452c0.506-2.73,0.592-5.34,0.273-8.215c-0.283-2.551-0.703-5.077-1.847-6.282
		C301.346,124.79,299.489,123.973,297.356,123.973"/>
	<path clip-path="url(#SVGID_2_)" fill="#F68E63" d="M792.914,204.012c-3.303,0-8.123-0.453-11.844-4.374
		c-3.366-3.548-4.218-8.137-4.567-11.279c-0.069-0.627-0.192-1.346-0.319-2.108c-0.418-2.472-0.937-5.549-0.306-8.954
		c0.595-3.203,1.76-6.476,3.108-10.117c0.802-2.166,1.961-4.129,3.083-6.028c0.622-1.054,1.21-2.049,1.741-3.077l0.506-0.982
		c1.254-2.438,2.551-4.961,4.124-7.394c1.62-2.503,3.412-4.776,5.144-6.975l0.549-0.697c0.604-0.768,1.184-1.551,1.761-2.329
		c1.287-1.733,2.615-3.524,4.189-5.178c1.65-1.736,3.398-3.097,5.088-4.413c0.77-0.6,1.534-1.193,2.258-1.809
		c0.763-0.649,1.493-1.321,2.213-1.984c1.621-1.49,3.296-3.032,5.251-4.289c3.536-2.276,6.275-3.744,8.883-4.764
		c4.133-1.615,7.619-2.399,10.658-2.399c5.064,0,8.597,2.529,11.386,5.003c3.343,2.964,5.279,6.426,5.919,10.581
		c0.483,3.125-0.074,6.192-0.662,9.44l-0.237,1.322c-0.634,3.613-1.461,6.732-2.605,9.817c-1.115,3.01-2.436,5.981-4.04,9.083
		c-1.14,2.207-3.854,3.071-6.063,1.93c-2.208-1.14-3.072-3.855-1.931-6.063c1.433-2.772,2.609-5.414,3.595-8.076
		c0.949-2.564,1.641-5.183,2.179-8.245l0.246-1.373c0.469-2.592,0.876-4.831,0.624-6.464c-0.321-2.079-1.217-3.641-2.997-5.22
		c-1.954-1.732-3.465-2.735-5.414-2.735c-1.872,0-4.355,0.599-7.382,1.781c-2,0.782-4.318,2.038-7.29,3.95
		c-1.302,0.838-2.625,2.056-4.028,3.345c-0.803,0.74-1.621,1.49-2.473,2.216c-0.848,0.72-1.718,1.398-2.56,2.053
		c-1.496,1.165-2.909,2.267-4.098,3.515c-1.194,1.256-2.304,2.753-3.48,4.339c-0.628,0.846-1.259,1.695-1.915,2.529l-0.555,0.704
		c-1.678,2.131-3.264,4.143-4.655,6.292c-1.331,2.059-2.471,4.276-3.678,6.623l-0.514,0.999c-0.649,1.254-1.33,2.407-1.988,3.521
		c-0.962,1.629-1.87,3.167-2.391,4.576c-1.203,3.246-2.237,6.134-2.7,8.634c-0.34,1.837-0.014,3.769,0.331,5.814
		c0.143,0.851,0.292,1.731,0.39,2.612c0.331,2.985,0.994,4.859,2.151,6.078c0.773,0.815,1.952,1.569,5.315,1.569
		c2.295,0,4.381-0.375,6.563-1.182c2.022-0.747,4.106-1.983,6.621-3.522c1.008-0.616,2.028-1.133,3.014-1.632
		c1.429-0.723,2.778-1.406,3.858-2.278c0.747-0.604,1.53-1.194,2.325-1.789c1.448-1.088,2.816-2.115,3.98-3.271
		c1.763-1.753,4.613-1.744,6.364,0.02c1.752,1.762,1.743,4.611-0.02,6.363c-1.606,1.597-3.368,2.919-4.923,4.086
		c-0.706,0.53-1.404,1.053-2.069,1.59c-1.822,1.472-3.749,2.448-5.45,3.309c-0.867,0.439-1.684,0.853-2.383,1.28
		c-2.94,1.798-5.409,3.256-8.197,4.287C799.426,203.444,796.26,204.012,792.914,204.012"/>
	<path clip-path="url(#SVGID_2_)" fill="#F68E63" d="M522.008,204.298c-4.723,0-8.529-1.59-11.632-4.86
		c-1.984-2.089-5.302-5.585-5.899-10.954c-0.355-3.203,0.26-6.454,0.911-9.895l0.221-1.174c0.133-0.718,0.248-1.464,0.367-2.229
		c0.382-2.454,0.815-5.234,1.873-8.091c0.794-2.144,2.012-3.957,3.191-5.71c0.749-1.114,1.456-2.166,2.009-3.236
		c1.673-3.241,3.18-5.875,4.74-8.287c1.337-2.066,2.818-3.886,4.25-5.647c0.516-0.636,1.034-1.271,1.54-1.914
		c0.619-0.788,1.209-1.59,1.795-2.386c1.254-1.704,2.551-3.467,4.11-5.105c0.737-0.776,1.444-1.618,2.192-2.509
		c1.313-1.564,2.669-3.181,4.338-4.601c2.9-2.467,5.908-4.47,7.917-5.763c2.596-1.671,5.244-2.658,7.582-3.528
		c0.536-0.199,1.063-0.395,1.576-0.595l0.156-0.062c3.303-1.29,6.718-2.624,10.283-2.624c5.723,0,9.364,3.14,11.605,5.502
		c2.73,2.874,4.303,6.489,4.809,11.052c0.067,0.607,0.163,1.239,0.261,1.89c0.379,2.525,0.849,5.666,0.205,9.143
		c-0.651,3.514-1.592,6.947-2.798,10.202c-0.823,2.224-1.996,4.298-3.131,6.305c-0.53,0.939-1.072,1.894-1.582,2.881v0.001
		c-1.192,2.306-2.582,4.412-3.926,6.448c-0.373,0.565-0.747,1.131-1.114,1.699c-0.582,0.899-1.123,1.89-1.695,2.938
		c-0.955,1.749-1.943,3.557-3.29,5.27c-1.396,1.775-3.042,3.173-4.494,4.405c-0.911,0.774-1.771,1.503-2.466,2.235
		c-2.686,2.823-4.813,4.874-6.897,6.646c-2.587,2.201-5.175,3.865-7.678,5.476l-0.212,0.136c-0.827,0.533-1.63,1.122-2.48,1.745
		c-1.832,1.344-3.725,2.734-6.002,3.624C528.621,204.298,524.799,204.298,522.008,204.298 M563.528,124.128
		c-1.87,0-4.365,0.975-7.008,2.008l-0.157,0.06c-0.556,0.218-1.128,0.431-1.71,0.648c-2.003,0.746-4.074,1.516-5.852,2.661
		c-1.794,1.153-4.465,2.933-6.955,5.051c-1.092,0.929-2.153,2.192-3.275,3.53c-0.804,0.958-1.635,1.948-2.565,2.927
		c-1.169,1.228-2.246,2.69-3.384,4.237c-0.643,0.873-1.29,1.751-1.969,2.613c-0.536,0.683-1.084,1.357-1.632,2.031
		c-1.34,1.646-2.604,3.202-3.675,4.856c-1.397,2.16-2.764,4.555-4.302,7.532c-0.79,1.529-1.717,2.907-2.535,4.122
		c-0.924,1.377-1.798,2.678-2.22,3.816c-0.744,2.01-1.087,4.216-1.419,6.349c-0.133,0.854-0.263,1.685-0.411,2.486l-0.227,1.208
		c-0.522,2.76-1.017,5.367-0.809,7.228c0.243,2.186,1.657,3.829,3.48,5.751c1.172,1.234,2.487,2.056,5.105,2.056
		c2.786,0,5.096-0.07,7.359-0.955c1.179-0.46,2.526-1.449,3.953-2.496c0.922-0.677,1.875-1.376,2.935-2.059l0.213-0.138
		c2.254-1.449,4.586-2.948,6.715-4.76c1.834-1.56,3.748-3.408,6.208-5.995c1.027-1.079,2.113-2,3.162-2.892
		c1.239-1.051,2.408-2.043,3.244-3.107c0.883-1.123,1.652-2.531,2.466-4.021c0.626-1.146,1.274-2.333,2.037-3.513
		c0.383-0.59,0.771-1.179,1.16-1.767c1.269-1.925,2.469-3.743,3.443-5.625c0.574-1.112,1.168-2.161,1.742-3.177
		c1.004-1.776,1.952-3.454,2.526-5.001c1.026-2.774,1.83-5.707,2.387-8.717c0.37-1.995,0.067-4.022-0.256-6.168
		c-0.115-0.768-0.225-1.513-0.305-2.231c-0.37-3.345-1.472-4.883-2.39-5.85C566.74,124.859,565.363,124.128,563.528,124.128"/>
	<path clip-path="url(#SVGID_2_)" fill="#F68E63" d="M477.314,178.465c-2.485,0-4.5-2.015-4.5-4.5c0-2.485,2.015-4.5,4.5-4.5
		c1.947,0,3.966-0.461,6.105-0.949c0.681-0.155,1.355-0.309,2.023-0.448c0.546-0.114,1.093-0.222,1.638-0.331
		c2.337-0.463,4.544-0.902,6.375-1.683c2.457-1.048,4.943-2.389,7.393-3.985c1.315-0.857,2.551-2.082,3.862-3.377
		c0.774-0.767,1.575-1.56,2.439-2.323c1.553-1.372,2.915-2.944,4.356-4.608c0.48-0.556,0.958-1.108,1.439-1.649
		c0.486-0.544,0.969-1.079,1.448-1.607c1.55-1.714,3.015-3.332,4.169-4.927c0.762-1.055,1.536-2.053,2.279-3.011
		c1.12-1.445,2.179-2.809,2.884-4c1.565-2.644,1.768-3.245,2.138-4.334c0.255-0.753,0.605-1.784,1.325-3.456
		c0.983-2.284,3.629-3.335,5.913-2.355c2.283,0.983,3.337,3.63,2.354,5.913c-0.579,1.344-0.839,2.11-1.068,2.788
		c-0.559,1.648-0.97,2.739-2.918,6.029c-0.992,1.675-2.218,3.256-3.516,4.93c-0.684,0.882-1.396,1.8-2.098,2.771
		c-1.444,1.994-3.145,3.874-4.789,5.691c-0.462,0.511-0.93,1.026-1.398,1.553c-0.455,0.511-0.904,1.03-1.357,1.554
		c-1.573,1.815-3.198,3.693-5.203,5.464c-0.672,0.594-1.35,1.264-2.067,1.974c-1.498,1.482-3.196,3.163-5.278,4.52
		c-2.886,1.881-5.839,3.47-8.775,4.723c-2.691,1.149-5.468,1.7-8.153,2.234c-0.52,0.102-1.04,0.206-1.56,0.314
		c-0.612,0.127-1.229,0.268-1.853,0.41C483.009,177.841,480.274,178.465,477.314,178.465"/>
	<path clip-path="url(#SVGID_2_)" fill="#F68E63" d="M209.266,204.807c-2.868,0-5.667-0.761-8.48-2.297
		c-3.948-2.154-6.378-5.001-7.646-8.96c-1.299-4.055-0.644-7.872,0.169-11.071c0.716-2.817,1.845-5.73,3.553-9.168
		c0.414-0.835,0.795-1.819,1.196-2.862c0.691-1.79,1.475-3.82,2.703-5.787c1.032-1.652,2.248-3.043,3.424-4.388
		c0.868-0.993,1.687-1.931,2.349-2.882c0.724-1.041,1.416-2.108,2.108-3.176c0.94-1.448,1.912-2.946,2.973-4.405
		c0.773-1.064,1.456-2.275,2.179-3.557c0.774-1.372,1.573-2.789,2.556-4.15c0.994-1.377,2.028-2.569,3.029-3.722
		c0.972-1.12,1.891-2.179,2.55-3.174c1.874-2.828,3.297-5.271,4.231-7.259c1.056-2.25,3.735-3.217,5.986-2.162
		c2.249,1.056,3.217,3.737,2.161,5.986c-1.12,2.385-2.76,5.213-4.875,8.406c-0.982,1.482-2.138,2.815-3.256,4.103
		c-0.911,1.048-1.771,2.04-2.529,3.089c-0.688,0.954-1.331,2.095-2.013,3.303c-0.817,1.449-1.662,2.947-2.741,4.431
		c-0.919,1.264-1.785,2.598-2.701,4.011c-0.745,1.147-1.49,2.295-2.269,3.415c-0.947,1.36-1.971,2.533-2.962,3.666
		c-0.986,1.128-1.917,2.193-2.567,3.233c-0.774,1.239-1.339,2.706-1.939,4.259c-0.458,1.187-0.932,2.416-1.533,3.625
		c-1.417,2.853-2.335,5.199-2.89,7.381c-0.716,2.818-0.809,4.588-0.321,6.109c0.469,1.465,1.2,2.613,3.387,3.807
		c2.082,1.135,3.833,1.437,5.865,1.009c1.977-0.416,4.043-1.724,6.746-3.527l1.107-0.731c2.017-1.329,4.104-2.703,5.84-4.373
		c2.459-2.365,4.49-4.501,6.211-6.534c0.678-0.801,1.369-1.589,2.055-2.373c1.414-1.612,2.749-3.135,3.861-4.651
		c1.424-1.943,2.659-3.88,3.853-5.753c0.433-0.681,0.852-1.337,1.259-1.961c1.503-2.306,2.338-3.37,3.009-4.223
		c0.687-0.875,1.102-1.402,2.195-3.365c1.209-2.172,3.951-2.95,6.121-1.742c2.171,1.21,2.951,3.95,1.741,6.121
		c-1.439,2.585-2.153,3.494-2.98,4.546c-0.591,0.752-1.261,1.604-2.547,3.577c-0.391,0.601-0.793,1.231-1.209,1.884
		c-1.212,1.902-2.586,4.058-4.184,6.237c-1.343,1.832-2.872,3.576-4.351,5.263c-0.653,0.744-1.31,1.493-1.954,2.255
		c-1.922,2.27-4.159,4.627-6.842,7.206c-2.332,2.244-4.88,3.922-7.128,5.402l-1.064,0.703c-3.432,2.289-6.339,4.099-9.883,4.846
		C211.62,204.681,210.437,204.807,209.266,204.807"/>
	<path clip-path="url(#SVGID_2_)" fill="#F68E63" d="M219.968,135.322c-1.734,0-3.375-0.188-4.863-0.359
		c-1.041-0.12-2.025-0.233-2.9-0.265c-3.375-0.124-7.251-0.421-10.539-2.379c-4.027-2.4-6.181-6.042-6.404-10.825
		c-0.138-2.968,0.371-6.404,1.511-10.215c0.652-2.178,1.651-4.381,2.709-6.714c0.291-0.641,0.591-1.304,0.895-1.988
		c1.008-2.272,3.668-3.3,5.938-2.289c2.272,1.007,3.297,3.666,2.29,5.937c-0.315,0.709-0.626,1.395-0.927,2.059
		c-0.969,2.136-1.806,3.981-2.283,5.575c-0.849,2.837-1.233,5.265-1.142,7.217c0.092,1.994,0.782,2.773,2.021,3.512
		c1.315,0.783,3.455,1.012,6.263,1.116c1.223,0.046,2.429,0.183,3.595,0.317c1.692,0.196,3.292,0.376,4.765,0.269
		c2.071-0.155,4.118-0.216,6.098-0.276c0.973-0.03,1.935-0.058,2.879-0.098c2.477-0.119,4.58,1.822,4.686,4.306
		c0.105,2.483-1.823,4.581-4.306,4.686c-0.979,0.041-1.978,0.071-2.988,0.102c-1.882,0.056-3.829,0.116-5.701,0.254
		C221.025,135.304,220.492,135.322,219.968,135.322"/>
	<path clip-path="url(#SVGID_2_)" fill="#F68E63" d="M707.956,167.408c-0.845,0-1.699-0.238-2.459-0.734
		c-2.08-1.361-2.663-4.15-1.304-6.23c0.75-1.146,1.367-2.457,2.022-3.843c0.786-1.669,1.598-3.393,2.732-5.02
		c0.847-1.216,1.662-2.41,2.457-3.575c1.086-1.593,2.136-3.132,3.177-4.593c1.202-1.69,2.543-3.109,3.727-4.36
		c1.028-1.089,2.001-2.118,2.632-3.069c2.184-3.288,3.673-5.823,4.685-7.977c1.056-2.251,3.735-3.218,5.985-2.162
		s3.218,3.737,2.161,5.986c-1.204,2.565-2.899,5.468-5.335,9.134c-1.057,1.592-2.343,2.953-3.587,4.269
		c-1.079,1.141-2.096,2.218-2.936,3.398c-1.007,1.415-2.022,2.904-3.074,4.446c-0.812,1.188-1.644,2.408-2.508,3.648
		c-0.699,1.004-1.319,2.32-1.976,3.712c-0.72,1.529-1.537,3.262-2.628,4.932C710.863,166.69,709.424,167.408,707.956,167.408"/>
	<path clip-path="url(#SVGID_2_)" fill="#F68E63" d="M719.07,135.008c-1.677,0-3.27-0.152-4.719-0.291
		c-0.995-0.096-1.935-0.186-2.797-0.217c-0.83-0.032-1.711,0.006-2.641,0.045c-2.68,0.112-5.713,0.239-8.413-1.369
		c-4.461-2.659-5.249-7.65-5.438-11.702l-0.025-0.52c-0.122-2.417-0.288-5.728,0.909-9.726c0.127-0.424,0.254-0.865,0.386-1.319
		c0.624-2.155,1.4-4.836,2.652-7.658c1.007-2.271,3.665-3.301,5.938-2.289c2.271,1.007,3.296,3.666,2.289,5.938
		c-1.004,2.263-1.629,4.423-2.235,6.513c-0.138,0.48-0.273,0.946-0.408,1.395c-0.753,2.514-0.646,4.639-0.543,6.694l0.027,0.553
		c0.167,3.59,0.849,4.267,1.055,4.39c0.471,0.233,2.25,0.158,3.429,0.108c1.015-0.043,2.167-0.09,3.35-0.047
		c1.125,0.042,2.242,0.148,3.322,0.252c1.761,0.169,3.431,0.329,5.008,0.21c1.874-0.141,3.684-0.116,5.436-0.095
		c1.26,0.016,2.446,0.031,3.564-0.015c2.487-0.095,4.58,1.825,4.684,4.307c0.104,2.484-1.824,4.58-4.308,4.685
		c-1.364,0.055-2.73,0.041-4.054,0.022c-1.629-0.019-3.17-0.039-4.655,0.071C720.27,134.988,719.665,135.008,719.07,135.008"/>
	<path clip-path="url(#SVGID_2_)" fill="#F68E63" d="M299.913,205.533c-1.253,0-2.527-0.149-3.821-0.511
		c-2.394-0.669-3.792-3.151-3.123-5.545c0.669-2.393,3.152-3.794,5.546-3.123c1.771,0.497,4.148-0.143,6.631-0.9l0.707-0.215
		c2.304-0.695,4.687-1.414,6.53-2.714c1.89-1.333,3.933-3.107,6.429-5.586c1.037-1.03,1.991-2.378,3.001-3.804
		c0.732-1.035,1.488-2.104,2.343-3.148c0.812-0.992,1.64-1.928,2.441-2.833c1.217-1.377,2.368-2.678,3.272-3.962
		c0.728-1.033,1.461-2.029,2.169-2.992c1.14-1.549,2.217-3.012,3.024-4.312c2.133-3.44,2.296-3.759,3.201-5.535
		c0.288-0.563,0.643-1.258,1.14-2.213c1.149-2.203,3.865-3.059,6.07-1.91c2.204,1.149,3.059,3.866,1.91,6.071
		c-0.48,0.922-0.824,1.595-1.102,2.141c-1.022,2.005-1.317,2.557-3.571,6.191c-0.996,1.604-2.175,3.206-3.423,4.902
		c-0.673,0.913-1.369,1.858-2.059,2.839c-1.191,1.692-2.564,3.243-3.891,4.743c-0.778,0.881-1.514,1.712-2.216,2.57
		c-0.655,0.8-1.29,1.698-1.962,2.647c-1.187,1.677-2.414,3.411-4.005,4.991c-2.863,2.843-5.273,4.926-7.584,6.556
		c-3.034,2.139-6.407,3.157-9.117,3.974l-0.682,0.207C305.266,204.826,302.64,205.533,299.913,205.533"/>
	<path clip-path="url(#SVGID_2_)" fill="#F68E63" d="M477.314,177.84c-3.979,0-7.254-0.797-10.143-1.5l-0.213-0.052
		c-0.567-0.137-1.128-0.266-1.68-0.392c-3.045-0.698-6.194-1.418-8.857-3.336c-3.516-2.534-5.202-6.104-6.556-8.972l-0.225-0.476
		c-1.823-3.84-2.685-7.296-2.715-10.877c-0.03-3.778,1.079-7.176,2.152-10.463c0.165-0.506,0.297-0.921,0.428-1.337
		c0.855-2.69,1.824-5.739,3.713-8.547c2.251-3.347,4.569-5.99,7.086-8.081c3.094-2.571,6.718-3.949,9.629-5.058
		c0.371-0.14,0.741-0.285,1.113-0.43c2.77-1.083,5.911-2.309,9.611-2.309c2.486,0,4.5,2.015,4.5,4.5s-2.014,4.5-4.5,4.5
		c-2.005,0-4.109,0.821-6.336,1.691c-0.398,0.156-0.794,0.311-1.188,0.46c-2.909,1.108-5.278,2.074-7.078,3.569
		c-1.847,1.535-3.603,3.556-5.369,6.181c-1.17,1.74-1.866,3.93-2.603,6.249c-0.14,0.44-0.279,0.877-0.421,1.314
		c-0.955,2.928-1.756,5.38-1.737,7.688c0.018,2.223,0.605,4.477,1.846,7.091l0.231,0.491c1.1,2.327,2.049,4.338,3.681,5.513
		c1.185,0.854,3.233,1.322,5.604,1.865c0.589,0.135,1.189,0.273,1.796,0.42l0.216,0.053c2.515,0.612,5.116,1.245,8.015,1.245
		c2.485,0,4.5,2.015,4.5,4.5C481.814,175.825,479.799,177.84,477.314,177.84"/>
	<path clip-path="url(#SVGID_2_)" fill="#F68E63" d="M442.253,204.339c-0.494,0-0.971-0.007-1.429-0.013
		c-0.405-0.006-0.803-0.011-1.191-0.011c-5.359,0-9.306-1.414-12.068-4.325c-2.553-2.69-4.124-6.536-4.667-11.432
		c-0.317-2.86-0.582-6.687,0.205-10.932c0.675-3.639,1.567-6.931,2.728-10.066c1.313-3.546,2.643-6.61,4.067-9.365
		c1.141-2.207,3.857-3.07,6.063-1.931c2.209,1.141,3.073,3.856,1.932,6.064c-1.27,2.458-2.422,5.115-3.622,8.357
		c-0.98,2.647-1.739,5.455-2.318,8.582c-0.572,3.083-0.359,6.054-0.11,8.298c0.318,2.859,1.096,5.013,2.25,6.23
		c0.62,0.652,1.868,1.52,5.54,1.52c0.43,0,0.87,0.005,1.318,0.012c2.183,0.029,4.246,0.06,6.058-0.647
		c0.915-0.358,2.046-1.281,3.244-2.259c1-0.816,2.135-1.743,3.419-2.568c0.828-0.534,1.693-1.04,2.573-1.554
		c1.639-0.957,3.187-1.861,4.513-2.989c2.277-1.937,4.484-4.199,6.152-5.951c1.833-1.927,3.91-4.11,5.735-6.431
		c1.646-2.094,3.278-4.398,4.988-7.042c0.91-1.406,1.668-3.014,2.471-4.715c0.465-0.988,0.933-1.977,1.434-2.946l0.804-1.542
		c1.212-2.316,2.355-4.503,3.123-6.573c1.048-2.829,2.111-5.808,2.597-8.428c0.556-3.004,1.131-6.113,0.888-8.304
		c-0.276-2.483-1.247-4.766-2.664-6.26c-1.249-1.315-3.248-2.04-5.629-2.04c-2.485,0-4.5-2.014-4.5-4.5c0-2.485,2.015-4.5,4.5-4.5
		c4.874,0,9.192,1.721,12.158,4.845c2.781,2.933,4.584,7.003,5.081,11.462c0.389,3.515-0.309,7.288-0.985,10.936
		c-0.616,3.323-1.823,6.72-3.007,9.914c-0.965,2.609-2.24,5.043-3.588,7.621l-0.784,1.504c-0.451,0.871-0.869,1.761-1.289,2.651
		c-0.893,1.893-1.817,3.851-3.052,5.763c-1.863,2.878-3.652,5.403-5.471,7.716c-2.088,2.656-4.417,5.104-6.289,7.072
		c-1.821,1.914-4.244,4.393-6.841,6.603c-1.932,1.644-3.991,2.846-5.808,3.906c-0.765,0.448-1.52,0.886-2.24,1.35
		c-0.857,0.551-1.703,1.241-2.599,1.973c-1.683,1.374-3.424,2.796-5.658,3.669C447.422,204.181,444.644,204.339,442.253,204.339"/>
	<path clip-path="url(#SVGID_2_)" fill="#F68E63" d="M864.408,212.042c-2.369,0-4.791-0.344-7.062-1.601
		c-3.6-1.994-6.379-5.469-7.829-9.785c-1.139-3.39-1.122-7.232,0.05-11.746c0.854-3.283,2.68-6.245,4.802-9.5
		c0.434-0.665,0.832-1.343,1.226-2.012c1.177-1.996,2.511-4.258,4.592-6.073c2.246-1.961,4.934-3.744,8.215-5.452
		c2.489-1.296,5.113-2.174,7.65-3.022l1.162-0.391c2.47-0.836,5.033-1.479,7.512-2.1l1.256-0.315
		c0.826-0.209,1.666-0.455,2.537-0.719c-0.011-0.234-0.022-0.471-0.033-0.709c-0.071-1.587-0.145-3.227-0.164-4.881
		c-0.023-2.141,0.342-4.175,0.664-5.971c0.242-1.342,0.469-2.611,0.507-3.732c0.108-3.253,0.531-6.273,0.939-9.194l0.093-0.674
		c0.42-3.026,1.016-6.587,2.255-10.047c1.362-3.797,3.061-6.81,5.35-9.487c1.615-1.891,4.456-2.112,6.345-0.495
		c1.888,1.615,2.11,4.456,0.495,6.344c-1.556,1.82-2.737,3.94-3.717,6.673c-0.962,2.687-1.456,5.678-1.813,8.249l-0.095,0.683
		c-0.376,2.689-0.765,5.47-0.858,8.248c-0.058,1.772-0.355,3.425-0.642,5.022c-0.277,1.539-0.537,2.993-0.523,4.282
		c0.012,1.086,0.051,2.169,0.098,3.283c0.715-0.182,1.439-0.371,2.182-0.565c1.091-0.285,2.19-0.571,3.299-0.847
		c2.499-0.621,4.98-1.386,7.608-2.196l0.534-0.165c1.243-0.382,2.466-0.669,3.649-0.945c1.591-0.373,3.095-0.725,4.419-1.261
		l0.613-0.248c2.446-0.989,4.757-1.923,6.939-3.108c1.027-0.557,2.094-1.515,3.225-2.529c0.969-0.87,1.971-1.77,3.144-2.62
		c0.886-0.642,1.781-1.218,2.647-1.776c1.466-0.945,2.85-1.838,3.971-2.908c0.557-0.532,1.131-1.059,1.711-1.591
		c1.506-1.381,2.929-2.684,4.123-4.162c1.529-1.895,2.983-4.087,4.696-6.796c0.685-1.084,1.263-2.473,1.875-3.944
		c0.485-1.165,0.986-2.369,1.609-3.612c1.113-2.222,3.82-3.122,6.039-2.005c2.222,1.114,3.12,3.818,2.006,6.039
		c-0.48,0.959-0.9,1.967-1.345,3.035c-0.728,1.754-1.483,3.566-2.577,5.297c-1.88,2.973-3.501,5.41-5.302,7.64
		c-1.617,2.003-3.437,3.671-5.043,5.143c-0.534,0.49-1.063,0.974-1.576,1.464c-1.739,1.662-3.637,2.885-5.312,3.965
		c-0.799,0.514-1.553,1.001-2.239,1.499c-0.794,0.575-1.582,1.282-2.416,2.03c-1.4,1.256-2.986,2.68-4.942,3.741
		c-2.63,1.428-5.289,2.503-7.86,3.542l-0.606,0.245c-1.971,0.799-3.892,1.248-5.75,1.684c-1.081,0.253-2.102,0.491-3.049,0.783
		l-0.533,0.164c-2.628,0.81-5.345,1.648-8.086,2.329c-1.074,0.268-2.14,0.545-3.2,0.822c-1.289,0.336-2.609,0.68-3.936,1.003
		c0.049,0.314,0.101,0.631,0.154,0.953c0.306,1.872,0.622,3.806,0.534,5.89c-0.109,2.572-0.777,4.864-1.366,6.887
		c-0.318,1.094-0.62,2.126-0.78,3.036c-0.749,4.238-1.724,7.375-3.162,10.172c-1.757,3.421-3.601,6.232-5.635,8.598l-0.522,0.607
		c-2.146,2.507-4.366,5.099-7.259,6.811c-3.534,2.095-7.117,2.404-9.997,2.653l-1.115,0.099
		C867.385,211.904,865.907,212.042,864.408,212.042 M889.213,168.498c-0.339,0.094-0.681,0.185-1.023,0.271l-1.277,0.322
		c-2.411,0.603-4.688,1.175-6.811,1.893l-1.195,0.402c-2.307,0.771-4.487,1.501-6.348,2.47c-2.642,1.374-4.753,2.765-6.456,4.251
		c-0.985,0.858-1.805,2.25-2.754,3.862c-0.463,0.784-0.933,1.578-1.441,2.357c-1.743,2.674-3.118,4.876-3.63,6.847
		c-0.71,2.732-0.787,4.959-0.23,6.617c0.732,2.18,2.031,3.877,3.657,4.777c1.278,0.707,3.694,0.482,6.251,0.245l1.174-0.105
		c2.271-0.196,4.416-0.381,6.185-1.429c1.612-0.955,3.187-2.794,5.01-4.923l0.533-0.621c1.567-1.822,3.025-4.06,4.456-6.843
		c1.006-1.96,1.716-4.311,2.301-7.622c0.246-1.393,0.631-2.713,1.003-3.991c0.49-1.679,0.952-3.266,1.015-4.747
		C889.682,171.376,889.454,169.978,889.213,168.498"/>
	<path clip-path="url(#SVGID_2_)" fill="#F68E63" d="M396.776,205.089c-3.042,0-5.551-1.04-7.14-1.698
		c-3.798-1.575-6.246-4.406-7.709-8.909c-0.881-2.715-1.814-5.952-1.729-10.025c0.048-2.305,0.524-4.496,1.028-6.815
		c0.181-0.831,0.367-1.689,0.536-2.576c0.15-0.787,0.197-1.794,0.246-2.862c0.09-1.928,0.192-4.115,0.899-6.436
		c0.564-1.852,1.39-3.558,2.188-5.207c0.541-1.118,1.052-2.172,1.475-3.25c0.996-2.529,2.161-5.012,3.394-7.642l0.312-0.663
		c0.435-0.93,0.839-1.952,1.267-3.034c0.675-1.71,1.374-3.478,2.342-5.288c1.171-2.193,3.898-3.021,6.09-1.848
		c2.192,1.172,3.019,3.899,1.847,6.09c-0.725,1.356-1.3,2.812-1.909,4.353c-0.46,1.163-0.934,2.364-1.488,3.545l-0.313,0.667
		c-1.17,2.496-2.276,4.855-3.167,7.117c-0.549,1.394-1.159,2.655-1.749,3.874c-0.678,1.401-1.319,2.725-1.679,3.908
		c-0.379,1.244-0.447,2.696-0.518,4.233c-0.062,1.333-0.126,2.711-0.395,4.124c-0.184,0.967-0.387,1.902-0.583,2.807
		c-0.427,1.962-0.795,3.657-0.825,5.091c-0.056,2.673,0.579,4.863,1.291,7.057c0.798,2.456,1.647,2.982,2.596,3.375
		c2.063,0.855,3.54,1.368,5.199,0.723c1.026-0.399,2.434-1.552,3.925-2.774c0.704-0.577,1.434-1.174,2.202-1.765
		c0.817-0.628,1.678-1.204,2.511-1.761c1.492-0.997,2.901-1.939,4.081-3.153c0.954-0.983,1.919-2.291,2.94-3.676
		c0.711-0.964,1.446-1.96,2.269-2.978c0.756-0.938,1.569-1.833,2.354-2.7c1.16-1.279,2.256-2.488,3.194-3.821
		c0.618-0.875,1.174-2.07,1.762-3.335c0.621-1.333,1.324-2.844,2.255-4.319c1.62-2.568,3.078-4.985,4.459-7.387
		c1.238-2.154,3.989-2.897,6.143-1.659c2.155,1.237,2.899,3.988,1.66,6.143c-1.442,2.51-2.964,5.031-4.65,7.704
		c-0.626,0.992-1.151,2.121-1.707,3.316c-0.73,1.567-1.484,3.187-2.563,4.72c-1.258,1.786-2.654,3.325-3.885,4.683
		c-0.733,0.809-1.426,1.572-2.02,2.309c-0.699,0.865-1.374,1.781-2.028,2.667c-1.155,1.565-2.349,3.183-3.727,4.603
		c-1.843,1.897-3.805,3.208-5.535,4.366c-0.745,0.497-1.447,0.966-2.026,1.412c-0.692,0.532-1.349,1.072-1.985,1.592
		c-2.061,1.689-4.008,3.285-6.37,4.203C399.857,204.843,398.253,205.089,396.776,205.089"/>
	<path clip-path="url(#SVGID_2_)" fill="#F68E63" d="M148.153,217.515c-0.698,0-1.407-0.163-2.07-0.507
		c-2.205-1.145-3.065-3.862-1.92-6.068c0.778-1.496,0.964-2.202,1.221-3.18c0.311-1.181,0.699-2.65,1.936-5.035
		c1.244-2.394,2.233-3.557,3.029-4.491c0.652-0.766,1.123-1.32,1.895-2.806c1.04-2.002,1.601-3.003,2.143-3.972
		c0.532-0.948,1.034-1.843,2.008-3.719c0.862-1.662,1.156-2.49,1.496-3.449c0.394-1.112,0.841-2.374,1.992-4.59
		c0.973-1.872,1.416-2.798,1.885-3.778c0.48-1.002,0.976-2.038,2.017-4.043c1.153-2.22,1.933-3.312,2.621-4.275
		c0.589-0.824,1.097-1.536,1.957-3.192c1.049-2.019,1.623-3.024,2.18-3.997c0.534-0.934,1.04-1.817,2.004-3.674
		c1.045-2.012,1.612-3.015,2.162-3.986c0.532-0.941,1.036-1.83,2.004-3.695c0.88-1.693,1.192-2.529,1.553-3.497
		c0.406-1.087,0.865-2.317,1.997-4.499c1.018-1.959,1.528-2.931,2.041-3.908c0.503-0.957,1.008-1.919,2.004-3.838
		c0.925-1.78,1.306-2.681,1.71-3.635c0.453-1.072,0.923-2.182,2.011-4.278c1.115-2.146,1.825-3.223,2.452-4.174
		c0.579-0.879,1.08-1.639,1.979-3.369c0.905-1.744,1.247-2.594,1.642-3.577c0.422-1.05,0.9-2.24,2.007-4.372
		c0.905-1.743,1.246-2.592,1.641-3.576c0.421-1.05,0.898-2.241,2.006-4.375c1.146-2.204,3.862-3.064,6.067-1.92
		c2.206,1.146,3.066,3.863,1.92,6.069c-0.905,1.743-1.246,2.593-1.64,3.576c-0.421,1.051-0.899,2.241-2.007,4.375
		c-0.906,1.745-1.248,2.595-1.643,3.578c-0.422,1.049-0.899,2.238-2.006,4.37c-1.114,2.146-1.825,3.223-2.452,4.174
		c-0.579,0.879-1.079,1.639-1.978,3.369c-0.926,1.781-1.307,2.683-1.711,3.637c-0.453,1.072-0.923,2.181-2.01,4.276
		c-1.006,1.937-1.517,2.907-2.023,3.874c-0.509,0.968-1.015,1.931-2.022,3.872c-0.88,1.694-1.192,2.53-1.553,3.497
		c-0.406,1.087-0.865,2.318-1.998,4.499c-1.043,2.008-1.61,3.011-2.159,3.98c-0.533,0.942-1.036,1.833-2.007,3.701
		c-1.048,2.019-1.623,3.024-2.179,3.996c-0.535,0.935-1.04,1.818-2.005,3.675c-1.153,2.221-1.933,3.312-2.621,4.275
		c-0.589,0.825-1.097,1.536-1.957,3.193c-0.974,1.875-1.417,2.801-1.887,3.781c-0.479,1.001-0.975,2.036-2.014,4.039
		c-0.864,1.663-1.157,2.491-1.497,3.449c-0.395,1.113-0.842,2.373-1.992,4.589c-1.04,2.003-1.601,3.004-2.144,3.973
		c-0.531,0.948-1.033,1.844-2.007,3.72c-1.243,2.393-2.233,3.556-3.028,4.491c-0.652,0.765-1.123,1.319-1.895,2.805
		c-0.778,1.496-0.964,2.203-1.221,3.18c-0.311,1.181-0.699,2.65-1.936,5.034C151.349,216.63,149.779,217.515,148.153,217.515"/>
	<path clip-path="url(#SVGID_2_)" fill="#F68E63" d="M397.568,147.171c-0.68,0-1.371-0.154-2.02-0.481
		c-2.22-1.118-3.113-3.823-1.996-6.043c1.216-2.416,2.215-3.582,3.018-4.519c0.632-0.739,1.09-1.272,1.814-2.712
		c0.967-1.92,1.447-2.882,1.927-3.844c0.484-0.968,0.967-1.936,1.94-3.871c0.984-1.955,1.491-2.926,1.998-3.896
		c0.491-0.942,0.982-1.883,1.936-3.78c0.762-1.512,0.961-2.254,1.212-3.194c0.307-1.147,0.689-2.575,1.866-4.915
		c1.132-2.248,1.924-3.344,2.623-4.309c0.598-0.827,1.069-1.478,1.876-3.082c0.903-1.792,1.285-2.693,1.689-3.646
		c0.443-1.045,0.901-2.125,1.937-4.182c1.007-2,1.556-2.998,2.088-3.963c0.515-0.933,1.001-1.815,1.932-3.666
		c0.88-1.748,1.233-2.635,1.607-3.575c0.408-1.029,0.872-2.195,1.93-4.297c0.952-1.89,1.415-2.844,1.876-3.797
		c0.478-0.987,0.955-1.972,1.941-3.93c1.157-2.299,1.999-3.402,2.742-4.376c0.601-0.788,1.076-1.411,1.857-2.964
		c0.837-1.662,1.124-2.485,1.457-3.437c0.381-1.093,0.813-2.332,1.915-4.52c1.117-2.219,3.823-3.114,6.042-1.996
		c2.22,1.117,3.114,3.822,1.997,6.043c-0.837,1.662-1.124,2.485-1.456,3.437c-0.382,1.093-0.814,2.331-1.915,4.52
		c-1.158,2.299-2,3.402-2.742,4.376c-0.602,0.788-1.077,1.411-1.858,2.964c-0.955,1.896-1.417,2.85-1.88,3.806
		c-0.477,0.984-0.954,1.969-1.936,3.921c-0.881,1.749-1.234,2.636-1.607,3.575c-0.409,1.03-0.873,2.195-1.931,4.297
		c-1.007,2-1.557,2.998-2.088,3.963c-0.515,0.934-1.001,1.816-1.932,3.666c-0.904,1.795-1.286,2.696-1.691,3.65
		c-0.442,1.044-0.9,2.123-1.935,4.178c-1.131,2.248-1.923,3.343-2.623,4.31c-0.597,0.825-1.068,1.476-1.876,3.081
		c-0.761,1.513-0.96,2.255-1.211,3.194c-0.307,1.148-0.689,2.576-1.867,4.915c-0.984,1.955-1.49,2.925-1.996,3.896
		c-0.492,0.941-0.983,1.883-1.938,3.78c-0.967,1.92-1.447,2.882-1.927,3.844c-0.483,0.969-0.967,1.936-1.94,3.871
		c-1.216,2.416-2.215,3.583-3.019,4.521c-0.632,0.738-1.089,1.271-1.813,2.709C400.8,146.264,399.214,147.171,397.568,147.171"/>
	<path clip-path="url(#SVGID_2_)" fill="#F68E63" d="M930.668,254.107c-1.62,0-3.132-0.144-4.485-0.271l-1.659-0.15
		c-3.302-0.284-7.045-0.605-10.283-2.737c-3.178-2.092-5.935-5.238-7.761-8.856c-1.385-2.746-2.193-6.188-2.542-10.835
		c-0.203-2.673,0.381-5.194,0.946-7.632c0.2-0.862,0.406-1.748,0.577-2.664c0.145-0.77,0.246-1.641,0.354-2.563
		c0.258-2.2,0.551-4.694,1.546-7.322c1.151-3.039,2.715-6.088,4.235-8.93c1.172-2.191,3.9-3.019,6.09-1.848
		c2.192,1.172,3.019,3.899,1.847,6.09c-1.377,2.576-2.785,5.314-3.756,7.875c-0.601,1.59-0.806,3.335-1.023,5.183
		c-0.121,1.031-0.245,2.097-0.445,3.168c-0.202,1.076-0.433,2.075-0.658,3.042c-0.449,1.942-0.837,3.62-0.739,4.926
		c0.258,3.43,0.768,5.799,1.603,7.457c1.112,2.202,2.816,4.169,4.675,5.392c1.332,0.877,3.65,1.076,6.104,1.286l1.739,0.158
		c2.4,0.228,4.662,0.443,6.787-0.143c1.846-0.507,3.946-1.719,6.167-3.002l1.15-0.66c0.79-0.45,1.623-0.88,2.475-1.318
		c1.791-0.918,3.484-1.787,4.882-2.971c0.826-0.697,1.654-1.903,2.532-3.178c0.799-1.16,1.704-2.476,2.815-3.724
		c2.109-2.367,3.85-4.422,5.501-6.76c0.694-0.984,1.432-1.919,2.147-2.824c1.152-1.458,2.24-2.835,3.1-4.333
		c1.238-2.155,3.992-2.896,6.143-1.661c2.156,1.239,2.899,3.989,1.662,6.144c-1.192,2.074-2.6,3.856-3.842,5.43
		c-0.671,0.847-1.304,1.649-1.858,2.433c-1.892,2.683-3.82,4.961-6.131,7.557c-0.738,0.827-1.41,1.804-2.123,2.84
		c-1.173,1.707-2.388,3.472-4.132,4.947c-2.186,1.85-4.525,3.05-6.587,4.108c-0.732,0.375-1.448,0.741-2.124,1.126l-1.11,0.639
		c-2.617,1.511-5.323,3.072-8.282,3.885C934.278,253.941,932.411,254.107,930.668,254.107"/>
	<path clip-path="url(#SVGID_2_)" fill="#F68E63" d="M915.191,208.585c-0.68,0-1.37-0.155-2.02-0.481
		c-2.219-1.119-3.113-3.824-1.996-6.043c1.175-2.332,1.99-3.473,2.707-4.48c0.608-0.85,1.131-1.583,1.995-3.298
		c0.893-1.776,1.208-2.651,1.571-3.665c0.404-1.129,0.863-2.408,2.006-4.678c0.986-1.959,1.435-2.925,1.911-3.949
		c0.483-1.041,0.984-2.117,2.033-4.201c1.01-2.006,1.506-3.014,2.002-4.02c0.505-1.025,1.01-2.048,2.036-4.088
		c1.139-2.263,1.889-3.391,2.55-4.387c0.597-0.898,1.111-1.675,2.008-3.455c1.13-2.244,1.861-3.369,2.508-4.361
		c0.592-0.913,1.105-1.701,2.01-3.498c0.744-1.478,0.888-2.194,1.086-3.184c0.259-1.291,0.581-2.898,1.872-5.461
		c1.148-2.28,1.914-3.412,2.59-4.411c0.599-0.885,1.116-1.65,2.003-3.411c0.898-1.783,1.215-2.658,1.582-3.673
		c0.406-1.123,0.867-2.396,2.005-4.656c1.009-2.005,1.506-3.012,2.002-4.019c0.505-1.023,1.009-2.047,2.035-4.085
		c1.056-2.099,1.633-3.144,2.192-4.156c0.541-0.982,1.052-1.908,2.032-3.854c1.031-2.049,1.557-3.065,2.085-4.083
		c0.513-0.991,1.027-1.985,2.031-3.978c1.184-2.351,2.016-3.493,2.751-4.502c0.633-0.869,1.134-1.556,1.985-3.248
		c0.863-1.714,1.141-2.571,1.463-3.564c0.38-1.174,0.812-2.507,1.985-4.836c1.055-2.096,1.632-3.142,2.19-4.154
		c0.542-0.981,1.053-1.909,2.032-3.854c1.041-2.069,1.588-3.091,2.135-4.113c0.52-0.973,1.041-1.946,2.034-3.92l4.075-8.082
		c1.118-2.218,3.82-3.116,6.043-1.996c2.22,1.117,3.114,3.823,1.996,6.043l-4.075,8.082c-1.043,2.073-1.59,3.096-2.137,4.119
		c-0.52,0.972-1.041,1.945-2.032,3.913c-1.055,2.097-1.633,3.143-2.19,4.155c-0.541,0.981-1.053,1.909-2.032,3.854
		c-0.863,1.714-1.141,2.572-1.463,3.564c-0.38,1.175-0.812,2.507-1.985,4.836c-1.183,2.35-2.015,3.493-2.751,4.502
		c-0.632,0.869-1.133,1.555-1.985,3.248c-1.027,2.04-1.553,3.055-2.078,4.069c-0.516,0.996-1.03,1.989-2.038,3.992
		c-1.056,2.098-1.633,3.144-2.192,4.155c-0.542,0.982-1.052,1.909-2.032,3.854c-1.009,2.005-1.506,3.012-2.002,4.019
		c-0.505,1.023-1.009,2.046-2.035,4.085c-0.897,1.783-1.215,2.659-1.582,3.673c-0.406,1.123-0.867,2.396-2.005,4.657
		c-1.147,2.279-1.913,3.411-2.589,4.409c-0.599,0.885-1.116,1.649-2.004,3.412c-0.745,1.48-0.888,2.195-1.087,3.185
		c-0.258,1.29-0.581,2.896-1.871,5.459c-1.129,2.245-1.861,3.369-2.506,4.361c-0.593,0.912-1.106,1.7-2.012,3.5
		c-1.139,2.262-1.889,3.39-2.55,4.386c-0.597,0.899-1.111,1.675-2.008,3.456c-1.01,2.004-1.506,3.012-2.002,4.019
		c-0.505,1.025-1.01,2.048-2.036,4.088c-0.986,1.959-1.435,2.926-1.911,3.949c-0.483,1.041-0.984,2.117-2.033,4.201
		c-0.896,1.78-1.21,2.656-1.573,3.669c-0.405,1.128-0.863,2.407-2.004,4.674c-1.175,2.334-1.99,3.476-2.708,4.483
		c-0.608,0.849-1.131,1.583-1.994,3.295C918.423,207.679,916.837,208.585,915.191,208.585"/>
	<path clip-path="url(#SVGID_2_)" fill="#F68E63" d="M516.618,164.499c-0.682,0-1.374-0.155-2.024-0.484
		c-2.219-1.12-3.109-3.828-1.989-6.045c0.92-1.822,1.253-2.714,1.639-3.746c0.418-1.121,0.893-2.39,2.036-4.654
		c1.124-2.228,1.832-3.356,2.456-4.352c0.57-0.91,1.11-1.771,2.047-3.627c1.049-2.077,1.594-3.108,2.138-4.135
		c0.525-0.994,1.05-1.986,2.063-3.992c1.127-2.232,1.837-3.361,2.464-4.356c0.571-0.908,1.111-1.765,2.047-3.618
		c0.922-1.825,1.258-2.718,1.646-3.752c0.42-1.114,0.897-2.379,2.037-4.635c1.189-2.355,2.016-3.505,2.747-4.519
		c0.615-0.855,1.146-1.593,2.018-3.319c1.119-2.219,3.826-3.111,6.045-1.989c2.219,1.12,3.109,3.827,1.988,6.045
		c-1.189,2.356-2.016,3.506-2.747,4.521c-0.615,0.854-1.146,1.593-2.018,3.318c-0.921,1.824-1.257,2.717-1.647,3.75
		c-0.42,1.115-0.895,2.38-2.036,4.637c-1.127,2.231-1.837,3.36-2.464,4.355c-0.571,0.909-1.111,1.766-2.047,3.618
		c-1.05,2.083-1.595,3.113-2.14,4.143c-0.525,0.991-1.049,1.983-2.06,3.983c-1.124,2.229-1.832,3.357-2.456,4.353
		c-0.57,0.91-1.109,1.771-2.047,3.627c-0.921,1.822-1.254,2.715-1.639,3.747c-0.418,1.12-0.893,2.389-2.036,4.653
		C519.847,163.595,518.263,164.499,516.618,164.499"/>
	<path clip-path="url(#SVGID_2_)" fill="#F68E63" d="M323.449,204.405c-0.675,0-1.361-0.152-2.006-0.475
		c-2.224-1.11-3.127-3.812-2.017-6.036c0.966-1.935,1.433-2.911,1.9-3.886c0.483-1.01,0.966-2.02,1.966-4.023
		c0.811-1.624,1.046-2.405,1.343-3.393c0.353-1.176,0.754-2.508,1.909-4.823c1.184-2.373,2.106-3.551,2.846-4.497
		c0.617-0.788,1.104-1.411,1.884-2.973c1.032-2.069,1.61-3.094,2.168-4.086c0.527-0.937,1.026-1.822,1.958-3.69
		c0.907-1.818,1.283-2.734,1.681-3.705c0.442-1.079,0.9-2.194,1.956-4.31c1.106-2.216,1.839-3.319,2.485-4.292
		c0.575-0.867,1.072-1.616,1.93-3.334c0.87-1.744,1.183-2.597,1.546-3.584c0.397-1.084,0.848-2.313,1.942-4.504
		c0.991-1.987,1.497-2.976,2.003-3.964c0.495-0.969,0.99-1.938,1.963-3.886c1.064-2.132,1.694-3.171,2.304-4.177
		c0.539-0.888,1.048-1.728,1.947-3.53c0.884-1.771,1.213-2.632,1.594-3.629c0.406-1.064,0.867-2.27,1.948-4.435
		c0.963-1.928,1.425-2.902,1.888-3.875c0.481-1.014,0.963-2.028,1.964-4.034c0.916-1.835,1.302-2.755,1.711-3.73
		c0.447-1.067,0.91-2.168,1.958-4.268c0.928-1.859,1.331-2.787,1.757-3.768c0.455-1.048,0.925-2.13,1.96-4.204
		c1.072-2.148,1.743-3.238,2.336-4.2c0.541-0.877,1.052-1.708,1.944-3.495c1-2.003,1.515-2.994,2.031-3.987
		c0.497-0.959,0.996-1.918,1.96-3.85c0.97-1.942,1.457-2.924,1.939-3.897c0.494-0.997,0.984-1.983,1.978-3.974
		c1.099-2.203,1.82-3.304,2.456-4.275c0.574-0.876,1.069-1.632,1.933-3.362c1.038-2.08,1.625-3.108,2.193-4.102
		c0.53-0.926,1.03-1.801,1.955-3.654c1.109-2.224,3.812-3.128,6.036-2.017c2.224,1.111,3.126,3.813,2.017,6.036
		c-1.038,2.08-1.626,3.108-2.194,4.102c-0.529,0.926-1.029,1.801-1.954,3.654c-1.1,2.202-1.821,3.303-2.457,4.274
		c-0.573,0.876-1.068,1.631-1.933,3.364c-0.989,1.98-1.476,2.962-1.967,3.953c-0.485,0.978-0.975,1.965-1.949,3.918
		c-0.997,1.996-1.512,2.987-2.026,3.977c-0.499,0.961-0.998,1.921-1.965,3.86c-1.071,2.146-1.742,3.235-2.335,4.196
		c-0.541,0.879-1.052,1.709-1.945,3.497c-0.929,1.861-1.331,2.788-1.758,3.77c-0.454,1.048-0.925,2.13-1.96,4.204
		c-0.915,1.834-1.302,2.755-1.71,3.729c-0.447,1.067-0.91,2.169-1.958,4.269c-0.963,1.929-1.426,2.901-1.888,3.875
		c-0.481,1.014-0.963,2.026-1.964,4.033c-0.884,1.77-1.213,2.631-1.594,3.628c-0.406,1.064-0.867,2.271-1.948,4.436
		c-1.065,2.133-1.695,3.173-2.305,4.178c-0.539,0.889-1.048,1.729-1.947,3.53c-0.991,1.986-1.497,2.975-2.003,3.963
		c-0.495,0.969-0.99,1.938-1.963,3.886c-0.869,1.742-1.183,2.596-1.545,3.584c-0.397,1.084-0.849,2.313-1.943,4.504
		c-1.105,2.216-1.838,3.318-2.484,4.292c-0.575,0.866-1.072,1.615-1.93,3.334c-0.908,1.819-1.284,2.735-1.682,3.706
		c-0.442,1.078-0.899,2.193-1.956,4.31c-1.032,2.068-1.609,3.093-2.168,4.086c-0.527,0.936-1.025,1.821-1.958,3.689
		c-1.185,2.374-2.106,3.552-2.847,4.499c-0.616,0.788-1.103,1.41-1.883,2.972c-0.811,1.624-1.045,2.405-1.342,3.393
		c-0.354,1.176-0.755,2.508-1.909,4.823c-0.967,1.935-1.434,2.911-1.9,3.886c-0.483,1.01-0.967,2.02-1.966,4.023
		C326.691,203.492,325.101,204.405,323.449,204.405"/>
	<path clip-path="url(#SVGID_2_)" fill="#F68E63" d="M472.999,63.249c-0.616,0-1.241-0.127-1.84-0.396
		c-2.267-1.017-3.281-3.679-2.263-5.947c1.344-2.997,2.218-5.548,2.671-7.798c0.47-2.331,0.612-4.975,0.433-8.085
		c-0.115-2.007-0.87-4.081-1.669-6.276c-0.162-0.443-0.322-0.885-0.477-1.323c-0.167-0.474-0.329-0.949-0.492-1.425
		c-0.757-2.216-1.471-4.309-2.567-5.781c-0.88-1.185-2.425-2.189-4.061-3.251c-0.717-0.466-1.432-0.933-2.121-1.422l-0.982-0.705
		c-1.891-1.366-3.677-2.656-5.556-3.237c-1.835-0.566-4.039-0.546-6.587-0.522l-1.104,0.009c-2.719,0.013-5.288,0.024-7.816,0.727
		c-2.369,0.661-4.824,1.675-7.506,3.103c-2.33,1.242-4.61,2.738-6.97,4.575c-2.521,1.962-4.552,3.752-6.392,5.634
		c-0.688,0.702-1.414,1.395-2.154,2.1c-1.43,1.362-2.781,2.648-3.933,4.112c-0.885,1.123-1.7,2.537-2.565,4.034
		c-0.642,1.112-1.307,2.264-2.074,3.435c-1.315,2.007-2.554,4.238-3.865,6.6l-0.568,1.023c-1.238,2.221-2.778,4.987-4.15,7.842
		c-1.076,2.24-3.764,3.186-6.005,2.107c-2.24-1.076-3.183-3.765-2.107-6.005c1.378-2.866,2.807-5.466,4.399-8.323l0.563-1.012
		c1.393-2.511,2.709-4.881,4.205-7.164c0.628-0.959,1.201-1.952,1.808-3.003c0.985-1.706,2.003-3.47,3.287-5.101
		c1.551-1.97,3.276-3.613,4.799-5.063c0.661-0.629,1.311-1.247,1.925-1.875c2.131-2.179,4.45-4.226,7.299-6.443
		c2.771-2.157,5.476-3.929,8.267-5.416c3.267-1.74,6.316-2.993,9.324-3.83c3.691-1.027,7.142-1.043,10.187-1.057l1.062-0.008
		c3.026-0.03,6.153-0.058,9.326,0.922c3.294,1.017,5.885,2.889,8.17,4.539l0.928,0.667c0.587,0.417,1.198,0.812,1.81,1.21
		c2.126,1.382,4.535,2.947,6.38,5.427c1.935,2.602,2.958,5.599,3.861,8.244c0.153,0.446,0.306,0.893,0.462,1.337
		c0.145,0.412,0.296,0.825,0.447,1.241c0.94,2.583,2.006,5.511,2.197,8.839c0.223,3.887,0.029,7.281-0.595,10.378
		c-0.587,2.915-1.661,6.089-3.283,9.704C476.358,62.26,474.717,63.249,472.999,63.249"/>
	<path clip-path="url(#SVGID_2_)" fill="#F68E63" d="M541.38,115.503c-0.658,0-1.326-0.145-1.958-0.45
		c-2.236-1.083-3.172-3.775-2.09-6.012c0.855-1.764,1.771-3.418,2.657-5.017c0.541-0.977,1.077-1.943,1.584-2.913
		c1.7-3.253,3.021-5.696,4.283-7.92l0.211-0.374c1.463-2.581,2.846-5.019,4.33-7.419c1.396-2.259,2.832-4.37,4.22-6.411l0.766-1.127
		c1.148-1.695,2.36-3.199,3.531-4.654c0.68-0.844,1.353-1.677,1.987-2.524c0.682-0.91,1.288-1.973,1.929-3.097
		c0.871-1.527,1.772-3.106,3.01-4.588c1.345-1.607,2.848-2.926,4.173-4.088c0.891-0.783,1.734-1.521,2.429-2.256
		c0.763-0.806,1.472-1.775,2.222-2.8c1.07-1.463,2.177-2.975,3.645-4.322c1.624-1.491,3.376-2.653,4.922-3.678
		c0.927-0.616,1.803-1.197,2.56-1.784c0.863-0.671,1.697-1.42,2.579-2.214c1.428-1.285,2.905-2.613,4.64-3.708
		c2.757-1.743,5.506-3.098,8.314-4.448c3.425-1.644,6.232-2.796,8.834-3.624c2.76-0.879,5.453-1.209,7.83-1.499
		c0.576-0.07,1.142-0.139,1.698-0.216c3.715-0.508,7.227-0.232,9.794-0.029c4.004,0.318,7.133,0.937,9.847,1.945
		c3.503,1.303,5.917,3.452,8.047,5.347l0.509,0.451c2.863,2.532,4.799,5.281,6.09,8.654c1.22,3.185,2.358,6.641,1.72,10.747
		c-0.536,3.451-2.177,6.266-4.268,9.589c-1.324,2.103-4.104,2.736-6.205,1.412c-2.104-1.324-2.736-4.102-1.412-6.205
		c1.58-2.512,2.72-4.426,2.993-6.178c0.3-1.93-0.352-3.845-1.233-6.148c-0.763-1.992-1.887-3.573-3.645-5.127l-0.532-0.472
		c-1.688-1.502-3.282-2.92-5.2-3.634c-1.913-0.711-4.271-1.158-7.422-1.408c-2.276-0.181-5.108-0.405-7.862-0.028
		c-0.595,0.082-1.206,0.158-1.826,0.233c-2.082,0.255-4.234,0.518-6.193,1.142c-2.164,0.689-4.672,1.722-7.666,3.161
		c-2.56,1.23-5.054,2.458-7.405,3.944c-1.091,0.688-2.226,1.71-3.428,2.791c-0.962,0.865-1.957,1.76-3.077,2.63
		c-1.023,0.794-2.082,1.496-3.106,2.176c-1.392,0.923-2.708,1.796-3.811,2.809c-0.816,0.748-1.619,1.845-2.468,3.006
		c-0.841,1.148-1.795,2.451-2.948,3.671c-0.982,1.038-2.024,1.951-3.031,2.835c-1.186,1.041-2.306,2.023-3.205,3.098
		c-0.721,0.863-1.388,2.033-2.094,3.271c-0.716,1.254-1.527,2.676-2.545,4.035c-0.697,0.93-1.433,1.847-2.18,2.774
		c-1.107,1.373-2.15,2.671-3.092,4.058l-0.773,1.139c-1.334,1.961-2.714,3.989-4.007,6.08c-1.394,2.256-2.735,4.622-4.156,7.129
		l-0.212,0.372c-1.209,2.132-2.485,4.492-4.135,7.65c-0.541,1.035-1.111,2.065-1.688,3.105c-0.827,1.493-1.681,3.036-2.427,4.578
		C544.656,114.567,543.051,115.503,541.38,115.503"/>
	<path clip-path="url(#SVGID_2_)" fill="#F68E63" d="M737.796,204.35c-0.674,0-1.358-0.152-2.003-0.474
		c-2.225-1.108-3.129-3.81-2.02-6.034c0.946-1.898,1.289-2.827,1.685-3.902c0.427-1.154,0.91-2.463,2.076-4.802
		c1.11-2.223,3.811-3.126,6.036-2.018c2.224,1.109,3.127,3.811,2.019,6.036c-0.948,1.899-1.291,2.828-1.689,3.903
		c-0.425,1.154-0.909,2.462-2.073,4.797C741.04,203.437,739.449,204.35,737.796,204.35"/>
	<path clip-path="url(#SVGID_2_)" fill="#F68E63" d="M759.486,159.424c-0.677,0-1.364-0.153-2.011-0.478
		c-2.222-1.112-3.122-3.815-2.009-6.038c1.034-2.064,1.535-3.099,2.037-4.138c0.512-1.061,1.026-2.123,2.08-4.229
		c1.161-2.319,1.921-3.478,2.591-4.501c0.614-0.936,1.143-1.745,2.071-3.596c1.194-2.387,2.02-3.557,2.749-4.589
		c0.624-0.885,1.163-1.649,2.054-3.429c0.863-1.723,1.106-2.555,1.415-3.607c0.366-1.248,0.78-2.662,2.004-5.107
		c0.99-1.977,1.42-2.964,1.876-4.008c0.483-1.104,0.981-2.246,2.077-4.435c1.092-2.182,1.702-3.264,2.291-4.31
		c0.56-0.996,1.089-1.936,2.084-3.92c1.136-2.272,1.854-3.423,2.487-4.437c0.579-0.929,1.126-1.806,2.074-3.699
		c1.102-2.201,1.729-3.288,2.334-4.337c0.566-0.981,1.1-1.906,2.082-3.87c0.902-1.8,1.202-2.695,1.55-3.731
		c0.398-1.187,0.85-2.53,2.034-4.896c1.11-2.222,3.815-3.125,6.038-2.009c2.223,1.112,3.122,3.815,2.009,6.038
		c-0.901,1.8-1.201,2.694-1.549,3.73c-0.398,1.187-0.849,2.531-2.034,4.897c-1.102,2.201-1.729,3.288-2.334,4.338
		c-0.565,0.98-1.1,1.905-2.082,3.869c-1.137,2.27-1.854,3.419-2.485,4.432c-0.58,0.93-1.128,1.808-2.077,3.704
		c-1.091,2.18-1.701,3.261-2.289,4.306c-0.561,0.996-1.09,1.938-2.086,3.924c-0.989,1.978-1.419,2.964-1.876,4.008
		c-0.482,1.104-0.98,2.246-2.076,4.435c-0.863,1.723-1.106,2.555-1.415,3.608c-0.366,1.247-0.78,2.661-2.005,5.106
		c-1.194,2.387-2.02,3.557-2.749,4.589c-0.624,0.885-1.163,1.649-2.053,3.429c-1.161,2.318-1.921,3.477-2.591,4.5
		c-0.614,0.936-1.144,1.745-2.071,3.597c-1.026,2.049-1.527,3.084-2.026,4.117c-0.515,1.067-1.03,2.131-2.092,4.251
		C762.725,158.513,761.136,159.424,759.486,159.424"/>
	<path clip-path="url(#SVGID_2_)" fill="#F68E63" d="M798.167,84.953c-0.619,0-1.248-0.128-1.85-0.4
		c-2.264-1.023-3.271-3.689-2.248-5.954c0.32-0.708,0.631-1.409,0.939-2.101c0.974-2.198,1.896-4.274,2.969-6.321
		c0.546-1.045,0.994-2.203,1.466-3.427c0.66-1.707,1.342-3.472,2.382-5.16c1.208-1.962,2.649-3.563,3.919-4.975
		c0.758-0.843,1.474-1.639,2.035-2.394c0.681-0.918,1.283-1.951,1.919-3.043c0.979-1.68,1.99-3.416,3.423-4.954
		c2.164-2.326,4.595-4.56,7.226-6.642c2.622-2.075,5.425-3.381,7.677-4.43c0.388-0.179,0.768-0.357,1.137-0.533
		c2.812-1.343,6.516-2.92,10.239-3.206c3.904-0.302,7.735,0.673,11.39,2.894c3.343,2.034,5.763,5.204,7.193,9.423
		c1.232,3.632,0.885,7.482,0.463,10.805c-0.078,0.617-0.123,1.333-0.171,2.092c-0.144,2.273-0.323,5.102-1.555,8.02
		c-0.967,2.289-3.609,3.361-5.896,2.396c-2.29-0.966-3.362-3.606-2.395-5.896c0.637-1.511,0.748-3.25,0.864-5.09
		c0.055-0.863,0.111-1.755,0.226-2.654c0.377-2.971,0.498-5.14-0.059-6.782c-0.744-2.194-1.838-3.706-3.346-4.623
		c-2.01-1.223-4.037-1.761-6.022-1.612c-2.267,0.174-5.111,1.427-7.053,2.354c-0.394,0.189-0.801,0.378-1.215,0.571
		c-2.014,0.939-4.098,1.909-5.892,3.329c-2.275,1.799-4.369,3.723-6.224,5.716c-0.749,0.804-1.47,2.041-2.233,3.352
		c-0.699,1.198-1.49,2.557-2.469,3.876c-0.814,1.097-1.707,2.09-2.571,3.051c-1.114,1.237-2.165,2.406-2.947,3.675
		c-0.606,0.985-1.113,2.295-1.649,3.683c-0.518,1.34-1.105,2.859-1.89,4.358c-0.937,1.79-1.801,3.737-2.716,5.798
		c-0.315,0.71-0.634,1.429-0.962,2.156C801.52,83.969,799.882,84.953,798.167,84.953"/>
	<path clip-path="url(#SVGID_2_)" fill="#F68E63" d="M44.868,235.223c-2.866,0-5.817-0.032-8.735-0.659
		c-3.63-0.779-6.697-2.218-9.287-3.505c-3.266-1.623-5.877-3.808-8.069-5.728l-0.657-0.573c-2.132-1.858-4.337-3.779-6.227-6.431
		c-1.671-2.345-3.575-5.115-5.035-8.309c-1.235-2.7-2.299-5.641-3.253-8.99c-0.24-0.841-0.541-1.725-0.861-2.66
		c-0.654-1.916-1.395-4.089-1.768-6.456c-0.424-2.697-0.719-5.666-0.928-9.342c-0.12-2.113,0.007-4.197,0.131-6.212
		c0.063-1.021,0.126-2.049,0.154-3.083c0.056-2.059,0.327-4.063,0.59-6c0.141-1.044,0.284-2.098,0.39-3.164
		c0.103-1.034,0.144-2.131,0.188-3.293c0.071-1.878,0.144-3.821,0.481-5.873c0.137-0.831,0.264-1.671,0.392-2.518
		c0.319-2.11,0.649-4.292,1.148-6.52c0.719-3.211,1.444-6.115,2.217-8.878c0.525-1.876,1.194-3.68,1.841-5.425
		c0.393-1.058,0.789-2.122,1.149-3.203l0.469-1.415c0.774-2.342,1.573-4.762,2.506-7.192l0.721-1.892
		c0.812-2.143,1.652-4.36,2.614-6.575c0.83-1.912,1.988-3.529,3.009-4.957c0.757-1.058,1.472-2.057,1.93-3
		c0.504-1.037,0.92-2.214,1.36-3.461c0.596-1.686,1.212-3.429,2.149-5.169c0.478-0.889,0.944-1.786,1.409-2.68
		c0.942-1.811,1.915-3.683,2.999-5.512c1.015-1.711,2.191-3.145,3.329-4.532c0.836-1.019,1.626-1.981,2.247-2.938
		c0.587-0.904,1.087-2.045,1.617-3.253c0.697-1.591,1.488-3.395,2.671-5.066c1.13-1.596,2.367-2.995,3.562-4.348
		c0.86-0.974,1.673-1.893,2.391-2.824c1.207-1.565,2.527-2.869,3.803-4.13c0.931-0.92,1.81-1.788,2.552-2.671
		c0.708-0.843,1.358-1.911,2.045-3.04c0.9-1.476,1.919-3.15,3.288-4.647c1.491-1.629,3.043-3.144,4.544-4.608
		c0.683-0.666,1.363-1.33,2.032-1.998c1.514-1.517,3.082-2.896,4.599-4.23c0.773-0.68,1.543-1.357,2.296-2.045
		c1.491-1.361,3.033-2.497,4.523-3.596c1.002-0.737,1.948-1.434,2.82-2.157c2.591-2.146,5.173-4.096,7.357-5.721
		c2.064-1.535,4.146-2.893,6.159-4.207l1.567-1.025c0.895-0.59,1.798-1.418,2.753-2.294c1.316-1.206,2.807-2.573,4.632-3.616
		c1.891-1.081,3.856-1.751,5.59-2.343c1.165-0.397,2.267-0.773,3.195-1.219c2.769-1.329,5.634-2.705,8.632-3.845
		c3.058-1.166,6.035-1.975,8.914-2.757l1.242-0.339c2.672-0.731,5.433-1.487,8.277-1.904c0.802-0.118,1.599-0.253,2.391-0.388
		C139.265,0.411,141.687,0,144.222,0c2.485,0,4.5,2.015,4.5,4.5c0,2.486-2.015,4.5-4.5,4.5c-1.778,0-3.73,0.33-5.796,0.681
		c-0.856,0.145-1.718,0.29-2.587,0.418c-2.303,0.338-4.684,0.99-7.207,1.681l-1.26,0.343c-2.79,0.758-5.426,1.474-8.068,2.482
		c-2.647,1.008-5.34,2.3-7.944,3.55c-1.41,0.676-2.82,1.157-4.183,1.622c-1.483,0.507-2.885,0.984-4.029,1.638
		c-0.95,0.543-1.953,1.463-3.015,2.437c-1.119,1.026-2.388,2.189-3.885,3.176l-1.6,1.047c-1.9,1.239-3.864,2.52-5.705,3.89
		c-2.091,1.556-4.556,3.417-6.988,5.431c-1.069,0.887-2.164,1.692-3.222,2.473c-1.364,1.003-2.651,1.953-3.791,2.994
		c-0.795,0.725-1.607,1.441-2.424,2.159c-1.474,1.296-2.866,2.52-4.175,3.831c-0.695,0.695-1.403,1.387-2.114,2.08
		c-1.476,1.44-2.87,2.801-4.189,4.241c-0.778,0.851-1.488,2.018-2.24,3.253c-0.794,1.303-1.693,2.78-2.842,4.148
		c-1.011,1.203-2.082,2.261-3.118,3.285c-1.113,1.099-2.165,2.138-3.003,3.225c-0.901,1.167-1.851,2.243-2.771,3.284
		c-1.086,1.23-2.112,2.391-2.963,3.592c-0.652,0.922-1.196,2.163-1.772,3.477c-0.621,1.416-1.324,3.02-2.311,4.541
		c-0.894,1.377-1.882,2.582-2.839,3.747c-0.966,1.178-1.879,2.29-2.543,3.41c-0.957,1.614-1.831,3.296-2.757,5.076
		c-0.485,0.933-0.971,1.867-1.47,2.793c-0.607,1.129-1.083,2.476-1.587,3.902c-0.504,1.426-1.025,2.903-1.75,4.395
		c-0.791,1.628-1.809,3.051-2.707,4.306c-0.834,1.166-1.623,2.267-2.073,3.304c-0.877,2.02-1.678,4.134-2.453,6.179l-0.735,1.931
		c-0.857,2.229-1.622,4.546-2.362,6.786l-0.475,1.436c-0.393,1.178-0.823,2.338-1.251,3.493c-0.61,1.644-1.187,3.198-1.612,4.715
		c-0.73,2.611-1.417,5.366-2.102,8.421c-0.43,1.92-0.735,3.943-1.031,5.9c-0.134,0.885-0.267,1.763-0.41,2.632
		c-0.246,1.495-0.305,3.077-0.368,4.751c-0.047,1.248-0.095,2.537-0.226,3.846c-0.117,1.173-0.273,2.331-0.428,3.48
		c-0.241,1.78-0.468,3.461-0.511,5.036c-0.03,1.138-0.099,2.268-0.168,3.39c-0.112,1.836-0.218,3.569-0.128,5.152
		c0.188,3.325,0.461,6.09,0.833,8.454c0.251,1.596,0.807,3.223,1.395,4.946c0.342,1.002,0.696,2.039,0.999,3.102
		c0.828,2.907,1.738,5.431,2.782,7.713c1.131,2.475,2.685,4.731,4.18,6.829c1.273,1.787,2.991,3.283,4.809,4.868l0.677,0.591
		c2.253,1.973,4.067,3.405,6.141,4.435c2.101,1.044,4.562,2.205,7.174,2.767c2.149,0.462,4.551,0.466,7.337,0.458h0.52
		c2.642,0,5.399-0.256,8.674-0.806c1.513-0.255,2.978-0.313,4.395-0.371c1.693-0.068,3.293-0.133,4.602-0.535
		c1.458-0.449,3.013-1.231,4.661-2.06c1.161-0.584,2.362-1.188,3.647-1.739c1.716-0.734,3.448-1.713,5.281-2.748
		c0.922-0.52,1.851-1.044,2.799-1.552c1.457-0.779,2.932-1.339,4.358-1.881c1.534-0.584,2.984-1.135,4.144-1.87
		c1.66-1.051,3.304-2.285,5.044-3.59c0.828-0.621,1.66-1.246,2.503-1.858c1.166-0.846,2.311-1.948,3.524-3.114
		c1.071-1.03,2.179-2.096,3.427-3.112c1.275-1.04,2.6-1.904,3.881-2.739c1.381-0.899,2.687-1.75,3.748-2.708
		c1.844-1.665,4.69-1.519,6.356,0.327c1.665,1.844,1.519,4.69-0.326,6.355c-1.586,1.431-3.253,2.517-4.865,3.567
		c-1.134,0.739-2.204,1.437-3.109,2.174c-0.961,0.783-1.89,1.677-2.873,2.622c-1.38,1.327-2.806,2.7-4.476,3.911
		c-0.804,0.584-1.598,1.18-2.388,1.773c-1.804,1.354-3.669,2.754-5.63,3.995c-1.928,1.222-3.965,1.996-5.763,2.679
		c-1.213,0.462-2.36,0.897-3.308,1.405c-0.888,0.475-1.758,0.967-2.62,1.453c-1.965,1.109-3.995,2.256-6.164,3.185
		c-1.031,0.441-2.058,0.958-3.146,1.506c-1.907,0.958-3.878,1.949-6.057,2.621c-2.426,0.747-4.796,0.841-6.888,0.926
		c-1.19,0.048-2.313,0.093-3.266,0.253c-3.729,0.626-7.054,0.931-10.165,0.931h-0.514H44.868z"/>
	<path clip-path="url(#SVGID_2_)" fill="#F68E63" d="M106.639,153.432c-2.485,0-4.5-2.015-4.5-4.5c0-2.485,2.015-4.5,4.5-4.5
		c2.617,0,5.156-0.581,7.51-1.208l0.472-0.126c2.496-0.664,4.853-1.291,7.032-2.39c1.057-0.532,2.12-0.975,3.149-1.404
		c1.615-0.674,3.142-1.31,4.342-2.173c1.561-1.121,3.097-2.565,4.723-4.095c0.536-0.503,1.073-1.008,1.618-1.509
		c0.988-0.907,1.925-2.126,2.917-3.417c0.789-1.028,1.606-2.091,2.552-3.144c1.539-1.711,2.97-3.594,4.485-5.587l0.841-1.104
		c1.047-1.37,2.274-2.508,3.356-3.511c1.051-0.975,2.045-1.895,2.653-2.818l0.987-1.487c1.273-1.913,2.59-3.89,3.714-5.854
		c0.71-1.239,1.303-2.671,1.931-4.187c0.509-1.229,1.035-2.5,1.666-3.772c0.374-0.752,0.755-1.502,1.136-2.252
		c0.977-1.92,1.899-3.733,2.686-5.578c1.25-2.94,2.295-5.591,3.194-8.105c0.492-1.378,0.822-2.903,1.171-4.519
		c0.275-1.273,0.56-2.588,0.944-3.919c0.385-1.336,0.836-2.596,1.273-3.815c0.559-1.561,1.087-3.037,1.388-4.435
		c0.659-3.065,1.234-5.818,1.587-8.48c0.211-1.579,0.18-3.262,0.147-5.044c-0.021-1.137-0.042-2.314,0.001-3.506
		c0.068-1.929-0.14-3.865-0.361-5.915c-0.089-0.815-0.176-1.624-0.245-2.427c-0.117-1.336-0.125-2.593-0.133-3.809
		c-0.01-1.652-0.02-3.212-0.33-4.419c-0.558-2.173-1.635-4.236-2.777-6.42l-0.443-0.851c-1.055-2.038-2.558-3.77-4.642-5.903
		c-2.041-2.088-3.712-3.591-5.739-4.632c-2.089-1.073-4.753-1.667-7.302-2.184c-0.745-0.15-1.501-0.328-2.271-0.51
		c-1.945-0.458-3.782-0.891-5.649-0.891c-2.486,0-4.5-2.015-4.5-4.5c0-2.486,2.014-4.5,4.5-4.5c2.914,0,5.464,0.601,7.714,1.131
		c0.676,0.16,1.339,0.317,1.993,0.45c3.166,0.641,6.517,1.401,9.627,2.998c3.448,1.77,5.971,4.206,8.064,6.349
		c2.087,2.136,4.46,4.697,6.198,8.054l0.428,0.822c1.265,2.423,2.7,5.169,3.516,8.349c0.585,2.279,0.6,4.476,0.613,6.599
		c0.007,1.085,0.014,2.112,0.098,3.086c0.065,0.743,0.146,1.49,0.228,2.243c0.245,2.275,0.499,4.628,0.407,7.202
		c-0.034,0.949-0.016,1.955,0.004,3.02c0.035,1.942,0.075,4.143-0.224,6.395c-0.397,2.99-1.01,5.929-1.71,9.185
		c-0.426,1.981-1.081,3.81-1.714,5.579c-0.408,1.136-0.792,2.21-1.099,3.273c-0.299,1.037-0.539,2.149-0.794,3.327
		c-0.395,1.826-0.803,3.716-1.494,5.647c-0.958,2.682-2.066,5.495-3.388,8.599c-0.906,2.129-1.942,4.165-2.944,6.134
		c-0.368,0.725-0.736,1.447-1.096,2.173c-0.495,0.998-0.941,2.075-1.413,3.216c-0.709,1.709-1.441,3.477-2.436,5.215
		c-1.275,2.225-2.677,4.332-4.033,6.369l-0.965,1.454c-1.206,1.829-2.716,3.228-4.048,4.464c-0.897,0.831-1.743,1.616-2.323,2.375
		l-0.828,1.086c-1.558,2.05-3.17,4.17-4.956,6.158c-0.714,0.794-1.391,1.676-2.109,2.609c-1.181,1.538-2.403,3.129-3.966,4.564
		c-0.517,0.474-1.029,0.957-1.539,1.436c-1.768,1.662-3.595,3.38-5.638,4.848c-2.037,1.464-4.212,2.37-6.13,3.17
		c-0.922,0.384-1.793,0.747-2.561,1.134c-3.013,1.519-5.94,2.297-8.77,3.05l-0.465,0.124
		C113.663,152.667,110.302,153.432,106.639,153.432"/>
	<path clip-path="url(#SVGID_2_)" fill="#F68E63" d="M77.222,228.313c-1.662,0-3.26-0.925-4.042-2.517
		c-1.096-2.23-0.176-4.927,2.054-6.023c1.85-0.909,3.246-2.414,4.723-4.009c0.295-0.318,0.585-0.631,0.873-0.933
		c1.687-1.774,3.364-3.711,4.192-5.86c0.578-1.499,0.796-3.359,1.027-5.329c0.101-0.864,0.203-1.729,0.333-2.589
		c0.246-1.628,0.631-3.158,1.003-4.638c0.363-1.448,0.707-2.815,0.876-4.103c0.083-0.642,0.157-1.282,0.231-1.919
		c0.289-2.505,0.588-5.096,1.434-7.705l0.055-0.172c0.991-3.058,2.115-6.526,4.732-9.521c2.593-2.965,5.576-5.169,8.626-6.375
		c3.852-1.525,8.103-1.753,11.661-0.625c3.616,1.146,6.94,3.877,9.12,7.491c1.252,2.073,3.27,6.289,2.732,11.225
		c-0.428,3.934-2.343,7.623-3.874,10.025c-1.43,2.243-3.503,4.024-5.507,5.746c-0.46,0.395-0.93,0.799-1.402,1.217
		c-1.859,1.647-4.704,1.473-6.352-0.388c-1.647-1.861-1.474-4.705,0.387-6.352c0.506-0.448,1.009-0.88,1.502-1.304
		c1.577-1.355,3.067-2.634,3.782-3.756c1.415-2.221,2.333-4.467,2.517-6.163c0.184-1.686-0.359-3.727-1.491-5.601
		c-1.019-1.69-2.642-3.088-4.133-3.56c-1.57-0.497-3.727-0.339-5.631,0.414c-1.699,0.672-3.532,2.067-5.161,3.93
		c-1.4,1.602-2.151,3.918-2.946,6.372l-0.055,0.171c-0.57,1.757-0.806,3.801-1.056,5.964c-0.079,0.681-0.158,1.366-0.248,2.052
		c-0.235,1.808-0.66,3.496-1.07,5.13c-0.335,1.332-0.651,2.591-0.832,3.79c-0.116,0.76-0.205,1.526-0.294,2.292
		c-0.272,2.324-0.581,4.96-1.568,7.519c-1.399,3.626-3.854,6.497-6.071,8.826c-0.261,0.275-0.523,0.558-0.791,0.847
		c-1.785,1.926-4.007,4.324-7.355,5.969C78.564,228.165,77.888,228.313,77.222,228.313"/>
	<path clip-path="url(#SVGID_2_)" fill="#F68E63" d="M574.661,95.311c-2.371,0-4.355-1.853-4.489-4.249
		c-0.139-2.481,1.76-4.605,4.242-4.744c1.353-0.075,2.687-0.103,3.976-0.129c1.726-0.035,3.356-0.068,4.921-0.21
		c1.373-0.125,2.815-0.452,4.341-0.8c1.408-0.32,2.865-0.651,4.4-0.853c1.609-0.212,3.217-0.577,4.92-0.963
		c1.205-0.274,2.452-0.556,3.72-0.785c1.532-0.279,2.996-0.414,4.412-0.546c1.559-0.146,3.031-0.284,4.303-0.593
		c1.601-0.391,3.183-0.996,4.857-1.637c1.085-0.416,2.209-0.845,3.362-1.222c1.467-0.48,2.875-0.79,4.237-1.089
		c1.535-0.339,2.986-0.659,4.097-1.153c2.607-1.163,5.127-2.757,7.35-4.165c1.374-0.87,2.584-2.179,3.866-3.567
		c0.625-0.677,1.271-1.377,1.964-2.055c0.569-0.555,1.151-1.093,1.729-1.626c1.538-1.417,2.866-2.64,3.595-3.96
		c1.202-2.175,3.938-2.965,6.115-1.763c2.175,1.201,2.965,3.939,1.764,6.115c-1.436,2.598-3.529,4.526-5.376,6.227
		c-0.513,0.473-1.03,0.948-1.532,1.44c-0.558,0.546-1.099,1.134-1.648,1.728c-1.543,1.671-3.291,3.564-5.662,5.066
		c-2.484,1.571-5.297,3.351-8.502,4.781c-1.946,0.867-3.918,1.301-5.825,1.721c-1.2,0.264-2.334,0.513-3.375,0.854
		c-0.942,0.308-1.913,0.68-2.942,1.073c-1.862,0.713-3.788,1.451-5.942,1.976c-1.914,0.466-3.787,0.641-5.6,0.81
		c-1.282,0.119-2.493,0.232-3.642,0.44c-1.076,0.195-2.173,0.443-3.334,0.707c-1.827,0.414-3.716,0.843-5.738,1.109
		c-1.12,0.147-2.313,0.418-3.577,0.706c-1.747,0.397-3.553,0.808-5.524,0.987c-1.879,0.171-3.745,0.209-5.55,0.245
		c-1.267,0.026-2.464,0.051-3.658,0.117C574.831,95.309,574.745,95.311,574.661,95.311"/>
	<path clip-path="url(#SVGID_2_)" fill="#F68E63" d="M542.482,95.284c-0.385,0-0.772-0.007-1.166-0.021
		c-1.866-0.065-3.614-0.369-5.304-0.662c-1.402-0.243-2.727-0.473-3.979-0.539c-1.161-0.066-2.467,0.05-3.849,0.168
		c-1.75,0.151-3.559,0.308-5.514,0.172c-1.744-0.118-3.466-0.323-5.133-0.521c-1.43-0.17-2.781-0.331-4.143-0.442
		c-1.726-0.14-3.431-0.364-5.078-0.581c-1.439-0.189-2.799-0.368-4.171-0.496c-1.175-0.108-2.5-0.046-3.901,0.024
		c-1.736,0.084-3.53,0.17-5.451-0.028c-1.776-0.183-3.458-0.528-5.086-0.862c-1.434-0.294-2.789-0.571-4.103-0.719
		c-1.746-0.195-3.417-0.528-5.032-0.85c-1.443-0.289-2.806-0.56-4.144-0.721c-1.356-0.162-2.742-0.26-4.211-0.362
		c-1.636-0.115-3.328-0.232-5.051-0.452c-1.7-0.215-3.347-0.533-4.94-0.838c-1.466-0.283-2.849-0.548-4.226-0.732
		c-1.719-0.229-3.438-0.484-5.162-0.739c-1.34-0.198-2.684-0.398-4.033-0.585c-1.354-0.188-2.754-0.294-4.236-0.406
		c-1.622-0.123-3.299-0.25-5.014-0.496c-1.64-0.236-3.279-0.503-4.92-0.772c-1.413-0.23-2.829-0.462-4.251-0.673
		c-2.458-0.363-4.156-2.65-3.793-5.109c0.364-2.459,2.657-4.158,5.11-3.793c1.466,0.217,2.927,0.455,4.386,0.693
		c1.583,0.259,3.165,0.518,4.747,0.745c1.416,0.203,2.873,0.314,4.416,0.431c1.553,0.117,3.16,0.239,4.793,0.466
		c1.375,0.19,2.746,0.393,4.114,0.596c1.68,0.249,3.356,0.498,5.032,0.72c1.633,0.218,3.211,0.522,4.736,0.816
		c1.523,0.292,2.96,0.568,4.375,0.749c1.471,0.186,2.963,0.291,4.544,0.401c1.513,0.105,3.078,0.215,4.657,0.404
		c1.684,0.202,3.285,0.522,4.832,0.83c1.496,0.299,2.908,0.58,4.272,0.734c1.721,0.192,3.342,0.524,4.909,0.846
		c1.477,0.302,2.872,0.588,4.201,0.725c1.244,0.129,2.628,0.063,4.095-0.01c1.652-0.078,3.36-0.163,5.166,0.006
		c1.544,0.143,3.054,0.342,4.514,0.533c1.609,0.212,3.13,0.412,4.633,0.535c1.531,0.125,3.029,0.302,4.477,0.475
		c1.627,0.194,3.164,0.376,4.68,0.48c1.262,0.084,2.66-0.034,4.138-0.161c1.625-0.139,3.305-0.282,5.088-0.189
		c1.789,0.095,3.444,0.382,5.044,0.659c1.456,0.253,2.832,0.492,4.085,0.536c1.449,0.051,2.94-0.044,4.522-0.143
		c1.502-0.097,3.053-0.196,4.65-0.169c2.486,0.038,4.469,2.084,4.43,4.568c-0.037,2.461-2.045,4.431-4.498,4.431
		c-0.146,0.001-0.291-0.002-0.439-0.003c-1.132,0-2.322,0.075-3.573,0.154C545.356,95.194,543.948,95.284,542.482,95.284"/>
	<path clip-path="url(#SVGID_2_)" fill="#F68E63" d="M409.307,79.988c-0.229,0-0.46-0.018-0.694-0.054
		c-1.609-0.249-3.08-0.664-4.378-1.03c-1.173-0.331-2.282-0.645-3.234-0.759c-1.413-0.17-2.801-0.351-4.192-0.533
		c-1.223-0.16-2.447-0.32-3.691-0.473c-0.944-0.116-1.901-0.2-2.877-0.287c-1.643-0.146-3.343-0.298-5.178-0.592
		c-1.316-0.21-2.709-0.307-4.184-0.409c-1.615-0.112-3.285-0.227-5.006-0.505c-1.682-0.27-3.289-0.652-4.843-1.021
		c-1.454-0.346-2.827-0.672-4.175-0.89c-1.336-0.216-2.738-0.327-4.223-0.444c-1.597-0.126-3.249-0.257-4.941-0.53
		c-1.717-0.279-3.334-0.692-4.898-1.091c-1.434-0.366-2.789-0.712-4.101-0.924c-1.392-0.225-2.821-0.368-4.333-0.521
		c-1.56-0.157-3.173-0.32-4.807-0.582c-1.774-0.285-3.412-0.747-4.995-1.194c-1.399-0.394-2.721-0.768-3.972-0.967
		c-1.266-0.201-2.647-0.255-4.108-0.312c-1.635-0.064-3.327-0.13-5.087-0.406c-1.789-0.282-3.574-0.552-5.355-0.822
		c-1.246-0.189-2.49-0.378-3.731-0.569c-1.83-0.282-3.489-0.782-5.094-1.267c-1.37-0.412-2.664-0.802-3.86-0.983
		c-1.295-0.195-2.691-0.251-4.17-0.311c-1.614-0.064-3.282-0.13-5.01-0.384c-1.675-0.247-3.268-0.605-4.809-0.95
		c-1.47-0.329-2.858-0.64-4.207-0.833c-1.439-0.206-2.906-0.326-4.459-0.454c-1.52-0.125-3.093-0.254-4.68-0.471
		c-1.644-0.226-3.221-0.544-4.746-0.853c-1.498-0.303-2.912-0.589-4.294-0.769c-1.207-0.161-2.571-0.122-4.013-0.081
		c-1.662,0.044-3.381,0.093-5.199-0.132c-1.382-0.171-2.753-0.36-4.117-0.548c-1.663-0.229-3.316-0.457-4.964-0.647
		c-1.517-0.174-3.005-0.394-4.444-0.607c-1.605-0.236-3.121-0.461-4.626-0.618c-1.706-0.18-3.309-0.492-4.86-0.795
		c-1.475-0.288-2.869-0.561-4.188-0.684c-1.383-0.13-2.837-0.112-4.372-0.094c-1.544,0.019-3.143,0.037-4.788-0.094
		c-0.996-0.079-1.986-0.162-2.971-0.245c-2.065-0.173-4.106-0.345-6.126-0.472c-1.638-0.104-3.26-0.12-4.979-0.138
		c-1.348-0.013-2.742-0.027-4.131-0.088c-2.483-0.108-4.409-2.209-4.3-4.692c0.108-2.482,2.215-4.416,4.691-4.3
		c1.265,0.056,2.543,0.068,3.832,0.081c1.76,0.018,3.579,0.036,5.453,0.155c2.08,0.13,4.184,0.307,6.312,0.485
		c0.972,0.082,1.949,0.164,2.932,0.241c1.237,0.1,2.566,0.083,3.972,0.067c1.7-0.019,3.459-0.04,5.31,0.133
		c1.767,0.164,3.45,0.493,5.078,0.811c1.422,0.278,2.765,0.54,4.074,0.678c1.693,0.177,3.375,0.425,5.002,0.666
		c1.369,0.202,2.784,0.411,4.158,0.569c1.714,0.197,3.434,0.434,5.164,0.673c1.323,0.181,2.653,0.365,3.993,0.531
		c1.142,0.141,2.455,0.105,3.846,0.066c1.65-0.043,3.518-0.095,5.431,0.155c1.69,0.221,3.325,0.552,4.906,0.872
		c1.453,0.293,2.826,0.57,4.189,0.758c1.343,0.184,2.727,0.297,4.192,0.418c1.617,0.132,3.289,0.269,4.996,0.513
		c1.698,0.243,3.326,0.608,4.9,0.961c1.445,0.323,2.81,0.629,4.154,0.827c1.253,0.185,2.615,0.24,4.056,0.297
		c1.658,0.066,3.371,0.134,5.159,0.405c1.831,0.277,3.498,0.779,5.11,1.264c1.369,0.413,2.662,0.803,3.871,0.989l3.706,0.566
		c1.797,0.272,3.598,0.545,5.403,0.829c1.239,0.194,2.601,0.247,4.041,0.304c1.66,0.065,3.376,0.132,5.169,0.417
		c1.774,0.282,3.417,0.746,5.005,1.194c1.398,0.395,2.718,0.768,3.975,0.969c1.373,0.22,2.788,0.363,4.285,0.513
		c1.576,0.16,3.207,0.324,4.863,0.591c1.714,0.277,3.331,0.69,4.895,1.089c1.435,0.366,2.79,0.713,4.109,0.926
		c1.329,0.216,2.73,0.326,4.212,0.443c1.599,0.126,3.253,0.257,4.95,0.531c1.673,0.271,3.272,0.651,4.819,1.018
		c1.46,0.348,2.84,0.675,4.195,0.894c1.317,0.212,2.715,0.308,4.195,0.411c1.609,0.111,3.273,0.226,4.986,0.501
		c1.524,0.244,3.065,0.381,4.554,0.513c1.076,0.096,2.132,0.192,3.172,0.319c1.268,0.155,2.517,0.319,3.764,0.482
		c1.36,0.178,2.719,0.356,4.1,0.522c1.647,0.198,3.15,0.622,4.603,1.032c1.153,0.325,2.243,0.633,3.311,0.798
		c2.456,0.381,4.139,2.679,3.758,5.135C413.405,78.398,411.489,79.987,409.307,79.988"/>
	<path clip-path="url(#SVGID_2_)" fill="#F68E63" d="M106.639,154.471c-3.952,0-7.429-0.467-10.333-1.387
		c-3.319-1.051-5.756-3.21-7.715-4.943c-0.395-0.35-0.785-0.695-1.176-1.024c-0.428-0.361-0.872-0.715-1.319-1.072
		c-2.137-1.705-4.558-3.637-6.121-6.61c-1.3-2.475-1.526-5.102-1.725-7.42c-0.084-0.974-0.163-1.893-0.312-2.719
		c-0.134-0.743-0.391-1.608-0.664-2.525c-0.63-2.119-1.344-4.522-1.202-7.3c0.168-3.259,0.9-6.565,1.635-9.673
		c0.761-3.211,1.998-6.39,3.099-9.119c1.062-2.636,2.336-5.696,4.009-8.653c1.085-1.917,2.542-3.464,3.827-4.828
		c0.814-0.864,1.582-1.68,2.187-2.503c0.536-0.729,1.045-1.673,1.584-2.674c0.905-1.678,1.93-3.579,3.502-5.291
		c1.897-2.067,4.102-4.213,6.743-6.56c1.702-1.513,3.549-2.808,5.335-4.062c0.722-0.506,1.447-1.015,2.165-1.54l1.234-0.91
		c2.01-1.485,4.088-3.021,6.409-4.423c2.781-1.679,5.701-3.168,8.191-4.404c0.848-0.421,1.695-0.875,2.55-1.333
		c1.812-0.968,3.686-1.971,5.766-2.81c2.538-1.025,5.394-2.044,8.733-3.119c1.987-0.641,3.976-0.7,5.731-0.751
		c1.17-0.035,2.275-0.069,3.206-0.264c0.896-0.187,1.839-0.442,2.838-0.712c1.696-0.457,3.617-0.975,5.692-1.254
		c1.903-0.255,3.83-0.368,5.694-0.478c0.971-0.057,1.956-0.115,2.952-0.195c2.219-0.174,4.402-0.25,6.713-0.329l1.894-0.067
		c2.481-0.087,4.572,1.844,4.666,4.328c0.094,2.483-1.844,4.572-4.327,4.666l-1.924,0.068c-2.208,0.076-4.294,0.147-6.31,0.307
		c-1.057,0.084-2.103,0.145-3.135,0.206c-1.778,0.106-3.457,0.204-5.028,0.414c-1.492,0.2-2.973,0.601-4.542,1.024
		c-1.077,0.29-2.189,0.59-3.335,0.831c-1.712,0.359-3.346,0.408-4.787,0.45c-1.269,0.038-2.467,0.073-3.239,0.322
		c-3.132,1.009-5.789,1.957-8.125,2.898c-1.629,0.659-3.211,1.504-4.887,2.401c-0.937,0.502-1.866,0.998-2.796,1.46
		c-2.325,1.153-5.039,2.536-7.538,4.045c-1.961,1.184-3.868,2.594-5.713,3.958l-1.266,0.932c-0.767,0.562-1.542,1.106-2.313,1.647
		c-1.65,1.158-3.21,2.252-4.525,3.421c-2.41,2.142-4.403,4.079-6.092,5.919c-0.813,0.885-1.491,2.143-2.209,3.475
		c-0.662,1.229-1.347,2.499-2.255,3.734c-0.929,1.265-1.97,2.37-2.888,3.343c-1.026,1.09-1.996,2.12-2.545,3.089
		c-1.403,2.481-2.496,5.109-3.495,7.587c-0.978,2.425-2.072,5.228-2.688,7.827c-0.64,2.705-1.276,5.556-1.405,8.063
		c-0.063,1.233,0.376,2.709,0.841,4.27c0.33,1.112,0.672,2.261,0.894,3.494c0.223,1.237,0.324,2.412,0.422,3.546
		c0.138,1.614,0.269,3.136,0.725,4.003c0.685,1.304,2.182,2.498,3.768,3.764c0.51,0.407,1.016,0.812,1.504,1.223
		c0.446,0.376,0.891,0.769,1.342,1.168c1.526,1.351,2.968,2.627,4.469,3.102c1.995,0.633,4.628,0.967,7.614,0.967
		c2.485,0,4.5,2.015,4.5,4.5C111.139,152.456,109.124,154.471,106.639,154.471"/>
	<path clip-path="url(#SVGID_2_)" fill="#F68E63" d="M564.74,270.172c-1.048,0-2.091-0.014-3.115-0.028
		c-1.144-0.014-2.292-0.028-3.45-0.027c-1.951,0.046-3.748-0.336-5.36-0.638c-1.308-0.245-2.544-0.478-3.643-0.498
		c-0.994-0.026-2.17,0.194-3.431,0.419c-1.672,0.298-3.565,0.627-5.605,0.559c-1.734-0.065-3.403-0.286-5.017-0.499
		c-1.376-0.183-2.675-0.353-3.942-0.423c-1.764-0.095-3.427-0.38-5.037-0.655c-1.363-0.233-2.652-0.454-3.885-0.539
		c-1.05-0.074-2.286,0.054-3.595,0.187c-1.636,0.166-3.49,0.355-5.433,0.198c-1.987-0.161-3.797-0.736-5.392-1.242
		c-1.247-0.395-2.426-0.769-3.425-0.862c-1.293-0.119-2.599-0.194-3.982-0.274c-1.604-0.093-3.263-0.189-4.949-0.362
		c-1.085-0.11-2.344-0.036-3.675,0.04c-1.615,0.095-3.445,0.201-5.334-0.007c-1.752-0.196-3.383-0.576-4.96-0.944
		c-1.357-0.317-2.638-0.616-3.856-0.76c-1.151-0.138-2.439-0.121-3.804-0.101c-1.653,0.023-3.362,0.046-5.179-0.183
		c-1.612-0.203-3.198-0.473-4.732-0.735c-1.42-0.242-2.762-0.471-4.113-0.649c-1.666-0.22-3.257-0.559-4.796-0.887
		c-1.396-0.298-2.715-0.579-4.009-0.757c-1.715-0.236-3.319-0.633-4.87-1.017c-1.367-0.337-2.657-0.657-3.896-0.833
		c-1.309-0.186-2.66-0.297-4.09-0.417c-1.555-0.129-3.163-0.262-4.805-0.503c-1.306-0.19-2.657-0.302-4.088-0.421
		c-1.555-0.129-3.163-0.263-4.806-0.509c-1.828-0.275-3.657-0.558-5.488-0.842l-3.341-0.516c-1.649-0.253-3.221-0.62-4.741-0.974
		c-1.398-0.327-2.719-0.636-4.012-0.837c-1.398-0.218-2.8-0.416-4.203-0.613c-1.543-0.219-3.087-0.437-4.629-0.68
		c-1.167-0.185-2.473-0.217-3.856-0.251c-1.627-0.04-3.31-0.081-5.082-0.364c-1.805-0.287-3.428-0.806-4.999-1.307
		c-1.305-0.416-2.538-0.81-3.669-0.991c-1.187-0.192-2.502-0.236-3.894-0.283c-1.613-0.055-3.282-0.112-5.031-0.394
		c-1.755-0.284-3.358-0.76-4.908-1.22c-1.333-0.395-2.592-0.769-3.771-0.96c-1.192-0.193-2.511-0.239-3.908-0.289
		c-1.608-0.056-3.27-0.115-5.011-0.396c-1.718-0.278-3.306-0.72-4.842-1.148c-1.356-0.378-2.635-0.734-3.85-0.93
		c-1.502-0.242-3.005-0.468-4.506-0.695c-1.435-0.215-2.868-0.432-4.298-0.661c-1.172-0.187-2.486-0.215-3.877-0.244
		c-1.617-0.034-3.289-0.07-5.047-0.349c-1.574-0.249-3.145-0.484-4.713-0.719c-1.366-0.205-2.729-0.41-4.089-0.622
		c-1.258-0.198-2.513-0.398-3.766-0.598c-1.678-0.268-3.352-0.534-5.024-0.791c-1.666-0.256-3.329-0.499-4.987-0.741
		c-1.274-0.186-2.545-0.371-3.812-0.562c-1.503-0.226-2.991-0.492-4.47-0.758c-1.413-0.252-2.817-0.504-4.219-0.713
		c-1.455-0.217-2.897-0.462-4.33-0.706c-1.46-0.249-2.91-0.497-4.356-0.707c-1.756-0.255-3.348-0.702-4.887-1.132
		c-1.319-0.369-2.564-0.718-3.703-0.877c-1.335-0.188-2.723-0.26-4.193-0.336c-1.481-0.077-3.011-0.157-4.572-0.363
		c-1.266-0.166-2.521-0.345-3.768-0.524c-1.652-0.236-3.288-0.472-4.91-0.666c-1.542-0.184-3.147-0.299-4.698-0.409
		c-1.352-0.097-2.691-0.194-4.014-0.331c-3.222-0.334-6.058-0.602-8.67-0.818c-1.676-0.138-3.22-0.435-4.713-0.723
		c-1.399-0.271-2.721-0.525-3.908-0.59c-1.163-0.066-2.482,0.127-3.881,0.329c-1.524,0.221-3.097,0.453-4.798,0.417
		c-2.483-0.041-4.948,0.038-7.331,0.117l-1.227,0.04c-1.379,0.042-2.69,0.011-3.956-0.02c-1.623-0.039-3.158-0.077-4.538,0.058
		c-1.929,0.193-3.798,0.595-5.778,1.021c-0.823,0.177-1.637,0.351-2.445,0.51c-1.379,0.269-2.682,0.41-3.943,0.546
		c-1.576,0.171-3.064,0.332-4.212,0.719c-2.723,0.917-5.344,1.838-7.483,3.028c-2.285,1.27-4.435,3.127-6.236,4.776
		c-1.059,0.968-1.955,2.477-2.903,4.073c-0.456,0.768-0.915,1.538-1.404,2.289c-1.357,2.083-4.145,2.672-6.227,1.313
		c-2.082-1.357-2.67-4.145-1.313-6.227c0.421-0.646,0.814-1.31,1.206-1.971c1.183-1.992,2.524-4.25,4.566-6.118
		c2.186-2.001,4.839-4.278,7.937-6.001c2.805-1.559,5.85-2.635,8.983-3.691c2.078-0.7,4.132-0.922,6.118-1.138
		c1.123-0.121,2.184-0.235,3.186-0.431c0.752-0.147,1.51-0.311,2.277-0.476c2.136-0.459,4.345-0.935,6.781-1.177
		c1.935-0.194,3.824-0.144,5.65-0.1c1.195,0.029,2.326,0.056,3.45,0.021l1.213-0.039c2.496-0.083,5.077-0.17,7.79-0.12
		c0.987,0.033,2.127-0.149,3.35-0.326c1.692-0.245,3.608-0.519,5.662-0.408c1.796,0.098,3.485,0.423,5.118,0.738
		c1.316,0.254,2.559,0.494,3.75,0.593c2.676,0.22,5.573,0.494,8.857,0.835c1.228,0.127,2.472,0.214,3.727,0.304
		c1.657,0.118,3.37,0.242,5.126,0.451c1.691,0.203,3.396,0.446,5.117,0.693c1.212,0.174,2.432,0.348,3.664,0.51
		c1.211,0.159,2.502,0.226,3.869,0.297c1.597,0.083,3.25,0.17,4.971,0.412c1.737,0.242,3.337,0.69,4.884,1.124
		c1.323,0.37,2.573,0.72,3.755,0.892c1.516,0.221,3.038,0.48,4.571,0.74c1.371,0.234,2.751,0.469,4.144,0.676
		c1.512,0.226,3.022,0.496,4.482,0.758c1.397,0.25,2.801,0.503,4.22,0.716c1.254,0.188,2.512,0.372,3.773,0.556
		c1.681,0.246,3.366,0.492,5.055,0.75c1.689,0.26,3.38,0.531,5.075,0.801c1.243,0.199,2.49,0.397,3.739,0.592
		c1.341,0.21,2.686,0.412,4.033,0.614c1.593,0.239,3.189,0.479,4.786,0.732c1.152,0.182,2.453,0.21,3.829,0.239
		c1.634,0.034,3.324,0.07,5.108,0.356c1.403,0.223,2.81,0.436,4.219,0.648c1.53,0.23,3.064,0.462,4.596,0.709
		c1.712,0.275,3.299,0.718,4.833,1.145c1.358,0.378,2.64,0.736,3.862,0.933c1.186,0.191,2.501,0.238,3.893,0.287
		c1.613,0.057,3.28,0.115,5.029,0.399c1.749,0.283,3.348,0.757,4.894,1.216c1.336,0.397,2.599,0.772,3.783,0.963
		c1.187,0.192,2.505,0.237,3.9,0.284c1.609,0.055,3.272,0.111,5.016,0.391c1.798,0.289,3.415,0.805,4.978,1.304
		c1.31,0.418,2.547,0.812,3.681,0.993c1.177,0.188,2.493,0.221,3.885,0.255c1.614,0.04,3.283,0.081,5.038,0.357
		c1.494,0.237,2.99,0.448,4.485,0.658c1.445,0.205,2.889,0.409,4.329,0.633c1.626,0.253,3.176,0.616,4.674,0.965
		c1.416,0.331,2.753,0.643,4.057,0.843l3.356,0.518c1.818,0.282,3.633,0.563,5.446,0.835c1.348,0.203,2.74,0.319,4.214,0.441
		c1.506,0.125,3.063,0.254,4.647,0.486c1.363,0.199,2.763,0.316,4.247,0.439c1.495,0.124,3.042,0.252,4.612,0.475
		c1.69,0.24,3.266,0.63,4.79,1.007c1.385,0.343,2.692,0.666,3.935,0.837c1.621,0.223,3.165,0.552,4.658,0.87
		c1.433,0.306,2.786,0.594,4.099,0.768c1.518,0.2,3.007,0.454,4.448,0.699c1.506,0.257,2.928,0.499,4.344,0.678
		c1.194,0.151,2.524,0.132,3.931,0.112c1.598-0.019,3.249-0.044,4.991,0.163c1.713,0.204,3.301,0.575,4.837,0.934
		c1.382,0.322,2.688,0.627,3.909,0.762c1.131,0.124,2.434,0.049,3.815-0.031c1.63-0.096,3.314-0.194,5.116-0.009
		c1.488,0.153,2.977,0.239,4.553,0.329c1.397,0.081,2.844,0.164,4.292,0.299c1.965,0.182,3.745,0.746,5.315,1.244
		c1.25,0.397,2.432,0.772,3.401,0.85c1.119,0.095,2.419-0.041,3.793-0.181c1.551-0.158,3.31-0.336,5.122-0.212
		c1.687,0.116,3.264,0.386,4.788,0.647c1.42,0.243,2.761,0.472,4.006,0.54c1.613,0.087,3.148,0.29,4.633,0.486
		c1.473,0.195,2.865,0.379,4.179,0.428c1.067,0.049,2.34-0.185,3.684-0.426c1.557-0.276,3.338-0.597,5.179-0.556
		c1.852,0.034,3.595,0.361,5.134,0.65c1.328,0.249,2.584,0.484,3.646,0.484c0.123-0.006,0.286-0.001,0.43-0.001
		c1.07,0,2.136,0.015,3.196,0.029c1.815,0.024,3.531,0.048,5.211-0.002c1.507-0.045,3.036-0.223,4.655-0.411
		c1.331-0.155,2.708-0.315,4.105-0.4c1.141-0.07,2.276-0.119,3.402-0.167c1.874-0.081,3.642-0.156,5.346-0.325
		c1.017-0.101,2.032-0.187,3.038-0.272c1.986-0.169,3.863-0.329,5.648-0.589c2.24-0.328,4.495-0.805,6.676-1.266l1.848-0.389
		c1.308-0.27,2.671-0.832,4.114-1.426c1.268-0.523,2.58-1.064,3.999-1.471c2.387-0.683,4.881,0.697,5.566,3.086
		c0.685,2.389-0.697,4.881-3.086,5.566c-0.935,0.268-1.962,0.692-3.049,1.139c-1.681,0.693-3.586,1.479-5.724,1.921l-1.804,0.379
		c-2.318,0.49-4.717,0.998-7.241,1.367c-2.052,0.299-4.153,0.477-6.185,0.65c-0.965,0.082-1.939,0.165-2.916,0.262
		c-1.951,0.192-3.93,0.277-5.843,0.359c-1.074,0.046-2.156,0.093-3.244,0.16c-1.148,0.069-2.343,0.209-3.61,0.355
		c-1.737,0.202-3.533,0.411-5.43,0.468C566.397,270.163,565.566,270.172,564.74,270.172"/>
	<path clip-path="url(#SVGID_2_)" fill="#F68E63" d="M949.745,105.067c-0.082,0-0.163,0-0.245-0.001
		c-1.991-0.029-3.827-0.329-5.603-0.619c-1.309-0.214-2.547-0.417-3.692-0.477c-1.12-0.059-2.237-0.097-3.353-0.135
		c-1.932-0.066-3.929-0.134-5.936-0.309c-1.922-0.168-3.69-0.563-5.4-0.945c-1.321-0.296-2.568-0.575-3.747-0.712
		c-1.155-0.136-2.308-0.252-3.46-0.368c-1.863-0.189-3.791-0.384-5.722-0.657c-1.244-0.175-2.567-0.244-3.965-0.316
		c-1.688-0.087-3.433-0.178-5.24-0.465c-1.814-0.289-3.482-0.77-5.096-1.236c-1.355-0.391-2.636-0.761-3.855-0.969
		c-1.39-0.236-2.788-0.442-4.186-0.649c-1.621-0.241-3.245-0.482-4.865-0.765c-1.145-0.2-2.469-0.221-3.872-0.241
		c-1.691-0.027-3.438-0.053-5.292-0.374c-1.494-0.259-2.968-0.57-4.392-0.87c-1.567-0.33-3.049-0.643-4.543-0.89
		c-0.959-0.158-1.92-0.32-2.882-0.483c-2.013-0.34-4.035-0.682-6.074-0.991l-1.487-0.225c-2.446-0.371-4.974-0.755-7.473-1.084
		c-1.594-0.211-3.218-0.339-4.937-0.475c-1.349-0.106-2.703-0.213-4.058-0.36c-2.07-0.225-4.139-0.382-6.329-0.548
		c-0.879-0.067-1.762-0.135-2.648-0.206c-1.625-0.132-3.159-0.416-4.643-0.691c-1.513-0.279-2.942-0.543-4.293-0.612
		c-1.265-0.064-2.537-0.166-3.816-0.269c-1.791-0.145-3.483-0.282-5.176-0.314c-1.145-0.021-2.446,0.215-3.844,0.465
		c-1.545,0.275-3.295,0.588-5.144,0.615c-1.807,0.02-3.455-0.228-5.056-0.474c-1.434-0.221-2.792-0.434-3.961-0.371
		c-1.226,0.059-2.465,0.086-3.712,0.113c-1.834,0.04-3.566,0.077-5.295,0.22c-0.988,0.082-2.211,0.495-3.505,0.932
		c-1.565,0.528-3.339,1.127-5.303,1.358c-1.77,0.206-3.434,0.131-5.045,0.057c-1.457-0.066-2.832-0.13-4.011,0.049
		c-1.166,0.175-2.467,0.605-3.844,1.061c-1.53,0.505-3.113,1.029-4.882,1.353c-1.671,0.306-3.28,0.389-4.837,0.469
		c-1.499,0.077-2.914,0.15-4.171,0.42c-2.428,0.517-4.822-1.024-5.343-3.455c-0.523-2.43,1.025-4.823,3.455-5.344
		c1.962-0.422,3.892-0.522,5.596-0.608c1.328-0.07,2.582-0.134,3.68-0.335c1.155-0.211,2.379-0.617,3.676-1.045
		c1.675-0.554,3.407-1.127,5.333-1.416c2.05-0.309,4.019-0.218,5.758-0.14c1.309,0.061,2.546,0.115,3.59-0.006
		c1.025-0.12,2.211-0.52,3.468-0.945c1.667-0.563,3.558-1.201,5.643-1.374c2.002-0.166,3.955-0.208,5.843-0.249
		c1.166-0.026,2.324-0.05,3.47-0.106c2.075-0.099,4.036,0.2,5.763,0.465c1.293,0.198,2.511,0.395,3.561,0.371
		c1.116-0.015,2.367-0.239,3.692-0.475c1.683-0.302,3.582-0.653,5.596-0.603c1.97,0.037,3.881,0.192,5.729,0.341
		c1.19,0.096,2.373,0.191,3.551,0.252c1.944,0.099,3.736,0.431,5.47,0.751c1.32,0.244,2.568,0.474,3.736,0.569
		c0.87,0.07,1.737,0.137,2.602,0.202c2.164,0.165,4.403,0.335,6.616,0.576c1.267,0.136,2.533,0.236,3.795,0.335
		c1.759,0.139,3.58,0.283,5.407,0.524c2.586,0.341,5.159,0.731,7.647,1.109l1.481,0.225c2.09,0.315,4.164,0.666,6.229,1.015
		c0.951,0.161,1.9,0.321,2.848,0.477c1.691,0.279,3.34,0.627,4.934,0.963c1.408,0.298,2.739,0.578,4.073,0.81
		c1.157,0.2,2.484,0.22,3.889,0.242c1.693,0.025,3.441,0.051,5.289,0.375c1.542,0.27,3.087,0.498,4.63,0.726
		c1.464,0.217,2.925,0.433,4.381,0.681c1.718,0.293,3.305,0.751,4.839,1.194c1.413,0.408,2.748,0.793,4.014,0.994
		c1.336,0.213,2.771,0.288,4.291,0.366c1.532,0.08,3.117,0.162,4.757,0.392c1.756,0.248,3.512,0.426,5.372,0.614
		c1.198,0.122,2.398,0.243,3.599,0.383c1.642,0.193,3.178,0.535,4.664,0.868c1.489,0.332,2.894,0.647,4.22,0.762
		c1.769,0.155,3.562,0.216,5.46,0.281c1.171,0.039,2.345,0.081,3.521,0.142c1.636,0.087,3.178,0.339,4.669,0.583
		c1.52,0.248,2.955,0.482,4.281,0.501c1.157,0.014,2.516-0.223,3.95-0.477c1.508-0.267,3.217-0.571,5.007-0.619
		c1.558-0.042,3.051,0.054,4.497,0.147c1.583,0.1,3.078,0.199,4.475,0.099c1.409-0.097,2.905-0.378,4.489-0.673
		c1.398-0.262,2.845-0.533,4.371-0.705c1.51-0.173,2.98-0.217,4.403-0.26c1.611-0.048,3.131-0.094,4.551-0.319
		c0.996-0.158,2.003-0.302,3.016-0.449c1.934-0.278,3.935-0.566,5.85-0.953c1.842-0.372,3.709-0.855,5.686-1.366
		c1.006-0.26,2.017-0.522,3.036-0.772c1.217-0.298,2.528-0.838,3.917-1.41c1.429-0.589,2.906-1.197,4.546-1.668
		c2.392-0.682,4.881,0.697,5.566,3.086c0.685,2.39-0.697,4.882-3.086,5.567c-1.156,0.331-2.343,0.819-3.598,1.336
		c-1.636,0.674-3.328,1.372-5.203,1.832c-0.982,0.24-1.957,0.492-2.926,0.743c-2.004,0.517-4.077,1.053-6.155,1.473
		c-2.165,0.438-4.293,0.744-6.351,1.04c-0.971,0.14-1.936,0.279-2.891,0.43c-1.984,0.315-3.867,0.371-5.687,0.426
		c-1.295,0.039-2.519,0.076-3.656,0.205c-1.207,0.138-2.435,0.367-3.736,0.61c-1.765,0.33-3.59,0.671-5.515,0.806
		c-1.996,0.14-3.869,0.019-5.679-0.097c-1.302-0.083-2.532-0.155-3.678-0.132c-1.12,0.031-2.361,0.251-3.677,0.485
		C953.518,104.741,951.676,105.067,949.745,105.067"/>
	<path clip-path="url(#SVGID_2_)" fill="#F68E63" d="M668.196,265.185c-1.761,0-3.479-0.124-5.146-0.372
		c-3.757-0.559-6.646-2.368-8.967-3.822c-0.312-0.196-0.62-0.389-0.928-0.577c-3.524-2.157-5.989-4.66-7.757-7.876
		c-0.196-0.359-0.402-0.718-0.609-1.082c-1.409-2.468-3.164-5.542-3.265-9.478c-0.077-2.945,0.853-5.679,1.751-8.322
		c0.232-0.679,0.467-1.369,0.686-2.075c0.928-2.979,2.263-5.981,4.082-9.177c0.403-0.709,0.799-1.531,1.22-2.4
		c0.932-1.927,1.988-4.111,3.634-6.203l0.539-0.685c1.764-2.247,3.588-4.572,5.628-6.693c1.557-1.617,3.328-2.86,4.891-3.958
		c0.97-0.68,1.887-1.324,2.667-1.989c0.803-0.686,1.598-1.503,2.44-2.369c1.379-1.418,2.804-2.885,4.601-4.147
		c1.795-1.258,3.733-2.082,5.443-2.808c1.139-0.484,2.214-0.941,3.117-1.464c2.507-1.452,5.078-2.683,7.565-3.873l1.736-0.834
		c2.45-1.18,4.984-2.4,7.656-3.465c1.941-0.774,3.884-1.35,5.763-1.906c1.045-0.31,2.095-0.619,3.138-0.966
		c1.048-0.348,2.152-0.87,3.322-1.423c1.578-0.745,3.366-1.591,5.34-2.139c1.124-0.312,2.266-0.695,3.474-1.099
		c1.736-0.582,3.53-1.183,5.444-1.631c1.97-0.46,3.916-0.524,5.634-0.58c1.332-0.044,2.589-0.086,3.661-0.298
		c1.178-0.234,2.408-0.601,3.71-0.989c1.662-0.496,3.381-1.009,5.252-1.327c1.254-0.214,2.504-0.468,3.756-0.721
		c1.715-0.346,3.489-0.704,5.306-0.976c1.74-0.258,3.46-0.41,5.122-0.555c1.399-0.122,2.72-0.238,4.02-0.411
		c1.736-0.233,3.425-0.317,5.057-0.399c1.434-0.072,2.788-0.14,4.087-0.301c1.231-0.152,2.536-0.475,3.919-0.818
		c1.606-0.397,3.267-0.809,5.062-1.022c1.583-0.191,3.156-0.32,4.678-0.445c1.524-0.126,2.964-0.244,4.394-0.418
		c1.364-0.164,2.76-0.453,4.238-0.759c1.514-0.313,3.08-0.636,4.716-0.846c1.518-0.194,3.013-0.321,4.459-0.444
		c1.589-0.134,3.09-0.262,4.556-0.468c1.643-0.232,3.264-0.534,4.981-0.852c1.305-0.243,2.607-0.484,3.909-0.694
		c1.513-0.242,2.988-0.391,4.414-0.534c1.593-0.16,3.097-0.311,4.517-0.579c1.765-0.332,3.499-0.76,5.336-1.214
		c1.129-0.28,2.254-0.557,3.38-0.811c1.457-0.329,2.877-0.553,4.249-0.769c1.612-0.253,3.135-0.494,4.522-0.874
		c1.661-0.455,3.302-1.07,5.04-1.721c1.11-0.416,2.213-0.829,3.324-1.203c1.411-0.477,2.79-0.821,4.123-1.153
		c1.586-0.395,3.083-0.769,4.358-1.303c2.237-0.938,4.487-2.131,6.664-3.285l1.171-0.618c2.564-1.348,5.213-2.742,7.545-4.298
		c1.177-0.786,2.309-1.923,3.507-3.128c0.887-0.892,1.804-1.815,2.836-2.698c1.149-0.984,2.338-1.774,3.488-2.538
		c1.324-0.88,2.576-1.712,3.403-2.631c0.986-1.094,1.857-2.549,2.779-4.091c0.603-1.006,1.227-2.048,1.937-3.086
		c0.969-1.415,1.777-3.111,2.631-4.906c0.42-0.882,0.844-1.77,1.296-2.654c1.132-2.211,3.844-3.088,6.056-1.956
		c2.212,1.132,3.088,3.843,1.956,6.056c-0.413,0.806-0.799,1.619-1.182,2.423c-0.966,2.029-1.964,4.125-3.33,6.12
		c-0.556,0.812-1.083,1.693-1.642,2.627c-1.102,1.84-2.242,3.745-3.811,5.489c-1.589,1.764-3.461,3.008-5.112,4.105
		c-0.968,0.644-1.883,1.251-2.617,1.88c-0.758,0.648-1.509,1.404-2.306,2.205c-1.391,1.399-2.966,2.983-4.894,4.27
		c-2.723,1.815-5.582,3.32-8.349,4.775l-1.148,0.608c-2.352,1.247-4.786,2.536-7.398,3.631c-1.91,0.8-3.816,1.276-5.66,1.736
		c-1.213,0.302-2.36,0.589-3.427,0.948c-1.014,0.342-2.024,0.721-3.038,1.102c-1.851,0.694-3.765,1.411-5.823,1.974
		c-1.869,0.513-3.714,0.803-5.497,1.084c-1.287,0.203-2.502,0.395-3.671,0.658c-1.066,0.241-2.131,0.504-3.201,0.769
		c-1.876,0.464-3.816,0.942-5.829,1.322c-1.802,0.339-3.571,0.517-5.283,0.689c-1.357,0.136-2.637,0.264-3.887,0.465
		c-1.229,0.198-2.458,0.427-3.69,0.656c-1.738,0.323-3.532,0.657-5.373,0.916c-1.711,0.241-3.408,0.385-5.048,0.524
		c-1.415,0.12-2.751,0.234-4.079,0.403c-1.293,0.166-2.625,0.441-4.035,0.733c-1.594,0.33-3.243,0.671-4.98,0.881
		c-1.6,0.193-3.195,0.325-4.737,0.452c-1.506,0.123-2.928,0.24-4.347,0.41c-1.242,0.149-2.566,0.477-3.968,0.823
		c-1.579,0.391-3.211,0.795-4.974,1.014c-1.627,0.202-3.211,0.281-4.744,0.357c-1.517,0.077-2.95,0.148-4.316,0.33
		c-1.503,0.202-2.989,0.332-4.427,0.458c-1.599,0.14-3.11,0.272-4.581,0.492c-1.589,0.236-3.172,0.556-4.85,0.895
		c-1.342,0.272-2.683,0.541-4.027,0.771c-1.332,0.226-2.72,0.64-4.19,1.079c-1.444,0.431-2.938,0.877-4.532,1.193
		c-1.793,0.356-3.559,0.413-5.116,0.465c-1.428,0.047-2.777,0.091-3.881,0.349c-1.503,0.351-3.024,0.861-4.634,1.4
		c-1.264,0.424-2.571,0.861-3.923,1.237c-1.234,0.344-2.531,0.956-3.905,1.606c-1.361,0.642-2.767,1.306-4.331,1.826
		c-1.136,0.378-2.28,0.717-3.418,1.055c-1.762,0.521-3.426,1.014-4.986,1.636c-2.383,0.95-4.667,2.049-7.084,3.213l-1.755,0.844
		c-2.437,1.166-4.739,2.268-6.937,3.541c-1.385,0.803-2.771,1.393-4.113,1.962c-1.426,0.605-2.774,1.178-3.789,1.891
		c-1.105,0.775-2.181,1.881-3.32,3.053c-0.949,0.976-1.929,1.986-3.053,2.944c-1.103,0.94-2.238,1.737-3.336,2.507
		c-1.349,0.948-2.622,1.841-3.576,2.833c-1.726,1.793-3.333,3.841-5.035,6.008l-0.545,0.695c-1.042,1.324-1.801,2.893-2.604,4.555
		c-0.467,0.964-0.949,1.962-1.501,2.932c-1.494,2.627-2.577,5.049-3.312,7.403c-0.242,0.781-0.502,1.545-0.756,2.296
		c-0.674,1.982-1.311,3.854-1.277,5.192c0.044,1.674,1.035,3.411,2.085,5.25c0.232,0.407,0.461,0.809,0.681,1.209
		c1.009,1.835,2.375,3.192,4.567,4.534c0.334,0.204,0.669,0.414,1.008,0.626c1.939,1.216,3.614,2.264,5.513,2.547
		c2.472,0.367,5.143,0.366,7.94-0.008l0.682-0.09c2.498-0.33,5.082-0.671,7.494-1.513c0.969-0.338,2.136-1.172,3.371-2.055
		c1.131-0.809,2.412-1.725,3.87-2.504c1.26-0.674,2.538-1.172,3.774-1.653c1.528-0.594,2.971-1.157,4.102-1.955
		c1.074-0.76,2.171-1.878,3.332-3.062c0.944-0.962,1.919-1.957,3.036-2.933c1.082-0.944,2.219-1.751,3.318-2.53
		c1.354-0.961,2.632-1.868,3.639-2.913c0.937-0.973,1.83-2.236,2.778-3.573c0.804-1.137,1.636-2.313,2.61-3.486l1.124-1.348
		c1.492-1.785,3.035-3.63,4.442-5.57c0.81-1.116,1.679-2.161,2.52-3.172c1.1-1.32,2.138-2.567,2.985-3.889
		c0.671-1.045,1.245-2.363,1.853-3.756c0.611-1.405,1.245-2.859,2.088-4.331c0.772-1.35,1.647-2.574,2.494-3.758
		c0.927-1.296,1.802-2.521,2.446-3.774c1.135-2.21,3.849-3.084,6.059-1.948c2.211,1.136,3.083,3.848,1.947,6.059
		c-0.945,1.841-2.106,3.465-3.132,4.898c-0.749,1.048-1.457,2.037-2.003,2.992c-0.599,1.048-1.109,2.218-1.649,3.457
		c-0.722,1.657-1.469,3.371-2.527,5.02c-1.149,1.791-2.417,3.315-3.643,4.788c-0.781,0.939-1.52,1.825-2.152,2.698
		c-1.589,2.191-3.234,4.158-4.824,6.059l-1.099,1.319c-0.755,0.91-1.454,1.898-2.195,2.943c-1.097,1.55-2.232,3.153-3.639,4.615
		c-1.592,1.653-3.358,2.905-4.914,4.01c-0.959,0.68-1.866,1.323-2.607,1.969c-0.854,0.747-1.667,1.577-2.528,2.455
		c-1.39,1.417-2.826,2.882-4.566,4.112c-2.032,1.434-4.156,2.262-6.031,2.991c-1.034,0.402-2.011,0.783-2.794,1.202
		c-0.942,0.504-1.883,1.176-2.879,1.889c-1.619,1.157-3.454,2.469-5.641,3.232c-3.284,1.146-6.471,1.567-9.281,1.938l-0.668,0.088
		C671.704,265.064,669.929,265.185,668.196,265.185"/>
	<path clip-path="url(#SVGID_2_)" fill="#F68E63" d="M603.104,205.025c-4.649,0-8.813-1.798-12.041-5.2
		c-2.632-2.775-4.236-6.617-4.77-11.422c-0.362-3.252-0.167-6.836,0.597-10.954c0.149-0.8,0.263-1.697,0.384-2.648
		c0.298-2.336,0.635-4.984,1.646-7.715c0.871-2.349,2.095-4.61,3.28-6.796c0.438-0.81,0.883-1.629,1.315-2.465
		c0.335-0.649,0.664-1.304,0.994-1.961c1.083-2.152,2.202-4.378,3.584-6.515c1.208-1.867,2.7-3.407,4.018-4.765
		c0.843-0.871,1.639-1.692,2.279-2.505c1.566-1.991,3.24-3.703,4.86-5.359c0.539-0.55,1.075-1.098,1.601-1.651
		c0.584-0.614,1.151-1.232,1.713-1.843c1.555-1.69,3.161-3.437,4.995-4.998c2.242-1.907,4.601-3.403,6.682-4.724
		c0.427-0.27,0.852-0.54,1.271-0.809c0.872-0.561,1.732-1.268,2.641-2.016c1.693-1.393,3.444-2.834,5.698-3.715
		c3.175-1.24,6.799-1.869,10.773-1.869c4.283,0,8.179,1.531,11.582,4.549c3.236,2.871,5.211,6.498,5.872,10.778
		c0.506,3.293-0.081,6.624-0.704,10.149l-0.12,0.677c-0.132,0.756-0.229,1.615-0.331,2.525c-0.256,2.285-0.546,4.876-1.555,7.6
		c-0.77,2.076-1.95,3.831-3.09,5.528c-0.731,1.087-1.421,2.114-1.965,3.167c-1.142,2.207-3.855,3.069-6.064,1.932
		c-2.207-1.142-3.073-3.857-1.932-6.065c0.782-1.512,1.69-2.863,2.492-4.056c0.886-1.317,1.722-2.561,2.119-3.632
		c0.627-1.694,0.833-3.531,1.051-5.476c0.113-1.007,0.229-2.048,0.41-3.078l0.121-0.688c0.512-2.892,0.953-5.39,0.673-7.212
		c-0.337-2.182-1.302-3.954-2.95-5.416c-1.755-1.557-3.537-2.282-5.609-2.282c-2.849,0-5.372,0.421-7.498,1.251
		c-0.917,0.36-2.052,1.294-3.255,2.283c-1.02,0.839-2.176,1.791-3.489,2.634c-0.433,0.28-0.876,0.56-1.321,0.842
		c-2.009,1.274-3.907,2.479-5.67,3.979c-1.414,1.202-2.768,2.674-4.202,4.234c-0.597,0.648-1.198,1.303-1.817,1.953
		c-0.554,0.583-1.12,1.161-1.688,1.742c-1.519,1.554-2.955,3.022-4.22,4.628c-0.926,1.18-1.925,2.21-2.891,3.207
		c-1.129,1.164-2.195,2.264-2.923,3.39c-1.117,1.726-2.08,3.641-3.1,5.67c-0.345,0.686-0.69,1.372-1.041,2.051
		c-0.459,0.886-0.93,1.758-1.396,2.618c-1.082,1.998-2.105,3.885-2.753,5.634c-0.653,1.764-0.899,3.69-1.158,5.728
		c-0.132,1.032-0.268,2.101-0.462,3.151c-0.592,3.191-0.761,5.99-0.501,8.319c0.311,2.811,1.102,4.904,2.352,6.22
		c1.508,1.59,3.364,2.396,5.513,2.396c2.086,0,4.714-0.872,6.771-1.632c1.304-0.481,2.772-1.439,4.327-2.453
		c0.722-0.472,1.459-0.951,2.219-1.416c1.966-1.203,3.991-2.66,6.37-4.583c1.148-0.928,2.341-1.645,3.496-2.339
		c1.233-0.741,2.398-1.44,3.204-2.241c1.763-1.751,4.612-1.742,6.364,0.02c1.752,1.764,1.742,4.614-0.021,6.365
		c-1.58,1.569-3.35,2.633-4.912,3.571c-0.931,0.56-1.811,1.089-2.473,1.623c-2.692,2.176-5.021,3.847-7.33,5.261
		c-0.688,0.42-1.35,0.852-2,1.277c-1.903,1.241-3.87,2.525-6.125,3.358C610.062,203.919,606.595,205.025,603.104,205.025"/>
	<path clip-path="url(#SVGID_2_)" fill="#F68E63" d="M216.449,287.496c-1.49,0-2.902-0.037-4.257-0.112
		c-1.003-0.055-2.033-0.056-3.124-0.057c-2.015-0.002-4.1-0.003-6.24-0.355c-2.38-0.393-4.595-1.122-6.548-1.766
		c-0.847-0.278-1.684-0.555-2.515-0.795c-0.753-0.217-1.507-0.42-2.254-0.62c-2.248-0.605-4.571-1.229-6.793-2.206
		c-2.419-1.064-4.451-2.488-6.243-3.744c-0.646-0.453-1.28-0.9-1.918-1.313c-0.449-0.293-0.897-0.577-1.34-0.86
		c-2.273-1.448-4.623-2.946-6.588-4.937c-2.25-2.28-4.761-5.042-6.329-8.242c-1.565-3.19-2.331-6.958-2.216-10.894
		c0.115-3.889,1.965-6.991,3.755-9.99l0.161-0.269c1.272-2.136,4.035-2.834,6.169-1.562c2.135,1.273,2.834,4.034,1.561,6.169
		l-0.163,0.275c-1.31,2.195-2.441,4.09-2.487,5.64c-0.05,1.73,0.134,4.291,1.301,6.669c1.005,2.053,3.015,4.222,4.654,5.882
		c1.251,1.268,3.081,2.435,5.019,3.669c0.466,0.297,0.936,0.597,1.406,0.902c0.723,0.47,1.447,0.976,2.181,1.491
		c1.592,1.116,3.096,2.17,4.7,2.876c1.596,0.701,3.495,1.211,5.505,1.753c0.801,0.214,1.608,0.431,2.415,0.665
		c0.937,0.27,1.879,0.579,2.833,0.893c1.803,0.594,3.506,1.154,5.198,1.433c2.367,0.39,5.288,0.136,8.395,0.306
		c2.486,0.137,5.225,0.132,8.374-0.018c2.037-0.097,4.158-0.424,6.403-0.771c0.634-0.097,1.272-0.196,1.914-0.29
		c2.615-0.385,5.304-0.921,8.219-1.637l1.451-0.353c2.317-0.56,4.505-1.088,6.666-1.836c2.59-0.898,5.225-1.947,7.832-3.117
		c2.309-1.038,4.773-2.287,7.532-3.82c2.276-1.265,4.635-2.714,7.21-4.433c0.001,0,0.084-0.055,0.084-0.056
		c2.284-1.522,4.646-3.095,6.86-4.83c2.437-1.909,4.573-3.698,6.53-5.47c1.032-0.936,2.105-1.76,3.143-2.558
		c1.276-0.981,2.481-1.906,3.466-2.927c1.727-1.787,4.576-1.838,6.364-0.111c1.787,1.726,1.837,4.575,0.111,6.363
		c-1.448,1.499-3.046,2.728-4.457,3.812c-0.937,0.719-1.821,1.399-2.585,2.091c-2.118,1.918-4.415,3.843-7.022,5.886
		c-2.486,1.946-4.994,3.617-7.418,5.234c-2.862,1.908-5.424,3.482-7.915,4.866c-2.984,1.658-5.671,3.019-8.216,4.162
		c-2.847,1.279-5.732,2.428-8.574,3.412c-2.571,0.891-5.075,1.495-7.497,2.08l-1.415,0.345c-3.196,0.785-6.159,1.375-9.06,1.802
		c-0.622,0.09-1.238,0.186-1.85,0.281c-2.378,0.366-4.837,0.746-7.349,0.865C219.705,287.454,218.033,287.496,216.449,287.496"/>
	<path clip-path="url(#SVGID_2_)" fill="#F68E63" d="M312.535,223.508c-0.87,0-1.748-0.251-2.522-0.775
		c-2.057-1.396-2.593-4.194-1.198-6.251c0.579-0.855,1.071-2.014,1.59-3.242c0.549-1.295,1.172-2.764,2.032-4.184
		c0.74-1.221,1.553-2.322,2.339-3.388c0.869-1.179,1.69-2.292,2.3-3.418c0.889-1.64,1.708-3.367,2.574-5.194
		c0.347-0.733,0.697-1.468,1.052-2.203c1.083-2.236,3.776-3.172,6.011-2.09c2.238,1.083,3.173,3.774,2.09,6.012
		c-0.346,0.713-0.684,1.427-1.021,2.138c-0.879,1.854-1.789,3.772-2.792,5.623c-0.909,1.678-1.958,3.1-2.972,4.475
		c-0.697,0.945-1.356,1.838-1.884,2.709c-0.524,0.864-0.97,1.917-1.441,3.031c-0.636,1.499-1.355,3.198-2.43,4.783
		C315.393,222.817,313.976,223.508,312.535,223.508"/>
	<path clip-path="url(#SVGID_2_)" fill="#F68E63" d="M511.374,198.1c-2.001,0-3.827-1.345-4.353-3.371
		c-0.985-3.8-1.015-7.291-0.095-10.989c0.812-3.266,2.26-7.372,6.268-10.166c2.925-2.038,6.581-3.22,9.772-4.108
		c0.643-0.179,1.304-0.379,1.981-0.584c2.19-0.662,4.672-1.412,7.46-1.787c1.975-0.264,3.857-0.107,5.676,0.045
		c1.336,0.111,2.597,0.221,3.759,0.14c1.003-0.068,2.019-0.153,3.052-0.24c1.961-0.165,3.991-0.336,6.13-0.406
		c1.916-0.063,3.897-0.083,5.813-0.102c1.096-0.011,2.203-0.022,3.322-0.04c1.313-0.023,2.667-0.115,4.102-0.211
		c1.602-0.108,3.26-0.219,4.979-0.242c1.552-0.02,3.12-0.068,4.703-0.116c1.437-0.044,2.885-0.088,4.342-0.113
		c1.686-0.031,3.288,0.11,4.842,0.246c1.48,0.13,2.871,0.249,4.192,0.213c1.361-0.04,2.795-0.22,4.313-0.409
		c1.494-0.187,3.04-0.38,4.654-0.458c1.556-0.075,3.136-0.251,4.809-0.437c1.333-0.148,2.711-0.302,4.112-0.405
		c1.708-0.127,3.418-0.348,5.229-0.582c1.21-0.156,2.419-0.312,3.633-0.441c1.532-0.164,3.013-0.203,4.446-0.241
		c1.578-0.042,3.069-0.082,4.444-0.284c1.183-0.174,2.371-0.314,3.559-0.453c1.836-0.216,3.57-0.42,5.23-0.748
		c1.365-0.27,2.794-0.778,4.307-1.316c1.314-0.468,2.674-0.953,4.129-1.331c1.974-0.513,3.908-1.189,5.955-1.905
		c0.78-0.273,1.559-0.546,2.341-0.809c1.564-0.527,3.075-0.819,4.536-1.1c1.481-0.286,2.88-0.556,3.963-1.025
		c1.123-0.489,2.294-1.357,3.535-2.275c1.153-0.854,2.345-1.738,3.725-2.508c0.895-0.498,1.803-0.967,2.71-1.435
		c1.722-0.888,3.349-1.727,4.747-2.729c2.423-1.738,4.695-3.367,6.712-5.235c1.192-1.103,2.277-2.522,3.425-4.026
		c0.645-0.842,1.292-1.688,1.974-2.509c0.838-1.011,1.722-1.915,2.579-2.789c1.19-1.216,2.315-2.365,3.077-3.575
		c1.235-1.965,2.29-4.232,3.406-6.631l1.131-2.407c0.998-2.102,2.029-4.277,2.771-6.471c0.574-1.7,0.979-3.615,1.407-5.643
		c0.194-0.922,0.391-1.851,0.607-2.784c0.561-2.42,2.977-3.928,5.4-3.368c2.42,0.56,3.928,2.977,3.368,5.399
		c-0.202,0.874-0.387,1.747-0.57,2.613c-0.462,2.193-0.942,4.461-1.685,6.664c-0.911,2.694-2.058,5.111-3.167,7.449l-1.102,2.345
		c-1.184,2.545-2.41,5.178-3.947,7.624c-1.275,2.029-2.865,3.651-4.267,5.083c-0.761,0.777-1.48,1.511-2.082,2.236
		c-0.605,0.729-1.177,1.481-1.749,2.228c-1.329,1.74-2.703,3.538-4.462,5.165c-2.429,2.251-5.04,4.123-7.564,5.933
		c-1.951,1.399-3.95,2.43-5.884,3.427c-0.82,0.423-1.643,0.847-2.452,1.298c-0.872,0.486-1.785,1.162-2.751,1.878
		c-1.518,1.125-3.24,2.399-5.308,3.297c-1.99,0.865-4.037,1.26-5.843,1.608c-1.222,0.235-2.376,0.458-3.365,0.791
		c-0.75,0.253-1.497,0.515-2.246,0.776c-2.128,0.744-4.328,1.514-6.661,2.121c-1.073,0.279-2.191,0.677-3.376,1.099
		c-1.753,0.623-3.566,1.269-5.58,1.666c-2.004,0.397-3.997,0.631-5.924,0.857c-1.101,0.129-2.204,0.258-3.299,0.419
		c-1.907,0.282-3.741,0.33-5.515,0.377c-1.315,0.036-2.556,0.068-3.733,0.194c-1.148,0.122-2.29,0.269-3.432,0.417
		c-1.851,0.239-3.765,0.487-5.718,0.631c-1.236,0.091-2.472,0.229-3.78,0.375c-1.737,0.193-3.533,0.393-5.37,0.482
		c-1.274,0.061-2.585,0.225-3.973,0.398c-1.659,0.207-3.375,0.422-5.164,0.475c-1.843,0.054-3.568-0.098-5.24-0.243
		c-1.384-0.12-2.689-0.234-3.901-0.214c-1.419,0.025-2.827,0.068-4.225,0.11c-1.635,0.051-3.256,0.1-4.862,0.121
		c-1.476,0.019-2.941,0.118-4.492,0.222c-1.481,0.1-3.012,0.202-4.551,0.229c-1.142,0.019-2.271,0.031-3.387,0.042
		c-1.906,0.018-3.775,0.037-5.604,0.096c-1.911,0.064-3.824,0.225-5.675,0.38c-1.084,0.092-2.151,0.181-3.203,0.252
		c-1.841,0.123-3.58-0.021-5.114-0.151c-1.398-0.118-2.72-0.23-3.724-0.094c-2.073,0.279-4.097,0.891-6.056,1.482
		c-0.742,0.225-1.466,0.443-2.172,0.639c-2.316,0.645-5.211,1.548-7.039,2.822c-1.276,0.889-2.002,2.232-2.679,4.954
		c-0.558,2.246-0.537,4.206,0.072,6.557c0.624,2.406-0.82,4.862-3.225,5.485C512.128,198.053,511.748,198.1,511.374,198.1"/>
</g>
</svg>
