<svg id="Layer_1" data-name="Layer 1" xmlns="http://www.w3.org/2000/svg" viewBox="0 0 315.96 141.54"><defs><style>.cls-1{fill:#212b40;}</style></defs><title>logo_2016</title><path class="cls-1" d="M63.08,261.95c0-1.69-.06-3.37-0.06-5.06,0-.26.17-0.2,0.35-0.23h1.17l0.18,0a0.21,0.21,0,0,1,.24.14v0.14a0.67,0.67,0,0,1,0,.18v0.44c0,0.39,0,.78,0,1.19v0.47a0.37,0.37,0,0,0,0,.14v0.29c0,0.56,0,3.1,0,3.66v2s0,0.35,0,.38c0,0.29,0,.36,0,0.72v0a0.05,0.05,0,0,1,0,0v0.24a0.07,0.07,0,0,0,0,.06c0,0.08,0,.21,0,0.26v0s0,0.26,0,.3a0.46,0.46,0,0,1-.14,0H63.7l-0.53,0c-0.12,0-.14-0.14-0.14-0.23C63,265.41,63.08,263.7,63.08,261.95Z" transform="translate(-42.02 -125.88)"/><path class="cls-1" d="M68.91,267.34H68.7a0.19,0.19,0,0,1-.11-0.21c0-.33,0-0.71,0-1.05v-6.79c0-.81,0-1.63,0-2.45,0-.17.11-0.18,0.23-0.18l1.31,0,0.12,0,4.34,6.88s0,0,0,0a0.08,0.08,0,0,0,.08-0.09c0-2.11-.17-4.23-0.17-6.37v-0.42a0.12,0.12,0,0,1,.09-0.06h1.3l0.1,0a0.22,0.22,0,0,1,.27.24v0.24c0,0.29,0,.57,0,0.87s0,0.8,0,1.19,0,0.56,0,.86,0,0.47,0,.71v0.18a0.2,0.2,0,0,1,0,.08,0.34,0.34,0,0,1,0,.12v0.17a3.11,3.11,0,0,0,0,.36v4.59s0,0.24,0,.3v0c0,0.15,0,.33,0,0.48v0.14a0.16,0.16,0,0,1,0,.09l-0.21,0H74.95a0.19,0.19,0,0,1-.11-0.08l-0.32-.51-1.46-2.26-2.67-4.26h0s0,0-.06,0v0.12c0,1.29.1,2.59,0.1,3.89,0,0.08,0,.12,0,0.2s0,0.27,0,.42c0,0.42,0,.89,0,1.33,0,0.29,0,.6,0,0.9,0,0.15,0,.24-0.3.24l0,0-0.56,0H68.91Z" transform="translate(-42.02 -125.88)"/><path class="cls-1" d="M80,265.83V265c0-1.05,0-3.58,0-3.63l0-.09v-4.08s0-.2,0-0.24v0a0.15,0.15,0,0,1,.14-0.18h4.11l1.3,0.35,0.81,0.59,0.56,0.66,0.45,1.37a4.46,4.46,0,0,1,.09.9v2.12a0.33,0.33,0,0,0,0,.12,0.16,0.16,0,0,0,0,.08v0.63l-0.29,1.6-0.39.77-0.83.8-1,.5-0.59.09-0.35,0a2,2,0,0,0-.42,0H83c-0.95,0-1.91,0-2.86,0H80.05a0.2,0.2,0,0,1-.08-0.2C80,266.74,80,266.32,80,265.83Zm1.93-.06h1.84l0.81-.17,0.32-.17,0.32-.36,0.26-.45s0.09-.6.11-0.8v-0.68c0-.09,0-0.89,0-1v-0.06c0-.06,0-0.71,0-0.8v-0.84c0-.24-0.09-0.86-0.11-0.92l-0.24-.47-0.3-.36-0.51-.26-0.72-.12H81.89s-0.06.08-.06,0.12v1.76a2.54,2.54,0,0,0,0,.35v0c0,0.81,0,1.61,0,2.46,0,0.21,0,.44,0,0.68v0.08c0,0.08,0,.83,0,0.93,0,0.26,0,.48,0,0.71S81.81,265.77,81.94,265.77Z" transform="translate(-42.02 -125.88)"/><path class="cls-1" d="M91,261.95c0-1.69-.06-3.37-0.06-5.06,0-.26.17-0.2,0.35-0.23h1.17l0.18,0a0.21,0.21,0,0,1,.24.14v0.14a0.67,0.67,0,0,1,0,.18v0.44c0,0.39,0,.78,0,1.19v0.47a0.37,0.37,0,0,0,0,.14v0.29c0,0.56,0,3.1,0,3.66v2s0,0.35,0,.38c0,0.29,0,.36,0,0.72v0a0.05,0.05,0,0,1,0,0v0.24a0.07,0.07,0,0,0,0,.06c0,0.08,0,.21,0,0.26v0s0,0.26,0,.3a0.46,0.46,0,0,1-.14,0H91.59l-0.53,0c-0.12,0-.14-0.14-0.14-0.23C90.92,265.41,91,263.7,91,261.95Z" transform="translate(-42.02 -125.88)"/><path class="cls-1" d="M96.48,266.92a2.55,2.55,0,0,1,.06-0.75,0.05,0.05,0,0,0,0,0V260.4s0-.29,0-0.33v0c0-.44,0-0.87,0-1.28s0-1,0-1.55v-0.24c0-.2.12-0.2,0.27-0.2a2,2,0,0,1,.32,0H102l0.54,0h0.26a0.16,0.16,0,0,1,.12.17v1.33a0.1,0.1,0,0,1-.11.09h-0.45a0.77,0.77,0,0,1-.2,0h-1.33c-0.44,0-1,0-1.51,0a1.49,1.49,0,0,0-1.07.18v0.41c0,0.32,0,.65,0,0.93s0,0.54,0,.81v0a0.46,0.46,0,0,1,0,.13v0.12c0,0.14,0,.23.42,0.23,0.72,0,1.46-.06,2.15-0.06,0.14,0,.24,0,0.24.2v1.48a0.23,0.23,0,0,1-.24.11c-0.29,0-.57,0-0.89,0H99.57a2.41,2.41,0,0,1-.57,0c-0.14,0-.21,0-0.44,0s-0.3.06-.3,0.21c0,0.9,0,1.76,0,2.67a0.11,0.11,0,0,0,.09.08h0.18c1.4,0,2.8,0,4.2,0,0.3,0,.42,0,0.42.32s0,0.59,0,.89v0.23a0.25,0.25,0,0,1-.06.17h-0.75c-1.39,0-2.79,0-4.19,0H96.59a0.15,0.15,0,0,1-.11-0.11v-0.35Z" transform="translate(-42.02 -125.88)"/><path class="cls-1" d="M112.86,267.21c0-.68,0-1.39.06-2v-2.23c0-.13,0-1.11,0-1.25s0-.3,0-0.36v-3.63a7,7,0,0,1,0-.77,0.19,0.19,0,0,1,.23-0.23h1.43c0.09,0,.26,0,0.26.14h0a8.85,8.85,0,0,0-.06,1c0,0.15,0,.33,0,0.41l0,2.53a2.35,2.35,0,0,0,0,.45v0.15a0.16,0.16,0,0,0,.08.06c0.72,0,1.43-.06,2.15-0.06l0.15,0h0.21c0.42,0,.87,0,1.31,0,0.08,0,.17,0,0.17-0.08v-0.39c0-1.36,0-2.71,0-4.05,0-.2.11-0.21,0.27-0.21h0l0.18,0h1.3a0.16,0.16,0,0,1,.14.15c0,0.38-.08.77-0.08,1.14s0.06,1,.06,1.49c0,0.15,0,.32,0,0.48,0,0.71,0,1.43,0,2.11v1a0.38,0.38,0,0,0,0,.18c0,0.86,0,1.7,0,2.56v1.34c0,0.08,0,.29-0.12.29h-1.7a0.11,0.11,0,0,1-.06-0.11v-0.18c0-.65,0-1.25,0-1.88v-0.6c0-.48,0-1,0-1.45a0.19,0.19,0,0,0,0-.12h-2.56c-0.42,0-.84,0-1.28,0h-0.14a0.11,0.11,0,0,0-.08.09c0,0.77,0,1.55,0,2.32v1c0,0.08,0,.36,0,0.44v0c0,0.08,0,.2,0,0.32a0.2,0.2,0,0,1-.14.17h-0.15c-0.2,0-.39,0-0.6,0l-0.89,0a0.11,0.11,0,0,1-.14-0.09v-0.12Z" transform="translate(-42.02 -125.88)"/><path class="cls-1" d="M127.27,256.89a0.15,0.15,0,0,1,.15-0.11l1,0h0.27a0.25,0.25,0,0,1,.09.09l2.58,7.37v0.1l1,2.74a0.31,0.31,0,0,1,.06.2c0,0.08,0,.09-0.11.12h-0.18l-0.78,0c-0.2,0-.39,0-0.59,0h-0.15a0.08,0.08,0,0,1-.06-0.06l-0.74-2.17a1,1,0,0,0-.35,0l-0.17,0-3.16,0-0.06,0-0.72,2.15a0.24,0.24,0,0,1-.2.09h-1.34a0.14,0.14,0,0,1-.15-0.15Zm1.88,6.7h0.12a0,0,0,0,0,0,0l-1.28-4.1h0s0,0,0,0l-0.17.38-1.11,3.54v0.06a0.13,0.13,0,0,0,.06.11h0.62a1.85,1.85,0,0,0,.3,0C127.91,263.58,128.93,263.59,129.16,263.59Z" transform="translate(-42.02 -125.88)"/><path class="cls-1" d="M135.22,267.34H135a0.19,0.19,0,0,1-.11-0.21c0-.33,0-0.71,0-1.05v-6.79c0-.81,0-1.63,0-2.45,0-.17.11-0.18,0.23-0.18l1.31,0,0.12,0,4.34,6.88s0,0,0,0a0.08,0.08,0,0,0,.08-0.09c0-2.11-.17-4.23-0.17-6.37v-0.42a0.12,0.12,0,0,1,.09-0.06h1.3l0.1,0a0.22,0.22,0,0,1,.27.24v0.24c0,0.29,0,.57,0,0.87s0,0.8,0,1.19,0,0.56,0,.86,0,0.47,0,.71v0.18a0.2,0.2,0,0,1,0,.08,0.34,0.34,0,0,1,0,.12v0.17a3.11,3.11,0,0,0,0,.36v4.59s0,0.24,0,.3v0c0,0.15,0,.33,0,0.48v0.14a0.16,0.16,0,0,1,0,.09l-0.21,0h-1.11a0.19,0.19,0,0,1-.11-0.08l-0.32-.51-1.46-2.26-2.67-4.26h0s0,0-.06,0v0.12c0,1.29.1,2.59,0.1,3.89,0,0.08,0,.12,0,0.2s0,0.27,0,.42c0,0.42,0,.89,0,1.33,0,0.29,0,.6,0,0.9,0,0.15,0,.24-0.3.24l0,0-0.56,0h-0.62Z" transform="translate(-42.02 -125.88)"/><path class="cls-1" d="M146.32,265.83V265c0-1.05,0-3.58,0-3.63l0-.09v-4.08s0-.2,0-0.24v0a0.15,0.15,0,0,1,.14-0.18h4.11l1.3,0.35,0.81,0.59,0.56,0.66,0.45,1.37a4.46,4.46,0,0,1,.09.9v2.12a0.33,0.33,0,0,0,0,.12,0.16,0.16,0,0,0,0,.08v0.63l-0.29,1.6-0.39.77-0.83.8-1,.5-0.59.09-0.35,0a2,2,0,0,0-.42,0h-0.48c-0.95,0-1.91,0-2.86,0h-0.14a0.2,0.2,0,0,1-.08-0.2C146.29,266.74,146.32,266.32,146.32,265.83Zm1.93-.06h1.84l0.81-.17,0.32-.17,0.32-.36,0.26-.45s0.09-.6.11-0.8v-0.68c0-.09,0-0.89,0-1v-0.06c0-.06,0-0.71,0-0.8v-0.84c0-.24-0.09-0.86-0.11-0.92l-0.24-.47-0.3-.36-0.51-.26-0.72-.12H148.2s-0.06.08-.06,0.12v1.76a2.54,2.54,0,0,0,0,.35v0c0,0.81,0,1.61,0,2.46,0,0.21,0,.44,0,0.68v0.08c0,0.08,0,.83,0,0.93,0,0.26,0,.48,0,0.71S148.13,265.77,148.25,265.77Z" transform="translate(-42.02 -125.88)"/><path class="cls-1" d="M157,256.81a0.14,0.14,0,0,1,.17-0.11l1,0h0.26a0.46,0.46,0,0,1,.14,0l3.06,5.6,0.08,0.11a0.07,0.07,0,0,0,.09-0.06l3-5.62s0.09,0,.11-0.08h0.21l0.83,0c0.21,0,.38,0,0.38.26s0,0.5,0,.74c0,0.08,0,.12,0,0.18s0,0.29,0,.42v0.08a1.55,1.55,0,0,1,0,.23,3,3,0,0,1,0,.33h0c0,0.18.06,0.33,0.06,0.51s0,0.27,0,.42c0,1.42.09,2.85,0.09,4.29,0,0.65,0,1.31,0,2,0,0.24,0,.51,0,0.77v0.33l-0.06.09h-0.59l-1,0h0a0.2,0.2,0,0,1-.24-0.17c0.09-1.23,0-2.47.08-3.72,0-.92.08-1.85,0.08-2.79a0.28,0.28,0,0,0,0-.21L161.72,266a0.13,0.13,0,0,1,0,0h0a0.18,0.18,0,0,1-.15-0.11l-2.83-5.42s0,0,0,0,0,0,0,.06c0,1.48.11,3,.11,4.44,0,0.44,0,.89,0,1.34,0,0.24,0,.5,0,0.72s0,0.32-.27.32H157a0.19,0.19,0,0,1-.12-0.23C156.93,263.76,157,260.31,157,256.81Z" transform="translate(-42.02 -125.88)"/><path class="cls-1" d="M172.68,256.89a0.15,0.15,0,0,1,.15-0.11l1,0h0.27a0.25,0.25,0,0,1,.09.09l2.58,7.37v0.1l1,2.74a0.31,0.31,0,0,1,.06.2c0,0.08,0,.09-0.11.12h-0.18l-0.78,0c-0.2,0-.39,0-0.59,0h-0.15a0.08,0.08,0,0,1-.06-0.06l-0.74-2.17a1,1,0,0,0-.35,0l-0.17,0-3.16,0-0.06,0-0.72,2.15a0.24,0.24,0,0,1-.2.09h-1.34a0.14,0.14,0,0,1-.15-0.15Zm1.88,6.7h0.12a0,0,0,0,0,0,0l-1.28-4.1h0s0,0,0,0l-0.17.38-1.11,3.54v0.06a0.13,0.13,0,0,0,.06.11h0.62a1.85,1.85,0,0,0,.3,0C173.31,263.58,174.33,263.59,174.56,263.59Z" transform="translate(-42.02 -125.88)"/><path class="cls-1" d="M180.66,265.83V265c0-1.05,0-3.58,0-3.63l0-.09v-4.08s0-.2,0-0.24v0a0.15,0.15,0,0,1,.14-0.18h4.11l1.3,0.35,0.81,0.59,0.56,0.66,0.45,1.37a4.46,4.46,0,0,1,.09.9v2.12a0.33,0.33,0,0,0,0,.12,0.16,0.16,0,0,0,0,.08v0.63l-0.29,1.6-0.39.77-0.83.8-1,.5-0.59.09-0.35,0a2,2,0,0,0-.42,0H183.7c-0.95,0-1.91,0-2.86,0H180.7a0.2,0.2,0,0,1-.08-0.2C180.63,266.74,180.66,266.32,180.66,265.83Zm1.93-.06h1.84l0.81-.17,0.32-.17,0.32-.36,0.26-.45s0.09-.6.11-0.8v-0.68c0-.09,0-0.89,0-1v-0.06c0-.06,0-0.71,0-0.8v-0.84c0-.24-0.09-0.86-0.11-0.92l-0.24-.47-0.3-.36-0.51-.26-0.72-.12h-1.81s-0.06.08-.06,0.12v1.76a2.54,2.54,0,0,0,0,.35v0c0,0.81,0,1.61,0,2.46,0,0.21,0,.44,0,0.68v0.08c0,0.08,0,.83,0,0.93,0,0.26,0,.48,0,0.71S182.46,265.77,182.59,265.77Z" transform="translate(-42.02 -125.88)"/><path class="cls-1" d="M191.27,266.92a2.55,2.55,0,0,1,.06-0.75,0.05,0.05,0,0,0,0,0V260.4s0-.29,0-0.33v0c0-.44,0-0.87,0-1.28s0-1,0-1.55v-0.24c0-.2.12-0.2,0.27-0.2a2,2,0,0,1,.32,0h4.92l0.54,0h0.26a0.16,0.16,0,0,1,.12.17v1.33a0.1,0.1,0,0,1-.11.09h-0.45a0.77,0.77,0,0,1-.2,0h-1.33c-0.44,0-1,0-1.51,0a1.49,1.49,0,0,0-1.07.18v0.41c0,0.32,0,.65,0,0.93s0,0.54,0,.81v0a0.46,0.46,0,0,1,0,.13v0.12c0,0.14,0,.23.42,0.23,0.72,0,1.46-.06,2.15-0.06,0.14,0,.24,0,0.24.2v1.48a0.23,0.23,0,0,1-.24.11c-0.29,0-.57,0-0.89,0h-0.39a2.41,2.41,0,0,1-.57,0c-0.14,0-.21,0-0.44,0s-0.3.06-.3,0.21c0,0.9,0,1.76,0,2.67a0.11,0.11,0,0,0,.09.08h0.18c1.4,0,2.8,0,4.2,0,0.3,0,.42,0,0.42.32s0,0.59,0,.89v0.23a0.25,0.25,0,0,1-.06.17h-0.75c-1.39,0-2.79,0-4.19,0h-1.58a0.15,0.15,0,0,1-.11-0.11v-0.35Z" transform="translate(-42.02 -125.88)"/><path class="cls-1" d="M208,267.34h-0.21a0.19,0.19,0,0,1-.11-0.21c0-.33,0-0.71,0-1.05v-6.79c0-.81,0-1.63,0-2.45,0-.17.11-0.18,0.23-0.18l1.31,0,0.12,0,4.34,6.88s0,0,0,0a0.08,0.08,0,0,0,.08-0.09c0-2.11-.17-4.23-0.17-6.37v-0.42a0.12,0.12,0,0,1,.09-0.06H215l0.11,0a0.22,0.22,0,0,1,.27.24v0.24c0,0.29,0,.57,0,0.87s0,0.8,0,1.19,0,0.56,0,.86,0,0.47,0,.71v0.18a0.19,0.19,0,0,1,0,.08,0.32,0.32,0,0,1,0,.12v0.17a2.92,2.92,0,0,0,0,.36v4.59s0,0.24,0,.3v0c0,0.15,0,.33,0,0.48v0.14a0.16,0.16,0,0,1,0,.09l-0.21,0H214a0.19,0.19,0,0,1-.11-0.08l-0.32-.51-1.46-2.26-2.67-4.26h0s0,0-.06,0v0.12c0,1.29.11,2.59,0.11,3.89,0,0.08,0,.12,0,0.2s0,0.27,0,.42c0,0.42,0,.89,0,1.33,0,0.29,0,.6,0,0.9,0,0.15,0,.24-0.3.24l0,0-0.56,0H208Z" transform="translate(-42.02 -125.88)"/><path class="cls-1" d="M219.37,261.95c0-1.69-.06-3.37-0.06-5.06,0-.26.17-0.2,0.35-0.23h1.17l0.18,0a0.21,0.21,0,0,1,.24.14v0.14a0.69,0.69,0,0,1,0,.18v0.44c0,0.39,0,.78,0,1.19v0.47a0.38,0.38,0,0,0,0,.14v0.29c0,0.56,0,3.1,0,3.66v2s0,0.35,0,.38c0,0.29,0,.36,0,0.72v0a0.05,0.05,0,0,1,0,0v0.24a0.07,0.07,0,0,0,0,.06c0,0.08,0,.21,0,0.26v0s0,0.26,0,.3a0.46,0.46,0,0,1-.14,0H220l-0.53,0c-0.12,0-.14-0.14-0.14-0.23C219.32,265.41,219.37,263.7,219.37,261.95Z" transform="translate(-42.02 -125.88)"/><path class="cls-1" d="M225.81,267l-0.38-.33-0.24-.59c0-.08,0-0.2,0-0.29v-4.17c0-.42,0-1,0-1.45v-1c0-.2,0-0.33,0-0.5l0.11-.81,0.27-.53,0.3-.3,0.5-.24,1.05-.12,0.41,0,0.95,0h0.9l0.17,0h0l1.11,0h0.29l0.71,0.18,0.27,0.15,0.38,0.39,0.24,0.5c0,0.32.06,0.92,0.06,1.33,0,0.14,0,.27-0.14.29l-1.26.29-0.29.06h0c-0.06,0-.09,0-0.11-0.06v-0.14c0-.3,0-0.63,0-0.95v-0.41s-0.06,0-.08,0h-0.3l-0.93,0-1.05,0H228c-0.26,0-.53,0-0.81,0s-0.23.27-.23,0.54,0,0.27,0,.38V261c0,0.38,0,.54,0,0.89,0,1.12.06,2.23,0.06,3.36v0.42c0,0.09.12,0.11,0.18,0.11,0.53,0,1-.06,1.57-0.06s1,0,1.52,0H231a0.18,0.18,0,0,0,.11-0.08v-1.84c0-.26,0-0.36,0-0.59V263a0.22,0.22,0,0,0-.2-0.06h0l-1.75,0a0.14,0.14,0,0,1-.11-0.08v-1.49a0.12,0.12,0,0,1,.09-0.06h3.72a0.07,0.07,0,0,1,.06,0v4.38l-0.11.48-0.35.56-0.33.24-0.48.18-0.83.08h-1.42a2.28,2.28,0,0,0-.33,0h-2.21l-0.66-.17Z" transform="translate(-42.02 -125.88)"/><path class="cls-1" d="M236.49,267.21c0-.68,0-1.39.06-2v-2.23c0-.13,0-1.11,0-1.25s0-.3,0-0.36v-3.63a7.19,7.19,0,0,1,0-.77,0.19,0.19,0,0,1,.23-0.23h1.43c0.09,0,.26,0,0.26.14h0a8.63,8.63,0,0,0-.06,1c0,0.15,0,.33,0,0.41l0,2.53a2.35,2.35,0,0,0,0,.45v0.15a0.16,0.16,0,0,0,.08.06c0.72,0,1.43-.06,2.15-0.06l0.15,0h0.21c0.42,0,.87,0,1.31,0,0.08,0,.17,0,0.17-0.08v-0.39c0-1.36,0-2.71,0-4.05,0-.2.11-0.21,0.27-0.21h0l0.18,0h1.29a0.16,0.16,0,0,1,.14.15c0,0.38-.08.77-0.08,1.14s0.06,1,.06,1.49c0,0.15,0,.32,0,0.48,0,0.71,0,1.43,0,2.11v1a0.38,0.38,0,0,0,0,.18c0,0.86,0,1.7,0,2.56v1.34c0,0.08,0,.29-0.12.29h-1.7a0.11,0.11,0,0,1-.06-0.11v-0.18c0-.65,0-1.25,0-1.88v-0.6c0-.48,0-1,0-1.45a0.2,0.2,0,0,0,0-.12h-2.56c-0.42,0-.84,0-1.28,0h-0.14a0.11,0.11,0,0,0-.08.09c0,0.77,0,1.55,0,2.32v1c0,0.08,0,.36,0,0.44v0c0,0.08,0,.2,0,0.32a0.2,0.2,0,0,1-.13.17h-0.15c-0.2,0-.39,0-0.6,0l-0.89,0a0.11,0.11,0,0,1-.14-0.09v-0.12Z" transform="translate(-42.02 -125.88)"/><path class="cls-1" d="M250.22,265.14V264s0-.38,0-0.42c0-1.66,0-3.31,0-5v-0.29a0.22,0.22,0,0,0-.18,0h-1.75l-0.78,0h-0.09a0.13,0.13,0,0,1-.09-0.12V256.9a0.18,0.18,0,0,1,.11-0.21h5c0.78,0,1.6,0,2.41,0a0.18,0.18,0,0,1,.21.14c0,0.26,0,.53,0,0.8s0,0.33,0,.5v0.15l-0.06.06h-2.62a0.17,0.17,0,0,0-.21.17h0c0,0.06,0,.35,0,0.39v2.73a1,1,0,0,1,0,.21,2.82,2.82,0,0,1,0,.36v1a2.13,2.13,0,0,1,0,.44v0c0,0.06,0,.35,0,0.41v0.63c0,0.44,0,.89,0,1.3,0,0.24,0,.47,0,0.66s0,0.39,0,.59-0.18.18-.3,0.18a1.78,1.78,0,0,1-.39,0,1.45,1.45,0,0,1-.47.08c-0.18,0-.39,0-0.54,0h-0.17a0.22,0.22,0,0,1-.08-0.21C250.19,266.48,250.22,265.8,250.22,265.14Z" transform="translate(-42.02 -125.88)"/><path class="cls-1" d="M264.41,256.81a0.14,0.14,0,0,1,.17-0.11l1,0h0.26a0.45,0.45,0,0,1,.14,0l3.06,5.6,0.08,0.11a0.07,0.07,0,0,0,.09-0.06l3-5.62s0.09,0,.1-0.08h0.21l0.83,0c0.21,0,.38,0,0.38.26s0,0.5,0,.74c0,0.08,0,.12,0,0.18s0,0.29,0,.42v0.08a1.63,1.63,0,0,1,0,.23,3.12,3.12,0,0,1,0,.33h0c0,0.18.06,0.33,0.06,0.51s0,0.27,0,.42c0,1.42.09,2.85,0.09,4.29,0,0.65,0,1.31,0,2,0,0.24,0,.51,0,0.77v0.33l-0.06.09h-0.59l-1,0h0a0.2,0.2,0,0,1-.24-0.17c0.09-1.23,0-2.47.08-3.72,0-.92.08-1.85,0.08-2.79a0.28,0.28,0,0,0,0-.21L269.1,266a0.12,0.12,0,0,1,0,0h0a0.18,0.18,0,0,1-.15-0.11l-2.83-5.42s0,0,0,0,0,0,0,.06c0,1.48.11,3,.11,4.44,0,0.44,0,.89,0,1.34,0,0.24,0,.5,0,0.72s0,0.32-.27.32h-1.4a0.19,0.19,0,0,1-.12-0.23C264.31,263.76,264.41,260.31,264.41,256.81Z" transform="translate(-42.02 -125.88)"/><path class="cls-1" d="M280.37,256.89a0.14,0.14,0,0,1,.15-0.11l1,0h0.27a0.25,0.25,0,0,1,.09.09l2.58,7.37v0.1l1,2.74a0.3,0.3,0,0,1,.06.2c0,0.08,0,.09-0.11.12h-0.18l-0.78,0c-0.2,0-.39,0-0.59,0h-0.15a0.08,0.08,0,0,1-.06-0.06L283,265.19a1,1,0,0,0-.35,0l-0.17,0-3.16,0-0.06,0-0.72,2.15a0.24,0.24,0,0,1-.2.09H277a0.14,0.14,0,0,1-.15-0.15Zm1.88,6.7h0.12a0,0,0,0,0,0,0l-1.28-4.1h0s0,0,0,0l-0.17.38-1.11,3.54v0.06a0.13,0.13,0,0,0,.06.11h0.62a1.86,1.86,0,0,0,.3,0C281,263.58,282,263.59,282.26,263.59Z" transform="translate(-42.02 -125.88)"/><path class="cls-1" d="M288.31,267c0-.35,0-0.54,0-0.95v-4c0-.6,0-1.21,0-1.82,0-1.14,0-2.27,0-3.42a0.16,0.16,0,0,1,.11-0.18h3.07a0.17,0.17,0,0,0,.09,0h2.15l0.54,0.09,0.44,0.18a2.18,2.18,0,0,1,.62.71l0.11,0.29,0.06,0.54v2.33s0,0.14,0,.18v0c0,0.27,0,.5,0,0.75l-0.18.54-0.11.17-0.53.42-0.36.15c-0.17.08-1,.06-1,0.14h0a0.06,0.06,0,0,0,0,0l2.76,4a0.15,0.15,0,0,1-.09.14H295.9l-0.27,0H295l-1,0a0.14,0.14,0,0,1-.15,0l-2.73-4.17-0.09,0h-0.89a0.07,0.07,0,0,0-.08.08v0.13c0,0.69,0,1.4,0,2.09v0.26a0.06,0.06,0,0,0,0,0c0,0.08,0,.18,0,0.24,0,0.38,0,.74,0,1.11a1.69,1.69,0,0,0,0,.27,0.32,0.32,0,0,1-.15,0h-1.55a0.11,0.11,0,0,1-.11-0.09V267Zm1.91-5.48h3a0.53,0.53,0,0,0,.47-0.21l0,0c0-.24,0-1.13,0-1.61V258.8a0.58,0.58,0,0,0-.74-0.56l-1.6,0h0l-1,0h0c-0.09,0-.24,0-0.24.12v3.06A0.1,0.1,0,0,0,290.22,261.53Z" transform="translate(-42.02 -125.88)"/><path class="cls-1" d="M305.38,267.37H305.3l-0.41,0-0.08,0-3.61-4.8h0a0.07,0.07,0,0,0-.06.08v0.23c0,0.65,0,1.28,0,1.94s0,1.07,0,1.66c0,0.21,0,.47,0,0.72v0.12a0.26,0.26,0,0,1-.24.11h-1.52a0.15,0.15,0,0,1-.11-0.17v-0.06s0-.23,0-0.26v-2.73c0-.06,0-0.29,0-0.33v-0.06c0-.12,0-0.68,0-0.8v-5.51c0-.09,0-0.5,0-0.56v-0.08c0-.14.09-0.17,0.21-0.17l0.56,0,0.47,0h0l0,0,0.18,0h0.06c0.12,0,.27,0,0.27.17s0,0.17,0,.24,0,0.14,0,.23,0,0.27,0,.41c0,0.29,0,.62.08,0.92,0,0,0,.2,0,0.21v0c0,0.18,0,.41,0,0.63,0,0.41,0,.81,0,1.27v0.5a0.06,0.06,0,0,0,.06.06h0l3.24-4.59,0,0c0.14,0,1.19,0,1.54,0h0.3a0.14,0.14,0,0,1,.08.11,0.17,0.17,0,0,1,0,.14l-3.49,4.79a0.4,0.4,0,0,0,0,.11l4.16,5.38a0.17,0.17,0,0,1,0,.09,0.15,0.15,0,0,1-.15.14h0l-1,0Z" transform="translate(-42.02 -125.88)"/><path class="cls-1" d="M310.25,266.92a2.55,2.55,0,0,1,.06-0.75,0.05,0.05,0,0,0,0,0V260.4s0-.29,0-0.33v0c0-.44,0-0.87,0-1.28s0-1,0-1.55v-0.24c0-.2.12-0.2,0.27-0.2a2,2,0,0,1,.32,0h4.92l0.54,0h0.26a0.16,0.16,0,0,1,.12.17v1.33a0.1,0.1,0,0,1-.11.09h-0.45a0.76,0.76,0,0,1-.2,0H314.6c-0.44,0-1,0-1.51,0a1.49,1.49,0,0,0-1.07.18v0.41c0,0.32,0,.65,0,0.93s0,0.54,0,.81v0a0.47,0.47,0,0,1,0,.13v0.12c0,0.14,0,.23.42,0.23,0.72,0,1.46-.06,2.15-0.06,0.14,0,.24,0,0.24.2v1.48a0.23,0.23,0,0,1-.24.11c-0.29,0-.57,0-0.89,0h-0.39a2.41,2.41,0,0,1-.57,0c-0.14,0-.21,0-0.44,0s-0.3.06-.3,0.21c0,0.9,0,1.76,0,2.67a0.11,0.11,0,0,0,.09.08h0.18c1.4,0,2.8,0,4.2,0,0.3,0,.42,0,0.42.32s0,0.59,0,.89v0.23a0.24,0.24,0,0,1-.06.17h-0.75c-1.39,0-2.79,0-4.19,0h-1.58a0.14,0.14,0,0,1-.11-0.11v-0.35Z" transform="translate(-42.02 -125.88)"/><path class="cls-1" d="M322.64,265.14V264s0-.38,0-0.42c0-1.66,0-3.31,0-5v-0.29a0.22,0.22,0,0,0-.18,0h-1.75l-0.78,0h-0.09a0.13,0.13,0,0,1-.09-0.12V256.9a0.18,0.18,0,0,1,.1-0.21h5c0.78,0,1.6,0,2.41,0a0.18,0.18,0,0,1,.21.14c0,0.26,0,.53,0,0.8s0,0.33,0,.5v0.15l-0.06.06h-2.62a0.17,0.17,0,0,0-.21.17h0c0,0.06,0,.35,0,0.39v2.73a1,1,0,0,1,0,.21,2.82,2.82,0,0,1,0,.36v1a2.13,2.13,0,0,1,0,.44v0c0,0.06,0,.35,0,0.41v0.63c0,0.44,0,.89,0,1.3,0,0.24,0,.47,0,0.66s0,0.39,0,.59-0.18.18-.3,0.18a1.78,1.78,0,0,1-.39,0,1.45,1.45,0,0,1-.47.08c-0.18,0-.39,0-0.54,0h-0.17a0.22,0.22,0,0,1-.08-0.21C322.61,266.48,322.64,265.8,322.64,265.14Z" transform="translate(-42.02 -125.88)"/><path class="cls-1" d="M161.29,148.92a12.86,12.86,0,0,1,.48-2.08c0.88-2.63,2.16-4.65,7.06-7.64,2.3-1.43,4.79-3.44,4.79-6.66a4.92,4.92,0,0,0-5.16-5c-5.08,0-5.27,3.4-5.27,5.12,0,0.55,0,1.46-1.06,1.46a0.85,0.85,0,0,1-1-1,7.26,7.26,0,0,1,7.42-7.24,6.42,6.42,0,0,1,6.58,6.58c0,4.54-3.51,6.8-6.73,9a14,14,0,0,0-4.13,3.55,8.8,8.8,0,0,0-1.35,4.28c0,0.58.11,0.77,0.44,0.84a21.49,21.49,0,0,0,3,.11c3.84,0,6.58-.37,7.39-0.37a0.88,0.88,0,0,1,1,1c0,1-.77,1.1-1.46,1.1-1.68,0-4.17-.07-6.29,0s-4,.07-4.65.07a1.22,1.22,0,0,1-1.32-1.39A7.49,7.49,0,0,1,161.29,148.92Z" transform="translate(-42.02 -125.88)"/><path class="cls-1" d="M181.26,131.29a6.78,6.78,0,0,1,7.1-5.41,6.48,6.48,0,0,1,6.77,6.8c0,1.06,0,2.74,0,6.33,0,2.45,0,5.71,0,6.11a7.05,7.05,0,0,1-7,7.24,6.51,6.51,0,0,1-6.88-6.88c0-.18,0-5.52-0.07-7.31C181.11,135.54,180.82,133.3,181.26,131.29ZM188,150.6c4.17,0,5.49-3,5.49-6.33,0,0,.11-3.11.11-5.08s-0.07-5.74-.15-6.44c-0.22-2.52-1.5-5.08-5.56-5.08-3.88,0-5,3-5.12,5.85,0,1.06-.07,3.33-0.07,5.19,0,2.19.11,5.16,0.15,6C182.9,147.57,184.22,150.6,188,150.6Z" transform="translate(-42.02 -125.88)"/><path class="cls-1" d="M206.79,146.25c0,1,.07,4.35.07,5,0,0.84-.11,1.13-1.13,1.13-0.73,0-.88-0.33-0.88-1,0-1.54.15-3.62,0.22-6,0.15-4.94.29-10.83,0.29-12.4,0-1.87,0-3.66-.07-4s-0.18-.62-0.48-0.62a2,2,0,0,0-1,.66,12.77,12.77,0,0,1-2.49,1.76c-0.33.18-1.68,0.88-1.94,0.15a2.17,2.17,0,0,1-.15-0.62c0-.51.33-0.62,0.88-0.84a12.05,12.05,0,0,0,3.62-2.3c0.77-.7,1-1.21,1.72-1.21a2.26,2.26,0,0,1,1,.22,1,1,0,0,1,.73.88c0,0.18-.11,1.5-0.15,2.82C206.93,133,206.79,141.35,206.79,146.25Z" transform="translate(-42.02 -125.88)"/><path class="cls-1" d="M221.7,152.36c-3.69,0-7.06-3.26-7.06-9.18,0-4.5.73-8.85,4.13-13a12.86,12.86,0,0,1,6-4,4,4,0,0,1,1.17-.26,1,1,0,0,1,.66,1c0,0.48-.4.59-1.57,1a10.92,10.92,0,0,0-5.93,4.57,13.39,13.39,0,0,0-2.27,6.14,0.39,0.39,0,0,0,.4.48c0.66,0,1.79-2.23,5.41-2.23s6.36,2.49,6.36,7.24a8.86,8.86,0,0,1-1.28,4.94A6.71,6.71,0,0,1,221.7,152.36Zm5.71-7.64c0-3-1.1-6.25-5.38-6.25a5.32,5.32,0,0,0-4.9,3.18,7.65,7.65,0,0,0-.7,3.22c0,2.78,1.68,5.93,5.67,5.93C223.79,150.79,227.41,149.62,227.41,144.72Z" transform="translate(-42.02 -125.88)"/><path class="cls-1" d="M124.95,144.77l-0.33-.26-0.26-.42-0.12-.47c0-.06,0-0.41,0-0.45v-3.71c0-.14,0-1.23,0-1.37v-1.31c0-.33.11-1.19,0.11-1.25l0.33-.56,0.3-.26,0.42-.18a2.69,2.69,0,0,1,.56-0.09h1.84c0.41,0,.83,0,1.25,0l0.32,0h1l0.42,0,0.5,0.18v0l0.29,0.2,0.35,0.44a1.69,1.69,0,0,1,.21.83c0,0.41,0,.65,0,0.92v0a0.75,0.75,0,0,0,0,.18v0.47c0,0.21,0,.54,0,0.74v2.29a4.36,4.36,0,0,0,0,.44c0,0.17,0,.32,0,0.45s0,0.38,0,.56a0.14,0.14,0,0,0,0,.09V143a0.48,0.48,0,0,0,0,.12c0,0.09,0,.14,0,0.21A1.82,1.82,0,0,1,131,145l-0.57.12h-2.61a0.29,0.29,0,0,0-.14,0l-0.17,0h-1.58l-0.47-.06Zm1.17-1.33a0.22,0.22,0,0,0,.15,0l0.68,0h3.22a9.07,9.07,0,0,0,.09-1.79c0-1.85,0-3.71,0-5.56a0.12,0.12,0,0,0-.09-0.06H130c-1.28,0-2.55,0-3.81,0a0.1,0.1,0,0,0-.08.08v2.33l0,0.24V143Z" transform="translate(-42.02 -125.88)"/><path class="cls-1" d="M135.91,144.53l-0.26-.35-0.2-.74c0-.11,0-0.48,0-0.54v-5.06c0-.44,0-0.74,0-1.17v-0.33l0.14-.89,0.23-.38,0.35-.32,0.36-.17,0.77-.14h2.12a0.14,0.14,0,0,0,.08,0h1.34l0.8,0.17,0.12,0.06,0.57,0.6,0.23,0.69v0.54s0,0,0,.06v0c0,0.18,0,1,0,1.17a0.14,0.14,0,0,1,0,.11,0.17,0.17,0,0,1-.11.15l-1.64.38a0.11,0.11,0,0,1-.11-0.14c0-.65,0-1.33,0-2v-0.2c0-.09-0.23-0.09-0.32-0.09l-0.24,0h-1.45l-1.13,0h-0.27a0.13,0.13,0,0,0-.06.11c0,1,0,2,0,3,0,1.37,0,2.79.08,4.19,0,0.09.11,0.11,0.18,0.11l1,0h2.18c0.09,0,.11-0.12.11-0.2,0-.83-0.08-1.64-0.08-2.47,0-.12,0-0.18.15-0.18l1.6,0.33a0.18,0.18,0,0,1,.14.21c0,0.27,0,.54,0,0.81s0,0.6,0,.89c0,0.09,0,.18,0,0.26s0,0.12,0,.21a1.25,1.25,0,0,1,0,.44l-0.17.44-0.47.48-0.54.29-0.68.08h-2.88l0,0-0.87,0-0.5-.15Z" transform="translate(-42.02 -125.88)"/><path class="cls-1" d="M148.41,142.79v-1.1s0-.38,0-0.42c0-1.66,0-3.31,0-5V136a0.22,0.22,0,0,0-.18,0l-1,0h-1.6a0.13,0.13,0,0,1-.09-0.12v-1.31a0.18,0.18,0,0,1,.11-0.21h0.12l2.44,0h1.45l0.44,0h0l0.5,0c0.78,0,1.6,0,2.41,0a0.18,0.18,0,0,1,.21.14c0,0.26,0,.53,0,0.8s0,0.33,0,.5v0.15l-0.06.06h-1.91l-0.71,0a0.17,0.17,0,0,0-.21.17v0c0,0.06,0,.35,0,0.39v2.73a1,1,0,0,1,0,.21,3,3,0,0,1,0,.36v1a2.15,2.15,0,0,1,0,.44v0c0,0.06,0,.35,0,0.41v0.63c0,0.44,0,.89,0,1.3,0,0.24,0,.47,0,0.66s0,0.39,0,.59-0.18.18-.3,0.18a1.77,1.77,0,0,1-.39,0,1.44,1.44,0,0,1-.47.08l-0.54,0h-0.17a0.22,0.22,0,0,1-.08-0.21C148.38,144.13,148.41,143.46,148.41,142.79Z" transform="translate(-42.02 -125.88)"/><path class="cls-1" d="M238.21,136.39a0.4,0.4,0,0,0,0-.12l-1.67.39h-0.12a2,2,0,0,1-.06-0.83,0.49,0.49,0,0,1,.08-0.36l3.45-1.21a0.16,0.16,0,0,1,.18.09v0.21c0,3.22-.12,6.28-0.12,9.41l0,0.09c0,0.14,0,.29,0,0.42v0.24a0.36,0.36,0,0,0,0,.12s0,0,0,.06-0.12.08-.18,0.08l-0.86,0-0.5,0h-0.26a0.17,0.17,0,0,1-.06-0.15C238,142,238.21,139.21,238.21,136.39Zm-0.23-.24s0,0,0,0,0,0,0,0l0,0A0,0,0,0,0,238,136.15Zm1.84,8s0,0,0,0a0,0,0,0,0,0,0l0,0A0,0,0,0,0,239.82,144.13Z" transform="translate(-42.02 -125.88)"/><path class="cls-1" d="M244.57,144.72l-0.18-.14-0.33-.33-0.17-.33-0.12-.75c0-.26,0-0.51,0-0.78a0.11,0.11,0,0,1,.08-0.14l1.2-.32a0.16,0.16,0,0,1,.09,0l0.32-.06a0.12,0.12,0,0,1,.14.12c0,0.45-.06.84-0.06,1.3v0.17a0.9,0.9,0,0,0,.29,0h0c0.74,0,1.46,0,2.2,0l0.35,0a0.46,0.46,0,0,0,.54-0.42c0-.6,0-1.16,0-1.73a0.84,0.84,0,0,0-1-1l-1.1,0h-0.26c-0.09,0-.09-0.08-0.09-0.17s0-.38,0-0.57,0-.35,0-0.56c0,0,0-.18.06-0.18h1.23a2.31,2.31,0,0,0,.47-0.06,1.36,1.36,0,0,0,.41-1.21c0-.38,0-0.74,0-1v-0.29a0.42,0.42,0,0,0-.35-0.38h-0.89a6.73,6.73,0,0,0-1.69.11c0,0.38,0,.75,0,1.13v0.29a0.12,0.12,0,0,1-.15.11l-1.42-.32a0.23,0.23,0,0,1-.23-0.09v-1l0.09-.56,0.17-.41,0.36-.38v0a1.31,1.31,0,0,1,.74-0.32c0.47,0,.72,0,1.2,0h0.63c0.42,0,.81,0,1.21,0h0.38l0.74,0.18,0.35,0.24,0.35,0.41,0.09,0.18,0.15,0.69v0.09a0.34,0.34,0,0,0,0,.06,0.15,0.15,0,0,0,0,.08V138l-0.11.44-0.24.48-0.44.33-0.17.1s0,0,0,.06,0,0,0,0l0.68,0.3,0.38,0.38,0.21,0.41,0.06,0.51v2.29a0.32,0.32,0,0,0,0,.12,1.55,1.55,0,0,1-.53,1.05l-0.48.27L249,145l-0.53,0c-0.75,0-1.51.06-2.24,0.06l-0.71,0h-0.21Z" transform="translate(-42.02 -125.88)"/><path class="cls-1" d="M255.78,142.79v-1.1s0-.38,0-0.42c0-1.66,0-3.31,0-5V136a0.22,0.22,0,0,0-.18,0l-1,0H253a0.12,0.12,0,0,1-.09-0.12v-1.31a0.18,0.18,0,0,1,.1-0.21h0.12l2.44,0H257l0.44,0h0l0.5,0c0.78,0,1.6,0,2.41,0a0.18,0.18,0,0,1,.21.14c0,0.26,0,.53,0,0.8s0,0.33,0,.5v0.15l-0.06.06h-1.91l-0.71,0a0.17,0.17,0,0,0-.21.17v0c0,0.06,0,.35,0,0.39v2.73a1,1,0,0,1,0,.21,2.83,2.83,0,0,1,0,.36v1a2.12,2.12,0,0,1,0,.44v0c0,0.06,0,.35,0,0.41v0.63c0,0.44,0,.89,0,1.3,0,0.24,0,.47,0,0.66s0,0.39,0,.59-0.18.18-.3,0.18a1.78,1.78,0,0,1-.39,0,1.44,1.44,0,0,1-.47.08L256,145h-0.17a0.22,0.22,0,0,1-.08-0.21C255.75,144.13,255.78,143.46,255.78,142.79Z" transform="translate(-42.02 -125.88)"/><path class="cls-1" d="M263.29,144.86c0-.68,0-1.39.06-2v-2.23c0-.14,0-1.11,0-1.25s0-.3,0-0.36v-3.63a7.17,7.17,0,0,1,0-.77,0.19,0.19,0,0,1,.23-0.23l0.33,0,0.36,0,0.5,0,0.24,0c0.09,0,.26,0,0.26.14v0a8.64,8.64,0,0,0-.06,1c0,0.15,0,.33,0,0.41l0,2.53a2.35,2.35,0,0,0,0,.45V139a0.16,0.16,0,0,0,.08.06c0.72,0,1.43-.06,2.15-0.06l0.15,0h0.21c0.42,0,.87,0,1.31,0,0.08,0,.17,0,0.17-0.08v-0.39c0-1.36,0-2.71,0-4.05,0-.2.11-0.21,0.27-0.21H271a0.16,0.16,0,0,1,.14.15c0,0.38-.08.77-0.08,1.14s0.06,1,.06,1.49c0,0.15,0,.32,0,0.48,0,0.71,0,1.43,0,2.11v1a0.38,0.38,0,0,0,0,.18c0,0.86,0,1.7,0,2.56v1.34c0,0.08,0,.29-0.12.29h-1.7a0.11,0.11,0,0,1-.06-0.11v-0.18c0-.65,0-1.25,0-1.88v-0.6c0-.48,0-1,0-1.45a0.2,0.2,0,0,0,0-.12h-2.56c-0.42,0-.84,0-1.28,0h-0.14a0.11,0.11,0,0,0-.08.09c0,0.77,0,1.55,0,2.32v1c0,0.08,0,.36,0,0.44v0c0,0.08,0,.2,0,0.32a0.2,0.2,0,0,1-.13.17h-0.15c-0.2,0-.39,0-0.6,0l-0.89,0a0.11,0.11,0,0,1-.14-0.09v-0.12Z" transform="translate(-42.02 -125.88)"/><path class="cls-1" d="M134.36,220.26a1.41,1.41,0,0,1-.37,0,4.19,4.19,0,0,1-3-3.09,7.78,7.78,0,0,1,.25-3.52,21.24,21.24,0,0,1,.95-2.9,9.11,9.11,0,0,1,.9-1.58,8.85,8.85,0,0,0,.58-1l0.47-1c0.26-.55.51-1.07,0.77-1.58a1.4,1.4,0,1,1,2.49,1.27c-0.24.48-.48,1-0.73,1.51l-0.48,1a11,11,0,0,1-.76,1.28,7,7,0,0,0-.64,1.1,18.36,18.36,0,0,0-.82,2.51,5.31,5.31,0,0,0-.24,2.23,1.4,1.4,0,0,0,1,1A1.4,1.4,0,0,1,134.36,220.26Z" transform="translate(-42.02 -125.88)"/><path class="cls-1" d="M121.63,219.91h-0.14a4.84,4.84,0,0,1-3.72-1.37A5.88,5.88,0,0,1,116.4,215l0-.16a10.59,10.59,0,0,1,0-3.24,19.12,19.12,0,0,1,.87-3.14c0.09-.25.18-0.5,0.27-0.76a15.62,15.62,0,0,1,.89-2.23,8.66,8.66,0,0,1,1.13-1.58,8.86,8.86,0,0,0,.65-0.83c0.18-.28.35-0.59,0.52-0.92a10.62,10.62,0,0,1,1-1.63,14.44,14.44,0,0,1,1.4-1.48c0.24-.23.46-0.45,0.67-0.66s0.44-.48.65-0.72a13.92,13.92,0,0,1,1.41-1.46,11.79,11.79,0,0,1,1.82-1.21c0.26-.15.51-0.29,0.73-0.43s0.52-.37.8-0.58A7.71,7.71,0,0,1,131,192.8a9.35,9.35,0,0,1,3.35-.61,5.06,5.06,0,0,1,3.74,1.63,5.87,5.87,0,0,1,1.32,3.57,11.35,11.35,0,0,1-.11,3.37,19.23,19.23,0,0,1-.95,3.09c-0.09.24-.17,0.49-0.26,0.74a15.78,15.78,0,0,1-.89,2.22h0c-0.42.81-.9,1.73-1.45,2.6-0.18.28-.35,0.58-0.53,0.9a11.89,11.89,0,0,1-1,1.64,24.85,24.85,0,0,1-1.67,1.86l-0.34.36a12,12,0,0,1-1.56,1.32c-0.27.2-.53,0.39-0.75,0.59s-0.5.47-.76,0.73a8.91,8.91,0,0,1-1.51,1.31,13.94,13.94,0,0,1-2.6,1.24l-0.24.09A8.32,8.32,0,0,1,121.63,219.91ZM134.39,195a6.53,6.53,0,0,0-2.33.41,5.71,5.71,0,0,0-1.16.76c-0.31.23-.62,0.47-1,0.7s-0.57.35-.84,0.51a9.35,9.35,0,0,0-1.4.92,11.65,11.65,0,0,0-1.13,1.17c-0.23.26-.47,0.53-0.72,0.8s-0.51.51-.76,0.75a12.17,12.17,0,0,0-1.14,1.2,8.42,8.42,0,0,0-.74,1.22c-0.2.37-.4,0.75-0.64,1.13a11.11,11.11,0,0,1-.86,1.11,6.38,6.38,0,0,0-.79,1.07,13.22,13.22,0,0,0-.72,1.84c-0.1.29-.19,0.57-0.29,0.84a16.31,16.31,0,0,0-.74,2.68,8.06,8.06,0,0,0,0,2.42l0,0.16a3.31,3.31,0,0,0,.62,1.93,2.08,2.08,0,0,0,1.69.5h0.07a5.84,5.84,0,0,0,2.21-.27l0.25-.1a11.58,11.58,0,0,0,2.1-1,6.82,6.82,0,0,0,1-.92c0.29-.29.59-0.6,0.94-0.9s0.6-.48.89-0.7a9.6,9.6,0,0,0,1.21-1l0.35-.37c0.51-.53,1-1.08,1.49-1.65a9.68,9.68,0,0,0,.79-1.27c0.19-.35.39-0.71,0.63-1.07,0.49-.75.91-1.57,1.32-2.36h0a13.21,13.21,0,0,0,.73-1.84c0.09-.27.19-0.55,0.28-0.81a16.51,16.51,0,0,0,.82-2.63,8.47,8.47,0,0,0,.08-2.55,3.7,3.7,0,0,0-.57-2A2.29,2.29,0,0,0,134.39,195Z" transform="translate(-42.02 -125.88)"/><path class="cls-1" d="M288.32,219.86a4.83,4.83,0,0,1-3.68-1.36,5.9,5.9,0,0,1-1.42-3.5c0-.19-0.06-0.42-0.1-0.65a7.72,7.72,0,0,1-.09-2.78,19.58,19.58,0,0,1,1-3.14,11.7,11.7,0,0,1,1-1.87c0.19-.33.38-0.64,0.54-1l0.16-.31c0.39-.76.79-1.54,1.28-2.3s1.06-1.48,1.6-2.17l0.17-.22,0.55-.72a16.83,16.83,0,0,1,1.3-1.61,13.74,13.74,0,0,1,1.58-1.37c0.24-.19.48-0.37,0.7-0.56s0.46-.41.69-0.62a12.18,12.18,0,0,1,1.63-1.33,15.61,15.61,0,0,1,2.76-1.48,9.24,9.24,0,0,1,3.31-.75,5.2,5.2,0,0,1,3.54,1.55,5.35,5.35,0,0,1,1.84,3.29,8.82,8.82,0,0,1-.21,2.93l-0.07.41a17,17,0,0,1-.81,3,25,25,0,0,1-1.25,2.82,1.4,1.4,0,1,1-2.48-1.28,22.28,22.28,0,0,0,1.12-2.51,14.33,14.33,0,0,0,.68-2.56l0.08-.43a6.91,6.91,0,0,0,.19-2,2.56,2.56,0,0,0-.93-1.62,2.54,2.54,0,0,0-1.68-.85,6.73,6.73,0,0,0-2.29.55,13.25,13.25,0,0,0-2.26,1.23,10,10,0,0,0-1.25,1c-0.25.23-.5,0.46-0.77,0.69s-0.53.43-.8,0.64a11.47,11.47,0,0,0-1.27,1.09,14.49,14.49,0,0,0-1.08,1.35c-0.2.26-.39,0.53-0.59,0.79l-0.17.22c-0.52.66-1,1.29-1.45,2s-0.77,1.33-1.14,2.06l-0.16.31c-0.2.39-.41,0.75-0.62,1.09a9.55,9.55,0,0,0-.74,1.42,17.43,17.43,0,0,0-.84,2.68,5.25,5.25,0,0,0,.1,1.81c0,0.26.09,0.54,0.12,0.81a3.15,3.15,0,0,0,.67,1.89,2,2,0,0,0,1.65.49,5.71,5.71,0,0,0,2-.37,12.4,12.4,0,0,0,2.06-1.09c0.31-.19.63-0.35,0.94-0.51a6.8,6.8,0,0,0,1.2-.71l0.72-.56a11.79,11.79,0,0,0,1.24-1,1.4,1.4,0,1,1,2,2,14.24,14.24,0,0,1-1.53,1.27l-0.64.49a9.16,9.16,0,0,1-1.69,1c-0.27.14-.52,0.26-0.74,0.4a14.52,14.52,0,0,1-2.55,1.33A8.53,8.53,0,0,1,288.32,219.86Z" transform="translate(-42.02 -125.88)"/><path class="cls-1" d="M204.17,219.94a4.73,4.73,0,0,1-3.61-1.51,5.84,5.84,0,0,1-1.83-3.4A10.48,10.48,0,0,1,199,212l0.07-.36c0-.22.08-0.45,0.11-0.69a12.57,12.57,0,0,1,.58-2.51,8.44,8.44,0,0,1,1-1.77,10.5,10.5,0,0,0,.62-1c0.52-1,1-1.82,1.47-2.57a19.94,19.94,0,0,1,1.32-1.75l0.48-.59c0.19-.24.38-0.49,0.56-0.74a16,16,0,0,1,1.28-1.59c0.23-.24.45-0.5,0.68-0.78a11.59,11.59,0,0,1,1.35-1.43,23.1,23.1,0,0,1,2.46-1.79,11.73,11.73,0,0,1,2.36-1.1l0.49-.19,0,0a9,9,0,0,1,3.19-.82,4.85,4.85,0,0,1,3.6,1.71,5.69,5.69,0,0,1,1.49,3.43c0,0.19.05,0.38,0.08,0.59a8.3,8.3,0,0,1,.06,2.84,19.24,19.24,0,0,1-.87,3.17,13.69,13.69,0,0,1-1,2c-0.16.29-.33,0.59-0.49,0.89h0a21.87,21.87,0,0,1-1.22,2l-0.35.53c-0.18.28-.35,0.59-0.53,0.91a11.37,11.37,0,0,1-1,1.64,9.6,9.6,0,0,1-1.4,1.37,10.12,10.12,0,0,0-.77.69,27.8,27.8,0,0,1-2.14,2.06,21.31,21.31,0,0,1-2.39,1.7l-0.07,0c-0.26.17-.51,0.35-0.77,0.54a8.25,8.25,0,0,1-1.86,1.13A8.69,8.69,0,0,1,204.17,219.94Zm12.9-24.9a7,7,0,0,0-2.18.62l0,0-0.53.2a9.41,9.41,0,0,0-1.82.83,20.38,20.38,0,0,0-2.16,1.57,9.37,9.37,0,0,0-1,1.1c-0.25.3-.51,0.61-0.8,0.91a13.69,13.69,0,0,0-1.05,1.32c-0.2.27-.4,0.54-0.61,0.81l-0.51.63a17.49,17.49,0,0,0-1.14,1.51c-0.43.67-.86,1.41-1.34,2.34a13,13,0,0,1-.79,1.28,6.4,6.4,0,0,0-.69,1.19,10.24,10.24,0,0,0-.44,2c0,0.27-.08.52-0.13,0.77l-0.07.38a8.71,8.71,0,0,0-.25,2.25,3.22,3.22,0,0,0,1.08,1.79,1.94,1.94,0,0,0,1.59.64,6.08,6.08,0,0,0,2.29-.3,6.2,6.2,0,0,0,1.23-.78c0.29-.21.58-0.43,0.91-0.64l0.07,0a19,19,0,0,0,2.09-1.48,25.11,25.11,0,0,0,1.93-1.86,12.39,12.39,0,0,1,1-.9,7.25,7.25,0,0,0,1-1,9.17,9.17,0,0,0,.77-1.25c0.19-.36.4-0.72,0.63-1.09l0.36-.55a19.59,19.59,0,0,0,1.07-1.75h0c0.18-.35.36-0.67,0.54-1a11.55,11.55,0,0,0,.78-1.55,16.47,16.47,0,0,0,.74-2.71,5.79,5.79,0,0,0-.08-1.92c0-.24-0.07-0.47-0.09-0.69a2.87,2.87,0,0,0-.74-1.82A2.06,2.06,0,0,0,217.07,195Z" transform="translate(-42.02 -125.88)"/><path class="cls-1" d="M190.29,211.92a1.4,1.4,0,0,1,0-2.8,8.74,8.74,0,0,0,1.9-.29l0.63-.14,0.51-.1a10.33,10.33,0,0,0,2-.52,15,15,0,0,0,2.3-1.24,8.19,8.19,0,0,0,1.2-1c0.24-.24.49-0.48,0.76-0.72a14.8,14.8,0,0,0,1.35-1.43l0.45-.51,0.45-.5a19,19,0,0,0,1.29-1.53c0.24-.33.48-0.64,0.71-0.94a13.29,13.29,0,0,0,.9-1.24,5.76,5.76,0,0,0,.66-1.35c0.08-.23.19-0.55,0.41-1.07a1.4,1.4,0,1,1,2.57,1.11c-0.18.42-.26,0.66-0.33,0.87a8.24,8.24,0,0,1-.91,1.87,15.23,15.23,0,0,1-1.09,1.53c-0.21.27-.43,0.56-0.65,0.86a21.41,21.41,0,0,1-1.49,1.77l-0.43.48-0.42.48a17.13,17.13,0,0,1-1.62,1.7c-0.21.18-.42,0.39-0.64,0.61a10.53,10.53,0,0,1-1.64,1.4,17.84,17.84,0,0,1-2.73,1.47,12.54,12.54,0,0,1-2.53.69l-0.48.1-0.58.13A11.16,11.16,0,0,1,190.29,211.92Z" transform="translate(-42.02 -125.88)"/><path class="cls-1" d="M107,220.1a5.42,5.42,0,0,1-2.63-.71,4.66,4.66,0,0,1-2.38-2.78,6.08,6.08,0,0,1,.05-3.44,14.24,14.24,0,0,1,1.1-2.85c0.13-.26.25-0.57,0.37-0.89a10.26,10.26,0,0,1,.84-1.8,10.62,10.62,0,0,1,1.06-1.36,10.74,10.74,0,0,0,.73-0.9c0.22-.32.44-0.65,0.65-1s0.59-.92.92-1.37a11.49,11.49,0,0,0,.68-1.1,13.38,13.38,0,0,1,.79-1.29c0.31-.43.63-0.8,0.94-1.16a10.34,10.34,0,0,0,.79-1,18.61,18.61,0,0,0,1.31-2.26,1.4,1.4,0,1,1,2.53,1.19,21.28,21.28,0,0,1-1.51,2.61,12.52,12.52,0,0,1-1,1.27c-0.28.33-.55,0.63-0.79,1a11.21,11.21,0,0,0-.63,1,13.71,13.71,0,0,1-.85,1.38c-0.29.39-.55,0.81-0.84,1.25s-0.46.71-.7,1.06a13,13,0,0,1-.92,1.14,8.44,8.44,0,0,0-.8,1,7.87,7.87,0,0,0-.6,1.32c-0.14.37-.29,0.75-0.48,1.13a11.59,11.59,0,0,0-.9,2.29,3.39,3.39,0,0,0-.1,1.9,1.89,1.89,0,0,0,1.05,1.18,2.48,2.48,0,0,0,1.82.31,6.67,6.67,0,0,0,2.1-1.1l0.34-.23a12.51,12.51,0,0,0,1.81-1.36,27.41,27.41,0,0,0,1.93-2l0.64-.74c0.44-.5.85-1,1.2-1.44s0.83-1.21,1.2-1.79l0.39-.61a15.82,15.82,0,0,1,.93-1.31,6.28,6.28,0,0,0,.68-1,1.4,1.4,0,1,1,2.44,1.36,8.88,8.88,0,0,1-.93,1.41,13.23,13.23,0,0,0-.79,1.11l-0.38.59c-0.38.59-.8,1.26-1.3,1.94s-0.89,1.11-1.35,1.63l-0.61.7a30.06,30.06,0,0,1-2.13,2.24,14.85,14.85,0,0,1-2.21,1.68l-0.33.22a8.82,8.82,0,0,1-3.07,1.51A5.33,5.33,0,0,1,107,220.1Z" transform="translate(-42.02 -125.88)"/><path class="cls-1" d="M110.35,198.52a13.05,13.05,0,0,1-1.51-.11c-0.32,0-.63-0.07-0.9-0.08a6.79,6.79,0,0,1-3.27-.74,3.91,3.91,0,0,1-2-3.36,9.69,9.69,0,0,1,.47-3.17A17,17,0,0,1,104,189l0.28-.62a1.4,1.4,0,0,1,2.56,1.13l-0.29.64a14.93,14.93,0,0,0-.71,1.73,7,7,0,0,0-.35,2.24,1.14,1.14,0,0,0,.63,1.09,4.44,4.44,0,0,0,1.95.35c0.38,0,.75.06,1.12,0.1a8.14,8.14,0,0,0,1.48.08c0.64,0,1.28-.07,1.89-0.09l0.89,0a1.4,1.4,0,0,1,.12,2.79l-0.93,0c-0.58,0-1.19,0-1.77.08Z" transform="translate(-42.02 -125.88)"/><path class="cls-1" d="M261.93,208.49a1.4,1.4,0,0,1-1.17-2.16,10,10,0,0,0,.63-1.19,10.41,10.41,0,0,1,.85-1.56l0.76-1.11c0.34-.49.66-1,1-1.43a12.6,12.6,0,0,1,1.16-1.35,8,8,0,0,0,.82-1,20,20,0,0,0,1.46-2.48,1.4,1.4,0,1,1,2.53,1.19,22.54,22.54,0,0,1-1.66,2.84,10.06,10.06,0,0,1-1.11,1.33,10.15,10.15,0,0,0-.91,1.06c-0.31.44-.63,0.9-1,1.38l-0.78,1.13a8.29,8.29,0,0,0-.61,1.15,12.39,12.39,0,0,1-.82,1.53A1.4,1.4,0,0,1,261.93,208.49Z" transform="translate(-42.02 -125.88)"/><path class="cls-1" d="M265.38,198.42c-0.52,0-1,0-1.47-.09s-0.6-.06-0.87-0.07-0.53,0-.82,0a4.53,4.53,0,0,1-2.61-.43,4.12,4.12,0,0,1-1.69-3.64v-0.16a8.4,8.4,0,0,1,.28-3l0.12-.41a18,18,0,0,1,.82-2.38,1.4,1.4,0,1,1,2.56,1.13,15.32,15.32,0,0,0-.69,2l-0.13.43a5.75,5.75,0,0,0-.17,2.08v0.17c0.05,1.12.26,1.33,0.33,1.36a3.91,3.91,0,0,0,1.07,0c0.32,0,.67,0,1,0s0.7,0,1,.08a9.3,9.3,0,0,0,1.56.07c0.58,0,1.14,0,1.69,0,0.39,0,.76,0,1.11,0a1.4,1.4,0,0,1,.12,2.79c-0.42,0-.85,0-1.26,0s-1,0-1.45,0Z" transform="translate(-42.02 -125.88)"/><path class="cls-1" d="M143.33,216.29" transform="translate(-42.02 -125.88)"/><path class="cls-1" d="M135.18,220.33a4.38,4.38,0,0,1-1.19-.16,1.4,1.4,0,0,1,.75-2.69,4.07,4.07,0,0,0,2.06-.28l0.22-.07a7.08,7.08,0,0,0,2-.84,15.93,15.93,0,0,0,2-1.74,9.12,9.12,0,0,0,.93-1.18c0.23-.32.46-0.65,0.73-1s0.51-.6.76-0.88a14.93,14.93,0,0,0,1-1.23l0.67-.93c0.35-.48.69-0.94,0.94-1.34a17.36,17.36,0,0,0,1-1.72l0.35-.69a1.4,1.4,0,0,1,2.48,1.29l-0.34.67a20,20,0,0,1-1.11,1.92c-0.31.5-.68,1-1.06,1.52l-0.64.88a17.21,17.21,0,0,1-1.21,1.47c-0.24.27-.47,0.53-0.69,0.8s-0.4.53-.61,0.82a11.3,11.3,0,0,1-1.24,1.55,18.56,18.56,0,0,1-2.36,2,9.49,9.49,0,0,1-2.83,1.23l-0.21.06A8.41,8.41,0,0,1,135.18,220.33Z" transform="translate(-42.02 -125.88)"/><path class="cls-1" d="M280,209.71" transform="translate(-42.02 -125.88)"/><path class="cls-1" d="M190.29,211.73a12.72,12.72,0,0,1-3.15-.47l-0.07,0-0.52-.12a7.34,7.34,0,0,1-2.75-1,6.67,6.67,0,0,1-2-2.79l-0.07-.15a7.84,7.84,0,0,1-.84-3.38,10.08,10.08,0,0,1,.67-3.25l0.13-.42a10,10,0,0,1,1.15-2.65,11.66,11.66,0,0,1,2.2-2.51,10.17,10.17,0,0,1,3-1.57l0.35-.13a8,8,0,0,1,3-.72,1.4,1.4,0,0,1,0,2.8,5.71,5.71,0,0,0-2,.53L189,196a7.7,7.7,0,0,0-2.2,1.11,8.94,8.94,0,0,0-1.67,1.92,7.64,7.64,0,0,0-.81,1.94l-0.13.41a7.9,7.9,0,0,0-.54,2.39,5.16,5.16,0,0,0,.57,2.2l0.07,0.15a4.24,4.24,0,0,0,1.14,1.71,5.34,5.34,0,0,0,1.74.58l0.56,0.13,0.07,0a10.29,10.29,0,0,0,2.49.39A1.4,1.4,0,1,1,190.29,211.73Z" transform="translate(-42.02 -125.88)"/><path class="cls-1" d="M179.4,220h-0.81a4.89,4.89,0,0,1-3.75-1.34,6,6,0,0,1-1.45-3.55,11.44,11.44,0,0,1,.06-3.4,18.78,18.78,0,0,1,.85-3.13,25.85,25.85,0,0,1,1.26-2.91,1.4,1.4,0,1,1,2.48,1.28,22.77,22.77,0,0,0-1.13,2.6,16,16,0,0,0-.72,2.67,8.8,8.8,0,0,0,0,2.58,3.39,3.39,0,0,0,.7,1.94,2.17,2.17,0,0,0,1.72.47H179a5,5,0,0,0,1.88-.2,4.62,4.62,0,0,0,1-.7,11.6,11.6,0,0,1,1.06-.8c0.26-.17.53-0.32,0.8-0.48a9.63,9.63,0,0,0,1.4-.93,26,26,0,0,0,1.91-1.85c0.57-.6,1.21-1.28,1.78-2s1-1.37,1.55-2.19a12.67,12.67,0,0,0,.77-1.46c0.14-.31.29-0.61,0.45-0.92l0.25-.48a18.5,18.5,0,0,0,1-2,16.92,16.92,0,0,0,.81-2.62,10.16,10.16,0,0,0,.28-2.58,3.41,3.41,0,0,0-.83-1.94,2.37,2.37,0,0,0-1.75-.63,1.4,1.4,0,1,1,0-2.8,5.12,5.12,0,0,1,3.78,1.5,6.16,6.16,0,0,1,1.58,3.56,12,12,0,0,1-.31,3.4,19.19,19.19,0,0,1-.93,3.08,20.49,20.49,0,0,1-1.11,2.37l-0.24.47c-0.14.27-.27,0.55-0.4,0.82a15,15,0,0,1-.95,1.79c-0.58.89-1.13,1.68-1.7,2.4s-1.37,1.59-2,2.2a28.6,28.6,0,0,1-2.12,2.05,12.09,12.09,0,0,1-1.8,1.21l-0.7.42a9.16,9.16,0,0,0-.81.61,6.58,6.58,0,0,1-1.76,1.14A6.68,6.68,0,0,1,179.4,220Z" transform="translate(-42.02 -125.88)"/><path class="cls-1" d="M310.53,222.35a4.42,4.42,0,0,1-2.19-.5,5.38,5.38,0,0,1-2.43-3,6.3,6.3,0,0,1,0-3.65,10.3,10.3,0,0,1,1.49-3c0.13-.21.26-0.42,0.38-0.62a7.26,7.26,0,0,1,1.43-1.89,12.86,12.86,0,0,1,2.55-1.69,16.17,16.17,0,0,1,2.38-.94l0.36-.12c0.77-.26,1.56-0.46,2.33-0.65l0.39-.1L318,206v-0.22c0-.49,0-1-0.05-1.52a9.8,9.8,0,0,1,.21-1.85,8.55,8.55,0,0,0,.16-1.16,26.57,26.57,0,0,1,.29-2.86l0-.21a15.59,15.59,0,0,1,.7-3.12,9.11,9.11,0,0,1,1.66-2.95,1.4,1.4,0,0,1,2.12,1.82A6.41,6.41,0,0,0,322,196a13.08,13.08,0,0,0-.56,2.56l0,0.21a24.49,24.49,0,0,0-.27,2.56,10.68,10.68,0,0,1-.2,1.56,7.44,7.44,0,0,0-.16,1.33c0,0.34,0,.67,0,1l0.68-.18,1-.26c0.78-.19,1.55-0.43,2.36-0.68l0.17-.05c0.39-.12.77-0.21,1.13-0.29a9.5,9.5,0,0,0,1.37-.39l0.19-.08a20.88,20.88,0,0,0,2.16-1,5.87,5.87,0,0,0,1-.79,11.85,11.85,0,0,1,1-.81c0.28-.2.55-0.38,0.82-0.55a8.23,8.23,0,0,0,1.23-.9l0.53-.49a12.26,12.26,0,0,0,1.28-1.29,22.55,22.55,0,0,0,1.46-2.11,8.45,8.45,0,0,0,.58-1.23c0.15-.36.31-0.74,0.5-1.12a1.4,1.4,0,0,1,2.5,1.25c-0.15.3-.28,0.61-0.42,0.94a10.62,10.62,0,0,1-.8,1.65,24.92,24.92,0,0,1-1.65,2.37,14.77,14.77,0,0,1-1.57,1.6l-0.49.45a10.62,10.62,0,0,1-1.65,1.23c-0.25.16-.48,0.31-0.7,0.47a9.67,9.67,0,0,0-.75.63,8.12,8.12,0,0,1-1.53,1.16,23.31,23.31,0,0,1-2.44,1.1l-0.19.08a11.75,11.75,0,0,1-1.79.52c-0.34.08-.65,0.15-0.95,0.24l-0.17.05c-0.82.25-1.66,0.51-2.51,0.72l-1,.26-1.22.31,0,0.3a7,7,0,0,1-.26,4,9.44,9.44,0,0,0-.24.94,10.82,10.82,0,0,1-1,3.16,13.53,13.53,0,0,1-1.75,2.67l-0.16.19a9.48,9.48,0,0,1-2.25,2.12,6.9,6.9,0,0,1-3.11.82l-0.35,0C311.45,222.31,311,222.35,310.53,222.35Zm7.71-13.53-0.32.08-0.4.1c-0.75.19-1.46,0.36-2.12,0.59l-0.37.12a13.86,13.86,0,0,0-2,.77,10.13,10.13,0,0,0-2,1.32,5,5,0,0,0-.86,1.2c-0.14.24-.29,0.49-0.45,0.73a8.13,8.13,0,0,0-1.13,2.13,3.71,3.71,0,0,0-.07,2.06,2.6,2.6,0,0,0,1.14,1.48,4.05,4.05,0,0,0,1.94.08l0.36,0a4.47,4.47,0,0,0,1.92-.44,7.37,7.37,0,0,0,1.56-1.53l0.17-.19a10.8,10.8,0,0,0,1.38-2.13,8.21,8.21,0,0,0,.71-2.37,11.67,11.67,0,0,1,.31-1.24,6.5,6.5,0,0,0,.32-1.47A6.67,6.67,0,0,0,318.23,208.82Z" transform="translate(-42.02 -125.88)"/><path class="cls-1" d="M165.27,220.19a5.67,5.67,0,0,1-2.22-.53,4.11,4.11,0,0,1-2.39-2.77,9.06,9.06,0,0,1-.54-3.11,11,11,0,0,1,.32-2.12c0.06-.26.11-0.52,0.17-0.8a6.84,6.84,0,0,0,.08-0.89,7.85,7.85,0,0,1,.28-2,11.24,11.24,0,0,1,.68-1.62c0.17-.35.33-0.67,0.46-1,0.31-.79.67-1.56,1.05-2.37l0.1-.21c0.14-.29.26-0.61,0.39-0.94a15.28,15.28,0,0,1,.73-1.64,1.4,1.4,0,1,1,2.47,1.32,13,13,0,0,0-.59,1.35c-0.14.36-.29,0.73-0.46,1.1l-0.1.21c-0.36.78-.71,1.51-1,2.21-0.17.43-.36,0.82-0.54,1.2a9.07,9.07,0,0,0-.52,1.21,5.54,5.54,0,0,0-.16,1.32,9,9,0,0,1-.12,1.28c-0.06.3-.12,0.59-0.18,0.87a8.91,8.91,0,0,0-.26,1.58,6.37,6.37,0,0,0,.4,2.19,1.35,1.35,0,0,0,.81,1,2.06,2.06,0,0,0,1.62.22,5.84,5.84,0,0,0,1.22-.86l0.68-.55c0.25-.2.52-0.37,0.78-0.55a7.61,7.61,0,0,0,1.27-1,11.52,11.52,0,0,0,.91-1.14c0.22-.3.45-0.61,0.7-0.93s0.49-.57.73-0.84a12.57,12.57,0,0,0,1-1.19,7.08,7.08,0,0,0,.55-1,11.76,11.76,0,0,1,.7-1.34c0.5-.8,1-1.55,1.39-2.29a1.4,1.4,0,0,1,2.42,1.39c-0.45.78-.92,1.56-1.44,2.39a9.29,9.29,0,0,0-.53,1,9.23,9.23,0,0,1-.8,1.47,15.15,15.15,0,0,1-1.21,1.45c-0.23.25-.44,0.49-0.63,0.72s-0.43.55-.63,0.83a13.68,13.68,0,0,1-1.16,1.43,10.07,10.07,0,0,1-1.72,1.36c-0.23.15-.45,0.3-0.63,0.44l-0.62.49a7.5,7.5,0,0,1-2,1.31A4.06,4.06,0,0,1,165.27,220.19Z" transform="translate(-42.02 -125.88)"/><path class="cls-1" d="M88,224a1.4,1.4,0,0,1-1.24-2,3.94,3.94,0,0,0,.38-1,6.71,6.71,0,0,1,.6-1.56,6.58,6.58,0,0,1,.94-1.4,3.84,3.84,0,0,0,.59-0.87c0.32-.62.5-0.93,0.67-1.23s0.32-.57.62-1.16a7.12,7.12,0,0,0,.46-1.07,9.81,9.81,0,0,1,.62-1.43c0.3-.58.44-0.87,0.59-1.17s0.3-.63.63-1.26a9.62,9.62,0,0,1,.81-1.33,6.93,6.93,0,0,0,.61-1c0.33-.63.5-0.94,0.68-1.24s0.32-.56.62-1.14,0.5-.94.67-1.24,0.32-.57.62-1.15a8.19,8.19,0,0,0,.48-1.09,11,11,0,0,1,.62-1.4l0.63-1.21,0.62-1.19c0.29-.55.41-0.83,0.53-1.13s0.29-.68.62-1.33a12.63,12.63,0,0,1,.76-1.3,9.88,9.88,0,0,0,.61-1,10.65,10.65,0,0,0,.51-1.11,13.43,13.43,0,0,1,.62-1.36,10.56,10.56,0,0,0,.51-1.11,13.33,13.33,0,0,1,.62-1.36,1.4,1.4,0,1,1,2.48,1.29,10.56,10.56,0,0,0-.51,1.11,13.33,13.33,0,0,1-.62,1.36,10.62,10.62,0,0,0-.51,1.11,13.49,13.49,0,0,1-.62,1.36,12.63,12.63,0,0,1-.76,1.3,9.88,9.88,0,0,0-.61,1c-0.29.55-.41,0.83-0.53,1.13s-0.29.68-.62,1.33l-0.63,1.2-0.63,1.2a8.19,8.19,0,0,0-.48,1.09,11,11,0,0,1-.62,1.4c-0.32.62-.5,0.94-0.67,1.24s-0.32.57-.62,1.15-0.5.94-.68,1.24-0.32.56-.62,1.14a9.62,9.62,0,0,1-.81,1.33,6.93,6.93,0,0,0-.61,1c-0.3.58-.44,0.87-0.59,1.17s-0.3.63-.63,1.25a7.11,7.11,0,0,0-.47,1.07,9.82,9.82,0,0,1-.62,1.43c-0.32.62-.5,0.93-0.67,1.23s-0.32.57-.62,1.16a6.58,6.58,0,0,1-.94,1.4,3.84,3.84,0,0,0-.59.87,3.94,3.94,0,0,0-.38,1,6.71,6.71,0,0,1-.6,1.56A1.4,1.4,0,0,1,88,224Z" transform="translate(-42.02 -125.88)"/><path class="cls-1" d="M165.52,202.2a1.4,1.4,0,0,1-1.25-2,6.16,6.16,0,0,1,.94-1.4,3.47,3.47,0,0,0,.56-0.84l0.6-1.19,0.6-1.2c0.31-.61.46-0.91,0.62-1.21s0.31-.58.6-1.17a4.31,4.31,0,0,0,.38-1,7.05,7.05,0,0,1,.58-1.53,8.54,8.54,0,0,1,.81-1.34,5.85,5.85,0,0,0,.58-1c0.28-.56.4-0.84,0.52-1.13s0.28-.66.6-1.3,0.48-.93.65-1.23,0.31-.56.6-1.14a11.77,11.77,0,0,0,.5-1.11,14.45,14.45,0,0,1,.6-1.33c0.3-.59.44-0.88,0.58-1.18s0.3-.61.6-1.22a7.56,7.56,0,0,1,.85-1.36,4.88,4.88,0,0,0,.58-0.92,7.49,7.49,0,0,0,.45-1.07,10.16,10.16,0,0,1,.59-1.4,1.4,1.4,0,0,1,2.5,1.26,7.48,7.48,0,0,0-.45,1.07,10.19,10.19,0,0,1-.59,1.4,7.56,7.56,0,0,1-.85,1.36,4.88,4.88,0,0,0-.58.92c-0.3.59-.44,0.89-0.58,1.18s-0.3.61-.6,1.22a11.81,11.81,0,0,0-.5,1.11,14.48,14.48,0,0,1-.6,1.33c-0.31.62-.48,0.93-0.65,1.23s-0.31.56-.6,1.14-0.4.84-.53,1.13-0.28.66-.6,1.3a8.56,8.56,0,0,1-.81,1.34,5.82,5.82,0,0,0-.58,1,4.32,4.32,0,0,0-.38,1,7.05,7.05,0,0,1-.58,1.53c-0.31.61-.46,0.91-0.62,1.21s-0.31.58-.6,1.17l-0.6,1.19-0.6,1.2a6.18,6.18,0,0,1-.94,1.4,3.46,3.46,0,0,0-.56.84A1.4,1.4,0,0,1,165.52,202.2Z" transform="translate(-42.02 -125.88)"/><path class="cls-1" d="M331.11,235.42c-0.5,0-1,0-1.39-.08l-0.52,0a6.61,6.61,0,0,1-3.19-.85,7.21,7.21,0,0,1-2.41-2.75,8.88,8.88,0,0,1-.79-3.37,7.8,7.8,0,0,1,.29-2.37c0.06-.27.13-0.54,0.18-0.83s0.08-.51.11-0.8a9.17,9.17,0,0,1,.48-2.27,24.21,24.21,0,0,1,1.32-2.77,1.4,1.4,0,1,1,2.47,1.32,21.89,21.89,0,0,0-1.17,2.45,6.78,6.78,0,0,0-.32,1.61c0,0.32-.08.65-0.14,1s-0.13.64-.2,0.94a5.7,5.7,0,0,0-.23,1.53,6.33,6.33,0,0,0,.5,2.32,4.44,4.44,0,0,0,1.45,1.68,4.55,4.55,0,0,0,1.9.4l0.54,0a5.86,5.86,0,0,0,2.11,0,9.11,9.11,0,0,0,1.92-.93l0.36-.21,0.77-.41a7.87,7.87,0,0,0,1.52-.92,5.32,5.32,0,0,0,.79-1,11.48,11.48,0,0,1,.87-1.16,23.31,23.31,0,0,0,1.71-2.1c0.22-.31.45-0.6,0.67-0.88a11.31,11.31,0,0,0,1-1.35,1.4,1.4,0,0,1,2.42,1.39,13.84,13.84,0,0,1-1.19,1.69c-0.21.26-.4,0.51-0.58,0.76a25.82,25.82,0,0,1-1.9,2.35,9,9,0,0,0-.66.88,7.36,7.36,0,0,1-1.28,1.54,10.31,10.31,0,0,1-2,1.28l-0.66.35-0.34.2a11.19,11.19,0,0,1-2.57,1.21A6.43,6.43,0,0,1,331.11,235.42Z" transform="translate(-42.02 -125.88)"/><path class="cls-1" d="M326.3,221.28a1.4,1.4,0,0,1-1.25-2,9.29,9.29,0,0,1,.84-1.39,6.54,6.54,0,0,0,.62-1,8.57,8.57,0,0,0,.49-1.14,11.27,11.27,0,0,1,.62-1.45c0.31-.61.45-0.91,0.59-1.23s0.31-.66.63-1.31l0.62-1.25,0.63-1.27a11.47,11.47,0,0,1,.79-1.36,8.74,8.74,0,0,0,.62-1.07,12.3,12.3,0,0,1,.78-1.35,9.61,9.61,0,0,0,.62-1.09,3.22,3.22,0,0,0,.34-1,5.91,5.91,0,0,1,.58-1.7,10.78,10.78,0,0,1,.8-1.37,8.05,8.05,0,0,0,.62-1.06,8.78,8.78,0,0,0,.49-1.14,11.54,11.54,0,0,1,.62-1.45l0.62-1.25,0.63-1.27c0.33-.65.51-1,0.68-1.29s0.33-.59.63-1.2l0.65-1.27,0.63-1.24a8.76,8.76,0,0,1,.85-1.4,6,6,0,0,0,.62-1,6.63,6.63,0,0,0,.45-1.11,9.23,9.23,0,0,1,.62-1.5c0.33-.65.51-1,0.68-1.29s0.33-.59.63-1.2,0.49-1,.66-1.28,0.32-.6.63-1.22l1.27-2.51a1.4,1.4,0,1,1,2.5,1.26l-1.27,2.51c-0.32.64-.49,1-0.66,1.28s-0.32.6-.63,1.22-0.51,1-.68,1.29-0.33.59-.63,1.2a6.63,6.63,0,0,0-.45,1.11,9.23,9.23,0,0,1-.62,1.5,8.76,8.76,0,0,1-.85,1.4,6,6,0,0,0-.62,1l-0.65,1.26-0.63,1.24c-0.33.65-.51,1-0.68,1.29s-0.33.59-.63,1.2l-0.62,1.25-0.63,1.27a8.79,8.79,0,0,0-.49,1.14,11.54,11.54,0,0,1-.62,1.45,10.77,10.77,0,0,1-.8,1.37,8,8,0,0,0-.62,1.06,3.22,3.22,0,0,0-.34,1,5.92,5.92,0,0,1-.58,1.7,12.3,12.3,0,0,1-.78,1.35A9.61,9.61,0,0,0,334,208a11.47,11.47,0,0,1-.79,1.36,8.74,8.74,0,0,0-.62,1.07L332,211.7,331.35,213c-0.31.61-.45,0.91-0.59,1.23s-0.31.66-.63,1.31a8.56,8.56,0,0,0-.49,1.14,11.27,11.27,0,0,1-.62,1.45,9.24,9.24,0,0,1-.84,1.39,6.54,6.54,0,0,0-.62,1A1.4,1.4,0,0,1,326.3,221.28Z" transform="translate(-42.02 -125.88)"/><path class="cls-1" d="M202.5,207.58a1.4,1.4,0,0,1-1.25-2,9.71,9.71,0,0,0,.51-1.16,12.45,12.45,0,0,1,.63-1.45,14.61,14.61,0,0,1,.76-1.35,12,12,0,0,0,.64-1.13c0.33-.65.5-1,0.66-1.28s0.33-.62.64-1.24a14.36,14.36,0,0,1,.77-1.35,11.71,11.71,0,0,0,.64-1.12,9.91,9.91,0,0,0,.51-1.17,12.8,12.8,0,0,1,.63-1.44,9.17,9.17,0,0,1,.85-1.4,6.51,6.51,0,0,0,.63-1,1.4,1.4,0,1,1,2.5,1.26,9.18,9.18,0,0,1-.85,1.4,6.52,6.52,0,0,0-.63,1,10,10,0,0,0-.51,1.16,12.71,12.71,0,0,1-.63,1.44,14.36,14.36,0,0,1-.77,1.35,11.71,11.71,0,0,0-.64,1.12c-0.33.65-.5,1-0.66,1.29s-0.33.62-.64,1.24a14.61,14.61,0,0,1-.76,1.35,12,12,0,0,0-.64,1.13,9.7,9.7,0,0,0-.51,1.16,12.48,12.48,0,0,1-.63,1.45A1.4,1.4,0,0,1,202.5,207.58Z" transform="translate(-42.02 -125.88)"/><path class="cls-1" d="M142.49,220a1.4,1.4,0,0,1-1.25-2c0.3-.6.45-0.9,0.59-1.21s0.3-.63.61-1.25a5.52,5.52,0,0,0,.42-1.05,8.24,8.24,0,0,1,.59-1.5,7.27,7.27,0,0,1,.88-1.4,4.54,4.54,0,0,0,.59-0.92c0.32-.64.5-1,0.67-1.27s0.32-.57.61-1.15,0.4-.85.52-1.15,0.28-.68.61-1.34a10.93,10.93,0,0,1,.77-1.33,8.19,8.19,0,0,0,.6-1,9.21,9.21,0,0,0,.48-1.11,11.92,11.92,0,0,1,.6-1.4l0.62-1.23L151,198.4c0.33-.66.53-1,0.72-1.3s0.33-.54.61-1.1a10.6,10.6,0,0,0,.5-1.13,13.36,13.36,0,0,1,.61-1.38c0.3-.6.44-0.9,0.59-1.2s0.3-.63.61-1.25,0.4-.86.53-1.16,0.28-.67.61-1.33,0.41-.87.55-1.17,0.29-.66.61-1.31a14.62,14.62,0,0,1,.73-1.3,11.82,11.82,0,0,0,.6-1.09c0.31-.62.47-0.93,0.63-1.24s0.31-.6.61-1.2l0.6-1.21,0.61-1.23a11.39,11.39,0,0,1,.76-1.33,8.7,8.7,0,0,0,.6-1c0.32-.65.5-1,0.68-1.27s0.32-.56.61-1.14a1.4,1.4,0,1,1,2.5,1.25c-0.32.65-.5,1-0.68,1.27s-0.32.56-.61,1.14a11.42,11.42,0,0,1-.76,1.33,8.71,8.71,0,0,0-.6,1l-0.61,1.23L162,182.51c-0.31.62-.47,0.93-0.63,1.24s-0.31.6-.61,1.2a14.55,14.55,0,0,1-.73,1.3,11.87,11.87,0,0,0-.6,1.09c-0.29.58-.41,0.87-0.55,1.17s-0.29.66-.61,1.31-0.4.86-.53,1.16-0.28.67-.61,1.33-0.44.9-.59,1.2-0.3.63-.61,1.25a10.57,10.57,0,0,0-.49,1.13,13.37,13.37,0,0,1-.61,1.38c-0.33.66-.53,1-0.72,1.3s-0.33.54-.6,1.1l-0.62,1.23-0.61,1.21a9.16,9.16,0,0,0-.48,1.11,11.91,11.91,0,0,1-.6,1.4,10.91,10.91,0,0,1-.77,1.33,8.19,8.19,0,0,0-.6,1c-0.28.57-.4,0.85-0.52,1.15s-0.28.68-.61,1.34-0.5,1-.67,1.27-0.32.57-.61,1.15a7.29,7.29,0,0,1-.88,1.4,4.53,4.53,0,0,0-.58.92,5.53,5.53,0,0,0-.42,1.05,8.24,8.24,0,0,1-.59,1.5c-0.3.6-.45,0.9-0.59,1.21s-0.3.63-.61,1.25A1.4,1.4,0,0,1,142.49,220Z" transform="translate(-42.02 -125.88)"/><path class="cls-1" d="M188.95,176.13a1.4,1.4,0,0,1-1.27-2,11.65,11.65,0,0,0,.83-2.42,9.84,9.84,0,0,0,.13-2.51,7.15,7.15,0,0,0-.52-1.95l-0.15-.41-0.15-.44a6.79,6.79,0,0,0-.8-1.8,5,5,0,0,0-1.26-1l-0.66-.44-0.31-.22a6.38,6.38,0,0,0-1.73-1,7,7,0,0,0-2-.16h-0.34a9.09,9.09,0,0,0-2.43.23,11.57,11.57,0,0,0-2.33,1,15,15,0,0,0-2.17,1.42,19.22,19.22,0,0,0-2,1.75l-0.67.65a12.34,12.34,0,0,0-1.22,1.28,10.86,10.86,0,0,0-.8,1.25c-0.2.35-.41,0.7-0.64,1.07-0.41.62-.79,1.32-1.2,2.05l-0.18.32c-0.38.69-.86,1.55-1.29,2.44a1.4,1.4,0,0,1-2.52-1.21c0.43-.89.87-1.7,1.37-2.59l0.17-.31c0.43-.78.84-1.52,1.31-2.23,0.2-.3.37-0.61,0.56-0.93a13.07,13.07,0,0,1,1-1.58,14.94,14.94,0,0,1,1.49-1.57l0.6-.58a22,22,0,0,1,2.27-2,17.74,17.74,0,0,1,2.57-1.68,14.3,14.3,0,0,1,2.9-1.19,11.57,11.57,0,0,1,3.16-.33H181a9.24,9.24,0,0,1,2.9.29,8.72,8.72,0,0,1,2.54,1.41l0.29,0.21,0.56,0.38a7.18,7.18,0,0,1,2,1.69,9.06,9.06,0,0,1,1.2,2.56l0.14,0.42,0.14,0.39a9.5,9.5,0,0,1,.68,2.75,12.57,12.57,0,0,1-.18,3.22,14.33,14.33,0,0,1-1,3A1.4,1.4,0,0,1,188.95,176.13Z" transform="translate(-42.02 -125.88)"/><path class="cls-1" d="M210.19,192.36a1.4,1.4,0,0,1-1.26-2c0.27-.55.55-1.06,0.83-1.56,0.17-.3.33-0.6,0.49-0.9,0.53-1,.94-1.77,1.33-2.46l0.07-.12c0.45-.8.88-1.56,1.35-2.3s0.88-1.36,1.31-2l0.24-.35c0.36-.53.73-1,1.1-1.45,0.21-.26.42-0.52,0.62-0.78a9.37,9.37,0,0,0,.6-1,9.4,9.4,0,0,1,.93-1.43,11.6,11.6,0,0,1,1.3-1.27c0.28-.24.54-0.47,0.75-0.7a9,9,0,0,0,.69-0.87,8.75,8.75,0,0,1,1.13-1.34,12,12,0,0,1,1.53-1.14c0.29-.19.56-0.37,0.8-0.55s0.53-.44.8-0.69a10.78,10.78,0,0,1,1.44-1.15,24.86,24.86,0,0,1,2.58-1.38,21.17,21.17,0,0,1,2.74-1.13,13,13,0,0,1,2.43-.47l0.53-.07a14,14,0,0,1,3,0,11.22,11.22,0,0,1,3.06.6,7.75,7.75,0,0,1,2.5,1.66l0.16,0.14a6.65,6.65,0,0,1,1.89,2.69,6.3,6.3,0,0,1,.53,3.34,7.82,7.82,0,0,1-1.33,3,1.4,1.4,0,0,1-2.37-1.49,5.71,5.71,0,0,0,.93-1.92,3.8,3.8,0,0,0-.38-1.91,3.91,3.91,0,0,0-1.13-1.59l-0.17-.15a5.39,5.39,0,0,0-1.62-1.13,8.57,8.57,0,0,0-2.31-.44,11.43,11.43,0,0,0-2.44,0l-0.57.07a10.68,10.68,0,0,0-1.92.35,18.73,18.73,0,0,0-2.38,1,22.54,22.54,0,0,0-2.3,1.23,8.63,8.63,0,0,0-1.06.87c-0.3.27-.61,0.55-1,0.82s-0.65.46-1,.68a9.53,9.53,0,0,0-1.18.87,6.63,6.63,0,0,0-.77.93,11.53,11.53,0,0,1-.92,1.14c-0.3.32-.63,0.61-0.94,0.88a9.18,9.18,0,0,0-1,1,7.24,7.24,0,0,0-.65,1,11.79,11.79,0,0,1-.79,1.25c-0.22.29-.45,0.57-0.68,0.86s-0.67.83-1,1.26l-0.24.35c-0.41.61-.84,1.24-1.24,1.89s-0.85,1.44-1.29,2.21l-0.07.12c-0.38.66-.77,1.4-1.28,2.38-0.17.32-.35,0.64-0.52,1s-0.52.94-.75,1.42A1.4,1.4,0,0,1,210.19,192.36Z" transform="translate(-42.02 -125.88)"/><path class="cls-1" d="M271.2,220a1.4,1.4,0,0,1-1.25-2,10.19,10.19,0,0,0,.52-1.21,13.08,13.08,0,0,1,.64-1.49,1.4,1.4,0,0,1,2.5,1.25,10.21,10.21,0,0,0-.52,1.21,13,13,0,0,1-.64,1.49A1.4,1.4,0,0,1,271.2,220Z" transform="translate(-42.02 -125.88)"/><path class="cls-1" d="M277.94,206a1.4,1.4,0,0,1-1.25-2c0.32-.64.48-1,0.63-1.29s0.32-.66.65-1.31a12.14,12.14,0,0,1,.8-1.4,9.37,9.37,0,0,0,.64-1.12,9.63,9.63,0,0,1,.85-1.43,7,7,0,0,0,.64-1.07,5.59,5.59,0,0,0,.44-1.12,8.32,8.32,0,0,1,.62-1.59c0.31-.61.44-0.92,0.58-1.24s0.3-.7.64-1.38,0.53-1,.71-1.34,0.34-.6.65-1.22a14.68,14.68,0,0,1,.77-1.38A12.05,12.05,0,0,0,286,186c0.34-.68.54-1,0.73-1.35s0.34-.59.65-1.2a7.51,7.51,0,0,0,.48-1.16,10.25,10.25,0,0,1,.63-1.52A1.4,1.4,0,1,1,291,182a7.52,7.52,0,0,0-.48,1.16,10.25,10.25,0,0,1-.63,1.52c-0.34.68-.54,1-0.73,1.35s-0.34.59-.65,1.2a14.75,14.75,0,0,1-.77,1.38,12,12,0,0,0-.64,1.15c-0.34.68-.53,1-0.71,1.34s-0.34.6-.65,1.22-0.44.92-.58,1.24-0.3.7-.64,1.38A5.59,5.59,0,0,0,284,196a8.32,8.32,0,0,1-.62,1.59,9.63,9.63,0,0,1-.85,1.43,7,7,0,0,0-.64,1.07,12.16,12.16,0,0,1-.8,1.4,9.37,9.37,0,0,0-.64,1.12c-0.32.64-.47,1-0.63,1.28s-0.32.66-.65,1.32A1.4,1.4,0,0,1,277.94,206Z" transform="translate(-42.02 -125.88)"/><path class="cls-1" d="M290,182.87a1.4,1.4,0,0,1-1.27-2l0.29-.65c0.3-.68.59-1.33,0.92-2a10.35,10.35,0,0,0,.46-1.06,9.48,9.48,0,0,1,.74-1.6,10.67,10.67,0,0,1,1.22-1.55c0.24-.26.46-0.51,0.63-0.74a10.28,10.28,0,0,0,.6-0.95,8.29,8.29,0,0,1,1.06-1.54,20.18,20.18,0,0,1,2.24-2.06,11.54,11.54,0,0,1,2.38-1.38l0.35-.17a9.37,9.37,0,0,1,3.18-1,5.85,5.85,0,0,1,3.54.9,5.27,5.27,0,0,1,2.23,2.93,7.48,7.48,0,0,1,.14,3.36c0,0.19,0,.41-0.05.65a7.32,7.32,0,0,1-.48,2.49,1.4,1.4,0,1,1-2.58-1.09,4.88,4.88,0,0,0,.27-1.58c0-.27,0-0.55.07-0.82a5,5,0,0,0,0-2.11,2.53,2.53,0,0,0-1-1.44A3.12,3.12,0,0,0,303,169a7.06,7.06,0,0,0-2.19.73l-0.38.18a9,9,0,0,0-1.83,1,17.39,17.39,0,0,0-1.93,1.78,6.22,6.22,0,0,0-.69,1,12.69,12.69,0,0,1-.77,1.2c-0.25.34-.53,0.65-0.8,0.95a8.24,8.24,0,0,0-.92,1.14,7.35,7.35,0,0,0-.51,1.14,12.82,12.82,0,0,1-.59,1.35c-0.29.56-.56,1.16-0.84,1.8l-0.3.67A1.4,1.4,0,0,1,290,182.87Z" transform="translate(-42.02 -125.88)"/><path class="cls-1" d="M56,229.55a12.82,12.82,0,0,1-2.71-.2,12.12,12.12,0,0,1-2.88-1.09,11.76,11.76,0,0,1-2.51-1.78l-0.2-.18a11.46,11.46,0,0,1-1.93-2,15.77,15.77,0,0,1-1.56-2.58,19.53,19.53,0,0,1-1-2.79c-0.07-.26-0.17-0.54-0.27-0.83a11.88,11.88,0,0,1-.55-2,29.14,29.14,0,0,1-.29-2.9,16.29,16.29,0,0,1,0-1.93c0-.32,0-0.64,0-1a17.28,17.28,0,0,1,.18-1.86c0-.32.09-0.65,0.12-1s0-.66.06-1a14.28,14.28,0,0,1,.15-1.82c0-.26.08-0.52,0.12-0.78,0.1-.66.2-1.33,0.36-2,0.22-1,.45-1.9.69-2.76,0.16-.58.37-1.14,0.57-1.69,0.12-.33.25-0.66,0.36-1l0.15-.44c0.24-.73.49-1.48,0.78-2.23l0.22-.59c0.25-.67.51-1.35,0.81-2a8.42,8.42,0,0,1,.93-1.54,7,7,0,0,0,.6-0.93,10.54,10.54,0,0,0,.42-1.08,11,11,0,0,1,.67-1.61l0.44-.83c0.29-.56.59-1.14,0.93-1.71a11.24,11.24,0,0,1,1-1.41,10.67,10.67,0,0,0,.7-0.91,7.31,7.31,0,0,0,.5-1,8.65,8.65,0,0,1,.83-1.57,16.07,16.07,0,0,1,1.11-1.35c0.27-.3.52-0.59,0.74-0.88A12.7,12.7,0,0,1,56.78,175c0.29-.29.56-0.56,0.79-0.83a7.84,7.84,0,0,0,.64-0.94,9,9,0,0,1,1-1.44c0.46-.51.95-1,1.41-1.43l0.63-.62c0.47-.47,1-0.9,1.43-1.31l0.71-.64a16.79,16.79,0,0,1,1.4-1.12c0.31-.23.6-0.45,0.88-0.67,0.8-.67,1.61-1.27,2.29-1.78s1.29-.9,1.91-1.31l0.49-.32a7.33,7.33,0,0,0,.86-0.71,8.11,8.11,0,0,1,1.44-1.12,9.74,9.74,0,0,1,1.74-.73,9.34,9.34,0,0,0,1-.38c0.86-.41,1.75-0.84,2.68-1.19a28.72,28.72,0,0,1,2.77-.86l0.39-.11a21.66,21.66,0,0,1,2.57-.59l0.74-.12a13.47,13.47,0,0,1,2.27-.25,1.4,1.4,0,0,1,0,2.8,11.21,11.21,0,0,0-1.8.21l-0.8.13a19.33,19.33,0,0,0-2.24.52l-0.39.11a26.15,26.15,0,0,0-2.51.77c-0.82.31-1.66,0.71-2.47,1.1a11.56,11.56,0,0,1-1.3.5,7.41,7.41,0,0,0-1.25.51,5.86,5.86,0,0,0-.94.76,9.66,9.66,0,0,1-1.21,1l-0.5.33c-0.59.38-1.2,0.78-1.77,1.21s-1.42,1.06-2.17,1.69c-0.33.28-.67,0.53-1,0.77a14.43,14.43,0,0,0-1.18.93l-0.75.67c-0.46.4-.89,0.78-1.3,1.19l-0.66.65c-0.46.45-.89,0.87-1.3,1.32a6.72,6.72,0,0,0-.7,1,10.21,10.21,0,0,1-.88,1.29c-0.31.37-.65,0.7-1,1a10.42,10.42,0,0,0-.93,1c-0.28.36-.58,0.7-0.86,1a13.76,13.76,0,0,0-.92,1.12,6.39,6.39,0,0,0-.55,1.08,9.65,9.65,0,0,1-.72,1.41,12.93,12.93,0,0,1-.88,1.16,9,9,0,0,0-.79,1.06c-0.3.5-.57,1-0.86,1.58l-0.46.87a8.84,8.84,0,0,0-.49,1.21,12.79,12.79,0,0,1-.54,1.37,9.25,9.25,0,0,1-.84,1.34,6.13,6.13,0,0,0-.64,1c-0.27.63-.52,1.28-0.76,1.92l-0.23.6c-0.27.69-.5,1.41-0.73,2.11l-0.15.45c-0.12.37-.26,0.73-0.39,1.09-0.19.51-.37,1-0.5,1.46-0.23.81-.44,1.67-0.65,2.62-0.13.6-.23,1.22-0.32,1.83,0,0.27-.08.55-0.13,0.82a12,12,0,0,0-.11,1.48c0,0.39,0,.79-0.07,1.19s-0.08.72-.13,1.08a15,15,0,0,0-.16,1.56c0,0.35,0,.7-0.05,1.05a14,14,0,0,0,0,1.6c0.06,1,.14,1.89.26,2.63a9.44,9.44,0,0,0,.43,1.54c0.11,0.31.22,0.63,0.31,1a16.76,16.76,0,0,0,.86,2.4,13.12,13.12,0,0,0,1.3,2.12,9.18,9.18,0,0,0,1.49,1.51l0.21,0.18a9,9,0,0,0,1.91,1.38,9.68,9.68,0,0,0,2.23.86,11,11,0,0,0,2.28.14h0.16A16,16,0,0,0,59,226.5a10.69,10.69,0,0,1,1.37-.12,5.91,5.91,0,0,0,1.43-.17,9.92,9.92,0,0,0,1.45-.64c0.36-.18.73-0.37,1.13-0.54a17.25,17.25,0,0,0,1.64-.85l0.87-.48a11.34,11.34,0,0,1,1.35-.58,7.36,7.36,0,0,0,1.29-.58c0.52-.33,1-0.71,1.57-1.12l0.78-.58a11,11,0,0,0,1.09-1c0.33-.32.68-0.65,1.06-1a13.67,13.67,0,0,1,1.21-.85,9.42,9.42,0,0,0,1.16-.84,1.4,1.4,0,0,1,1.87,2.08,11.73,11.73,0,0,1-1.51,1.11,11.42,11.42,0,0,0-1,.68c-0.3.24-.59,0.52-0.89,0.81a13.17,13.17,0,0,1-1.39,1.21l-0.74.55c-0.56.42-1.14,0.86-1.75,1.24a9.65,9.65,0,0,1-1.79.83,9.13,9.13,0,0,0-1,.44l-0.81.45a19.62,19.62,0,0,1-1.91,1c-0.32.14-.64,0.3-1,0.47a12.17,12.17,0,0,1-1.88.81,8.2,8.2,0,0,1-2.14.29,8.52,8.52,0,0,0-1,.08,19,19,0,0,1-3.16.29H56Z" transform="translate(-42.02 -125.88)"/><path class="cls-1" d="M75.14,204.14a1.4,1.4,0,0,1,0-2.8,9.11,9.11,0,0,0,2.33-.38l0.15,0a11.15,11.15,0,0,0,2.18-.74c0.33-.17.66-0.3,1-0.44a6.89,6.89,0,0,0,1.35-.67,15.21,15.21,0,0,0,1.47-1.27l0.5-.47a8.46,8.46,0,0,0,.91-1.06c0.25-.32.5-0.65,0.79-1,0.48-.53.92-1.12,1.39-1.74l0.26-.34a8.76,8.76,0,0,1,1-1.09,5.39,5.39,0,0,0,.82-0.88l0.31-.46c0.4-.59.8-1.21,1.15-1.82a11.57,11.57,0,0,0,.6-1.3c0.16-.38.32-0.78,0.52-1.17l0.35-.7c0.3-.6.59-1.16,0.83-1.73,0.39-.91.71-1.74,1-2.52a11.38,11.38,0,0,0,.36-1.4c0.09-.4.17-0.8,0.29-1.22s0.26-.81.4-1.18a11.28,11.28,0,0,0,.43-1.38c0.2-1,.38-1.81.49-2.63a10.6,10.6,0,0,0,0-1.57c0-.35,0-0.72,0-1.09a12.9,12.9,0,0,0-.11-1.84c0-.25-0.05-0.5-0.08-0.75,0-.41,0-0.81,0-1.18a6.12,6.12,0,0,0-.1-1.37,9.57,9.57,0,0,0-.86-2l-0.14-.26a7.78,7.78,0,0,0-1.44-1.83,7,7,0,0,0-1.78-1.44,9.09,9.09,0,0,0-2.27-.68l-0.71-.16a7.71,7.71,0,0,0-1.75-.28,1.4,1.4,0,0,1,0-2.8,10.14,10.14,0,0,1,2.4.35L89.83,157a11.39,11.39,0,0,1,3,.93,9.68,9.68,0,0,1,2.51,2,10.49,10.49,0,0,1,1.93,2.5l0.13,0.26a12,12,0,0,1,1.09,2.59,8.22,8.22,0,0,1,.19,2c0,0.34,0,.66,0,1s0,0.46.07,0.7a15.22,15.22,0,0,1,.13,2.24c0,0.29,0,.61,0,0.94a13.09,13.09,0,0,1-.07,2c-0.12.93-.31,1.84-0.53,2.85a13.54,13.54,0,0,1-.53,1.73c-0.13.35-.25,0.69-0.34,1s-0.17.67-.25,1a13.65,13.65,0,0,1-.46,1.75c-0.3.83-.64,1.71-1.05,2.67-0.28.66-.6,1.29-0.91,1.91l-0.34.67c-0.15.31-.29,0.64-0.44,1a13.86,13.86,0,0,1-.76,1.62c-0.4.69-.83,1.35-1.25,2l-0.3.45a7.65,7.65,0,0,1-1.26,1.39,6.48,6.48,0,0,0-.72.74l-0.26.34c-0.48.64-1,1.3-1.54,1.91-0.22.25-.43,0.52-0.66,0.81A10.67,10.67,0,0,1,86,199.4l-0.48.45a17.51,17.51,0,0,1-1.75,1.51,9.22,9.22,0,0,1-1.9,1c-0.29.12-.56,0.23-0.8,0.35a13.48,13.48,0,0,1-2.72.95l-0.14,0A11.79,11.79,0,0,1,75.14,204.14Z" transform="translate(-42.02 -125.88)"/><path class="cls-1" d="M66,227.4a1.4,1.4,0,0,1-.62-2.65,5.24,5.24,0,0,0,1.47-1.25l0.27-.29a5.92,5.92,0,0,0,1.3-1.82,7.1,7.1,0,0,0,.32-1.66c0-.27.06-0.54,0.1-0.8,0.08-.51.2-1,0.31-1.44a11.54,11.54,0,0,0,.27-1.27c0-.2,0-0.4.07-0.6a12.08,12.08,0,0,1,.45-2.39l0-.05a8,8,0,0,1,1.47-3,7.15,7.15,0,0,1,2.68-2,5.51,5.51,0,0,1,3.62-.19,5.28,5.28,0,0,1,2.83,2.33,5.73,5.73,0,0,1,.85,3.49,7.62,7.62,0,0,1-1.2,3.11,8.5,8.5,0,0,1-1.71,1.78l-0.44.38A1.4,1.4,0,0,1,76.22,217l0.47-.4a6.58,6.58,0,0,0,1.17-1.17,4.88,4.88,0,0,0,.78-1.91,2.9,2.9,0,0,0-.46-1.74,2.57,2.57,0,0,0-1.28-1.11,2.76,2.76,0,0,0-1.75.13,4.43,4.43,0,0,0-1.6,1.22,5.66,5.66,0,0,0-.91,2l0,0.05a9.86,9.86,0,0,0-.33,1.85c0,0.21,0,.42-0.08.64a13.8,13.8,0,0,1-.33,1.59c-0.1.41-.2,0.8-0.26,1.18s-0.06.47-.09,0.71A9.39,9.39,0,0,1,71,222.4a8.5,8.5,0,0,1-1.89,2.74l-0.25.26a7.75,7.75,0,0,1-2.28,1.85A1.39,1.39,0,0,1,66,227.4Z" transform="translate(-42.02 -125.88)"/><path class="cls-1" d="M220.53,186.09a1.4,1.4,0,0,1-.08-2.79l1.24,0c0.54,0,1,0,1.53-.07a10.55,10.55,0,0,0,1.35-.25c0.44-.1.89-0.2,1.37-0.27s1-.18,1.53-0.3c0.37-.08.76-0.17,1.16-0.24S229.54,182,230,182a9.68,9.68,0,0,0,1.34-.18,12.74,12.74,0,0,0,1.51-.51c0.34-.13.69-0.26,1-0.38a13.39,13.39,0,0,1,1.32-.34,7.08,7.08,0,0,0,1.27-.36,18.42,18.42,0,0,0,2.28-1.29,6.48,6.48,0,0,0,1.2-1.11c0.19-.21.39-0.43,0.61-0.64l0.54-.51a5.54,5.54,0,0,0,1.12-1.23,1.4,1.4,0,1,1,2.45,1.35,7.85,7.85,0,0,1-1.67,1.93l-0.48.45c-0.17.17-.34,0.35-0.51,0.54a8.83,8.83,0,0,1-1.76,1.57,20.64,20.64,0,0,1-2.64,1.49,9.16,9.16,0,0,1-1.81.53c-0.37.08-.73,0.16-1,0.27s-0.59.21-.91,0.33a15,15,0,0,1-1.85.61,11.88,11.88,0,0,1-1.74.25c-0.4,0-.77.07-1.13,0.14s-0.67.14-1,.22c-0.57.13-1.15,0.26-1.78,0.34-0.35,0-.72.13-1.11,0.22a12.81,12.81,0,0,1-1.72.31c-0.58.05-1.16,0.06-1.72,0.08l-1.14,0h-0.08Z" transform="translate(-42.02 -125.88)"/><path class="cls-1" d="M210.53,186.08h-0.36a12,12,0,0,1-1.65-.21,10.71,10.71,0,0,0-1.24-.17,8.78,8.78,0,0,0-1.2.05,10.79,10.79,0,0,1-1.71.05c-0.54,0-1.08-.1-1.59-0.16s-0.86-.1-1.29-0.14-1.07-.11-1.58-0.18-0.87-.11-1.3-0.15a8.93,8.93,0,0,0-1.21,0,10.94,10.94,0,0,1-1.69,0,15.93,15.93,0,0,1-1.58-.27c-0.45-.09-0.87-0.18-1.27-0.22s-1.06-.16-1.56-0.26-0.87-.17-1.29-0.22-0.85-.08-1.31-0.11-1-.07-1.57-0.14-1-.17-1.53-0.26-0.89-.17-1.31-0.23l-1.6-.23-1.25-.18c-0.42-.06-0.86-0.09-1.32-0.13s-1-.08-1.56-0.15l-1.53-.24-1.32-.21a1.4,1.4,0,1,1,.41-2.77l1.36,0.22L179,180c0.44,0.06.89,0.1,1.37,0.13s1,0.07,1.49.14l1.28,0.19,1.56,0.22c0.51,0.07,1,.16,1.47.25s0.92,0.18,1.36.23,0.92,0.09,1.41.12,1,0.07,1.45.13,1,0.16,1.5.26,0.9,0.18,1.33.23,1,0.16,1.52.26,0.89,0.18,1.31.23a8.65,8.65,0,0,0,1.27,0,11.2,11.2,0,0,1,1.6,0c0.48,0,.95.11,1.4,0.17s1,0.13,1.44.17,0.94,0.09,1.39.15,1,0.12,1.45.15a8.77,8.77,0,0,0,1.29,0,11.28,11.28,0,0,1,1.58-.06,13,13,0,0,1,1.57.2,9.72,9.72,0,0,0,1.27.17c0.45,0,.91,0,1.4,0s0.95-.06,1.44-0.05a1.4,1.4,0,0,1,0,2.8H213c-0.35,0-.72,0-1.11,0S211,186.08,210.53,186.08Z" transform="translate(-42.02 -125.88)"/><path class="cls-1" d="M169.16,181.33l-0.22,0a11.29,11.29,0,0,1-1.36-.32,7.1,7.1,0,0,0-1-.24l-1.3-.17-1.15-.15-0.89-.09c-0.51,0-1-.09-1.61-0.18-0.41-.07-0.84-0.1-1.3-0.13s-1-.07-1.55-0.16-1-.2-1.5-0.32-0.88-.21-1.3-0.28-0.85-.1-1.31-0.14-1-.08-1.53-0.16-1-.21-1.52-0.34-0.87-.22-1.27-0.29-0.88-.11-1.35-0.16-1-.1-1.49-0.18a13.52,13.52,0,0,1-1.55-.37,7.83,7.83,0,0,0-2.51-.4,13.33,13.33,0,0,1-1.58-.13l-1.66-.26L139,176.7a11.39,11.39,0,0,1-1.58-.39,9.06,9.06,0,0,0-1.2-.31,12.15,12.15,0,0,0-1.3-.1,14.52,14.52,0,0,1-1.56-.12c-0.52-.08-1-0.19-1.49-0.29s-0.89-.2-1.31-0.26-0.9-.1-1.38-0.14-1-.08-1.45-0.15-1-.17-1.47-0.26-0.9-.18-1.33-0.24a8.14,8.14,0,0,0-1.25,0,10.52,10.52,0,0,1-1.61,0l-1.28-.17-1.54-.2c-0.47-.05-0.93-0.12-1.38-0.19s-1-.14-1.44-0.19-1-.15-1.51-0.25-0.89-.17-1.3-0.21a13.14,13.14,0,0,0-1.36,0c-0.48,0-1,0-1.49,0l-0.92-.08-1.9-.15c-0.51,0-1,0-1.55,0l-1.28,0a1.4,1.4,0,0,1,.12-2.79l1.19,0c0.55,0,1.11,0,1.69,0l2,0.15,0.91,0.07c0.38,0,.8,0,1.23,0a15.5,15.5,0,0,1,1.65,0,15.81,15.81,0,0,1,1.58.25c0.44,0.09.86,0.17,1.27,0.21s1,0.13,1.55.21l1.29,0.18,1.6,0.21,1.24,0.17a8.37,8.37,0,0,0,1.19,0,10.71,10.71,0,0,1,1.69,0c0.52,0.07,1,.17,1.52.27s0.88,0.18,1.3.24,0.85,0.09,1.3.13,1,0.08,1.55.16,1,0.19,1.52.3,0.87,0.2,1.29.26a12.19,12.19,0,0,0,1.26.09,14.27,14.27,0,0,1,1.6.13,11.27,11.27,0,0,1,1.59.39,9.19,9.19,0,0,0,1.2.31l1.15,0.18,1.68,0.26a11.15,11.15,0,0,0,1.26.09,10.45,10.45,0,0,1,3.16.5,11.19,11.19,0,0,0,1.23.3c0.43,0.07.87,0.11,1.33,0.16s1,0.1,1.51.18,1,0.21,1.52.34,0.87,0.22,1.28.29,0.85,0.1,1.31.14,1,0.08,1.54.17,1,0.2,1.5.32,0.88,0.21,1.3.28,0.84,0.1,1.3.13,1,0.07,1.55.16,1,0.12,1.41.16l1,0.1,1.17,0.15,1.27,0.16a9.25,9.25,0,0,1,1.43.32,8.85,8.85,0,0,0,1,.25A1.4,1.4,0,0,1,169.16,181.33Z" transform="translate(-42.02 -125.88)"/><path class="cls-1" d="M75.14,204.47a10.72,10.72,0,0,1-3.21-.43,6.7,6.7,0,0,1-2.4-1.54l-0.37-.32-0.41-.33a6.61,6.61,0,0,1-1.9-2.05,5.84,5.84,0,0,1-.54-2.3c0-.3-0.05-0.59-0.1-0.84a7.84,7.84,0,0,0-.21-0.78,6.55,6.55,0,0,1-.37-2.27,17.08,17.08,0,0,1,.51-3,20.13,20.13,0,0,1,1-2.83,22.43,22.43,0,0,1,1.25-2.69,7.87,7.87,0,0,1,1.19-1.5,8.77,8.77,0,0,0,.68-0.78,7.39,7.39,0,0,0,.49-0.83,7.76,7.76,0,0,1,1.09-1.64,28.8,28.8,0,0,1,2.09-2A18.12,18.12,0,0,1,75.57,177l0.67-.48,0.38-.28c0.62-.46,1.27-0.94,2-1.37s1.77-1,2.54-1.37l0.79-.41a18.19,18.19,0,0,1,1.79-.87c0.79-.32,1.68-0.63,2.71-1a6.27,6.27,0,0,1,1.78-.23,6,6,0,0,0,1-.08c0.28-.06.57-0.14,0.88-0.22a13.72,13.72,0,0,1,1.77-.39c0.59-.08,1.19-0.11,1.77-0.15l0.92-.06c0.69-.05,1.37-0.08,2.09-0.1l0.59,0a1.4,1.4,0,0,1,.11,2.79l-0.6,0c-0.69,0-1.33,0-2,.1l-1,.06c-0.55,0-1.07.06-1.56,0.13a11.21,11.21,0,0,0-1.41.32c-0.33.09-.68,0.18-1,0.26a8.24,8.24,0,0,1-1.49.14,4.2,4.2,0,0,0-1,.1c-1,.31-1.8.61-2.52,0.9a15.87,15.87,0,0,0-1.52.75L82.4,176c-0.72.36-1.57,0.79-2.34,1.26-0.61.37-1.2,0.81-1.77,1.23l-0.39.29-0.72.51a15.82,15.82,0,0,0-1.41,1.06,26.11,26.11,0,0,0-1.89,1.84,5.49,5.49,0,0,0-.69,1.08,9.53,9.53,0,0,1-.7,1.16,11.1,11.1,0,0,1-.9,1,5.66,5.66,0,0,0-.79,1,19.74,19.74,0,0,0-1.09,2.36,17.78,17.78,0,0,0-.83,2.43,14.78,14.78,0,0,0-.44,2.5,4.31,4.31,0,0,0,.26,1.33,10,10,0,0,1,.28,1.09c0.07,0.38.1,0.75,0.13,1.1a3.82,3.82,0,0,0,.23,1.24,4.44,4.44,0,0,0,1.17,1.17L71,200l0.42,0.36a4.37,4.37,0,0,0,1.39,1,8.09,8.09,0,0,0,2.37.3A1.4,1.4,0,0,1,75.14,204.47Z" transform="translate(-42.02 -125.88)"/><path class="cls-1" d="M217.44,240.41h-2a7.82,7.82,0,0,1-1.66-.2,7.2,7.2,0,0,0-1.13-.15,5.72,5.72,0,0,0-1.07.13,8.18,8.18,0,0,1-1.74.17c-0.54,0-1.06-.09-1.56-0.16s-0.83-.11-1.22-0.13a13.49,13.49,0,0,1-1.56-.2c-0.42-.07-0.82-0.14-1.21-0.17a6.9,6.9,0,0,0-1.12.06,9.16,9.16,0,0,1-1.69.06,7.49,7.49,0,0,1-1.68-.39,5.53,5.53,0,0,0-1.06-.27l-1.24-.09c-0.5,0-1-.06-1.54-0.11a7.6,7.6,0,0,0-1.14,0,9.75,9.75,0,0,1-1.66,0,13,13,0,0,1-1.54-.29,11.19,11.19,0,0,0-1.2-.24,9.2,9.2,0,0,0-1.18,0,11.31,11.31,0,0,1-1.61-.06c-0.5-.06-1-0.15-1.47-0.23s-0.86-.15-1.28-0.2-1-.17-1.49-0.28-0.84-.18-1.25-0.24a14.42,14.42,0,0,1-1.51-.32c-0.42-.1-0.83-0.2-1.21-0.26s-0.83-.09-1.27-0.13-1-.08-1.49-0.16-0.83-.09-1.27-0.13-1-.08-1.49-0.16l-1.7-.26-1-.16c-0.51-.08-1-0.19-1.47-0.3s-0.84-.2-1.25-0.26l-1.31-.19-1.44-.21a9.42,9.42,0,0,0-1.2-.08,11.58,11.58,0,0,1-1.58-.11,10.39,10.39,0,0,1-1.55-.41,8.26,8.26,0,0,0-1.14-.31,10,10,0,0,0-1.21-.09,12.2,12.2,0,0,1-1.56-.12,12,12,0,0,1-1.52-.38,9.75,9.75,0,0,0-1.17-.3,10,10,0,0,0-1.21-.09,12.27,12.27,0,0,1-1.56-.12,13.63,13.63,0,0,1-1.5-.36,11.32,11.32,0,0,0-1.2-.29l-1.4-.22-1.34-.21a9.1,9.1,0,0,0-1.2-.08,11.34,11.34,0,0,1-1.57-.11l-1.46-.22L141,231.2l-1.17-.19-1.56-.25-1.55-.23-1.18-.17-1.39-.24-1.31-.22-1.34-.22-1.35-.22a11.89,11.89,0,0,1-1.52-.35,9.19,9.19,0,0,0-1.15-.27c-0.41-.06-0.85-0.08-1.3-0.1s-0.94,0-1.42-.11l-1.17-.16-1.53-.21c-0.48-.06-1-0.09-1.46-0.13l-1.25-.1-2.69-.25a13.43,13.43,0,0,1-1.46-.22,9.44,9.44,0,0,0-1.21-.18,6.34,6.34,0,0,0-1.21.1,8.87,8.87,0,0,1-1.49.13c-0.77,0-1.54,0-2.28,0h-0.38c-0.43,0-.84,0-1.23,0a12,12,0,0,0-1.41,0,16.13,16.13,0,0,0-1.79.32l-0.76.16c-0.43.08-.83,0.13-1.22,0.17a6.61,6.61,0,0,0-1.31.22,14.32,14.32,0,0,0-2.32.94,10.77,10.77,0,0,0-1.94,1.48,5.69,5.69,0,0,0-.9,1.27c-0.14.24-.28,0.48-0.44,0.71A1.4,1.4,0,0,1,93,231.4c0.13-.2.25-0.41,0.37-0.61a7.94,7.94,0,0,1,1.42-1.9A13.3,13.3,0,0,1,97.23,227a16.56,16.56,0,0,1,2.79-1.15,8.75,8.75,0,0,1,1.9-.35c0.35,0,.68-0.07,1-0.13l0.71-.15a18.52,18.52,0,0,1,2.11-.37,14,14,0,0,1,1.75,0c0.37,0,.72,0,1.07,0h0.38c0.78,0,1.58-.05,2.42,0a6.29,6.29,0,0,0,1-.1,8.77,8.77,0,0,1,1.76-.13,11.7,11.7,0,0,1,1.59.23,11.15,11.15,0,0,0,1.16.18l2.75,0.26,1.16,0.09c0.51,0,1,.07,1.59.14l1.59,0.22,1.14,0.16c0.38,0,.78.07,1.2,0.09s1,0.05,1.54.13a11.35,11.35,0,0,1,1.52.35,9.63,9.63,0,0,0,1.17.28l1.42,0.23,1.29,0.21,1.39,0.24,1.31,0.22,1.17,0.17,1.57,0.23,1.58,0.25,1.16,0.18,1.25,0.19,1.49,0.23a9.12,9.12,0,0,0,1.19.07A11.32,11.32,0,0,1,147,229l1.31,0.2,1.43,0.22a13.51,13.51,0,0,1,1.5.36,11.37,11.37,0,0,0,1.2.29,10,10,0,0,0,1.21.09,12.26,12.26,0,0,1,1.56.12,12,12,0,0,1,1.52.38,9.78,9.78,0,0,0,1.18.3,10,10,0,0,0,1.21.09,12.23,12.23,0,0,1,1.56.12,10.45,10.45,0,0,1,1.55.4,8.2,8.2,0,0,0,1.14.31,9.34,9.34,0,0,0,1.21.08,11.71,11.71,0,0,1,1.56.11l1.39,0.2,1.34,0.2c0.51,0.08,1,.19,1.45.3s0.86,0.2,1.26.26l1,0.16,1.69,0.26c0.42,0.06.85,0.1,1.31,0.14s1,0.08,1.44.15,0.86,0.1,1.32.14,0.94,0.08,1.43.15a14.77,14.77,0,0,1,1.49.31,12.08,12.08,0,0,0,1.22.26c0.5,0.07,1,.17,1.45.27s0.87,0.18,1.27.24,0.93,0.14,1.38.22,0.91,0.16,1.35.21a9,9,0,0,0,1.22,0,11.7,11.7,0,0,1,1.55.05,13.58,13.58,0,0,1,1.5.29,10.78,10.78,0,0,0,1.21.24,7.45,7.45,0,0,0,1.19,0,9.64,9.64,0,0,1,1.59,0c0.46,0,.92.07,1.41,0.1s0.88,0.05,1.33.09a7.76,7.76,0,0,1,1.65.39,5.27,5.27,0,0,0,1.06.26,6.72,6.72,0,0,0,1.18-.06,9.3,9.3,0,0,1,1.59-.07,14.56,14.56,0,0,1,1.49.2,11.28,11.28,0,0,0,1.24.17c0.5,0,1,.09,1.44.15s0.89,0.12,1.3.13a5.55,5.55,0,0,0,1.14-.13,8.13,8.13,0,0,1,1.61-.17,9.49,9.49,0,0,1,1.6.2,6.6,6.6,0,0,0,1.13.15h1.13c0.56,0,1.1,0,1.62,0s0.94-.07,1.45-0.13,0.84-.1,1.27-0.12l1.06-.05c0.58,0,1.13,0,1.66-.1l0.94-.08c0.62-.05,1.2-0.1,1.75-0.18s1.4-.25,2.07-0.39l0.57-.12a7.48,7.48,0,0,0,1.28-.44,11.75,11.75,0,0,1,1.24-.46,1.4,1.4,0,0,1,.77,2.69,9.49,9.49,0,0,0-.95.35,9.84,9.84,0,0,1-1.78.6l-0.56.12c-0.72.15-1.47,0.31-2.25,0.42s-1.29.15-1.92,0.2l-0.91.08c-0.61.06-1.22,0.09-1.82,0.11l-1,0c-0.36,0-.73.06-1.12,0.11s-1.1.13-1.69,0.15h-0.77Z" transform="translate(-42.02 -125.88)"/><path class="cls-1" d="M337,189.12H337a11.64,11.64,0,0,1-1.74-.19,10.86,10.86,0,0,0-1.15-.15l-1,0c-0.6,0-1.22,0-1.84-.1a12.59,12.59,0,0,1-1.68-.29,11.69,11.69,0,0,0-1.16-.22l-1.07-.11c-0.58-.06-1.18-0.12-1.78-0.2-0.39-.05-0.8-0.08-1.23-0.1a15.18,15.18,0,0,1-1.63-.14,13,13,0,0,1-1.58-.38,11.36,11.36,0,0,0-1.2-.3l-1.3-.2-1.51-.24a8,8,0,0,0-1.2-.07,10.32,10.32,0,0,1-1.64-.12c-0.46-.08-0.92-0.18-1.36-0.27s-0.95-.2-1.41-0.28l-0.9-.15-1.89-.31-0.46-.07c-0.76-.12-1.54-0.23-2.32-0.34-0.5-.07-1-0.11-1.53-0.15l-1.26-.11c-0.64-.07-1.29-0.12-2-0.17l-0.82-.06a14.12,14.12,0,0,1-1.44-.21,10.52,10.52,0,0,0-1.33-.19l-1.19-.08c-0.56,0-1.08-.09-1.61-0.1a6.49,6.49,0,0,0-1.19.14,9.84,9.84,0,0,1-1.6.19,9.42,9.42,0,0,1-1.57-.15,6.37,6.37,0,0,0-1.23-.12l-1.15,0c-0.57,0-1.11,0-1.64.07a5.12,5.12,0,0,0-1.09.29,8,8,0,0,1-1.65.42,9.48,9.48,0,0,1-1.57,0,6.7,6.7,0,0,0-1.25,0,7.68,7.68,0,0,0-1.19.33,11.14,11.14,0,0,1-1.52.42,11.46,11.46,0,0,1-1.5.15,8.44,8.44,0,0,0-1.3.13,1.4,1.4,0,0,1-.59-2.73,10.76,10.76,0,0,1,1.74-.19,9.28,9.28,0,0,0,1.14-.1,8.85,8.85,0,0,0,1.14-.32,9.86,9.86,0,0,1,1.66-.44,9.07,9.07,0,0,1,1.79,0,7.28,7.28,0,0,0,1.12,0,5.74,5.74,0,0,0,1.08-.29,7.33,7.33,0,0,1,1.75-.43c0.62-.05,1.23-0.06,1.81-0.08l1.08,0a8.86,8.86,0,0,1,1.79.14,6.79,6.79,0,0,0,1.11.12,7.46,7.46,0,0,0,1.15-.15,8.53,8.53,0,0,1,1.74-.19c0.61,0,1.21.06,1.78,0.11l1.1,0.08a12.77,12.77,0,0,1,1.7.23c0.41,0.08.8,0.15,1.16,0.18l0.81,0.06c0.67,0.05,1.37.1,2.06,0.18l1.18,0.1c0.55,0,1.11.09,1.68,0.16,0.8,0.11,1.6.23,2.38,0.34l0.46,0.07L311,182.8l0.88,0.15c0.53,0.09,1,.19,1.53.3s0.85,0.18,1.27.25a8.11,8.11,0,0,0,1.21.08,10.19,10.19,0,0,1,1.64.12l1.44,0.23,1.36,0.21a13.54,13.54,0,0,1,1.5.37,10.69,10.69,0,0,0,1.25.31,12.81,12.81,0,0,0,1.33.11c0.48,0,1,.05,1.48.12s1.09,0.13,1.67.19l1.12,0.12a14,14,0,0,1,1.45.27,10.31,10.31,0,0,0,1.31.24c0.55,0,1.11.07,1.7,0.09l1.09,0a13.18,13.18,0,0,1,1.45.18,9.36,9.36,0,0,0,1.33.16,7,7,0,0,0,1.23-.15,10.43,10.43,0,0,1,1.56-.19c0.48,0,.95,0,1.4,0a10.59,10.59,0,0,0,1.39,0,12.55,12.55,0,0,0,1.39-.21c0.43-.08.88-0.17,1.36-0.22s0.93-.07,1.37-0.08a11.37,11.37,0,0,0,1.41-.1l0.94-.14c0.6-.09,1.22-0.18,1.82-0.3s1.15-.27,1.77-0.42l0.94-.24a9,9,0,0,0,1.22-.44,13.23,13.23,0,0,1,1.41-.52,1.4,1.4,0,0,1,.77,2.69,10.89,10.89,0,0,0-1.12.42,11.21,11.21,0,0,1-1.62.57l-0.91.23c-0.62.16-1.27,0.33-1.91,0.46s-1.33.23-2,.32l-0.9.13a13.65,13.65,0,0,1-1.77.13c-0.4,0-.78,0-1.14.06s-0.76.11-1.16,0.19a14.87,14.87,0,0,1-1.71.25,12.91,12.91,0,0,1-1.76,0c-0.4,0-.79,0-1.14,0a8.09,8.09,0,0,0-1.14.15A9.53,9.53,0,0,1,337,189.12Z" transform="translate(-42.02 -125.88)"/><path class="cls-1" d="M249.58,238.86a10.85,10.85,0,0,1-1.6-.12,7.14,7.14,0,0,1-2.79-1.19l-0.29-.18a6.45,6.45,0,0,1-2.41-2.45l-0.19-.34a6.14,6.14,0,0,1-1-2.94,7.42,7.42,0,0,1,.54-2.59c0.07-.21.15-0.43,0.21-0.64a14.43,14.43,0,0,1,1.27-2.85c0.13-.22.25-0.48,0.38-0.75a10,10,0,0,1,1.13-1.93l0.17-.21a27.07,27.07,0,0,1,1.75-2.08,10.07,10.07,0,0,1,1.52-1.23c0.3-.21.59-0.41,0.83-0.62s0.5-.47.76-0.74a10,10,0,0,1,1.43-1.29,9,9,0,0,1,1.69-.87,9,9,0,0,0,1-.45c0.78-.45,1.58-0.83,2.35-1.2l0.54-.26c0.76-.37,1.55-0.75,2.38-1.08,0.6-.24,1.21-0.42,1.79-0.59l1-.3a9.62,9.62,0,0,0,1-.44,10.38,10.38,0,0,1,1.66-.66c0.35-.1.7-0.22,1.08-0.34,0.54-.18,1.1-0.37,1.69-0.51a8.83,8.83,0,0,1,1.75-.18,7.4,7.4,0,0,0,1.14-.09c0.37-.07.75-0.19,1.15-0.31a13.6,13.6,0,0,1,1.63-.41l1.17-.22c0.53-.11,1.08-0.22,1.65-0.3s1.07-.13,1.59-0.17,0.84-.07,1.25-0.13,1.06-.1,1.57-0.12,0.87,0,1.27-.09a10.68,10.68,0,0,0,1.22-.25,12.7,12.7,0,0,1,1.57-.32c0.49-.06,1-0.1,1.45-0.14s0.92-.08,1.37-0.13,0.86-.14,1.32-0.24,1-.2,1.46-0.26,0.94-.1,1.39-0.14,1-.08,1.42-0.15,1-.17,1.55-0.26l1.21-.22c0.47-.08.93-0.12,1.37-0.17s1-.1,1.4-0.18,1.09-.24,1.66-0.38l1-.25c0.45-.1.89-0.17,1.32-0.24a13.21,13.21,0,0,0,1.4-.27c0.52-.14,1-0.33,1.57-0.53l1-.37c0.44-.15.87-0.25,1.28-0.36a9.65,9.65,0,0,0,1.35-.4c0.69-.29,1.39-0.66,2.07-1l0.36-.19a26.53,26.53,0,0,0,2.34-1.34,7.67,7.67,0,0,0,1.09-1c0.28-.28.56-0.56,0.88-0.84a10.77,10.77,0,0,1,1.08-.79,5.72,5.72,0,0,0,1.06-.82,8.35,8.35,0,0,0,.86-1.27c0.19-.31.38-0.64,0.6-1a11.45,11.45,0,0,0,.82-1.52c0.13-.27.26-0.55,0.4-0.82a1.4,1.4,0,0,1,2.49,1.27c-0.13.25-.25,0.5-0.37,0.75a13.67,13.67,0,0,1-1,1.9c-0.17.25-.34,0.53-0.51,0.82a10.56,10.56,0,0,1-1.18,1.71,8,8,0,0,1-1.59,1.28,8.59,8.59,0,0,0-.81.58c-0.24.2-.47,0.44-0.72,0.68a10,10,0,0,1-1.52,1.33,28.64,28.64,0,0,1-2.59,1.48l-0.36.19c-0.73.39-1.49,0.79-2.3,1.13a11.88,11.88,0,0,1-1.76.54c-0.38.09-.73,0.18-1.06,0.29l-0.94.34c-0.57.22-1.17,0.44-1.81,0.61a15.45,15.45,0,0,1-1.71.34c-0.4.06-.78,0.12-1.14,0.2l-1,.24c-0.58.14-1.19,0.29-1.81,0.41s-1.11.16-1.64,0.21-0.82.08-1.21,0.14l-1.15.2c-0.54.1-1.1,0.2-1.67,0.28s-1.06.12-1.57,0.16-0.85.07-1.27,0.13-0.82.14-1.25,0.23-1,.21-1.55.27-1,.1-1.47.14-0.91.07-1.35,0.13a10.51,10.51,0,0,0-1.23.26,13,13,0,0,1-1.55.31c-0.51.06-1,.09-1.47,0.11s-0.92,0-1.34.1-0.93.1-1.38,0.14-1,.08-1.42.15-1,.17-1.51.28l-1.25.24a11.34,11.34,0,0,0-1.3.34c-0.45.13-.91,0.27-1.41,0.37a9.72,9.72,0,0,1-1.59.14,6.57,6.57,0,0,0-1.21.11c-0.47.11-.94,0.27-1.44,0.44s-0.8.27-1.22,0.38a8,8,0,0,0-1.21.5,11.88,11.88,0,0,1-1.35.57l-1.06.33c-0.55.16-1.06,0.32-1.55,0.51-0.74.29-1.45,0.64-2.2,1l-0.55.26c-0.76.36-1.47,0.7-2.15,1.1a11.2,11.2,0,0,1-1.28.61,6.64,6.64,0,0,0-1.18.59,7.84,7.84,0,0,0-1,.95c-0.29.3-.6,0.62-0.95,0.91s-0.69.54-1,.78a7.69,7.69,0,0,0-1.11.88c-0.54.56-1,1.19-1.56,1.87l-0.17.22a7.61,7.61,0,0,0-.81,1.42c-0.15.3-.29,0.61-0.47,0.91a11.7,11.7,0,0,0-1,2.3c-0.08.24-.16,0.48-0.24,0.71a5.51,5.51,0,0,0-.4,1.61,3.81,3.81,0,0,0,.65,1.63l0.21,0.38a3.68,3.68,0,0,0,1.42,1.41l0.31,0.19a4.63,4.63,0,0,0,1.71.79,8.85,8.85,0,0,0,2.47,0l0.21,0a11.7,11.7,0,0,0,2.33-.47,4.91,4.91,0,0,0,1-.64,10.87,10.87,0,0,1,1.2-.78,10.51,10.51,0,0,1,1.17-.51,6,6,0,0,0,1.27-.61,8.34,8.34,0,0,0,1-1c0.29-.3.6-0.61,0.94-0.91a12.76,12.76,0,0,1,1-.79,8,8,0,0,0,1.13-.9,9.85,9.85,0,0,0,.86-1.11c0.25-.35.51-0.72,0.81-1.08l0.35-.42c0.46-.55.94-1.13,1.38-1.73,0.25-.35.52-0.67,0.78-1a12.39,12.39,0,0,0,.93-1.21,8.59,8.59,0,0,0,.58-1.17,13.36,13.36,0,0,1,.65-1.35,13.71,13.71,0,0,1,.77-1.17,9.79,9.79,0,0,0,.76-1.17,1.4,1.4,0,1,1,2.49,1.28,12.2,12.2,0,0,1-1,1.52c-0.23.33-.45,0.63-0.62,0.93a11.18,11.18,0,0,0-.51,1.07,10.76,10.76,0,0,1-.79,1.56,14.74,14.74,0,0,1-1.13,1.49c-0.24.29-.47,0.57-0.67,0.84-0.49.68-1,1.29-1.5,1.88l-0.34.41c-0.23.28-.45,0.59-0.68,0.91a12,12,0,0,1-1.13,1.43,10.34,10.34,0,0,1-1.53,1.25c-0.3.21-.58,0.41-0.81,0.61s-0.52.49-.79,0.76a10.49,10.49,0,0,1-1.42,1.28,8.36,8.36,0,0,1-1.87.93,8.35,8.35,0,0,0-.87.37,8.45,8.45,0,0,0-.89.59,7,7,0,0,1-1.75,1,14.08,14.08,0,0,1-2.88.6l-0.21,0A12.49,12.49,0,0,1,249.58,238.86Z" transform="translate(-42.02 -125.88)"/><path class="cls-1" d="M229.36,220.17a5,5,0,0,1-3.74-1.62,6,6,0,0,1-1.48-3.55,11.59,11.59,0,0,1,.19-3.4c0-.25.08-0.53,0.12-0.82a10.48,10.48,0,0,1,.51-2.4,16.69,16.69,0,0,1,1-2.11l0.41-.77,0.31-.61a21.26,21.26,0,0,1,1.11-2,9.78,9.78,0,0,1,1.25-1.48c0.26-.27.51-0.53,0.71-0.78a20.41,20.41,0,0,1,1.51-1.66l0.5-.51,0.53-.57a13.92,13.92,0,0,1,3.63-3l0.39-.25a9,9,0,0,0,.82-0.63,6.55,6.55,0,0,1,1.77-1.15,9.18,9.18,0,0,1,3.35-.58,5.3,5.3,0,0,1,3.6,1.41,5.48,5.48,0,0,1,1.82,3.35,9.7,9.7,0,0,1-.22,3.15l0,0.21c0,0.23-.07.5-0.1,0.78a9.58,9.58,0,0,1-.48,2.36,8.19,8.19,0,0,1-1,1.72,10.24,10.24,0,0,0-.61,1,1.4,1.4,0,1,1-2.48-1.28,12.75,12.75,0,0,1,.77-1.26,6.13,6.13,0,0,0,.66-1.13,7.19,7.19,0,0,0,.33-1.7c0-.31.07-0.64,0.13-1l0-.21a7.82,7.82,0,0,0,.21-2.24,2.72,2.72,0,0,0-.92-1.68,2.52,2.52,0,0,0-1.74-.71,6.41,6.41,0,0,0-2.33.39,4.62,4.62,0,0,0-1,.71,11.45,11.45,0,0,1-1.08.82l-0.41.26a15.26,15.26,0,0,0-1.76,1.24,15.49,15.49,0,0,0-1.31,1.32l-0.56.61-0.52.54a18.15,18.15,0,0,0-1.31,1.44,12.77,12.77,0,0,1-.9,1,7.45,7.45,0,0,0-.91,1.05,18.76,18.76,0,0,0-1,1.76l-0.32.64-0.43.81a14.51,14.51,0,0,0-.86,1.75,8.06,8.06,0,0,0-.36,1.78c0,0.32-.08.65-0.14,1a9,9,0,0,0-.16,2.58,3.29,3.29,0,0,0,.73,1.93,2.28,2.28,0,0,0,1.71.74,6.78,6.78,0,0,0,2.1-.51,7.53,7.53,0,0,0,1.34-.76l0.69-.44a18.54,18.54,0,0,0,2-1.42,9.23,9.23,0,0,1,1.09-.73,5.38,5.38,0,0,0,1-.7,1.4,1.4,0,0,1,2,2,7.66,7.66,0,0,1-1.53,1.11,7.14,7.14,0,0,0-.77.5,21.21,21.21,0,0,1-2.28,1.63l-0.62.4a9.61,9.61,0,0,1-1.9,1A9.08,9.08,0,0,1,229.36,220.17Z" transform="translate(-42.02 -125.88)"/><path class="cls-1" d="M109.25,245.79c-0.46,0-.9,0-1.32,0s-0.63,0-1,0a11.81,11.81,0,0,1-1.94-.11,13.48,13.48,0,0,1-2-.55l-0.78-.25-0.7-.19A14.59,14.59,0,0,1,99.4,244a11.27,11.27,0,0,1-1.94-1.16l-0.6-.41-0.42-.27a11.37,11.37,0,0,1-2-1.53,10.22,10.22,0,0,1-2-2.56,7.23,7.23,0,0,1-.69-3.38,6.38,6.38,0,0,1,1.17-3.1l0.05-.08a1.4,1.4,0,1,1,2.4,1.43l-0.05.09a4.36,4.36,0,0,0-.77,1.75,4.49,4.49,0,0,0,.4,2.07,7.92,7.92,0,0,0,1.45,1.83,9.25,9.25,0,0,0,1.56,1.14L98.39,240l0.68,0.46a8.84,8.84,0,0,0,1.46.89,12.4,12.4,0,0,0,1.71.54l0.75,0.21,0.88,0.28a11,11,0,0,0,1.61.45c0.74,0.12,1.64,0,2.61.1a25.35,25.35,0,0,0,2.6,0,19.28,19.28,0,0,0,2-.24l0.59-.09c0.81-.12,1.65-0.29,2.55-0.51l0.45-.11c0.72-.17,1.4-0.34,2.07-0.57s1.62-.6,2.43-1,1.48-.71,2.34-1.19c0.71-.39,1.44-0.84,2.24-1.38l0,0c0.71-.47,1.44-1,2.13-1.5s1.42-1.15,2-1.7c0.32-.29.65-0.55,1-0.79a9.78,9.78,0,0,0,1.08-.91,1.4,1.4,0,0,1,2,1.94,12.22,12.22,0,0,1-1.38,1.18c-0.29.22-.57,0.43-0.8,0.65-0.66.6-1.37,1.19-2.18,1.83s-1.55,1.12-2.3,1.63-1.68,1.08-2.46,1.51c-0.93.52-1.76,0.94-2.55,1.29s-1.78.75-2.66,1.06-1.58.46-2.33,0.65l-0.44.11c-1,.24-1.91.43-2.81,0.56l-0.57.09a21.73,21.73,0,0,1-2.28.27C110.27,245.77,109.75,245.79,109.25,245.79Z" transform="translate(-42.02 -125.88)"/><path class="cls-1" d="M139.1,225.91a1.4,1.4,0,0,1-1.16-2.18,6.17,6.17,0,0,0,.49-1,9.93,9.93,0,0,1,.63-1.3c0.23-.38.48-0.72,0.73-1.05a9.49,9.49,0,0,0,.71-1.06c0.28-.51.53-1,0.8-1.61l0.33-.68a1.4,1.4,0,1,1,2.52,1.22l-0.32.66c-0.27.58-.56,1.17-0.87,1.75A11.71,11.71,0,0,1,142,222c-0.22.29-.42,0.57-0.59,0.84a7.54,7.54,0,0,0-.45.94,8.45,8.45,0,0,1-.75,1.49A1.4,1.4,0,0,1,139.1,225.91Z" transform="translate(-42.02 -125.88)"/><path class="cls-1" d="M200.87,218a1.4,1.4,0,0,1-1.35-1,6.68,6.68,0,0,1,0-3.41,5.12,5.12,0,0,1,1.95-3.16,10.06,10.06,0,0,1,3-1.28l0.62-.18a14.54,14.54,0,0,1,2.32-.56,8,8,0,0,1,1.76,0,7.89,7.89,0,0,0,1.17,0l0.95-.07c0.61-.05,1.24-0.1,1.9-0.13l1.81,0h1c0.41,0,.83,0,1.27-0.07s1-.07,1.55-0.07l1.46,0,1.35,0a14,14,0,0,1,1.5.08,11.57,11.57,0,0,0,1.3.07c0.42,0,.87-0.07,1.34-0.13s0.94-.12,1.45-0.14,1-.08,1.49-0.14,0.84-.09,1.28-0.13,1.06-.11,1.62-0.18l1.13-.14c0.48-.05.94-0.06,1.38-0.07a11.88,11.88,0,0,0,1.38-.09l1.11-.14c0.57-.07,1.11-0.13,1.62-0.23a9.82,9.82,0,0,0,1.34-.41c0.41-.15.83-0.3,1.28-0.41,0.61-.16,1.21-0.37,1.85-0.59l0.73-.25a10.54,10.54,0,0,1,1.41-.34,6.24,6.24,0,0,0,1.23-.32,6.14,6.14,0,0,0,1.1-.71,10.61,10.61,0,0,1,1.16-.78l0.84-.45a11.94,11.94,0,0,0,1.47-.85,21.35,21.35,0,0,0,2.08-1.63,9.88,9.88,0,0,0,1.06-1.25c0.2-.26.4-0.52,0.61-0.78s0.54-.59.8-0.87a7.16,7.16,0,0,0,1-1.11,18.89,18.89,0,0,0,1.06-2.06l0.35-.75a18.86,18.86,0,0,0,.86-2,15.82,15.82,0,0,0,.44-1.75c0.06-.29.12-0.58,0.19-0.86a1.4,1.4,0,1,1,2.72.63c-0.06.27-.12,0.54-0.18,0.81a18.16,18.16,0,0,1-.52,2.07,21.08,21.08,0,0,1-1,2.31l-0.34.73a21.26,21.26,0,0,1-1.23,2.37,9.5,9.5,0,0,1-1.33,1.58c-0.24.24-.46,0.47-0.65,0.69s-0.37.46-.54,0.69a12.14,12.14,0,0,1-1.39,1.6,23.64,23.64,0,0,1-2.35,1.84,14.21,14.21,0,0,1-1.83,1.06l-0.76.4a8.39,8.39,0,0,0-.85.58,6.67,6.67,0,0,1-3.46,1.52,8.32,8.32,0,0,0-1,.25l-0.7.24c-0.66.23-1.34,0.47-2.07,0.66-0.33.09-.68,0.21-1,0.34a12.09,12.09,0,0,1-1.73.52c-0.62.12-1.24,0.2-1.84,0.27l-1,.13a14.14,14.14,0,0,1-1.71.12c-0.41,0-.79,0-1.16.06l-1.07.13c-0.57.07-1.17,0.15-1.78,0.2l-1.17.12c-0.54.06-1.1,0.12-1.67,0.15-0.4,0-.8.07-1.23,0.12s-1,.13-1.6.15a13.77,13.77,0,0,1-1.63-.08,12.05,12.05,0,0,0-1.21-.07l-1.31,0-1.51,0c-0.46,0-.91,0-1.4.07s-0.94.06-1.41,0.07H215l-1.74,0c-0.59,0-1.19.07-1.76,0.12l-1,.08a10.34,10.34,0,0,1-1.59,0,5.87,5.87,0,0,0-1.16,0,12.19,12.19,0,0,0-1.88.46l-0.67.2a7.81,7.81,0,0,0-2.19.88,2.36,2.36,0,0,0-.83,1.54,3.88,3.88,0,0,0,0,2A1.4,1.4,0,0,1,200.87,218Z" transform="translate(-42.02 -125.88)"/></svg>